<?xml version="1.0" encoding="UTF-8" standalone="no"?>
<!-- Created with Inkscape (http://www.inkscape.org/) -->

<svg
   xmlns:dc="http://purl.org/dc/elements/1.1/"
   xmlns:cc="http://creativecommons.org/ns#"
   xmlns:rdf="http://www.w3.org/1999/02/22-rdf-syntax-ns#"
   xmlns:svg="http://www.w3.org/2000/svg"
   xmlns="http://www.w3.org/2000/svg"
   xmlns:sodipodi="http://sodipodi.sourceforge.net/DTD/sodipodi-0.dtd"
   xmlns:inkscape="http://www.inkscape.org/namespaces/inkscape"
   id="svg4136"
   version="1.1"
   inkscape:version="0.91 r13725"
   xml:space="preserve"
   width="89.036697mm"
   height="83.001854mm"
   viewBox="0 0 315.48436 294.10104"
   sodipodi:docname="wymiary_wtyczka_obd.svg"><metadata
     id="metadata4142"><rdf:RDF><cc:Work
         rdf:about=""><dc:format>image/svg+xml</dc:format><dc:type
           rdf:resource="http://purl.org/dc/dcmitype/StillImage" /><dc:title></dc:title></cc:Work></rdf:RDF></metadata><defs
     id="defs4140" /><sodipodi:namedview
     pagecolor="#ffffff"
     bordercolor="#666666"
     borderopacity="1"
     objecttolerance="10"
     gridtolerance="10"
     guidetolerance="10"
     inkscape:pageopacity="0"
     inkscape:pageshadow="2"
     inkscape:window-width="1366"
     inkscape:window-height="705"
     id="namedview4138"
     showgrid="false"
     units="mm"
     fit-margin-top="0"
     fit-margin-left="0"
     fit-margin-right="0"
     fit-margin-bottom="0"
     inkscape:zoom="1.0186603"
     inkscape:cx="267.27878"
     inkscape:cy="217.22439"
     inkscape:window-x="1432"
     inkscape:window-y="333"
     inkscape:window-maximized="1"
     inkscape:current-layer="g4144" /><g
     id="g4144"
     inkscape:groupmode="layer"
     inkscape:label="wtyczka"
     transform="matrix(1.25,0,0,-1.25,10.294947,304.88791)"><g
       id="g4546"
       transform="matrix(1.1261514,0,0,1.1261514,-253.67328,-448.40933)"><text
         id="text4146"
         style="font-variant:normal;font-weight:normal;font-stretch:normal;font-size:13.22830009px;font-family:'Century Gothic';-inkscape-font-specification:CenturyGothic;writing-mode:lr-tb;fill:#808080;fill-opacity:1;fill-rule:nonzero;stroke:none"
         transform="matrix(1.000301,0,0,-1,301.68114,605.0257)"><tspan
           id="tspan4148"
           sodipodi:role="line"
           y="0"
           x="0 7.3306842 14.661368">45 </tspan><tspan
           id="tspan4150"
           sodipodi:role="line"
           y="19.181034"
           x="-1.1244055 6.2062788 13.536963">35 </tspan></text>
<text
         id="text4152"
         style="font-variant:normal;font-weight:normal;font-stretch:normal;font-size:13.22830009px;font-family:'Century Gothic';-inkscape-font-specification:CenturyGothic;writing-mode:lr-tb;fill:#808080;fill-opacity:1;fill-rule:nonzero;stroke:none"
         transform="matrix(0,1.000301,1,0,399.2681,487.57394)"><tspan
           id="tspan4154"
           sodipodi:role="line"
           y="0"
           x="0 7.3306842 14.661368 18.32671 25.657394">76,5 </tspan></text>
<text
         id="text4156"
         style="font-variant:normal;font-weight:normal;font-stretch:normal;font-size:13.22830009px;font-family:'Century Gothic';-inkscape-font-specification:CenturyGothic;writing-mode:lr-tb;fill:#808080;fill-opacity:1;fill-rule:nonzero;stroke:none"
         transform="matrix(0,1.000301,1,0,227.68382,504.77073)"><tspan
           id="tspan4158"
           sodipodi:role="line"
           y="0"
           x="0 7.3306842 14.661368">34 </tspan></text>
<text
         id="text4160"
         style="font-variant:normal;font-weight:normal;font-stretch:normal;font-size:13.22830009px;font-family:'Century Gothic';-inkscape-font-specification:CenturyGothic;writing-mode:lr-tb;fill:#808080;fill-opacity:1;fill-rule:nonzero;stroke:none"
         transform="matrix(1.000301,0,0,-1,300.55754,420.7041)"><tspan
           id="tspan4162"
           sodipodi:role="line"
           y="0"
           x="0 7.3306842 14.661368">18 </tspan><tspan
           id="tspan4164"
           sodipodi:role="line"
           y="-82.571053"
           x="0 7.3306842 14.661368">37 </tspan><tspan
           id="tspan4166"
           sodipodi:role="line"
           y="-63.270958"
           x="-0.70109987 6.6295843 13.960268">20 </tspan></text>
<g
         transform="translate(287.1,526.9)"
         id="g4168"><path
           inkscape:connector-curvature="0"
           id="path4170"
           style="fill:none;stroke:#808080;stroke-width:0.50999999;stroke-linecap:butt;stroke-linejoin:miter;stroke-miterlimit:10;stroke-dasharray:none;stroke-opacity:1"
           d="M 0,0 -0.4,0.4 -0.7,0.7 -1.1,1.1 -1.5,1.3 -2,1.5 -2.5,1.7 -2.9,1.8 -3.5,1.9 -4,1.9 -4.5,1.8 -4.9,1.7 -5.4,1.5 -5.9,1.3 -6.3,1 -6.7,0.7 -7,0.3 -7.3,-0.1 -7.6,-0.5 -7.8,-1 -7.9,-1.5 -8,-2 -8.1,-2.5 -8,-3 l 0,-0.5 0.2,-0.4 0.2,-0.5 0.2,-0.5 0.3,-0.4 0.3,-0.3 0.4,-0.4 0.4,-0.3 0.4,-0.2 0.5,-0.2 0.5,-0.1 0.5,-0.1 0.5,0 0.5,0 0.5,0.1 0.5,0.1 0.4,0.2 0.5,0.3 0.4,0.3 0.3,0.3 0.4,0.4 0.2,0.4 0.3,0.5 0.2,0.5 0.1,0.4 0,0.5 0.1,0.5 L 0.7,-1.9 0.6,-1.4 0.4,-0.9 0.2,-0.4 0,0 M -2.1,-9.1 -5.2,4.1" /></g><text
         id="text4172"
         style="font-variant:normal;font-weight:normal;font-stretch:normal;font-size:13.22829342px;font-family:'Century Gothic';-inkscape-font-specification:CenturyGothic;writing-mode:lr-tb;fill:#808080;fill-opacity:1;fill-rule:nonzero;stroke:none"
         transform="matrix(0.81943765,0.57369332,0.57352069,-0.81919108,292.2392,524.6169)"><tspan
           id="tspan4174"
           sodipodi:role="line"
           y="0"
           x="0 7.3306804">4 </tspan></text>
<g
         transform="translate(430.4,446.5)"
         id="g4176"><path
           inkscape:connector-curvature="0"
           id="path4178"
           style="fill:none;stroke:#808080;stroke-width:0.50999999;stroke-linecap:butt;stroke-linejoin:miter;stroke-miterlimit:10;stroke-dasharray:none;stroke-opacity:1"
           d="M 0,0 0.1,0.5 0.2,1 0.1,1.5 0.1,2 0,2.5 -0.2,2.9 -0.5,3.4 -0.7,3.8 -1.1,4.2 -1.4,4.5 -1.8,4.8 -2.3,5.1 -2.7,5.3 -3.2,5.4 -3.7,5.5 -4.2,5.5 -4.7,5.5 -5.2,5.4 -5.7,5.3 -6.2,5.1 -6.6,4.8 -7,4.5 -7.4,4.2 -7.7,3.8 -8,3.4 -8.3,3 -8.4,2.5 -8.6,2 -8.6,1.5 -8.7,1 -8.6,0.5 -8.5,0 l 0.1,-0.5 0.2,-0.4 0.3,-0.5 0.3,-0.4 0.4,-0.3 0.3,-0.3 0.5,-0.3 0.4,-0.2 0.5,-0.2 0.5,-0.1 0.5,-0.1 0.5,0 0.5,0.1 0.5,0.1 0.4,0.1 0.5,0.3 0.4,0.2 0.4,0.4 0.4,0.3 0.3,0.4 0.2,0.4 0.3,0.5 L 0,0 m -8.3,-4.3 8.1,10.8" /></g><text
         id="text4180"
         style="font-variant:normal;font-weight:normal;font-stretch:normal;font-size:13.22835827px;font-family:'Century Gothic';-inkscape-font-specification:CenturyGothic;writing-mode:lr-tb;fill:#808080;fill-opacity:1;fill-rule:nonzero;stroke:none"
         transform="matrix(0.96621461,-0.25890039,-0.25882274,-0.96592484,431.9737,441.0962)"><tspan
           id="tspan4182"
           sodipodi:role="line"
           y="0"
           x="0 7.330709">4 </tspan></text>
<text
         id="text4184"
         style="font-variant:normal;font-weight:normal;font-stretch:normal;font-size:13.22830009px;font-family:'Century Gothic';-inkscape-font-specification:CenturyGothic;writing-mode:lr-tb;fill:#808080;fill-opacity:1;fill-rule:nonzero;stroke:none"
         transform="matrix(0,1.000301,1,0,244.69,576.29234)"><tspan
           id="tspan4186"
           sodipodi:role="line"
           y="0"
           x="0 7.3306842 14.661368 -166.43848 -159.10779 -151.7771">13 15 </tspan></text>
<text
         id="text4188"
         style="font-variant:normal;font-weight:normal;font-stretch:normal;font-size:13.22830009px;font-family:'Century Gothic';-inkscape-font-specification:CenturyGothic;writing-mode:lr-tb;fill:#808080;fill-opacity:1;fill-rule:nonzero;stroke:none"
         transform="matrix(0,1.000301,1,0,365.25273,467.02658)"><tspan
           id="tspan4190"
           sodipodi:role="line"
           y="0"
           x="0 7.3306842 14.661368 18.32671 25.657394">47,5 </tspan></text>
<g
         transform="translate(322,481.1)"
         id="g4356"><path
           inkscape:connector-curvature="0"
           id="path4358"
           style="fill:none;stroke:#808080;stroke-width:0.50999999;stroke-linecap:butt;stroke-linejoin:miter;stroke-miterlimit:10;stroke-dasharray:none;stroke-opacity:1"
           d="M 0,0 9.4,1.4 9.4,-1.5 0,0 m -28.3,0 -9.4,-1.5 0,2.9 9.4,-1.4" /></g><g
         transform="translate(283,582.9)"
         id="g4360"><path
           inkscape:connector-curvature="0"
           id="path4362"
           style="fill:none;stroke:#808080;stroke-width:0.50999999;stroke-linecap:butt;stroke-linejoin:miter;stroke-miterlimit:10;stroke-dasharray:none;stroke-opacity:1"
           d="m 0,0 -9.3,-1.4 0,2.9 L 0,0 M 49.6,0 59,1.5 59,-1.4 49.6,0 m -37.5,-165.1 -9.4,-1.5 0,2.9 9.4,-1.4 m 25.5,0 9.4,1.4 0,-2.9 -9.4,1.5 m -39,82.6 -9.3,-1.5 0,2.9 9.3,-1.4 m 52.5,0 9.3,1.4 0,-2.9 -9.3,1.5" /></g><g
         transform="translate(339.7,602.1)"
         id="g4364"><path
           inkscape:connector-curvature="0"
           id="path4366"
           style="fill:none;stroke:#808080;stroke-width:0.50999999;stroke-linecap:butt;stroke-linejoin:miter;stroke-miterlimit:10;stroke-dasharray:none;stroke-opacity:1"
           d="m 0,0 -9.3,-1.4 0,2.8 L 0,0 m -63.8,0 9.3,1.4 0,-2.8 -9.3,1.4" /></g><g
         transform="translate(283.9,515.1)"
         id="g4368"><path
           inkscape:connector-curvature="0"
           id="path4370"
           style="fill:none;stroke:#808080;stroke-width:0.50999999;stroke-linecap:butt;stroke-linejoin:miter;stroke-miterlimit:10;stroke-dasharray:none;stroke-opacity:1"
           d="M 0,0 8.5,4.2 6.9,6.5 0,0" /></g><g
         transform="translate(247.5,446.1)"
         id="g4372"><path
           inkscape:connector-curvature="0"
           id="path4374"
           style="fill:none;stroke:#808080;stroke-width:0.50999999;stroke-linecap:butt;stroke-linejoin:miter;stroke-miterlimit:10;stroke-dasharray:none;stroke-opacity:1"
           d="M 0,0 -1.4,9.4 1.5,9.4 0,0 m 0,21.3 1.5,-9.4 -2.9,0 1.4,9.4 M 120.6,0 l 1.4,-9.3 -2.9,0 1.5,9.3 m 0,67.4 -1.5,9.3 2.9,0 -1.4,-9.3" /></g><g
         transform="translate(402.1,446.1)"
         id="g4376"><path
           inkscape:connector-curvature="0"
           id="path4378"
           style="fill:none;stroke:#808080;stroke-width:0.50999999;stroke-linecap:butt;stroke-linejoin:miter;stroke-miterlimit:10;stroke-dasharray:none;stroke-opacity:1"
           d="M 0,0 -1.4,9.4 1.4,9.4 0,0 m 0,108.5 1.4,-9.4 -2.8,0 1.4,9.4" /></g><g
         transform="translate(230.5,536.2)"
         id="g4380"><path
           inkscape:connector-curvature="0"
           id="path4382"
           style="fill:none;stroke:#808080;stroke-width:0.50999999;stroke-linecap:butt;stroke-linejoin:miter;stroke-miterlimit:10;stroke-dasharray:none;stroke-opacity:1"
           d="M 0,0 -1.4,9.3 1.4,9.3 0,0 m 0,-48.2 1.4,-9.4 -2.8,0 1.4,9.4 m 17,66.6 -1.4,9.3 2.9,0 L 17,18.4 M 17,0 18.5,-9.4 15.6,-9.4 17,0" /></g><g
         transform="translate(324.7,466.7)"
         id="g4384"><path
           inkscape:connector-curvature="0"
           id="path4386"
           style="fill:none;stroke:#808080;stroke-width:0.50999999;stroke-linecap:butt;stroke-linejoin:miter;stroke-miterlimit:10;stroke-dasharray:none;stroke-opacity:1"
           d="M 0,0 8.7,-3.9 9.5,-1.1 0,0" /></g><g
         transform="translate(307.8434,566.5916)"
         id="g4388"><path
           inkscape:connector-curvature="0"
           id="path4390"
           style="fill:none;stroke:#000000;stroke-width:0.50999999;stroke-linecap:round;stroke-linejoin:round;stroke-miterlimit:10;stroke-dasharray:43.2, 3.6, 3.6, 3.6;stroke-dashoffset:14.11600018;stroke-opacity:1"
           d="M 0,0 0,-122.967" /></g><g
         transform="translate(334.1088,517.0679)"
         id="g4392"><path
           inkscape:connector-curvature="0"
           id="path4394"
           style="fill:none;stroke:#000000;stroke-width:0.50999999;stroke-linecap:round;stroke-linejoin:round;stroke-miterlimit:10;stroke-dasharray:43.2, 3.6, 3.6, 3.6;stroke-dashoffset:0;stroke-opacity:1"
           d="M 0,0 0,2.835" /></g><g
         transform="translate(330.5655,513.5247)"
         id="g4396"><path
           inkscape:connector-curvature="0"
           id="path4398"
           style="fill:none;stroke:#000000;stroke-width:0.50999999;stroke-linecap:round;stroke-linejoin:round;stroke-miterlimit:10;stroke-dasharray:43.2, 3.6, 3.6, 3.6;stroke-dashoffset:0;stroke-opacity:1"
           d="M 0,0 -2.835,0" /></g><g
         transform="translate(334.1088,509.9813)"
         id="g4400"><path
           inkscape:connector-curvature="0"
           id="path4402"
           style="fill:none;stroke:#000000;stroke-width:0.50999999;stroke-linecap:round;stroke-linejoin:round;stroke-miterlimit:10;stroke-dasharray:43.2, 3.6, 3.6, 3.6;stroke-dashoffset:0;stroke-opacity:1"
           d="M 0,0 0,-2.835" /></g><g
         transform="translate(337.6521,513.5247)"
         id="g4404"><path
           inkscape:connector-curvature="0"
           id="path4406"
           style="fill:none;stroke:#000000;stroke-width:0.50999999;stroke-linecap:round;stroke-linejoin:round;stroke-miterlimit:10;stroke-dasharray:43.2, 3.6, 3.6, 3.6;stroke-dashoffset:0;stroke-opacity:1"
           d="M 0,0 2.835,0" /></g><g
         transform="translate(322.0615,470.9815)"
         id="g4408"><path
           inkscape:connector-curvature="0"
           id="path4410"
           style="fill:none;stroke:#000000;stroke-width:0.50999999;stroke-linecap:round;stroke-linejoin:round;stroke-miterlimit:10;stroke-dasharray:43.2, 3.6, 3.6, 3.6;stroke-dashoffset:0;stroke-opacity:1"
           d="M 0,0 0,2.835" /></g><g
         transform="translate(318.5182,467.4382)"
         id="g4412"><path
           inkscape:connector-curvature="0"
           id="path4414"
           style="fill:none;stroke:#000000;stroke-width:0.50999999;stroke-linecap:round;stroke-linejoin:round;stroke-miterlimit:10;stroke-dasharray:43.2, 3.6, 3.6, 3.6;stroke-dashoffset:0;stroke-opacity:1"
           d="M 0,0 -2.835,0" /></g><g
         transform="translate(322.0615,463.8949)"
         id="g4416"><path
           inkscape:connector-curvature="0"
           id="path4418"
           style="fill:none;stroke:#000000;stroke-width:0.50999999;stroke-linecap:round;stroke-linejoin:round;stroke-miterlimit:10;stroke-dasharray:43.2, 3.6, 3.6, 3.6;stroke-dashoffset:0;stroke-opacity:1"
           d="M 0,0 0,-2.835" /></g><g
         transform="translate(325.6048,467.4382)"
         id="g4420"><path
           inkscape:connector-curvature="0"
           id="path4422"
           style="fill:none;stroke:#000000;stroke-width:0.50999999;stroke-linecap:round;stroke-linejoin:round;stroke-miterlimit:10;stroke-dasharray:43.2, 3.6, 3.6, 3.6;stroke-dashoffset:0;stroke-opacity:1"
           d="M 0,0 2.835,0" /></g><g
         transform="translate(293.7151,470.9815)"
         id="g4424"><path
           inkscape:connector-curvature="0"
           id="path4426"
           style="fill:none;stroke:#000000;stroke-width:0.50999999;stroke-linecap:round;stroke-linejoin:round;stroke-miterlimit:10;stroke-dasharray:43.2, 3.6, 3.6, 3.6;stroke-dashoffset:0;stroke-opacity:1"
           d="M 0,0 0,2.835" /></g><g
         transform="translate(290.1718,467.4382)"
         id="g4428"><path
           inkscape:connector-curvature="0"
           id="path4430"
           style="fill:none;stroke:#000000;stroke-width:0.50999999;stroke-linecap:round;stroke-linejoin:round;stroke-miterlimit:10;stroke-dasharray:43.2, 3.6, 3.6, 3.6;stroke-dashoffset:0;stroke-opacity:1"
           d="M 0,0 -2.835,0" /></g><g
         transform="translate(293.7151,463.8949)"
         id="g4432"><path
           inkscape:connector-curvature="0"
           id="path4434"
           style="fill:none;stroke:#000000;stroke-width:0.50999999;stroke-linecap:round;stroke-linejoin:round;stroke-miterlimit:10;stroke-dasharray:43.2, 3.6, 3.6, 3.6;stroke-dashoffset:0;stroke-opacity:1"
           d="M 0,0 0,-2.835" /></g><g
         transform="translate(297.2584,467.4382)"
         id="g4436"><path
           inkscape:connector-curvature="0"
           id="path4438"
           style="fill:none;stroke:#000000;stroke-width:0.50999999;stroke-linecap:round;stroke-linejoin:round;stroke-miterlimit:10;stroke-dasharray:43.2, 3.6, 3.6, 3.6;stroke-dashoffset:0;stroke-opacity:1"
           d="M 0,0 2.835,0" /></g><g
         transform="translate(281.6678,517.0679)"
         id="g4440"><path
           inkscape:connector-curvature="0"
           id="path4442"
           style="fill:none;stroke:#000000;stroke-width:0.50999999;stroke-linecap:round;stroke-linejoin:round;stroke-miterlimit:10;stroke-dasharray:43.2, 3.6, 3.6, 3.6;stroke-dashoffset:0;stroke-opacity:1"
           d="M 0,0 0,2.835" /></g><g
         transform="translate(278.1245,513.5247)"
         id="g4444"><path
           inkscape:connector-curvature="0"
           id="path4446"
           style="fill:none;stroke:#000000;stroke-width:0.50999999;stroke-linecap:round;stroke-linejoin:round;stroke-miterlimit:10;stroke-dasharray:43.2, 3.6, 3.6, 3.6;stroke-dashoffset:0;stroke-opacity:1"
           d="M 0,0 -2.835,0" /></g><g
         transform="translate(281.6678,509.9813)"
         id="g4448"><path
           inkscape:connector-curvature="0"
           id="path4450"
           style="fill:none;stroke:#000000;stroke-width:0.50999999;stroke-linecap:round;stroke-linejoin:round;stroke-miterlimit:10;stroke-dasharray:43.2, 3.6, 3.6, 3.6;stroke-dashoffset:0;stroke-opacity:1"
           d="M 0,0 0,-2.835" /></g><g
         transform="translate(285.2112,513.5247)"
         id="g4452"><path
           inkscape:connector-curvature="0"
           id="path4454"
           style="fill:none;stroke:#000000;stroke-width:0.50999999;stroke-linecap:round;stroke-linejoin:round;stroke-miterlimit:10;stroke-dasharray:43.2, 3.6, 3.6, 3.6;stroke-dashoffset:0;stroke-opacity:1"
           d="M 0,0 2.835,0" /></g><g
         transform="translate(334.1,513.5)"
         id="g4456"><path
           inkscape:connector-curvature="0"
           id="path4458"
           style="fill:none;stroke:#000000;stroke-width:0.50999999;stroke-linecap:round;stroke-linejoin:round;stroke-miterlimit:10;stroke-dasharray:none;stroke-opacity:1"
           d="M 0,0 0,3.5 M 0,0 -3.6,0 M 0,0 0,-3.6 M 0,0 3.5,0 m -15.6,-46.1 0,3.5 m 0,-3.5 -3.5,0 m 3.5,0 0,-3.6 m 0,3.6 3.6,0 m -31.9,0 0,3.5 m 0,-3.5 -3.6,0 m 3.6,0 0,-3.6 m 0,3.6 3.5,0 M -52.5,0 l 0,3.5 m 0,-3.5 -3.5,0 m 3.5,0 0,-3.6 m 0,3.6 3.6,0" /></g><g
         transform="translate(322,476.6)"
         id="g4472"><path
           inkscape:connector-curvature="0"
           id="path4474"
           style="fill:none;stroke:#808080;stroke-width:0.50999999;stroke-linecap:round;stroke-linejoin:round;stroke-miterlimit:10;stroke-dasharray:none;stroke-opacity:1"
           d="M 0,0 0,7.3 M -28.3,0 l 0,7.3 M 0,4.5 l 18,0 m -18,0 -28.3,0 m 0,0 -18,0" /></g><g
         transform="translate(283,557.4)"
         id="g4476"><path
           inkscape:connector-curvature="0"
           id="path4478"
           style="fill:none;stroke:#808080;stroke-width:0.50999999;stroke-linecap:round;stroke-linejoin:round;stroke-miterlimit:10;stroke-dasharray:none;stroke-opacity:1"
           d="M 0,0 0,28.4 M 49.6,0 l 0,28.4 M 0,25.5 l -18,0 m 18,0 49.6,0 m 0,0 18,0 m -55.5,-139.6 0,-28.4 m 25.5,28.4 0,-28.4 m -25.5,2.9 -18,0 m 18,0 25.5,0 m 0,0 18,0 m -57,86.5 0,-6.8 m 52.5,6.8 0,-6.8 m -52.5,2.9 -18,0 m 18,0 52.5,0 m 0,0 18,0" /></g><g
         transform="translate(339.7,539)"
         id="g4480"><path
           inkscape:connector-curvature="0"
           id="path4482"
           style="fill:none;stroke:#808080;stroke-width:0.50999999;stroke-linecap:round;stroke-linejoin:round;stroke-miterlimit:10;stroke-dasharray:none;stroke-opacity:1"
           d="M 0,0 0,65.9 M -63.8,0 l 0,65.9 M 0,63.1 l -63.8,0" /></g><g
         transform="translate(283.9,515.1)"
         id="g4484"><path
           inkscape:connector-curvature="0"
           id="path4486"
           style="fill:none;stroke:#808080;stroke-width:0.50999999;stroke-linecap:round;stroke-linejoin:round;stroke-miterlimit:10;stroke-dasharray:none;stroke-opacity:1"
           d="M 0,0 19,13.3 M 0,0 -4.6,-3.3" /></g><g
         transform="translate(292.2,446.1)"
         id="g4488"><path
           inkscape:connector-curvature="0"
           id="path4490"
           style="fill:none;stroke:#808080;stroke-width:0.50999999;stroke-linecap:round;stroke-linejoin:round;stroke-miterlimit:10;stroke-dasharray:none;stroke-opacity:1"
           d="m 0,0 -47.5,0 m 39.8,21.3 -39.8,0 m 2.8,-21.3 0,-40 m 0,40 0,21.3 M 31.2,0 78.7,0 m -27.6,67.4 27.6,0 M 75.9,0 l 0,-18 m 0,18 0,67.4 m 0,0 0,18" /></g><g
         transform="translate(323.4,446.1)"
         id="g4492"><path
           inkscape:connector-curvature="0"
           id="path4494"
           style="fill:none;stroke:#808080;stroke-width:0.50999999;stroke-linecap:round;stroke-linejoin:round;stroke-miterlimit:10;stroke-dasharray:none;stroke-opacity:1"
           d="m 0,0 81.5,0 m -69.4,108.5 69.4,0 M 78.7,0 l 0,108.5" /></g><g
         transform="translate(273,536.2)"
         id="g4496"><path
           inkscape:connector-curvature="0"
           id="path4498"
           style="fill:none;stroke:#808080;stroke-width:0.50999999;stroke-linecap:round;stroke-linejoin:round;stroke-miterlimit:10;stroke-dasharray:none;stroke-opacity:1"
           d="M 0,0 -45.3,0 M 0,-48.2 l -45.3,0 m 2.8,48.2 0,18 m 0,-18 0,-48.2 m 0,0 0,-18 m 49.7,84.6 -35.5,0 M 0,0 -28.3,0 m 2.8,18.4 0,40 m 0,-40 0,-18.4 m 0,0 0,-18" /></g><g
         transform="translate(324.7,466.7)"
         id="g4500"><path
           inkscape:connector-curvature="0"
           id="path4502"
           style="fill:none;stroke:#808080;stroke-width:0.50999999;stroke-linecap:round;stroke-linejoin:round;stroke-miterlimit:10;stroke-dasharray:none;stroke-opacity:1"
           d="M 0,0 117.1,-31.4 M 0,0 -5.4,1.4" /></g><g
         transform="translate(322,481.1)"
         id="g4504"><path
           inkscape:connector-curvature="0"
           id="path4506"
           style="fill:#808080;fill-opacity:1;fill-rule:nonzero;stroke:none"
           d="m 0,0 9.4,1.4 0,-2.9 m -37.7,1.5 -9.4,-1.5 0,2.9" /></g><g
         transform="translate(283,582.9)"
         id="g4508"><path
           inkscape:connector-curvature="0"
           id="path4510"
           style="fill:#808080;fill-opacity:1;fill-rule:nonzero;stroke:none"
           d="m 0,0 -9.3,-1.4 0,2.9 M 49.6,0 59,1.5 59,-1.4 m -46.9,-163.7 -9.4,-1.5 0,2.9 m 34.9,-1.4 9.4,1.4 0,-2.9 m -48.4,84.1 -9.3,-1.5 0,2.9 m 61.8,-1.4 9.3,1.4 0,-2.9" /></g><g
         transform="translate(339.7,602.1)"
         id="g4512"><path
           inkscape:connector-curvature="0"
           id="path4514"
           style="fill:#808080;fill-opacity:1;fill-rule:nonzero;stroke:none"
           d="m 0,0 -9.3,-1.4 0,2.8 M -63.8,0 l 9.3,1.4 0,-2.8" /></g><g
         transform="translate(283.9,515.1)"
         id="g4516"><path
           inkscape:connector-curvature="0"
           id="path4518"
           style="fill:#808080;fill-opacity:1;fill-rule:nonzero;stroke:none"
           d="M 0,0 8.5,4.2 6.9,6.5" /></g><g
         transform="translate(247.5,446.1)"
         id="g4520"><path
           inkscape:connector-curvature="0"
           id="path4522"
           style="fill:#808080;fill-opacity:1;fill-rule:nonzero;stroke:none"
           d="m 0,0 -1.4,9.4 2.9,0 M 0,21.3 l 1.5,-9.4 -2.9,0 m 122,-11.9 1.4,-9.3 -2.9,0 m 1.5,76.7 -1.5,9.3 2.9,0" /></g><g
         transform="translate(402.1,446.1)"
         id="g4524"><path
           inkscape:connector-curvature="0"
           id="path4526"
           style="fill:#808080;fill-opacity:1;fill-rule:nonzero;stroke:none"
           d="m 0,0 -1.4,9.4 2.8,0 m -1.4,99.1 1.4,-9.4 -2.8,0" /></g><g
         transform="translate(230.5,536.2)"
         id="g4528"><path
           inkscape:connector-curvature="0"
           id="path4530"
           style="fill:#808080;fill-opacity:1;fill-rule:nonzero;stroke:none"
           d="m 0,0 -1.4,9.3 2.8,0 M 0,-48.2 l 1.4,-9.4 -2.8,0 m 18.4,76 -1.4,9.3 2.9,0 M 17,0 l 1.5,-9.4 -2.9,0" /></g><g
         transform="translate(324.7,466.7)"
         id="g4532"><path
           inkscape:connector-curvature="0"
           id="path4534"
           style="fill:#808080;fill-opacity:1;fill-rule:nonzero;stroke:none"
           d="m 0,0 8.7,-3.9 0.8,2.8" /></g><g
         transform="translate(332.6,554.6)"
         id="g4536"><path
           inkscape:connector-curvature="0"
           id="path4538"
           style="fill:none;stroke:#000000;stroke-width:0.70899999;stroke-linecap:round;stroke-linejoin:round;stroke-miterlimit:10;stroke-dasharray:none;stroke-opacity:1"
           d="m 0,0 0,-18.4 m 0,0 -49.6,0 m 0,18.4 0,-18.4 M -49.6,0 0,0 m -56.7,-18.4 0,-48.2 m 58.2,22.6 0.5,0.1 0.5,0.1 0.4,0.2 0.4,0.3 0.4,0.4 0.3,0.4 0.2,0.5 0.1,0.5 0,0.5 -0.1,0.5 -0.1,0.5 -0.3,0.4 -0.3,0.4 -0.4,0.4 -0.4,0.2 -0.5,0.2 -0.5,0.1 -0.5,0 -0.5,-0.1 -0.5,-0.2 -0.4,-0.2 -0.4,-0.4 -0.3,-0.4 -0.2,-0.4 -0.2,-0.5 -0.1,-0.5 0,-0.5 0.2,-0.5 0.2,-0.5 0.2,-0.4 0.4,-0.4 0.4,-0.3 0.5,-0.2 0.5,-0.1 0.5,-0.1 m -12.1,-46 0.5,0 0.5,0.1 0.5,0.3 0.4,0.3 0.3,0.3 0.3,0.4 0.2,0.5 0.1,0.5 0,0.5 0,0.5 -0.2,0.5 -0.2,0.4 -0.3,0.4 -0.4,0.4 -0.5,0.2 -0.4,0.2 -0.5,0.1 -0.5,0 -0.5,-0.1 -0.5,-0.2 -0.5,-0.2 -0.3,-0.4 -0.4,-0.4 -0.2,-0.4 -0.2,-0.5 0,-0.5 0,-0.5 0.1,-0.5 0.2,-0.5 0.3,-0.4 0.3,-0.3 0.5,-0.3 0.4,-0.3 0.5,-0.1 0.5,0 m -28.3,0 0.5,0 0.5,0.1 0.4,0.3 0.4,0.3 0.4,0.3 0.3,0.4 0.2,0.5 0.1,0.5 0,0.5 -0.1,0.5 -0.1,0.5 -0.3,0.4 -0.3,0.4 -0.4,0.4 -0.4,0.2 -0.5,0.2 -0.5,0.1 -0.5,0 -0.5,-0.1 -0.5,-0.2 -0.4,-0.2 -0.4,-0.4 -0.3,-0.4 -0.2,-0.4 -0.2,-0.5 -0.1,-0.5 0.1,-0.5 0.1,-0.5 0.2,-0.5 0.2,-0.4 0.4,-0.3 0.4,-0.3 0.5,-0.3 0.5,-0.1 0.5,0 m -12.1,46 0.5,0.1 0.5,0.1 0.5,0.2 0.4,0.3 0.3,0.4 0.3,0.4 0.2,0.5 0.1,0.5 0,0.5 0,0.5 -0.2,0.5 -0.2,0.4 -0.3,0.4 -0.4,0.4 -0.5,0.2 -0.4,0.2 -0.5,0.1 -0.5,0 -0.5,-0.1 -0.5,-0.2 -0.4,-0.2 -0.4,-0.4 -0.3,-0.4 -0.3,-0.4 -0.1,-0.5 -0.1,-0.5 0,-0.5 0.1,-0.5 0.2,-0.5 0.3,-0.4 0.4,-0.4 0.4,-0.3 0.4,-0.2 0.5,-0.1 0.5,-0.1 m 13.5,-64.5 -19.2,41.9 m 19.2,-41.9 25.5,0 m 0,0 19.1,41.9 m 0,48.2 0,-48.2 m -63.8,48.2 7.1,0 m 49.6,0 7.1,0" /></g></g></g></svg>