G04 Layer_Color=8388736*
%FSLAX25Y25*%
%MOIN*%
G70*
G01*
G75*
%ADD47O,0.01981X0.07887*%
%ADD48O,0.07887X0.01981*%
%ADD49R,0.03556X0.04343*%
%ADD50R,0.02768X0.03162*%
%ADD51R,0.04343X0.03556*%
%ADD52R,0.03162X0.02768*%
%ADD53O,0.09461X0.03162*%
%ADD54C,0.05918*%
%ADD55R,0.06706X0.06706*%
%ADD56C,0.06706*%
%ADD57C,0.08083*%
%ADD58R,0.08083X0.08083*%
%ADD59R,0.08674X0.08674*%
%ADD60C,0.08674*%
%ADD61C,0.05800*%
D47*
X591378Y24512D02*
D03*
X589409D02*
D03*
X587441D02*
D03*
X585472D02*
D03*
X583504D02*
D03*
X581535D02*
D03*
X579567D02*
D03*
X577598D02*
D03*
X575630D02*
D03*
X573661D02*
D03*
X571693D02*
D03*
X569724D02*
D03*
Y56402D02*
D03*
X571693D02*
D03*
X573661D02*
D03*
X575630D02*
D03*
X577598D02*
D03*
X579567D02*
D03*
X581535D02*
D03*
X583504D02*
D03*
X585472D02*
D03*
X587441D02*
D03*
X589409D02*
D03*
X591378D02*
D03*
D48*
X564606Y29630D02*
D03*
Y31598D02*
D03*
Y33567D02*
D03*
Y35535D02*
D03*
Y37504D02*
D03*
Y39472D02*
D03*
Y41441D02*
D03*
Y43409D02*
D03*
Y45378D02*
D03*
Y47346D02*
D03*
Y49315D02*
D03*
Y51283D02*
D03*
X596496D02*
D03*
Y49315D02*
D03*
Y47346D02*
D03*
Y45378D02*
D03*
Y43409D02*
D03*
Y41441D02*
D03*
Y39472D02*
D03*
Y37504D02*
D03*
Y35535D02*
D03*
Y33567D02*
D03*
Y31598D02*
D03*
Y29630D02*
D03*
D49*
X570953Y17000D02*
D03*
X565047D02*
D03*
X590047Y113000D02*
D03*
X595953D02*
D03*
D50*
X557000Y48032D02*
D03*
Y51969D02*
D03*
X594000Y17968D02*
D03*
Y14031D02*
D03*
X581000Y17969D02*
D03*
Y14032D02*
D03*
X576000D02*
D03*
Y17969D02*
D03*
X560000Y13032D02*
D03*
Y16969D02*
D03*
X496000Y29969D02*
D03*
Y26032D02*
D03*
D51*
X604567Y49315D02*
D03*
Y43409D02*
D03*
X566000Y88953D02*
D03*
Y83047D02*
D03*
Y99953D02*
D03*
Y94047D02*
D03*
D52*
X540031Y118000D02*
D03*
X543969D02*
D03*
D53*
X606449Y98500D02*
D03*
Y93500D02*
D03*
Y88500D02*
D03*
Y83500D02*
D03*
X587551Y98500D02*
D03*
Y93500D02*
D03*
Y88500D02*
D03*
Y83500D02*
D03*
D54*
X581441Y7386D02*
D03*
X593646D02*
D03*
X561953Y7780D02*
D03*
X574157D02*
D03*
D55*
X498000Y111000D02*
D03*
X549488Y39764D02*
D03*
X587858Y126378D02*
D03*
D56*
X508000Y111000D02*
D03*
X518000D02*
D03*
X499488Y39764D02*
D03*
X509488D02*
D03*
X519488D02*
D03*
X529488D02*
D03*
X539488D02*
D03*
X577858Y126378D02*
D03*
X567858D02*
D03*
X557858D02*
D03*
D57*
X532000Y111000D02*
D03*
X506000Y28000D02*
D03*
D58*
X552000Y111000D02*
D03*
X526000Y28000D02*
D03*
D59*
X615591Y109000D02*
D03*
D60*
X574410D02*
D03*
D61*
X523600Y74700D02*
D03*
X516000Y69400D02*
D03*
X496600Y49000D02*
D03*
X542600Y79900D02*
D03*
X536500Y75943D02*
D03*
X536435Y69900D02*
D03*
X525100Y62100D02*
D03*
X529300Y85300D02*
D03*
X614100Y92400D02*
D03*
X596090Y83200D02*
D03*
X507600Y57700D02*
D03*
X527412Y67587D02*
D03*
X554600Y55800D02*
D03*
X534813Y44615D02*
D03*
X583600Y49500D02*
D03*
X586800Y13200D02*
D03*
X585700Y34700D02*
D03*
X582600Y49300D02*
D03*
X526449Y45800D02*
D03*
X531200Y58000D02*
D03*
X618552Y83200D02*
D03*
X622300Y90300D02*
D03*
X591300Y105200D02*
D03*
X516900Y31700D02*
D03*
X538600Y33000D02*
D03*
X528000Y105300D02*
D03*
X555759Y93200D02*
D03*
X572100Y132100D02*
D03*
X596000Y91000D02*
D03*
X547499Y21400D02*
D03*
X595300Y22500D02*
D03*
X609120Y30000D02*
D03*
X555700Y14800D02*
D03*
X548465Y101346D02*
D03*
X553753Y101546D02*
D03*
X555653Y26780D02*
D03*
X608600Y59380D02*
D03*
X583727Y70400D02*
D03*
X578327D02*
D03*
X628200Y96391D02*
D03*
X539798Y61000D02*
D03*
X545248Y47900D02*
D03*
X507551Y63646D02*
D03*
X565780Y55600D02*
D03*
X615900Y27000D02*
D03*
X602700Y64500D02*
D03*
X615882Y32094D02*
D03*
X617118Y37094D02*
D03*
X614260Y59520D02*
D03*
X589409Y49858D02*
D03*
X571150Y49315D02*
D03*
X507551Y100953D02*
D03*
M02*
