G04 Layer_Color=255*
%FSLAX25Y25*%
%MOIN*%
G70*
G01*
G75*
%ADD10O,0.01181X0.07087*%
%ADD11O,0.07087X0.01181*%
%ADD12R,0.02756X0.03543*%
%ADD13R,0.01968X0.02362*%
%ADD14R,0.03543X0.02756*%
%ADD15R,0.02362X0.01968*%
%ADD16O,0.08661X0.02362*%
%ADD18C,0.05118*%
%ADD19R,0.05905X0.05905*%
%ADD20C,0.05905*%
%ADD21C,0.07283*%
%ADD22R,0.07283X0.07283*%
%ADD23R,0.07874X0.07874*%
%ADD24C,0.07874*%
D10*
X591378Y24512D02*
D03*
X589409D02*
D03*
X587441D02*
D03*
X585472D02*
D03*
X583504D02*
D03*
X581535D02*
D03*
X579567D02*
D03*
X577598D02*
D03*
X575630D02*
D03*
X573661D02*
D03*
X571693D02*
D03*
X569724D02*
D03*
Y56402D02*
D03*
X571693D02*
D03*
X573661D02*
D03*
X575630D02*
D03*
X577598D02*
D03*
X579567D02*
D03*
X581535D02*
D03*
X583504D02*
D03*
X585472D02*
D03*
X587441D02*
D03*
X589409D02*
D03*
X591378D02*
D03*
D11*
X564606Y29630D02*
D03*
Y31598D02*
D03*
Y33567D02*
D03*
Y35535D02*
D03*
Y37504D02*
D03*
Y39472D02*
D03*
Y41441D02*
D03*
Y43409D02*
D03*
Y45378D02*
D03*
Y47346D02*
D03*
Y49315D02*
D03*
Y51283D02*
D03*
X596496D02*
D03*
Y49315D02*
D03*
Y47346D02*
D03*
Y45378D02*
D03*
Y43409D02*
D03*
Y41441D02*
D03*
Y39472D02*
D03*
Y37504D02*
D03*
Y35535D02*
D03*
Y33567D02*
D03*
Y31598D02*
D03*
Y29630D02*
D03*
D12*
X570953Y17000D02*
D03*
X565047D02*
D03*
X590047Y113000D02*
D03*
X595953D02*
D03*
D13*
X557000Y48032D02*
D03*
Y51969D02*
D03*
X594000Y17968D02*
D03*
Y14031D02*
D03*
X581000Y17969D02*
D03*
Y14032D02*
D03*
X576000D02*
D03*
Y17969D02*
D03*
X560000Y13032D02*
D03*
Y16969D02*
D03*
X496000Y29969D02*
D03*
Y26032D02*
D03*
D14*
X604567Y49315D02*
D03*
Y43409D02*
D03*
X566000Y88953D02*
D03*
Y83047D02*
D03*
Y99953D02*
D03*
Y94047D02*
D03*
D15*
X540031Y118000D02*
D03*
X543969D02*
D03*
D16*
X606449Y98500D02*
D03*
Y93500D02*
D03*
Y88500D02*
D03*
Y83500D02*
D03*
X587551Y98500D02*
D03*
Y93500D02*
D03*
Y88500D02*
D03*
Y83500D02*
D03*
D18*
X581441Y7386D02*
D03*
X593646D02*
D03*
X561953Y7780D02*
D03*
X574157D02*
D03*
D19*
X498000Y111000D02*
D03*
X549488Y39764D02*
D03*
X587858Y126378D02*
D03*
D20*
X508000Y111000D02*
D03*
X518000D02*
D03*
X499488Y39764D02*
D03*
X509488D02*
D03*
X519488D02*
D03*
X529488D02*
D03*
X539488D02*
D03*
X577858Y126378D02*
D03*
X567858D02*
D03*
X557858D02*
D03*
D21*
X532000Y111000D02*
D03*
X506000Y28000D02*
D03*
D22*
X552000Y111000D02*
D03*
X526000Y28000D02*
D03*
D23*
X615591Y109000D02*
D03*
D24*
X574410D02*
D03*
M02*
