G04 Layer_Color=65535*
%FSLAX25Y25*%
%MOIN*%
G70*
G01*
G75*
%ADD17C,0.01000*%
%ADD44C,0.00984*%
%ADD45C,0.02362*%
%ADD46C,0.00787*%
D17*
X600180Y70141D02*
Y65142D01*
X599181Y64143D01*
X597181D01*
X596182Y65142D01*
Y70141D01*
X594182Y64143D02*
X592183D01*
X593183D01*
Y70141D01*
X594182Y69141D01*
X571967Y22334D02*
Y28332D01*
X568968D01*
X567968Y27332D01*
Y25333D01*
X568968Y24333D01*
X571967D01*
X569968D02*
X567968Y22334D01*
X565969D02*
X563970D01*
X564969D01*
Y28332D01*
X565969Y27332D01*
X560970D02*
X559971Y28332D01*
X557971D01*
X556972Y27332D01*
Y23334D01*
X557971Y22334D01*
X559971D01*
X560970Y23334D01*
Y27332D01*
X553560Y61769D02*
X554559Y62768D01*
X556559D01*
X557558Y61769D01*
Y57770D01*
X556559Y56770D01*
X554559D01*
X553560Y57770D01*
X547562Y62768D02*
X551560D01*
Y59769D01*
X549561Y60769D01*
X548561D01*
X547562Y59769D01*
Y57770D01*
X548561Y56770D01*
X550561D01*
X551560Y57770D01*
X605917Y54312D02*
Y60310D01*
X602918D01*
X601918Y59311D01*
Y57311D01*
X602918Y56312D01*
X605917D01*
X603918D02*
X601918Y54312D01*
X599919D02*
X597920D01*
X598919D01*
Y60310D01*
X599919Y59311D01*
X594920Y54312D02*
X592921D01*
X593921D01*
Y60310D01*
X594920Y59311D01*
X590552Y27751D02*
X591551Y28751D01*
X593551D01*
X594550Y27751D01*
Y23752D01*
X593551Y22753D01*
X591551D01*
X590552Y23752D01*
X588552D02*
X587553Y22753D01*
X585553D01*
X584554Y23752D01*
Y27751D01*
X585553Y28751D01*
X587553D01*
X588552Y27751D01*
Y26752D01*
X587553Y25752D01*
X584554D01*
X577544Y27738D02*
X578544Y28738D01*
X580543D01*
X581542Y27738D01*
Y23740D01*
X580543Y22740D01*
X578544D01*
X577544Y23740D01*
X575545Y22740D02*
X573545D01*
X574545D01*
Y28738D01*
X575545Y27738D01*
X570546D02*
X569546Y28738D01*
X567547D01*
X566547Y27738D01*
Y23740D01*
X567547Y22740D01*
X569546D01*
X570546Y23740D01*
Y27738D01*
X591627Y17919D02*
Y21917D01*
X592626Y22917D01*
X594626D01*
X595625Y21917D01*
Y17919D01*
X594626Y16919D01*
X592626D01*
X593626Y18918D02*
X591627Y16919D01*
X592626D02*
X591627Y17919D01*
X589627Y16919D02*
X587628D01*
X588627D01*
Y22917D01*
X589627Y21917D01*
X572136Y18318D02*
Y22317D01*
X573136Y23316D01*
X575135D01*
X576135Y22317D01*
Y18318D01*
X575135Y17318D01*
X573136D01*
X574135Y19318D02*
X572136Y17318D01*
X573136D02*
X572136Y18318D01*
X566138Y17318D02*
X570137D01*
X566138Y21317D01*
Y22317D01*
X567138Y23316D01*
X569137D01*
X570137Y22317D01*
X572608Y27713D02*
X573607Y28713D01*
X575607D01*
X576606Y27713D01*
Y23715D01*
X575607Y22715D01*
X573607D01*
X572608Y23715D01*
X570608Y28713D02*
X566609D01*
Y27713D01*
X570608Y23715D01*
Y22715D01*
X556548Y26719D02*
X557547Y27718D01*
X559547D01*
X560546Y26719D01*
Y22720D01*
X559547Y21721D01*
X557547D01*
X556548Y22720D01*
X554548Y26719D02*
X553549Y27718D01*
X551549D01*
X550550Y26719D01*
Y25719D01*
X551549Y24720D01*
X550550Y23720D01*
Y22720D01*
X551549Y21721D01*
X553549D01*
X554548Y22720D01*
Y23720D01*
X553549Y24720D01*
X554548Y25719D01*
Y26719D01*
X553549Y24720D02*
X551549D01*
X522400Y119400D02*
Y125398D01*
X519401D01*
X518401Y124398D01*
Y122399D01*
X519401Y121399D01*
X522400D01*
X513403Y119400D02*
Y125398D01*
X516402Y122399D01*
X512403D01*
X540732Y127610D02*
X541732Y128610D01*
X543731D01*
X544731Y127610D01*
Y123611D01*
X543731Y122612D01*
X541732D01*
X540732Y123611D01*
X534734Y128610D02*
X536733Y127610D01*
X538733Y125611D01*
Y123611D01*
X537733Y122612D01*
X535734D01*
X534734Y123611D01*
Y124611D01*
X535734Y125611D01*
X538733D01*
X592215Y134780D02*
Y140778D01*
X589216D01*
X588216Y139778D01*
Y137778D01*
X589216Y136779D01*
X592215D01*
X586217Y134780D02*
X584218D01*
X585217D01*
Y140778D01*
X586217Y139778D01*
X553901Y48202D02*
Y54200D01*
X550902D01*
X549902Y53201D01*
Y51201D01*
X550902Y50202D01*
X553901D01*
X547903Y53201D02*
X546903Y54200D01*
X544904D01*
X543904Y53201D01*
Y52201D01*
X544904Y51201D01*
X545903D01*
X544904D01*
X543904Y50202D01*
Y49202D01*
X544904Y48202D01*
X546903D01*
X547903Y49202D01*
X596950Y118350D02*
Y124348D01*
X593951D01*
X592951Y123348D01*
Y121349D01*
X593951Y120349D01*
X596950D01*
X594951D02*
X592951Y118350D01*
X590952Y124348D02*
X586953D01*
Y123348D01*
X590952Y119350D01*
Y118350D01*
X567400Y104900D02*
Y110898D01*
X564401D01*
X563401Y109898D01*
Y107899D01*
X564401Y106899D01*
X567400D01*
X565401D02*
X563401Y104900D01*
X561402Y109898D02*
X560402Y110898D01*
X558403D01*
X557403Y109898D01*
Y108899D01*
X558403Y107899D01*
X557403Y106899D01*
Y105900D01*
X558403Y104900D01*
X560402D01*
X561402Y105900D01*
Y106899D01*
X560402Y107899D01*
X561402Y108899D01*
Y109898D01*
X560402Y107899D02*
X558403D01*
X567400Y93900D02*
Y99898D01*
X564401D01*
X563401Y98898D01*
Y96899D01*
X564401Y95899D01*
X567400D01*
X565401D02*
X563401Y93900D01*
X561402Y94900D02*
X560402Y93900D01*
X558403D01*
X557403Y94900D01*
Y98898D01*
X558403Y99898D01*
X560402D01*
X561402Y98898D01*
Y97899D01*
X560402Y96899D01*
X557403D01*
X556738Y124436D02*
X557738Y125436D01*
X559737D01*
X560737Y124436D01*
Y123436D01*
X559737Y122437D01*
X557738D01*
X556738Y121437D01*
Y120438D01*
X557738Y119438D01*
X559737D01*
X560737Y120438D01*
X554739Y119438D02*
X552740D01*
X553739D01*
Y125436D01*
X554739Y124436D01*
X611000Y111798D02*
Y106800D01*
X610000Y105800D01*
X608001D01*
X607001Y106800D01*
Y111798D01*
X605002Y110798D02*
X604002Y111798D01*
X602003D01*
X601003Y110798D01*
Y109799D01*
X602003Y108799D01*
X603003D01*
X602003D01*
X601003Y107799D01*
Y106800D01*
X602003Y105800D01*
X604002D01*
X605002Y106800D01*
X492593Y39764D02*
X493592Y40764D01*
X495592D01*
X496591Y39764D01*
Y35766D01*
X495592Y34766D01*
X493592D01*
X492593Y35766D01*
X490593Y34766D02*
X488594D01*
X489594D01*
Y40764D01*
X490593Y39764D01*
X481596Y34766D02*
X485595D01*
X481596Y38765D01*
Y39764D01*
X482596Y40764D01*
X484595D01*
X485595Y39764D01*
X530720Y41352D02*
X531720Y42352D01*
X533719D01*
X534719Y41352D01*
Y37353D01*
X533719Y36353D01*
X531720D01*
X530720Y37353D01*
X528721Y42352D02*
Y36353D01*
X525722D01*
X524722Y37353D01*
Y38353D01*
X525722Y39353D01*
X528721D01*
X525722D01*
X524722Y40352D01*
Y41352D01*
X525722Y42352D01*
X528721D01*
X522723Y36353D02*
X520723D01*
X521723D01*
Y42352D01*
X522723Y41352D01*
D44*
X593642Y24512D02*
G03*
X593642Y24512I492J0D01*
G01*
X560252Y110996D02*
G03*
X560252Y110996I492J0D01*
G01*
X605957Y101847D02*
G03*
X605957Y101847I492J0D01*
G01*
X534252Y27996D02*
G03*
X534252Y27996I492J0D01*
G01*
D45*
X586260Y33567D02*
G03*
X586260Y33567I1181J0D01*
G01*
D46*
X592131Y11410D02*
G03*
X582900Y11346I-4588J-4024D01*
G01*
X582861Y3426D02*
G03*
X592092Y3362I4643J3960D01*
G01*
X572643Y11804D02*
G03*
X563412Y11740I-4588J-4024D01*
G01*
X563373Y3819D02*
G03*
X572603Y3755I4643J3960D01*
G01*
X591378Y29630D02*
X569724D01*
X591378Y51283D02*
X569724D01*
X591378Y29630D02*
Y51283D01*
X569724Y29630D02*
Y51283D01*
X568787Y18378D02*
X567213D01*
X568787Y15622D02*
X567213D01*
X603189Y45575D02*
Y47150D01*
X605945Y45575D02*
Y47150D01*
X523000Y116000D02*
X493000D01*
X523000Y106000D02*
Y116000D01*
Y106000D02*
X493000D01*
Y116000D01*
X558850Y106000D02*
Y116000D01*
Y106000D02*
X525150D01*
Y116000D01*
X558850D02*
X525150D01*
X554488Y34764D02*
X494488D01*
X554488Y44764D02*
X494488D01*
X554488Y34764D02*
Y44764D01*
X494488Y34764D02*
Y44764D01*
X564622Y85213D02*
Y86788D01*
X567378Y85213D02*
Y86788D01*
X564622Y96213D02*
Y97787D01*
X567378Y96213D02*
Y97787D01*
X600543Y81157D02*
Y100842D01*
X593457Y81157D02*
Y100842D01*
X600543D02*
X593457D01*
X600543Y81157D02*
X593457D01*
X593787Y111622D02*
X592212D01*
X593787Y114378D02*
X592212D01*
X552858Y121378D02*
Y131378D01*
X592858Y121378D02*
X552858D01*
X592858Y131378D02*
X552858D01*
X592858Y121378D02*
Y131378D01*
X532850Y23000D02*
Y33000D01*
Y23000D02*
X499150D01*
Y33000D01*
X532850D02*
X499150D01*
M02*
