G04 Layer_Physical_Order=1*
G04 Layer_Color=255*
%FSLAX25Y25*%
%MOIN*%
G70*
G01*
G75*
%ADD10O,0.01181X0.07087*%
%ADD11O,0.07087X0.01181*%
%ADD12R,0.02756X0.03543*%
%ADD13R,0.01968X0.02362*%
%ADD14R,0.03543X0.02756*%
%ADD15R,0.02362X0.01968*%
%ADD16O,0.08661X0.02362*%
%ADD17C,0.01000*%
%ADD18C,0.05118*%
%ADD19R,0.05905X0.05905*%
%ADD20C,0.05905*%
%ADD21C,0.07283*%
%ADD22R,0.07283X0.07283*%
%ADD23R,0.07874X0.07874*%
%ADD24C,0.07874*%
%ADD25C,0.05000*%
D10*
X591378Y24512D02*
D03*
X589409D02*
D03*
X587441D02*
D03*
X585472D02*
D03*
X583504D02*
D03*
X581535D02*
D03*
X579567D02*
D03*
X577598D02*
D03*
X575630D02*
D03*
X573661D02*
D03*
X571693D02*
D03*
X569724D02*
D03*
Y56402D02*
D03*
X571693D02*
D03*
X573661D02*
D03*
X575630D02*
D03*
X577598D02*
D03*
X579567D02*
D03*
X581535D02*
D03*
X583504D02*
D03*
X585472D02*
D03*
X587441D02*
D03*
X589409D02*
D03*
X591378D02*
D03*
D11*
X564606Y29630D02*
D03*
Y31598D02*
D03*
Y33567D02*
D03*
Y35535D02*
D03*
Y37504D02*
D03*
Y39472D02*
D03*
Y41441D02*
D03*
Y43409D02*
D03*
Y45378D02*
D03*
Y47346D02*
D03*
Y49315D02*
D03*
Y51283D02*
D03*
X596496D02*
D03*
Y49315D02*
D03*
Y47346D02*
D03*
Y45378D02*
D03*
Y43409D02*
D03*
Y41441D02*
D03*
Y39472D02*
D03*
Y37504D02*
D03*
Y35535D02*
D03*
Y33567D02*
D03*
Y31598D02*
D03*
Y29630D02*
D03*
D12*
X570953Y17000D02*
D03*
X565047D02*
D03*
X590047Y113000D02*
D03*
X595953D02*
D03*
D13*
X557000Y48032D02*
D03*
Y51969D02*
D03*
X594000Y17968D02*
D03*
Y14031D02*
D03*
X581000Y17969D02*
D03*
Y14032D02*
D03*
X576000D02*
D03*
Y17969D02*
D03*
X560000Y13032D02*
D03*
Y16969D02*
D03*
X496000Y29969D02*
D03*
Y26032D02*
D03*
D14*
X604567Y49315D02*
D03*
Y43409D02*
D03*
X566000Y88953D02*
D03*
Y83047D02*
D03*
Y99953D02*
D03*
Y94047D02*
D03*
D15*
X540031Y118000D02*
D03*
X543969D02*
D03*
D16*
X606449Y98500D02*
D03*
Y93500D02*
D03*
Y88500D02*
D03*
Y83500D02*
D03*
X587551Y98500D02*
D03*
Y93500D02*
D03*
Y88500D02*
D03*
Y83500D02*
D03*
D17*
X532155Y107455D02*
X530155D01*
X540031Y115331D02*
X532155Y107455D01*
X495200Y29969D02*
Y42013D01*
X596783Y79713D02*
X592996Y83500D01*
X581000Y18000D02*
X578331D01*
X602700Y49315D02*
Y64500D01*
X611302Y31598D02*
X596496D01*
X597100Y51283D02*
Y71800D01*
X569724Y59400D02*
X567600D01*
X611653Y112938D02*
X595953D01*
X578300Y17969D02*
X577598D01*
X557000Y53415D02*
Y63000D01*
Y53400D02*
Y53415D01*
Y51969D02*
Y53400D01*
Y53415D02*
X554600Y55800D01*
X557723Y52696D02*
X557000Y53415D01*
X558458Y51966D02*
X557723Y52696D01*
X559144Y51283D02*
X558458Y51966D01*
X558431Y51969D01*
X564606Y51283D02*
X558458Y51966D01*
X569724Y22900D02*
X553400D01*
X587441Y56402D02*
Y63741D01*
X587600Y77400D02*
X587441Y63741D01*
X587600Y77400D02*
X585200Y79800D01*
X564000D01*
X560100Y83700D01*
X534600D01*
X525600Y74700D01*
X523600D01*
X516000Y53300D02*
Y69400D01*
Y53300D02*
X509488Y46788D01*
Y39764D02*
Y46788D01*
X503000Y55400D02*
X496600Y49000D01*
X503000Y55400D02*
Y68400D01*
X513700Y79100D02*
X503000Y68400D01*
X513700Y79100D02*
Y113000D01*
X516000Y115300D02*
X513700Y113000D01*
X520000Y115300D02*
X516000D01*
X522300Y113000D02*
X520000Y115300D01*
X522300Y103000D02*
Y113000D01*
X524400Y100900D02*
X522300Y103000D01*
X531700Y100900D02*
X524400D01*
X548000Y117200D02*
X531700Y100900D01*
X577800Y117200D02*
X548000D01*
X583600Y123000D02*
X577800Y117200D01*
X583600Y123000D02*
Y130700D01*
X592100D02*
X583600D01*
X592100Y119000D02*
Y130700D01*
X595000Y116100D02*
X592100Y119000D01*
X628000Y116100D02*
X595000D01*
X632000Y112100D02*
X628000Y116100D01*
X632000Y81700D02*
Y112100D01*
Y81700D02*
X625000Y74700D01*
X600000D01*
X597100Y71800D01*
Y51283D02*
X596496D01*
X560234Y79900D02*
X542600D01*
X573661Y66473D02*
X560234Y79900D01*
X573661Y56402D02*
Y66473D01*
X560750Y75943D02*
X536500D01*
X571693Y65000D02*
X560750Y75943D01*
X571693Y56402D02*
Y65000D01*
X569724Y56402D02*
Y59400D01*
X567600D02*
X557100Y69900D01*
X536435D01*
X564606Y29630D02*
X559400D01*
X558430Y30600D01*
X546350D01*
X542809Y27059D01*
X536000D01*
X533025Y30034D01*
Y33775D01*
X531300Y35500D01*
X526000D01*
X523728Y37772D01*
Y41520D01*
X522661Y42587D01*
Y59661D01*
X525100Y62100D02*
X522661Y59661D01*
X566000Y94047D02*
X562000D01*
X560800Y95247D01*
Y101000D01*
X556000Y105800D01*
X546000D01*
X529300Y89100D01*
Y85300D02*
Y89100D01*
X591100Y93500D02*
X587551D01*
X593600Y96000D02*
X591100Y93500D01*
X612500Y96000D02*
X593600D01*
X614100Y94400D02*
X612500Y96000D01*
X614100Y92400D02*
Y94400D01*
X507600Y54413D02*
Y57700D01*
Y54413D02*
X495200Y42013D01*
X496000Y29969D02*
X495200D01*
X557000Y63000D02*
X554387Y65613D01*
X529387D01*
X527412Y67587D01*
X557000Y53400D02*
X554600Y55800D01*
X564606Y51283D02*
X559144D01*
X558431Y51969D02*
X557000D01*
X564606Y39472D02*
X560000D01*
X555600Y35072D01*
Y33736D02*
Y35072D01*
Y33736D02*
X545124D01*
X540234Y28847D01*
X536966D01*
X534813Y31000D01*
Y44615D01*
X575630Y24512D02*
Y47130D01*
X578000Y49500D02*
X575630Y47130D01*
X583600Y49500D02*
X578000D01*
X590400Y42700D02*
X583600Y49500D01*
X590400Y31000D02*
Y42700D01*
X591770Y29630D02*
X590400Y31000D01*
X596496Y29630D02*
X591770D01*
X583504Y16496D02*
Y24512D01*
X586800Y13200D02*
X583504Y16496D01*
X581535Y24512D02*
Y30535D01*
X585700Y34700D02*
X581535Y30535D01*
X587441Y19600D02*
Y24512D01*
X591400Y19600D02*
X587441D01*
X591400Y14031D02*
Y19600D01*
X594000Y14031D02*
X591400D01*
X585472Y20372D02*
Y24512D01*
Y20372D02*
X585400Y20300D01*
Y19600D02*
Y20300D01*
Y19600D02*
X583700D01*
Y14032D02*
Y19600D01*
Y14032D02*
X581000D01*
X579567Y24512D02*
Y41886D01*
X580724Y43043D02*
X579567Y41886D01*
X580724Y43043D02*
Y47424D01*
X582600Y49300D02*
X580724Y47424D01*
X564606Y47346D02*
X559300D01*
Y45500D02*
Y47346D01*
Y45500D02*
X552000D01*
X549100Y48400D01*
Y51700D01*
X532349D01*
X526449Y45800D01*
X564606Y45378D02*
X555122D01*
X546813Y53687D01*
X535513D01*
X531200Y58000D01*
X591378Y12025D02*
Y24512D01*
Y12025D02*
X585300Y5947D01*
Y4800D02*
Y5947D01*
Y4800D02*
X584000Y3500D01*
X572000D01*
X568000Y7500D01*
Y19800D01*
X567000Y20800D01*
X554261D01*
X551073Y17613D01*
X543711D01*
X539824Y21500D01*
X512500D01*
X506000Y28000D01*
X618552Y83200D02*
X615064Y79713D01*
X596783D01*
X592996Y83500D02*
X587551D01*
X591378Y56402D02*
Y69678D01*
X598900Y77200D02*
X591378Y69678D01*
X620000Y77200D02*
X598900D01*
X622800Y80000D02*
X620000Y77200D01*
X622800Y80000D02*
Y89800D01*
X622300Y90300D01*
X611200Y83500D02*
X606449D01*
X617900Y90200D02*
X611200Y83500D01*
X617900Y90200D02*
Y99000D01*
X613800Y103100D01*
X606400D01*
X604300Y105200D01*
X591300D01*
X552000Y111000D02*
X545000D01*
X519800Y85800D01*
Y49400D02*
Y85800D01*
Y49400D02*
X515200Y44800D01*
Y33400D02*
Y44800D01*
X516900Y31700D02*
X515200Y33400D01*
X539488Y33888D02*
X538600Y33000D01*
X539488Y33888D02*
Y39764D01*
X530155Y107455D02*
X528000Y105300D01*
X540031Y115331D02*
Y118000D01*
X559712Y89246D02*
X555759Y93200D01*
X560014Y89246D02*
X559712D01*
X562261Y87000D02*
X560014Y89246D01*
X562261Y84073D02*
Y87000D01*
X563286Y83047D02*
X562261Y84073D01*
X566000Y83047D02*
X563286D01*
X518000Y79020D02*
Y111000D01*
Y79020D02*
X512213Y73232D01*
Y53013D02*
Y73232D01*
Y53013D02*
X505200Y46000D01*
Y35800D02*
Y46000D01*
X513087Y27913D02*
X505200Y35800D01*
X519600Y27913D02*
X513087D01*
X520687Y29000D02*
X519600Y27913D01*
X520687Y29000D02*
Y32000D01*
X521687Y33000D02*
X520687Y32000D01*
X531000Y33000D02*
X521687D01*
X531000Y26272D02*
Y33000D01*
X532000Y25272D02*
X531000Y26272D01*
X551028Y25272D02*
X532000D01*
X553400Y22900D02*
X551028Y25272D01*
X569724Y22900D02*
Y24512D01*
X543969Y118000D02*
Y120300D01*
X555769Y132100D02*
X543969Y120300D01*
X572100Y132100D02*
X555769D01*
X598500Y88500D02*
X596000Y91000D01*
X606449Y88500D02*
X598500D01*
X576000Y9622D02*
Y14032D01*
Y9622D02*
X574157Y7780D01*
X617300Y22500D02*
X595300D01*
X621000Y26200D02*
X617300Y22500D01*
X621000Y26200D02*
Y41100D01*
X616000Y46100D01*
X602546D01*
X601300Y47346D01*
X596496D01*
X587551Y88500D02*
X580000D01*
X571300Y97200D01*
X562900D01*
Y102500D01*
X564000Y103600D02*
X562900Y102500D01*
X584000Y103600D02*
X564000D01*
X590047Y109647D02*
X584000Y103600D01*
X590047Y109647D02*
Y113000D01*
X595953Y112938D02*
Y113000D01*
X615591Y109000D02*
X611653Y112938D01*
X586100Y17969D02*
X581000D01*
X586100Y17968D02*
X586100Y17969D01*
X594000Y17968D02*
X586100D01*
X555700Y14800D02*
Y16800D01*
X555869Y16969D02*
X555700Y16800D01*
X560000Y16969D02*
X555869D01*
X500032Y26032D02*
X496000D01*
X502000Y28000D02*
X500032Y26032D01*
X506000Y28000D02*
X502000D01*
X560000Y9732D02*
Y13032D01*
X561953Y7780D02*
X560000Y9732D01*
X628200Y96391D02*
X615591Y109000D01*
X564000Y13032D02*
X560000D01*
X565047Y14079D02*
X564000Y13032D01*
X565047Y14079D02*
Y17000D01*
X545248Y35524D02*
Y47900D01*
X553728Y35524D02*
X545248D01*
X553728D02*
Y40169D01*
X555000Y41441D02*
X553728Y40169D01*
X564606Y41441D02*
X555000D01*
X564606Y49315D02*
X557024D01*
X557000Y49291D01*
Y48032D02*
Y49291D01*
X600304Y37504D02*
X596496D01*
X601800Y39000D02*
X600304Y37504D01*
X601800Y39000D02*
Y43409D01*
X604567D02*
X601800D01*
X576053Y99953D02*
X566000D01*
X577500Y101400D02*
X576053Y99953D01*
X599155Y101400D02*
X577500D01*
X602055Y98500D02*
X599155Y101400D01*
X606449Y98500D02*
X602055D01*
X566000Y88953D02*
Y94047D01*
X581000Y10841D02*
Y14032D01*
X581441Y10400D02*
X581000Y10841D01*
X581441Y7386D02*
Y10400D01*
X594000Y10854D02*
Y14031D01*
Y10854D02*
X593646Y10500D01*
Y7386D02*
Y10500D01*
X572032Y17000D02*
X570953D01*
X575000Y14032D02*
X572032Y17000D01*
X576000Y14032D02*
X575000D01*
X587858Y120689D02*
Y126378D01*
X590047Y118500D02*
X587858Y120689D01*
X590047Y113000D02*
Y118500D01*
X615900Y27000D02*
X611302Y31598D01*
X604567Y49315D02*
X602700D01*
X581000Y17969D02*
Y18000D01*
X578331D02*
X578300Y17969D01*
X577598D02*
X576000D01*
X577598D02*
Y24512D01*
X589409Y49858D02*
Y56402D01*
X571150Y49315D02*
X564606D01*
D18*
X581441Y7386D02*
D03*
X593646D02*
D03*
X561953Y7780D02*
D03*
X574157D02*
D03*
D19*
X498000Y111000D02*
D03*
X549488Y39764D02*
D03*
X587858Y126378D02*
D03*
D20*
X508000Y111000D02*
D03*
X518000D02*
D03*
X499488Y39764D02*
D03*
X509488D02*
D03*
X519488D02*
D03*
X529488D02*
D03*
X539488D02*
D03*
X577858Y126378D02*
D03*
X567858D02*
D03*
X557858D02*
D03*
D21*
X532000Y111000D02*
D03*
X506000Y28000D02*
D03*
D22*
X552000Y111000D02*
D03*
X526000Y28000D02*
D03*
D23*
X615591Y109000D02*
D03*
D24*
X574410D02*
D03*
D25*
X523600Y74700D02*
D03*
X516000Y69400D02*
D03*
X496600Y49000D02*
D03*
X542600Y79900D02*
D03*
X536500Y75943D02*
D03*
X536435Y69900D02*
D03*
X525100Y62100D02*
D03*
X529300Y85300D02*
D03*
X614100Y92400D02*
D03*
X596090Y83200D02*
D03*
X507600Y57700D02*
D03*
X527412Y67587D02*
D03*
X554600Y55800D02*
D03*
X534813Y44615D02*
D03*
X583600Y49500D02*
D03*
X586800Y13200D02*
D03*
X585700Y34700D02*
D03*
X582600Y49300D02*
D03*
X526449Y45800D02*
D03*
X531200Y58000D02*
D03*
X618552Y83200D02*
D03*
X622300Y90300D02*
D03*
X591300Y105200D02*
D03*
X516900Y31700D02*
D03*
X538600Y33000D02*
D03*
X528000Y105300D02*
D03*
X555759Y93200D02*
D03*
X572100Y132100D02*
D03*
X596000Y91000D02*
D03*
X547499Y21400D02*
D03*
X595300Y22500D02*
D03*
X609120Y30000D02*
D03*
X555700Y14800D02*
D03*
X548465Y101346D02*
D03*
X553753Y101546D02*
D03*
X555653Y26780D02*
D03*
X608600Y59380D02*
D03*
X583727Y70400D02*
D03*
X578327D02*
D03*
X628200Y96391D02*
D03*
X539798Y61000D02*
D03*
X545248Y47900D02*
D03*
X507551Y63646D02*
D03*
X565780Y55600D02*
D03*
X615900Y27000D02*
D03*
X602700Y64500D02*
D03*
X615882Y32094D02*
D03*
X617118Y37094D02*
D03*
X614260Y59520D02*
D03*
X589409Y49858D02*
D03*
X571150Y49315D02*
D03*
X507551Y100953D02*
D03*
M02*
