G04 Layer_Color=128*
%FSLAX25Y25*%
%MOIN*%
G70*
G01*
G75*
%ADD12R,0.02756X0.03543*%
%ADD13R,0.01968X0.02362*%
%ADD14R,0.03543X0.02756*%
%ADD15R,0.02362X0.01968*%
%ADD35R,0.10236X0.05905*%
%ADD36R,0.06299X0.03937*%
%ADD37R,0.22441X0.21654*%
%ADD38C,0.04724*%
%ADD39R,0.03150X0.05905*%
%ADD40R,0.05905X0.03150*%
%ADD41O,0.06299X0.03937*%
%ADD42O,0.05512X0.03937*%
%ADD43R,0.02362X0.05905*%
D12*
X557047Y61000D02*
D03*
X562953D02*
D03*
X557047Y71000D02*
D03*
X562953D02*
D03*
X557047Y66000D02*
D03*
X562953D02*
D03*
D13*
X607000Y65031D02*
D03*
Y68968D02*
D03*
D14*
X620000Y57953D02*
D03*
Y52047D02*
D03*
X628000Y57953D02*
D03*
Y52047D02*
D03*
D15*
X547386Y58268D02*
D03*
X543449D02*
D03*
X589378Y65331D02*
D03*
X593315D02*
D03*
X589378Y69268D02*
D03*
X593315D02*
D03*
X599031Y58000D02*
D03*
X602968D02*
D03*
D35*
X594087Y40591D02*
D03*
Y28780D02*
D03*
X563772Y40591D02*
D03*
Y28780D02*
D03*
X578732Y40591D02*
D03*
Y28780D02*
D03*
X624000Y43906D02*
D03*
Y32094D02*
D03*
X609000Y48906D02*
D03*
Y37094D02*
D03*
D36*
X602134Y77004D02*
D03*
Y94996D02*
D03*
D37*
X573000Y86000D02*
D03*
D38*
X550465Y95984D02*
D03*
Y50709D02*
D03*
D39*
X540622Y51693D02*
D03*
X535898D02*
D03*
X531173D02*
D03*
X526449D02*
D03*
X521724D02*
D03*
X517000D02*
D03*
X512276D02*
D03*
X507551D02*
D03*
Y95000D02*
D03*
X512276D02*
D03*
X517000D02*
D03*
X521724D02*
D03*
X526449D02*
D03*
X531173D02*
D03*
X535898D02*
D03*
X540622D02*
D03*
D40*
X549480Y61535D02*
D03*
Y66260D02*
D03*
Y70984D02*
D03*
Y75709D02*
D03*
Y80433D02*
D03*
Y85157D02*
D03*
D41*
X500465Y53858D02*
D03*
Y92835D02*
D03*
D42*
X546528Y53858D02*
D03*
Y92835D02*
D03*
D43*
X618000Y74528D02*
D03*
X621740Y65472D02*
D03*
X614260D02*
D03*
M02*
