G04 Layer_Color=16711935*
%FSLAX25Y25*%
%MOIN*%
G70*
G01*
G75*
%ADD49R,0.03556X0.04343*%
%ADD50R,0.02768X0.03162*%
%ADD51R,0.04343X0.03556*%
%ADD52R,0.03162X0.02768*%
%ADD54C,0.05918*%
%ADD55R,0.06706X0.06706*%
%ADD56C,0.06706*%
%ADD57C,0.08083*%
%ADD58R,0.08083X0.08083*%
%ADD59R,0.08674X0.08674*%
%ADD60C,0.08674*%
%ADD61C,0.05800*%
%ADD62R,0.11036X0.06706*%
%ADD63R,0.07099X0.04737*%
%ADD64R,0.23241X0.22453*%
%ADD65C,0.05524*%
%ADD66R,0.03950X0.06706*%
%ADD67R,0.06706X0.03950*%
%ADD68O,0.07099X0.04737*%
%ADD69O,0.06312X0.04737*%
%ADD70R,0.03162X0.06706*%
D49*
X557047Y61000D02*
D03*
X562953D02*
D03*
X557047Y71000D02*
D03*
X562953D02*
D03*
X557047Y66000D02*
D03*
X562953D02*
D03*
D50*
X607000Y65031D02*
D03*
Y68968D02*
D03*
D51*
X620000Y57953D02*
D03*
Y52047D02*
D03*
X628000Y57953D02*
D03*
Y52047D02*
D03*
D52*
X547386Y58268D02*
D03*
X543449D02*
D03*
X589378Y65331D02*
D03*
X593315D02*
D03*
X589378Y69268D02*
D03*
X593315D02*
D03*
X599031Y58000D02*
D03*
X602968D02*
D03*
D54*
X581441Y7386D02*
D03*
X593646D02*
D03*
X561953Y7780D02*
D03*
X574157D02*
D03*
D55*
X498000Y111000D02*
D03*
X549488Y39764D02*
D03*
X587858Y126378D02*
D03*
D56*
X508000Y111000D02*
D03*
X518000D02*
D03*
X499488Y39764D02*
D03*
X509488D02*
D03*
X519488D02*
D03*
X529488D02*
D03*
X539488D02*
D03*
X577858Y126378D02*
D03*
X567858D02*
D03*
X557858D02*
D03*
D57*
X532000Y111000D02*
D03*
X506000Y28000D02*
D03*
D58*
X552000Y111000D02*
D03*
X526000Y28000D02*
D03*
D59*
X615591Y109000D02*
D03*
D60*
X574410D02*
D03*
D61*
X523600Y74700D02*
D03*
X516000Y69400D02*
D03*
X496600Y49000D02*
D03*
X542600Y79900D02*
D03*
X536500Y75943D02*
D03*
X536435Y69900D02*
D03*
X525100Y62100D02*
D03*
X529300Y85300D02*
D03*
X614100Y92400D02*
D03*
X596090Y83200D02*
D03*
X507600Y57700D02*
D03*
X527412Y67587D02*
D03*
X554600Y55800D02*
D03*
X534813Y44615D02*
D03*
X583600Y49500D02*
D03*
X586800Y13200D02*
D03*
X585700Y34700D02*
D03*
X582600Y49300D02*
D03*
X526449Y45800D02*
D03*
X531200Y58000D02*
D03*
X618552Y83200D02*
D03*
X622300Y90300D02*
D03*
X591300Y105200D02*
D03*
X516900Y31700D02*
D03*
X538600Y33000D02*
D03*
X528000Y105300D02*
D03*
X555759Y93200D02*
D03*
X572100Y132100D02*
D03*
X596000Y91000D02*
D03*
X547499Y21400D02*
D03*
X595300Y22500D02*
D03*
X609120Y30000D02*
D03*
X555700Y14800D02*
D03*
X548465Y101346D02*
D03*
X553753Y101546D02*
D03*
X555653Y26780D02*
D03*
X608600Y59380D02*
D03*
X583727Y70400D02*
D03*
X578327D02*
D03*
X628200Y96391D02*
D03*
X539798Y61000D02*
D03*
X545248Y47900D02*
D03*
X507551Y63646D02*
D03*
X565780Y55600D02*
D03*
X615900Y27000D02*
D03*
X602700Y64500D02*
D03*
X615882Y32094D02*
D03*
X617118Y37094D02*
D03*
X614260Y59520D02*
D03*
X589409Y49858D02*
D03*
X571150Y49315D02*
D03*
X507551Y100953D02*
D03*
D62*
X594087Y40591D02*
D03*
Y28780D02*
D03*
X563772Y40591D02*
D03*
Y28780D02*
D03*
X578732Y40591D02*
D03*
Y28780D02*
D03*
X624000Y43906D02*
D03*
Y32094D02*
D03*
X609000Y48906D02*
D03*
Y37094D02*
D03*
D63*
X602134Y77004D02*
D03*
Y94996D02*
D03*
D64*
X573000Y86000D02*
D03*
D65*
X550465Y95984D02*
D03*
Y50709D02*
D03*
D66*
X540622Y51693D02*
D03*
X535898D02*
D03*
X531173D02*
D03*
X526449D02*
D03*
X521724D02*
D03*
X517000D02*
D03*
X512276D02*
D03*
X507551D02*
D03*
Y95000D02*
D03*
X512276D02*
D03*
X517000D02*
D03*
X521724D02*
D03*
X526449D02*
D03*
X531173D02*
D03*
X535898D02*
D03*
X540622D02*
D03*
D67*
X549480Y61535D02*
D03*
Y66260D02*
D03*
Y70984D02*
D03*
Y75709D02*
D03*
Y80433D02*
D03*
Y85157D02*
D03*
D68*
X500465Y53858D02*
D03*
Y92835D02*
D03*
D69*
X546528Y53858D02*
D03*
Y92835D02*
D03*
D70*
X618000Y74528D02*
D03*
X621740Y65472D02*
D03*
X614260D02*
D03*
M02*
