G04 Layer_Color=2752767*
%FSLAX25Y25*%
%MOIN*%
G70*
G01*
G75*
%ADD74C,0.00200*%
%ADD76C,0.00267*%
D74*
X51759Y6586D02*
Y8186D01*
X53359D01*
Y6586D01*
X51759D01*
X39554D02*
Y8186D01*
X41154D01*
Y6586D01*
X39554D01*
X71247Y6980D02*
Y8580D01*
X72847D01*
Y6980D01*
X71247D01*
X59043D02*
Y8580D01*
X60643D01*
Y6980D01*
X59043D01*
X102000Y110200D02*
X101200Y111800D01*
X102800D01*
X102000Y110200D01*
X82000D02*
X81200Y111800D01*
X82800D01*
X82000Y110200D01*
X18409Y108200D02*
X18809Y108600D01*
X19209D01*
X18809Y109000D01*
X19209Y109400D01*
X18809D01*
X18409Y109800D01*
X18009Y109400D01*
X17609D01*
X18009Y109000D01*
X17609Y108600D01*
X18009D01*
X18409Y108200D01*
X59590D02*
X59990Y108600D01*
X60390D01*
X59990Y109000D01*
X60390Y109400D01*
X59990D01*
X59590Y109800D01*
X59190Y109400D01*
X58790D01*
X59190Y109000D01*
X58790Y108600D01*
X59190D01*
X59590Y108200D01*
X128000Y27200D02*
X127200Y28800D01*
X128800D01*
X128000Y27200D01*
X108000D02*
X107200Y28800D01*
X108800D01*
X108000Y27200D01*
X109600Y73900D02*
X110000Y74700D01*
X109600Y75500D01*
X110400Y75100D01*
X111200Y75500D01*
X110800Y74700D01*
X111200Y73900D01*
X110400Y74300D01*
X109600Y73900D01*
X117200Y68600D02*
X117600Y69400D01*
X117200Y70200D01*
X118000Y69800D01*
X118800Y70200D01*
X118400Y69400D01*
X118800Y68600D01*
X118000Y69000D01*
X117200Y68600D01*
X136600Y48200D02*
X137000Y49000D01*
X136600Y49800D01*
X137400Y49400D01*
X138200Y49800D01*
X137800Y49000D01*
X138200Y48200D01*
X137400Y48600D01*
X136600Y48200D01*
X90600Y79100D02*
X91000Y79900D01*
X90600Y80700D01*
X91400Y80300D01*
X92200Y80700D01*
X91800Y79900D01*
X92200Y79100D01*
X91400Y79500D01*
X90600Y79100D01*
X96700Y75143D02*
X97100Y75943D01*
X96700Y76743D01*
X97500Y76343D01*
X98300Y76743D01*
X97900Y75943D01*
X98300Y75143D01*
X97500Y75543D01*
X96700Y75143D01*
X96765Y69100D02*
X97165Y69900D01*
X96765Y70700D01*
X97565Y70300D01*
X98365Y70700D01*
X97965Y69900D01*
X98365Y69100D01*
X97565Y69500D01*
X96765Y69100D01*
X108100Y61300D02*
X108500Y62100D01*
X108100Y62900D01*
X108900Y62500D01*
X109700Y62900D01*
X109300Y62100D01*
X109700Y61300D01*
X108900Y61700D01*
X108100Y61300D01*
X103900Y84500D02*
X104300Y85300D01*
X103900Y86100D01*
X104700Y85700D01*
X105500Y86100D01*
X105100Y85300D01*
X105500Y84500D01*
X104700Y84900D01*
X103900Y84500D01*
X19100Y91600D02*
X19500Y92400D01*
X19100Y93200D01*
X19900Y92800D01*
X20700Y93200D01*
X20300Y92400D01*
X20700Y91600D01*
X19900Y92000D01*
X19100Y91600D01*
X37110Y82400D02*
X37510Y83200D01*
X37110Y84000D01*
X37910Y83600D01*
X38710Y84000D01*
X38310Y83200D01*
X38710Y82400D01*
X37910Y82800D01*
X37110Y82400D01*
X125600Y56900D02*
X126000Y57700D01*
X125600Y58500D01*
X126400Y58100D01*
X127200Y58500D01*
X126800Y57700D01*
X127200Y56900D01*
X126400Y57300D01*
X125600Y56900D01*
X105788Y66787D02*
X106188Y67587D01*
X105788Y68387D01*
X106588Y67987D01*
X107388Y68387D01*
X106988Y67587D01*
X107388Y66787D01*
X106588Y67187D01*
X105788Y66787D01*
X78600Y55000D02*
X79000Y55800D01*
X78600Y56600D01*
X79400Y56200D01*
X80200Y56600D01*
X79800Y55800D01*
X80200Y55000D01*
X79400Y55400D01*
X78600Y55000D01*
X98387Y43815D02*
X98787Y44615D01*
X98387Y45415D01*
X99187Y45015D01*
X99987Y45415D01*
X99587Y44615D01*
X99987Y43815D01*
X99187Y44215D01*
X98387Y43815D01*
X49600Y48700D02*
X50000Y49500D01*
X49600Y50300D01*
X50400Y49900D01*
X51200Y50300D01*
X50800Y49500D01*
X51200Y48700D01*
X50400Y49100D01*
X49600Y48700D01*
X46400Y12400D02*
X46800Y13200D01*
X46400Y14000D01*
X47200Y13600D01*
X48000Y14000D01*
X47600Y13200D01*
X48000Y12400D01*
X47200Y12800D01*
X46400Y12400D01*
X47500Y33900D02*
X47900Y34700D01*
X47500Y35500D01*
X48300Y35100D01*
X49100Y35500D01*
X48700Y34700D01*
X49100Y33900D01*
X48300Y34300D01*
X47500Y33900D01*
X50600Y48500D02*
X51000Y49300D01*
X50600Y50100D01*
X51400Y49700D01*
X52200Y50100D01*
X51800Y49300D01*
X52200Y48500D01*
X51400Y48900D01*
X50600Y48500D01*
X106751Y45000D02*
X107151Y45800D01*
X106751Y46600D01*
X107551Y46200D01*
X108351Y46600D01*
X107951Y45800D01*
X108351Y45000D01*
X107551Y45400D01*
X106751Y45000D01*
X102000Y57200D02*
X102400Y58000D01*
X102000Y58800D01*
X102800Y58400D01*
X103600Y58800D01*
X103200Y58000D01*
X103600Y57200D01*
X102800Y57600D01*
X102000Y57200D01*
X14648Y82400D02*
X15048Y83200D01*
X14648Y84000D01*
X15448Y83600D01*
X16248Y84000D01*
X15848Y83200D01*
X16248Y82400D01*
X15448Y82800D01*
X14648Y82400D01*
X10900Y89500D02*
X11300Y90300D01*
X10900Y91100D01*
X11700Y90700D01*
X12500Y91100D01*
X12100Y90300D01*
X12500Y89500D01*
X11700Y89900D01*
X10900Y89500D01*
X41900Y104400D02*
X42300Y105200D01*
X41900Y106000D01*
X42700Y105600D01*
X43500Y106000D01*
X43100Y105200D01*
X43500Y104400D01*
X42700Y104800D01*
X41900Y104400D01*
X116300Y30900D02*
X116700Y31700D01*
X116300Y32500D01*
X117100Y32100D01*
X117900Y32500D01*
X117500Y31700D01*
X117900Y30900D01*
X117100Y31300D01*
X116300Y30900D01*
X94600Y32200D02*
X95000Y33000D01*
X94600Y33800D01*
X95400Y33400D01*
X96200Y33800D01*
X95800Y33000D01*
X96200Y32200D01*
X95400Y32600D01*
X94600Y32200D01*
X105200Y104500D02*
X105600Y105300D01*
X105200Y106100D01*
X106000Y105700D01*
X106800Y106100D01*
X106400Y105300D01*
X106800Y104500D01*
X106000Y104900D01*
X105200Y104500D01*
X77441Y92400D02*
X77841Y93200D01*
X77441Y94000D01*
X78241Y93600D01*
X79041Y94000D01*
X78641Y93200D01*
X79041Y92400D01*
X78241Y92800D01*
X77441Y92400D01*
X61100Y131300D02*
X61500Y132100D01*
X61100Y132900D01*
X61900Y132500D01*
X62700Y132900D01*
X62300Y132100D01*
X62700Y131300D01*
X61900Y131700D01*
X61100Y131300D01*
X37200Y90200D02*
X37600Y91000D01*
X37200Y91800D01*
X38000Y91400D01*
X38800Y91800D01*
X38400Y91000D01*
X38800Y90200D01*
X38000Y90600D01*
X37200Y90200D01*
X85701Y20600D02*
X86101Y21400D01*
X85701Y22200D01*
X86501Y21800D01*
X87301Y22200D01*
X86901Y21400D01*
X87301Y20600D01*
X86501Y21000D01*
X85701Y20600D01*
X37900Y21700D02*
X38300Y22500D01*
X37900Y23300D01*
X38700Y22900D01*
X39500Y23300D01*
X39100Y22500D01*
X39500Y21700D01*
X38700Y22100D01*
X37900Y21700D01*
X24080Y29200D02*
X24480Y30000D01*
X24080Y30800D01*
X24880Y30400D01*
X25680Y30800D01*
X25280Y30000D01*
X25680Y29200D01*
X24880Y29600D01*
X24080Y29200D01*
X77500Y14000D02*
X77900Y14800D01*
X77500Y15600D01*
X78300Y15200D01*
X79100Y15600D01*
X78700Y14800D01*
X79100Y14000D01*
X78300Y14400D01*
X77500Y14000D01*
X84735Y100546D02*
X85135Y101346D01*
X84735Y102146D01*
X85535Y101746D01*
X86335Y102146D01*
X85935Y101346D01*
X86335Y100546D01*
X85535Y100946D01*
X84735Y100546D01*
X79447Y100746D02*
X79847Y101546D01*
X79447Y102346D01*
X80247Y101946D01*
X81047Y102346D01*
X80647Y101546D01*
X81047Y100746D01*
X80247Y101146D01*
X79447Y100746D01*
X77547Y25980D02*
X77947Y26780D01*
X77547Y27580D01*
X78347Y27180D01*
X79147Y27580D01*
X78747Y26780D01*
X79147Y25980D01*
X78347Y26380D01*
X77547Y25980D01*
X24600Y58580D02*
X25000Y59380D01*
X24600Y60180D01*
X25400Y59780D01*
X26200Y60180D01*
X25800Y59380D01*
X26200Y58580D01*
X25400Y58980D01*
X24600Y58580D01*
X49473Y69600D02*
X49873Y70400D01*
X49473Y71200D01*
X50273Y70800D01*
X51073Y71200D01*
X50673Y70400D01*
X51073Y69600D01*
X50273Y70000D01*
X49473Y69600D01*
X54873D02*
X55273Y70400D01*
X54873Y71200D01*
X55673Y70800D01*
X56473Y71200D01*
X56073Y70400D01*
X56473Y69600D01*
X55673Y70000D01*
X54873Y69600D01*
X5000Y95591D02*
X5400Y96391D01*
X5000Y97191D01*
X5800Y96791D01*
X6600Y97191D01*
X6200Y96391D01*
X6600Y95591D01*
X5800Y95991D01*
X5000Y95591D01*
X93402Y60200D02*
X93802Y61000D01*
X93402Y61800D01*
X94202Y61400D01*
X95002Y61800D01*
X94602Y61000D01*
X95002Y60200D01*
X94202Y60600D01*
X93402Y60200D01*
X87952Y47100D02*
X88352Y47900D01*
X87952Y48700D01*
X88752Y48300D01*
X89552Y48700D01*
X89152Y47900D01*
X89552Y47100D01*
X88752Y47500D01*
X87952Y47100D01*
X125649Y62846D02*
X126049Y63646D01*
X125649Y64446D01*
X126449Y64046D01*
X127249Y64446D01*
X126849Y63646D01*
X127249Y62846D01*
X126449Y63246D01*
X125649Y62846D01*
X67420Y54800D02*
X67820Y55600D01*
X67420Y56400D01*
X68220Y56000D01*
X69020Y56400D01*
X68620Y55600D01*
X69020Y54800D01*
X68220Y55200D01*
X67420Y54800D01*
X17300Y26200D02*
X17700Y27000D01*
X17300Y27800D01*
X18100Y27400D01*
X18900Y27800D01*
X18500Y27000D01*
X18900Y26200D01*
X18100Y26600D01*
X17300Y26200D01*
X30500Y63700D02*
X30900Y64500D01*
X30500Y65300D01*
X31300Y64900D01*
X32100Y65300D01*
X31700Y64500D01*
X32100Y63700D01*
X31300Y64100D01*
X30500Y63700D01*
X17318Y31294D02*
X17718Y32094D01*
X17318Y32894D01*
X18118Y32494D01*
X18918Y32894D01*
X18518Y32094D01*
X18918Y31294D01*
X18118Y31694D01*
X17318Y31294D01*
X16082Y36294D02*
X16482Y37094D01*
X16082Y37894D01*
X16882Y37494D01*
X17682Y37894D01*
X17282Y37094D01*
X17682Y36294D01*
X16882Y36694D01*
X16082Y36294D01*
X18940Y58720D02*
X19340Y59520D01*
X18940Y60320D01*
X19740Y59920D01*
X20540Y60320D01*
X20140Y59520D01*
X20540Y58720D01*
X19740Y59120D01*
X18940Y58720D01*
X43791Y49058D02*
X44191Y49858D01*
X43791Y50658D01*
X44591Y50258D01*
X45391Y50658D01*
X44991Y49858D01*
X45391Y49058D01*
X44591Y49458D01*
X43791Y49058D01*
X62050Y48515D02*
X62450Y49315D01*
X62050Y50115D01*
X62850Y49715D01*
X63650Y50115D01*
X63250Y49315D01*
X63650Y48515D01*
X62850Y48915D01*
X62050Y48515D01*
X125649Y100153D02*
X126049Y100953D01*
X125649Y101753D01*
X126449Y101353D01*
X127249Y101753D01*
X126849Y100953D01*
X127249Y100153D01*
X126449Y100553D01*
X125649Y100153D01*
D76*
X136800Y111000D02*
G03*
X136800Y111000I-800J0D01*
G01*
X126800D02*
G03*
X126800Y111000I-800J0D01*
G01*
X116800D02*
G03*
X116800Y111000I-800J0D01*
G01*
X135312Y39764D02*
G03*
X135312Y39764I-800J0D01*
G01*
X125312D02*
G03*
X125312Y39764I-800J0D01*
G01*
X115312D02*
G03*
X115312Y39764I-800J0D01*
G01*
X105312D02*
G03*
X105312Y39764I-800J0D01*
G01*
X95312D02*
G03*
X95312Y39764I-800J0D01*
G01*
X85312D02*
G03*
X85312Y39764I-800J0D01*
G01*
X46942Y126378D02*
G03*
X46942Y126378I-800J0D01*
G01*
X56942D02*
G03*
X56942Y126378I-800J0D01*
G01*
X66942D02*
G03*
X66942Y126378I-800J0D01*
G01*
X76942D02*
G03*
X76942Y126378I-800J0D01*
G01*
M02*
