G04 Layer_Color=0*
%FSLAX25Y25*%
%MOIN*%
G70*
G01*
G75*
%ADD73C,0.00500*%
%ADD74C,0.00200*%
%ADD75C,0.00700*%
D73*
X29500Y-213000D02*
Y-193000D01*
X62000D02*
Y-133000D01*
X-148000Y-193000D02*
Y-133000D01*
X212000Y-193000D02*
Y-73000D01*
X-238000Y-193000D02*
Y-73000D01*
X62000D02*
X-238000D01*
X62000Y-133000D02*
Y-73000D01*
X212000D02*
X62000D01*
X212000Y-133000D02*
X-238000D01*
X212000Y-163000D02*
X-238000D01*
X212000Y-193000D02*
X-238000D01*
X212000Y-103000D02*
X62000D01*
X352000Y-73000D02*
X212000D01*
X352000Y-193000D02*
Y-73000D01*
Y-193000D02*
X212000D01*
X317000Y-213000D02*
Y-193000D01*
X604500Y-213000D02*
Y-193000D01*
X892000Y-23000D02*
X872000D01*
X892000Y167000D02*
X872000D01*
X892000Y357000D02*
X872000D01*
X892000Y-213000D02*
Y547000D01*
X608850Y-232750D02*
X588850D01*
X608850Y-42750D02*
X588850D01*
X-238000Y357000D02*
X-258000D01*
X29500Y527000D02*
Y547000D01*
X317000Y527000D02*
Y547000D01*
X604500Y527000D02*
Y547000D01*
X872000Y527000D02*
X-238000D01*
Y-193000D02*
Y527000D01*
X872000Y-193000D02*
X-238000D01*
X872000D02*
Y527000D01*
X892000Y547000D02*
X-258000D01*
Y-213000D02*
Y547000D01*
X892000Y-213000D02*
X-258000D01*
X-155999Y-169144D02*
X-155571Y-168715D01*
X-154928Y-168501D01*
X-154071D01*
X-153428Y-168715D01*
X-153000Y-169144D01*
Y-169572D01*
X-153214Y-170001D01*
X-153428Y-170215D01*
X-153857Y-170429D01*
X-155142Y-170858D01*
X-155571Y-171072D01*
X-155785Y-171286D01*
X-155999Y-171715D01*
Y-172357D01*
X-155571Y-172786D01*
X-154928Y-173000D01*
X-154071D01*
X-153428Y-172786D01*
X-153000Y-172357D01*
X-160220Y-169572D02*
X-160006Y-169144D01*
X-159577Y-168715D01*
X-159149Y-168501D01*
X-158292D01*
X-157863Y-168715D01*
X-157435Y-169144D01*
X-157220Y-169572D01*
X-157006Y-170215D01*
Y-171286D01*
X-157220Y-171929D01*
X-157435Y-172357D01*
X-157863Y-172786D01*
X-158292Y-173000D01*
X-159149D01*
X-159577Y-172786D01*
X-160006Y-172357D01*
X-160220Y-171929D01*
X-164912Y-173000D02*
X-163198Y-168501D01*
X-161484Y-173000D01*
X-162127Y-171500D02*
X-164269D01*
X-165962Y-168501D02*
Y-173000D01*
X-168532D01*
X-171810Y-168501D02*
X-169025D01*
Y-173000D01*
X-171810D01*
X-169025Y-170643D02*
X-170739D01*
X-172774Y-170001D02*
X-172560Y-170215D01*
X-172774Y-170429D01*
X-172989Y-170215D01*
X-172774Y-170001D01*
Y-172572D02*
X-172560Y-172786D01*
X-172774Y-173000D01*
X-172989Y-172786D01*
X-172774Y-172572D01*
X207000Y-168501D02*
Y-173000D01*
Y-168501D02*
X204215D01*
X207000Y-170643D02*
X205286D01*
X203701Y-168501D02*
Y-173000D01*
X202758Y-168501D02*
Y-173000D01*
X200187D01*
X196909Y-168501D02*
X199694D01*
Y-173000D01*
X196909D01*
X199694Y-170643D02*
X197980D01*
X192624Y-168501D02*
Y-173000D01*
Y-168501D02*
X189625Y-173000D01*
Y-168501D02*
Y-173000D01*
X184955D02*
X186669Y-168501D01*
X188382Y-173000D01*
X187740Y-171500D02*
X185597D01*
X183905Y-168501D02*
Y-173000D01*
Y-168501D02*
X182191Y-173000D01*
X180477Y-168501D02*
X182191Y-173000D01*
X180477Y-168501D02*
Y-173000D01*
X176407Y-168501D02*
X179192D01*
Y-173000D01*
X176407D01*
X179192Y-170643D02*
X177478D01*
X175443Y-170001D02*
X175657Y-170215D01*
X175443Y-170429D01*
X175228Y-170215D01*
X175443Y-170001D01*
Y-172572D02*
X175657Y-172786D01*
X175443Y-173000D01*
X175228Y-172786D01*
X175443Y-172572D01*
X207000Y-110358D02*
X205072D01*
X204429Y-110143D01*
X204215Y-109929D01*
X204001Y-109501D01*
Y-108858D01*
X204215Y-108429D01*
X204429Y-108215D01*
X205072Y-108001D01*
X207000D01*
Y-112500D01*
X199780Y-109072D02*
X199994Y-108644D01*
X200423Y-108215D01*
X200851Y-108001D01*
X201708D01*
X202137Y-108215D01*
X202565Y-108644D01*
X202780Y-109072D01*
X202994Y-109715D01*
Y-110786D01*
X202780Y-111429D01*
X202565Y-111857D01*
X202137Y-112286D01*
X201708Y-112500D01*
X200851D01*
X200423Y-112286D01*
X199994Y-111857D01*
X199780Y-111429D01*
X198516Y-108001D02*
Y-112500D01*
Y-108001D02*
X196588D01*
X195945Y-108215D01*
X195731Y-108429D01*
X195517Y-108858D01*
Y-109286D01*
X195731Y-109715D01*
X195945Y-109929D01*
X196588Y-110143D01*
X198516D02*
X196588D01*
X195945Y-110358D01*
X195731Y-110572D01*
X195517Y-111000D01*
Y-111643D01*
X195731Y-112072D01*
X195945Y-112286D01*
X196588Y-112500D01*
X198516D01*
X190975Y-108001D02*
Y-112500D01*
Y-108001D02*
X189475D01*
X188832Y-108215D01*
X188404Y-108644D01*
X188190Y-109072D01*
X187976Y-109715D01*
Y-110786D01*
X188190Y-111429D01*
X188404Y-111857D01*
X188832Y-112286D01*
X189475Y-112500D01*
X190975D01*
X184184Y-108001D02*
X186969D01*
Y-112500D01*
X184184D01*
X186969Y-110143D02*
X185255D01*
X180434Y-108644D02*
X180863Y-108215D01*
X181506Y-108001D01*
X182362D01*
X183005Y-108215D01*
X183434Y-108644D01*
Y-109072D01*
X183219Y-109501D01*
X183005Y-109715D01*
X182577Y-109929D01*
X181291Y-110358D01*
X180863Y-110572D01*
X180649Y-110786D01*
X180434Y-111215D01*
Y-111857D01*
X180863Y-112286D01*
X181506Y-112500D01*
X182362D01*
X183005Y-112286D01*
X183434Y-111857D01*
X179427Y-108001D02*
Y-112500D01*
X175271Y-109072D02*
X175485Y-108644D01*
X175914Y-108215D01*
X176342Y-108001D01*
X177199D01*
X177628Y-108215D01*
X178056Y-108644D01*
X178270Y-109072D01*
X178485Y-109715D01*
Y-110786D01*
X178270Y-111429D01*
X178056Y-111857D01*
X177628Y-112286D01*
X177199Y-112500D01*
X176342D01*
X175914Y-112286D01*
X175485Y-111857D01*
X175271Y-111429D01*
Y-110786D01*
X176342D02*
X175271D01*
X174243Y-108001D02*
Y-112500D01*
Y-108001D02*
X171243Y-112500D01*
Y-108001D02*
Y-112500D01*
X167216Y-108001D02*
X170001D01*
Y-112500D01*
X167216D01*
X170001Y-110143D02*
X168287D01*
X166466Y-108001D02*
Y-112500D01*
Y-108001D02*
X164538D01*
X163895Y-108215D01*
X163681Y-108429D01*
X163467Y-108858D01*
Y-109286D01*
X163681Y-109715D01*
X163895Y-109929D01*
X164538Y-110143D01*
X166466D01*
X164966D02*
X163467Y-112500D01*
X162245Y-109501D02*
X162460Y-109715D01*
X162245Y-109929D01*
X162031Y-109715D01*
X162245Y-109501D01*
Y-112072D02*
X162460Y-112286D01*
X162245Y-112500D01*
X162031Y-112286D01*
X162245Y-112072D01*
X55500Y-78501D02*
Y-83000D01*
X57000Y-78501D02*
X54001D01*
X53465D02*
Y-83000D01*
X51023Y-78501D02*
Y-83000D01*
X52522Y-78501D02*
X49523D01*
X48987D02*
Y-83000D01*
X46417D01*
X43139Y-78501D02*
X45924D01*
Y-83000D01*
X43139D01*
X45924Y-80643D02*
X44210D01*
X42175Y-80001D02*
X42389Y-80215D01*
X42175Y-80429D01*
X41960Y-80215D01*
X42175Y-80001D01*
Y-82572D02*
X42389Y-82786D01*
X42175Y-83000D01*
X41960Y-82786D01*
X42175Y-82572D01*
X57000Y-140858D02*
X55072D01*
X54429Y-140643D01*
X54215Y-140429D01*
X54001Y-140001D01*
Y-139358D01*
X54215Y-138929D01*
X54429Y-138715D01*
X55072Y-138501D01*
X57000D01*
Y-143000D01*
X49566D02*
X51280Y-138501D01*
X52994Y-143000D01*
X52351Y-141500D02*
X50209D01*
X48516Y-138501D02*
Y-143000D01*
Y-138501D02*
X46588D01*
X45945Y-138715D01*
X45731Y-138929D01*
X45517Y-139358D01*
Y-139786D01*
X45731Y-140215D01*
X45945Y-140429D01*
X46588Y-140643D01*
X48516D01*
X47016D02*
X45517Y-143000D01*
X43010Y-138501D02*
Y-143000D01*
X44510Y-138501D02*
X41510D01*
X37440D02*
Y-143000D01*
Y-138501D02*
X34441Y-143000D01*
Y-138501D02*
Y-143000D01*
X31912Y-138501D02*
X32341Y-138715D01*
X32770Y-139144D01*
X32984Y-139572D01*
X33198Y-140215D01*
Y-141286D01*
X32984Y-141929D01*
X32770Y-142357D01*
X32341Y-142786D01*
X31912Y-143000D01*
X31056D01*
X30627Y-142786D01*
X30199Y-142357D01*
X29984Y-141929D01*
X29770Y-141286D01*
Y-140215D01*
X29984Y-139572D01*
X30199Y-139144D01*
X30627Y-138715D01*
X31056Y-138501D01*
X31912D01*
X28506Y-142571D02*
X28720Y-142786D01*
X28506Y-143000D01*
X28292Y-142786D01*
X28506Y-142571D01*
X27092Y-140001D02*
X27306Y-140215D01*
X27092Y-140429D01*
X26878Y-140215D01*
X27092Y-140001D01*
Y-142571D02*
X27306Y-142786D01*
X27092Y-143000D01*
X26878Y-142786D01*
X27092Y-142571D01*
X204215Y-78501D02*
X207000D01*
Y-83000D01*
X204215D01*
X207000Y-80643D02*
X205286D01*
X203465Y-78501D02*
Y-83000D01*
Y-78501D02*
X200466Y-83000D01*
Y-78501D02*
Y-83000D01*
X196010Y-79572D02*
X196224Y-79144D01*
X196652Y-78715D01*
X197081Y-78501D01*
X197938D01*
X198366Y-78715D01*
X198795Y-79144D01*
X199009Y-79572D01*
X199223Y-80215D01*
Y-81286D01*
X199009Y-81929D01*
X198795Y-82357D01*
X198366Y-82786D01*
X197938Y-83000D01*
X197081D01*
X196652Y-82786D01*
X196224Y-82357D01*
X196010Y-81929D01*
Y-81286D01*
X197081D02*
X196010D01*
X194981Y-78501D02*
Y-83000D01*
X194038Y-78501D02*
Y-83000D01*
Y-78501D02*
X191039Y-83000D01*
Y-78501D02*
Y-83000D01*
X187011Y-78501D02*
X189796D01*
Y-83000D01*
X187011D01*
X189796Y-80643D02*
X188083D01*
X183476Y-78501D02*
X186262D01*
Y-83000D01*
X183476D01*
X186262Y-80643D02*
X184548D01*
X182727Y-78501D02*
Y-83000D01*
Y-78501D02*
X180798D01*
X180156Y-78715D01*
X179941Y-78929D01*
X179727Y-79358D01*
Y-79786D01*
X179941Y-80215D01*
X180156Y-80429D01*
X180798Y-80643D01*
X182727D01*
X181227D02*
X179727Y-83000D01*
X178506Y-80001D02*
X178720Y-80215D01*
X178506Y-80429D01*
X178292Y-80215D01*
X178506Y-80001D01*
Y-82572D02*
X178720Y-82786D01*
X178506Y-83000D01*
X178292Y-82786D01*
X178506Y-82572D01*
X57000Y-168501D02*
Y-173000D01*
Y-168501D02*
X55500D01*
X54858Y-168715D01*
X54429Y-169144D01*
X54215Y-169572D01*
X54001Y-170215D01*
Y-171286D01*
X54215Y-171929D01*
X54429Y-172357D01*
X54858Y-172786D01*
X55500Y-173000D01*
X57000D01*
X52994Y-168501D02*
X51923Y-173000D01*
X50851Y-168501D02*
X51923Y-173000D01*
X50851Y-168501D02*
X49780Y-173000D01*
X48709Y-168501D02*
X49780Y-173000D01*
X44596Y-169572D02*
X44810Y-169144D01*
X45238Y-168715D01*
X45667Y-168501D01*
X46524D01*
X46952Y-168715D01*
X47381Y-169144D01*
X47595Y-169572D01*
X47809Y-170215D01*
Y-171286D01*
X47595Y-171929D01*
X47381Y-172357D01*
X46952Y-172786D01*
X46524Y-173000D01*
X45667D01*
X45238Y-172786D01*
X44810Y-172357D01*
X44596Y-171929D01*
Y-171286D01*
X45667D02*
X44596D01*
X40032Y-168501D02*
Y-173000D01*
Y-168501D02*
X37033Y-173000D01*
Y-168501D02*
Y-173000D01*
X34505Y-168501D02*
X34933Y-168715D01*
X35362Y-169144D01*
X35576Y-169572D01*
X35790Y-170215D01*
Y-171286D01*
X35576Y-171929D01*
X35362Y-172357D01*
X34933Y-172786D01*
X34505Y-173000D01*
X33648D01*
X33219Y-172786D01*
X32791Y-172357D01*
X32577Y-171929D01*
X32362Y-171286D01*
Y-170215D01*
X32577Y-169572D01*
X32791Y-169144D01*
X33219Y-168715D01*
X33648Y-168501D01*
X34505D01*
X31098Y-170001D02*
X31313Y-170215D01*
X31098Y-170429D01*
X30884Y-170215D01*
X31098Y-170001D01*
Y-172572D02*
X31313Y-172786D01*
X31098Y-173000D01*
X30884Y-172786D01*
X31098Y-172572D01*
X-153000Y-138501D02*
Y-143000D01*
Y-138501D02*
X-154928D01*
X-155571Y-138715D01*
X-155785Y-138929D01*
X-155999Y-139358D01*
Y-139786D01*
X-155785Y-140215D01*
X-155571Y-140429D01*
X-154928Y-140643D01*
X-153000D01*
X-154500D02*
X-155999Y-143000D01*
X-159791Y-138501D02*
X-157006D01*
Y-143000D01*
X-159791D01*
X-157006Y-140643D02*
X-158720D01*
X-160541Y-138501D02*
X-162255Y-143000D01*
X-163969Y-138501D02*
X-162255Y-143000D01*
X-164762Y-140001D02*
X-164548Y-140215D01*
X-164762Y-140429D01*
X-164976Y-140215D01*
X-164762Y-140001D01*
Y-142571D02*
X-164548Y-142786D01*
X-164762Y-143000D01*
X-164976Y-142786D01*
X-164762Y-142571D01*
X207000Y-138501D02*
Y-143000D01*
Y-138501D02*
X205500D01*
X204858Y-138715D01*
X204429Y-139144D01*
X204215Y-139572D01*
X204001Y-140215D01*
Y-141286D01*
X204215Y-141929D01*
X204429Y-142357D01*
X204858Y-142786D01*
X205500Y-143000D01*
X207000D01*
X199566D02*
X201280Y-138501D01*
X202994Y-143000D01*
X202351Y-141500D02*
X200209D01*
X197016Y-138501D02*
Y-143000D01*
X198516Y-138501D02*
X195517D01*
X192196D02*
X194981D01*
Y-143000D01*
X192196D01*
X194981Y-140643D02*
X193267D01*
X191232Y-140001D02*
X191446Y-140215D01*
X191232Y-140429D01*
X191018Y-140215D01*
X191232Y-140001D01*
Y-142571D02*
X191446Y-142786D01*
X191232Y-143000D01*
X191018Y-142786D01*
X191232Y-142571D01*
D74*
X329900Y-82000D02*
X222500D01*
X331100Y-82200D02*
X222500D01*
X331700Y-82400D02*
X222500D01*
X332300Y-82600D02*
X222500D01*
X332900Y-82800D02*
X222500D01*
X333300Y-83000D02*
X222500D01*
X333700Y-83200D02*
X222500D01*
X334100Y-83400D02*
X222500D01*
X334500Y-83600D02*
X222500D01*
X334900Y-83800D02*
X222500D01*
X335100Y-84000D02*
X222500D01*
X335500Y-84200D02*
X222500D01*
X335700Y-84400D02*
X222500D01*
X335900Y-84600D02*
X222500D01*
X336100Y-84800D02*
X222500D01*
X336500Y-85000D02*
X222500D01*
X336700Y-85200D02*
X222500D01*
X336900Y-85400D02*
X222500D01*
X337100Y-85600D02*
X222500D01*
X337300Y-85800D02*
X222500D01*
X337500Y-86000D02*
X222500D01*
X337500Y-86200D02*
X222500D01*
X337700Y-86400D02*
X222500D01*
X337900Y-86600D02*
X222500D01*
X338100Y-86800D02*
X222500D01*
X338300Y-87000D02*
X222500D01*
X338300Y-87200D02*
X222500D01*
X338500Y-87400D02*
X222500D01*
X338700Y-87600D02*
X222500D01*
X338900Y-87800D02*
X222500D01*
X338900Y-88000D02*
X222500D01*
X339100Y-88200D02*
X222500D01*
X339100Y-88400D02*
X222500D01*
X339300Y-88600D02*
X222500D01*
X339500Y-88800D02*
X222500D01*
X339500Y-89000D02*
X222500D01*
X339500Y-89200D02*
X222500D01*
X339700Y-89400D02*
X222500D01*
X339700Y-89600D02*
X222500D01*
X339900Y-89800D02*
X222500D01*
X339900Y-90000D02*
X222500D01*
X340100Y-90200D02*
X222500D01*
X340100Y-90400D02*
X222500D01*
X340100Y-90600D02*
X222500D01*
X340300Y-90800D02*
X222500D01*
X340300Y-91000D02*
X222500D01*
X340300Y-91200D02*
X222500D01*
X340300Y-91400D02*
X222500D01*
X340500Y-91600D02*
X222500D01*
X340500Y-91800D02*
X315700D01*
X311500D02*
X303900D01*
X297700D02*
X222500D01*
X340500Y-92000D02*
X316900D01*
X311500D02*
X304100D01*
X297900D02*
X294900D01*
X288700D02*
X222500D01*
X340500Y-92200D02*
X317500D01*
X311500D02*
X304100D01*
X297900D02*
X294900D01*
X288900D02*
X222500D01*
X340500Y-92400D02*
X318100D01*
X311500D02*
X304100D01*
X297900D02*
X295100D01*
X288900D02*
X222500D01*
X340500Y-92600D02*
X318500D01*
X311500D02*
X304100D01*
X297900D02*
X295100D01*
X288900D02*
X222500D01*
X340500Y-92800D02*
X318900D01*
X311500D02*
X304300D01*
X298100D02*
X295100D01*
X288900D02*
X222500D01*
X340500Y-93000D02*
X319300D01*
X311500D02*
X304300D01*
X298100D02*
X295100D01*
X289100D02*
X222500D01*
X340500Y-93200D02*
X319500D01*
X311300D02*
X304300D01*
X298100D02*
X295300D01*
X289100D02*
X222500D01*
X340500Y-93400D02*
X319900D01*
X311300D02*
X304300D01*
X298100D02*
X295300D01*
X289100D02*
X222500D01*
X340500Y-93600D02*
X320100D01*
X311300D02*
X304500D01*
X298300D02*
X295300D01*
X289100D02*
X222500D01*
X340500Y-93800D02*
X320300D01*
X311300D02*
X304500D01*
X298300D02*
X295300D01*
X289300D02*
X222500D01*
X340500Y-94000D02*
X320500D01*
X311300D02*
X304500D01*
X298300D02*
X295500D01*
X289300D02*
X222500D01*
X340500Y-94200D02*
X320700D01*
X311300D02*
X304500D01*
X298300D02*
X295500D01*
X289300D02*
X222500D01*
X340500Y-94400D02*
X320900D01*
X311300D02*
X304700D01*
X298500D02*
X295500D01*
X289300D02*
X222500D01*
X340500Y-94600D02*
X321100D01*
X311300D02*
X304700D01*
X298500D02*
X295500D01*
X289500D02*
X222500D01*
X340500Y-94800D02*
X321300D01*
X311300D02*
X304700D01*
X298500D02*
X295700D01*
X289500D02*
X222500D01*
X340500Y-95000D02*
X321500D01*
X311300D02*
X304700D01*
X298500D02*
X295700D01*
X289500D02*
X222500D01*
X340500Y-95200D02*
X321700D01*
X311300D02*
X304900D01*
X298700D02*
X295700D01*
X289700D02*
X222500D01*
X340500Y-95400D02*
X321700D01*
X311300D02*
X304900D01*
X298700D02*
X295700D01*
X289700D02*
X222500D01*
X340500Y-95600D02*
X321900D01*
X311300D02*
X304900D01*
X298700D02*
X295900D01*
X289700D02*
X222500D01*
X340500Y-95800D02*
X322100D01*
X311300D02*
X304900D01*
X298700D02*
X295900D01*
X289700D02*
X222500D01*
X340500Y-96000D02*
X322100D01*
X311300D02*
X304900D01*
X298900D02*
X295900D01*
X289900D02*
X222500D01*
X340500Y-96200D02*
X322300D01*
X311300D02*
X305100D01*
X298900D02*
X295900D01*
X289900D02*
X222500D01*
X340500Y-96400D02*
X322300D01*
X311300D02*
X305100D01*
X298900D02*
X296100D01*
X289900D02*
X222500D01*
X340500Y-96600D02*
X322500D01*
X311300D02*
X305100D01*
X298900D02*
X296100D01*
X289900D02*
X247500D01*
X245300D02*
X237900D01*
X235900D02*
X222500D01*
X340500Y-96800D02*
X322500D01*
X311300D02*
X305100D01*
X299100D02*
X296100D01*
X290100D02*
X248700D01*
X244500D02*
X239100D01*
X234900D02*
X222500D01*
X340500Y-97000D02*
X322700D01*
X311300D02*
X305300D01*
X299100D02*
X296100D01*
X287500D02*
X249300D01*
X243900D02*
X239700D01*
X234500D02*
X222500D01*
X340500Y-97200D02*
X322700D01*
X317100D02*
X316900D01*
X311300D02*
X305300D01*
X299100D02*
X296300D01*
X287500D02*
X285300D01*
X279100D02*
X276500D01*
X270300D02*
X266900D01*
X260700D02*
X257700D01*
X251500D02*
X249700D01*
X243700D02*
X240100D01*
X234100D02*
X222500D01*
X340500Y-97400D02*
X322900D01*
X317100D02*
X316900D01*
X311300D02*
X305300D01*
X299100D02*
X296300D01*
X287700D02*
X285300D01*
X279300D02*
X276500D01*
X270300D02*
X266900D01*
X260700D02*
X257700D01*
X251500D02*
X250100D01*
X243300D02*
X240500D01*
X233700D02*
X222500D01*
X340500Y-97600D02*
X322900D01*
X317300D02*
X316900D01*
X311300D02*
X305300D01*
X299300D02*
X296300D01*
X287700D02*
X285500D01*
X279300D02*
X276500D01*
X270300D02*
X266900D01*
X260700D02*
X257700D01*
X251500D02*
X250300D01*
X243100D02*
X240900D01*
X233500D02*
X222500D01*
X340500Y-97800D02*
X323100D01*
X317300D02*
X316900D01*
X311300D02*
X305500D01*
X299300D02*
X296300D01*
X287700D02*
X285500D01*
X279300D02*
X276500D01*
X270500D02*
X266900D01*
X260900D02*
X257900D01*
X251700D02*
X250700D01*
X243100D02*
X241300D01*
X233300D02*
X222500D01*
X340500Y-98000D02*
X323100D01*
X317500D02*
X316900D01*
X311300D02*
X305500D01*
X299300D02*
X296500D01*
X287700D02*
X285500D01*
X279300D02*
X276700D01*
X270500D02*
X267100D01*
X260900D02*
X257900D01*
X251700D02*
X250900D01*
X242900D02*
X241500D01*
X233300D02*
X222500D01*
X340500Y-98200D02*
X323300D01*
X317500D02*
X316900D01*
X311300D02*
X305500D01*
X299500D02*
X296500D01*
X287900D02*
X285500D01*
X279500D02*
X276700D01*
X270500D02*
X267100D01*
X260900D02*
X257900D01*
X251700D02*
X251100D01*
X242700D02*
X241700D01*
X233100D02*
X222500D01*
X340500Y-98400D02*
X323500D01*
X317700D02*
X316900D01*
X311100D02*
X305500D01*
X299500D02*
X296500D01*
X287900D02*
X285700D01*
X279500D02*
X276700D01*
X270500D02*
X267100D01*
X260900D02*
X257900D01*
X251700D02*
X251300D01*
X242700D02*
X241900D01*
X233100D02*
X222500D01*
X340500Y-98600D02*
X323500D01*
X317700D02*
X316900D01*
X311100D02*
X305700D01*
X299500D02*
X296500D01*
X287900D02*
X285700D01*
X279500D02*
X276700D01*
X270700D02*
X267100D01*
X261100D02*
X258100D01*
X251900D02*
X251500D01*
X242700D02*
X242100D01*
X233100D02*
X222500D01*
X340500Y-98800D02*
X323700D01*
X317900D02*
X316900D01*
X311100D02*
X305700D01*
X299500D02*
X296700D01*
X287900D02*
X285700D01*
X279500D02*
X276900D01*
X270700D02*
X267300D01*
X261100D02*
X258100D01*
X251900D02*
X251700D01*
X242500D02*
X242300D01*
X233100D02*
X222500D01*
X340500Y-99000D02*
X323700D01*
X317900D02*
X316900D01*
X311100D02*
X305700D01*
X299700D02*
X296700D01*
X288100D02*
X285700D01*
X279700D02*
X276900D01*
X270700D02*
X267300D01*
X261100D02*
X258100D01*
X232900D02*
X222500D01*
X340500Y-99200D02*
X323900D01*
X318100D02*
X316900D01*
X311100D02*
X305700D01*
X299700D02*
X296700D01*
X288100D02*
X285900D01*
X279700D02*
X276900D01*
X270700D02*
X267300D01*
X261100D02*
X258100D01*
X232900D02*
X222500D01*
X340500Y-99400D02*
X323900D01*
X318100D02*
X316900D01*
X311100D02*
X305900D01*
X299700D02*
X296700D01*
X288100D02*
X285900D01*
X279700D02*
X276900D01*
X270900D02*
X267300D01*
X261300D02*
X258300D01*
X232900D02*
X222500D01*
X340500Y-99600D02*
X324100D01*
X318100D02*
X316900D01*
X311100D02*
X305900D01*
X299700D02*
X296900D01*
X288100D02*
X285900D01*
X279700D02*
X277100D01*
X270900D02*
X267500D01*
X261300D02*
X258300D01*
X232900D02*
X222500D01*
X340500Y-99800D02*
X324100D01*
X318300D02*
X316900D01*
X311100D02*
X305900D01*
X299900D02*
X296900D01*
X288300D02*
X285900D01*
X279900D02*
X277100D01*
X270900D02*
X267500D01*
X261300D02*
X258300D01*
X232900D02*
X222500D01*
X340500Y-100000D02*
X324300D01*
X318300D02*
X316900D01*
X311100D02*
X305900D01*
X299900D02*
X296900D01*
X288300D02*
X286100D01*
X279900D02*
X277100D01*
X270900D02*
X267500D01*
X261300D02*
X258300D01*
X232900D02*
X222500D01*
X340500Y-100200D02*
X324300D01*
X318500D02*
X316900D01*
X311100D02*
X306100D01*
X299900D02*
X296900D01*
X288300D02*
X286100D01*
X279900D02*
X277100D01*
X271100D02*
X267500D01*
X261500D02*
X258500D01*
X233100D02*
X222500D01*
X340500Y-100400D02*
X324500D01*
X318500D02*
X316900D01*
X311100D02*
X306100D01*
X299900D02*
X297100D01*
X288300D02*
X286100D01*
X279900D02*
X277300D01*
X271100D02*
X267700D01*
X261500D02*
X258500D01*
X233100D02*
X222500D01*
X340500Y-100600D02*
X324500D01*
X318700D02*
X317100D01*
X311100D02*
X306100D01*
X300100D02*
X297100D01*
X288500D02*
X286100D01*
X280100D02*
X277300D01*
X271100D02*
X267700D01*
X261500D02*
X258500D01*
X233100D02*
X222500D01*
X340500Y-100800D02*
X324700D01*
X318700D02*
X317100D01*
X311100D02*
X306100D01*
X300100D02*
X297100D01*
X291100D02*
X286300D01*
X280100D02*
X277300D01*
X271100D02*
X267700D01*
X261500D02*
X258500D01*
X251500D02*
X249700D01*
X241900D02*
X240100D01*
X233100D02*
X222500D01*
X340500Y-101000D02*
X324900D01*
X318900D02*
X317100D01*
X311100D02*
X306300D01*
X300100D02*
X297100D01*
X291100D02*
X286300D01*
X280100D02*
X277300D01*
X271300D02*
X267700D01*
X261700D02*
X258700D01*
X251900D02*
X249500D01*
X242300D02*
X239900D01*
X233100D02*
X222500D01*
X340500Y-101200D02*
X324900D01*
X318900D02*
X317100D01*
X311100D02*
X306300D01*
X300100D02*
X297300D01*
X291100D02*
X286300D01*
X280100D02*
X277500D01*
X271300D02*
X267900D01*
X261700D02*
X258700D01*
X252100D02*
X249300D01*
X242500D02*
X239700D01*
X233300D02*
X222500D01*
X340500Y-101400D02*
X325100D01*
X319100D02*
X317100D01*
X311100D02*
X306300D01*
X300300D02*
X297300D01*
X291100D02*
X286300D01*
X280300D02*
X277500D01*
X271300D02*
X267900D01*
X261700D02*
X258700D01*
X252300D02*
X249300D01*
X242700D02*
X239700D01*
X233300D02*
X222500D01*
X340500Y-101600D02*
X325100D01*
X319100D02*
X317100D01*
X311100D02*
X306300D01*
X300300D02*
X297300D01*
X291300D02*
X286500D01*
X280300D02*
X277500D01*
X271300D02*
X267900D01*
X261700D02*
X258700D01*
X252500D02*
X249300D01*
X242900D02*
X239700D01*
X233300D02*
X222500D01*
X340500Y-101800D02*
X325300D01*
X319100D02*
X317100D01*
X311100D02*
X306500D01*
X300300D02*
X297300D01*
X291300D02*
X286500D01*
X280300D02*
X277500D01*
X271500D02*
X267900D01*
X261900D02*
X258900D01*
X252500D02*
X249300D01*
X242900D02*
X239500D01*
X233300D02*
X222500D01*
X340500Y-102000D02*
X325300D01*
X319300D02*
X317100D01*
X311100D02*
X306500D01*
X300300D02*
X297500D01*
X291300D02*
X286500D01*
X280300D02*
X277700D01*
X271500D02*
X268100D01*
X261900D02*
X258900D01*
X252700D02*
X249300D01*
X243100D02*
X239700D01*
X233500D02*
X222500D01*
X340500Y-102200D02*
X325500D01*
X319300D02*
X317100D01*
X311100D02*
X306500D01*
X300500D02*
X297500D01*
X291300D02*
X286500D01*
X280500D02*
X277700D01*
X271500D02*
X268100D01*
X261900D02*
X258900D01*
X252700D02*
X249300D01*
X243100D02*
X239700D01*
X233500D02*
X222500D01*
X340500Y-102400D02*
X325500D01*
X319500D02*
X317100D01*
X311100D02*
X306500D01*
X300500D02*
X297500D01*
X291500D02*
X286700D01*
X280500D02*
X277700D01*
X271500D02*
X268100D01*
X261900D02*
X258900D01*
X252900D02*
X249300D01*
X243100D02*
X239700D01*
X233500D02*
X222500D01*
X340500Y-102600D02*
X325700D01*
X319500D02*
X317100D01*
X311100D02*
X306700D01*
X300500D02*
X297500D01*
X291500D02*
X286700D01*
X280500D02*
X277700D01*
X271700D02*
X268100D01*
X262100D02*
X259100D01*
X252900D02*
X249300D01*
X243300D02*
X239700D01*
X233500D02*
X222500D01*
X340500Y-102800D02*
X325700D01*
X319700D02*
X317100D01*
X311100D02*
X306700D01*
X300500D02*
X297700D01*
X291500D02*
X286700D01*
X280500D02*
X277900D01*
X271700D02*
X268300D01*
X262100D02*
X259100D01*
X252900D02*
X249500D01*
X243300D02*
X239700D01*
X233700D02*
X222500D01*
X340500Y-103000D02*
X325900D01*
X319700D02*
X317100D01*
X311100D02*
X306700D01*
X300700D02*
X297700D01*
X291500D02*
X286700D01*
X280700D02*
X277900D01*
X271700D02*
X268300D01*
X262100D02*
X259100D01*
X252900D02*
X249500D01*
X243300D02*
X239900D01*
X233700D02*
X222500D01*
X340500Y-103200D02*
X325900D01*
X319900D02*
X317100D01*
X311100D02*
X306700D01*
X300700D02*
X297700D01*
X291700D02*
X286900D01*
X280700D02*
X277900D01*
X271700D02*
X268300D01*
X262100D02*
X259100D01*
X253100D02*
X249500D01*
X243500D02*
X239900D01*
X233700D02*
X222500D01*
X340500Y-103400D02*
X326100D01*
X319900D02*
X317100D01*
X311100D02*
X306900D01*
X300700D02*
X297900D01*
X291700D02*
X286900D01*
X280700D02*
X277900D01*
X271900D02*
X268300D01*
X262300D02*
X259300D01*
X253100D02*
X249500D01*
X243500D02*
X239900D01*
X233700D02*
X222500D01*
X340500Y-103600D02*
X326100D01*
X320100D02*
X317100D01*
X311100D02*
X306900D01*
X300700D02*
X297900D01*
X291700D02*
X286900D01*
X280700D02*
X278100D01*
X271900D02*
X268500D01*
X262300D02*
X259300D01*
X253100D02*
X249700D01*
X243500D02*
X239900D01*
X233900D02*
X222500D01*
X340500Y-103800D02*
X326300D01*
X320100D02*
X317100D01*
X310900D02*
X306900D01*
X300900D02*
X297900D01*
X291700D02*
X286900D01*
X280900D02*
X278100D01*
X271900D02*
X268500D01*
X262300D02*
X259300D01*
X253100D02*
X249700D01*
X243500D02*
X240100D01*
X233900D02*
X222500D01*
X340500Y-104000D02*
X326500D01*
X320300D02*
X317100D01*
X310900D02*
X306900D01*
X300900D02*
X297900D01*
X291900D02*
X287100D01*
X280900D02*
X278100D01*
X271900D02*
X268500D01*
X262300D02*
X259300D01*
X253300D02*
X249700D01*
X243700D02*
X240100D01*
X233900D02*
X222500D01*
X340500Y-104200D02*
X326500D01*
X320300D02*
X317300D01*
X310900D02*
X307100D01*
X300900D02*
X298100D01*
X291900D02*
X287100D01*
X280900D02*
X278100D01*
X272100D02*
X268500D01*
X262500D02*
X259500D01*
X253300D02*
X249700D01*
X243700D02*
X240100D01*
X233900D02*
X222500D01*
X340500Y-104400D02*
X326700D01*
X320300D02*
X317300D01*
X310900D02*
X307100D01*
X300900D02*
X298100D01*
X291900D02*
X287100D01*
X280900D02*
X278300D01*
X272100D02*
X268700D01*
X262500D02*
X259500D01*
X253300D02*
X249900D01*
X243700D02*
X240100D01*
X234100D02*
X222500D01*
X340500Y-104600D02*
X326700D01*
X320500D02*
X317300D01*
X310900D02*
X307100D01*
X301100D02*
X298100D01*
X291900D02*
X287100D01*
X281100D02*
X278300D01*
X272100D02*
X268700D01*
X262500D02*
X259500D01*
X253300D02*
X249900D01*
X243700D02*
X240300D01*
X234100D02*
X222500D01*
X340500Y-104800D02*
X326900D01*
X320500D02*
X317300D01*
X310900D02*
X307100D01*
X301100D02*
X298100D01*
X292100D02*
X287300D01*
X281100D02*
X278300D01*
X272100D02*
X268700D01*
X262500D02*
X259500D01*
X253500D02*
X249900D01*
X243900D02*
X240300D01*
X234100D02*
X222500D01*
X340500Y-105000D02*
X326900D01*
X320700D02*
X317300D01*
X310900D02*
X307300D01*
X301100D02*
X298300D01*
X292100D02*
X287300D01*
X281100D02*
X278300D01*
X272300D02*
X268700D01*
X262700D02*
X259700D01*
X253500D02*
X249900D01*
X243900D02*
X240300D01*
X234100D02*
X222500D01*
X340500Y-105200D02*
X327100D01*
X320700D02*
X317300D01*
X310900D02*
X307300D01*
X301100D02*
X298300D01*
X292100D02*
X287300D01*
X281100D02*
X278500D01*
X272300D02*
X268900D01*
X262700D02*
X259700D01*
X253500D02*
X250100D01*
X243900D02*
X240300D01*
X234300D02*
X222500D01*
X340500Y-105400D02*
X327100D01*
X320900D02*
X317300D01*
X310900D02*
X307300D01*
X301300D02*
X298300D01*
X292100D02*
X287300D01*
X281300D02*
X278500D01*
X272300D02*
X268900D01*
X262700D02*
X259700D01*
X253500D02*
X250100D01*
X243900D02*
X240500D01*
X234300D02*
X222500D01*
X340500Y-105600D02*
X327300D01*
X310900D02*
X307300D01*
X301300D02*
X298300D01*
X292300D02*
X287500D01*
X281300D02*
X278500D01*
X272300D02*
X268900D01*
X262700D02*
X259700D01*
X253700D02*
X250100D01*
X244100D02*
X240500D01*
X234300D02*
X222500D01*
X340500Y-105800D02*
X327300D01*
X310900D02*
X307500D01*
X301300D02*
X298500D01*
X292300D02*
X287500D01*
X281300D02*
X278500D01*
X272500D02*
X268900D01*
X262900D02*
X259900D01*
X253700D02*
X250100D01*
X244100D02*
X240500D01*
X234300D02*
X222500D01*
X340500Y-106000D02*
X327500D01*
X310900D02*
X307500D01*
X301300D02*
X298500D01*
X292300D02*
X287500D01*
X281300D02*
X278700D01*
X272500D02*
X269100D01*
X262900D02*
X259900D01*
X253700D02*
X250300D01*
X244100D02*
X240500D01*
X234500D02*
X222500D01*
X340500Y-106200D02*
X327500D01*
X310900D02*
X307500D01*
X301500D02*
X298500D01*
X292300D02*
X287500D01*
X281500D02*
X278700D01*
X272500D02*
X269100D01*
X262900D02*
X259900D01*
X253700D02*
X250300D01*
X244100D02*
X240700D01*
X234500D02*
X222500D01*
X340500Y-106400D02*
X327700D01*
X310900D02*
X307500D01*
X301500D02*
X298500D01*
X292500D02*
X287700D01*
X281500D02*
X278700D01*
X272500D02*
X269100D01*
X262900D02*
X259900D01*
X253900D02*
X250300D01*
X244300D02*
X240700D01*
X234500D02*
X222500D01*
X340500Y-106600D02*
X327900D01*
X310900D02*
X307700D01*
X301500D02*
X298700D01*
X292500D02*
X287700D01*
X281500D02*
X278700D01*
X272700D02*
X269100D01*
X263100D02*
X260100D01*
X253900D02*
X250300D01*
X244300D02*
X240700D01*
X234500D02*
X222500D01*
X340500Y-106800D02*
X327900D01*
X310900D02*
X307700D01*
X301500D02*
X298700D01*
X292500D02*
X287700D01*
X281500D02*
X278900D01*
X272700D02*
X269300D01*
X263100D02*
X260100D01*
X253900D02*
X250500D01*
X244300D02*
X240700D01*
X234700D02*
X222500D01*
X340500Y-107000D02*
X328100D01*
X310900D02*
X307700D01*
X301700D02*
X298700D01*
X292500D02*
X287700D01*
X281700D02*
X278900D01*
X272700D02*
X269300D01*
X263100D02*
X260100D01*
X253900D02*
X250500D01*
X244300D02*
X240900D01*
X234700D02*
X222500D01*
X340500Y-107200D02*
X328100D01*
X310900D02*
X307700D01*
X301700D02*
X298700D01*
X292700D02*
X287900D01*
X281700D02*
X278900D01*
X272700D02*
X269300D01*
X263100D02*
X260100D01*
X254100D02*
X250500D01*
X244500D02*
X240900D01*
X234700D02*
X222500D01*
X340500Y-107400D02*
X328300D01*
X310900D02*
X307900D01*
X301700D02*
X298900D01*
X292700D02*
X287900D01*
X281700D02*
X278900D01*
X272900D02*
X269300D01*
X263300D02*
X260300D01*
X254100D02*
X250500D01*
X244500D02*
X240900D01*
X234700D02*
X222500D01*
X340500Y-107600D02*
X328300D01*
X310900D02*
X307900D01*
X301700D02*
X298900D01*
X292700D02*
X287900D01*
X281700D02*
X279100D01*
X272900D02*
X269500D01*
X263300D02*
X260300D01*
X254100D02*
X250700D01*
X244500D02*
X240900D01*
X234900D02*
X222500D01*
X340500Y-107800D02*
X328500D01*
X310900D02*
X307900D01*
X301900D02*
X298900D01*
X292700D02*
X287900D01*
X281900D02*
X279100D01*
X272900D02*
X269500D01*
X263300D02*
X260300D01*
X254100D02*
X250700D01*
X244500D02*
X241100D01*
X234900D02*
X222500D01*
X340500Y-108000D02*
X328500D01*
X310900D02*
X307900D01*
X301900D02*
X298900D01*
X292900D02*
X288100D01*
X281900D02*
X279100D01*
X272900D02*
X269500D01*
X263300D02*
X260300D01*
X254300D02*
X250700D01*
X244700D02*
X241100D01*
X234900D02*
X222500D01*
X340500Y-108200D02*
X328700D01*
X310900D02*
X308100D01*
X301900D02*
X299100D01*
X292900D02*
X288100D01*
X281900D02*
X279100D01*
X273100D02*
X269500D01*
X263500D02*
X260500D01*
X254300D02*
X250700D01*
X244700D02*
X241100D01*
X234900D02*
X222500D01*
X340500Y-108400D02*
X328700D01*
X310900D02*
X308100D01*
X301900D02*
X299100D01*
X292900D02*
X288100D01*
X281900D02*
X279300D01*
X273100D02*
X269700D01*
X263500D02*
X260500D01*
X254300D02*
X250900D01*
X244700D02*
X241100D01*
X235100D02*
X222500D01*
X340500Y-108600D02*
X328900D01*
X310900D02*
X308100D01*
X302100D02*
X299100D01*
X292900D02*
X288100D01*
X282100D02*
X279300D01*
X273100D02*
X269700D01*
X263500D02*
X260500D01*
X254300D02*
X250900D01*
X244700D02*
X241300D01*
X235100D02*
X222500D01*
X340500Y-108800D02*
X328900D01*
X310900D02*
X308100D01*
X302100D02*
X299100D01*
X292900D02*
X288300D01*
X282100D02*
X279300D01*
X273100D02*
X269900D01*
X263500D02*
X260500D01*
X254500D02*
X250900D01*
X244900D02*
X241300D01*
X235100D02*
X222500D01*
X340500Y-109000D02*
X329100D01*
X310700D02*
X308300D01*
X302100D02*
X299300D01*
X293100D02*
X288300D01*
X282100D02*
X279300D01*
X273100D02*
X269900D01*
X263700D02*
X260700D01*
X254500D02*
X250900D01*
X244900D02*
X241300D01*
X235100D02*
X222500D01*
X340500Y-109200D02*
X329100D01*
X310700D02*
X308300D01*
X302100D02*
X299300D01*
X292900D02*
X288300D01*
X282100D02*
X279500D01*
X272900D02*
X270100D01*
X263700D02*
X260700D01*
X254500D02*
X251100D01*
X244900D02*
X241300D01*
X235300D02*
X222500D01*
X340500Y-109400D02*
X329300D01*
X310700D02*
X308300D01*
X302300D02*
X299300D01*
X292900D02*
X288300D01*
X282300D02*
X279500D01*
X272900D02*
X270300D01*
X263700D02*
X260700D01*
X254500D02*
X251100D01*
X244900D02*
X241500D01*
X235300D02*
X222500D01*
X340500Y-109600D02*
X329500D01*
X310700D02*
X308300D01*
X302300D02*
X299300D01*
X292700D02*
X288500D01*
X282300D02*
X279500D01*
X272700D02*
X270700D01*
X263700D02*
X260700D01*
X254700D02*
X251100D01*
X245100D02*
X241500D01*
X235300D02*
X222500D01*
X340500Y-109800D02*
X329500D01*
X322700D02*
X317500D01*
X310700D02*
X308500D01*
X302300D02*
X299500D01*
X290700D02*
X288500D01*
X282300D02*
X279500D01*
X263900D02*
X260900D01*
X254700D02*
X251100D01*
X245100D02*
X241500D01*
X235300D02*
X222500D01*
X340500Y-110000D02*
X329700D01*
X322900D02*
X317500D01*
X310700D02*
X308500D01*
X302300D02*
X299500D01*
X290700D02*
X288500D01*
X282300D02*
X279700D01*
X263900D02*
X260900D01*
X254700D02*
X251300D01*
X245100D02*
X241500D01*
X235500D02*
X222500D01*
X340500Y-110200D02*
X329700D01*
X322900D02*
X317500D01*
X310700D02*
X308500D01*
X302500D02*
X299500D01*
X290900D02*
X288500D01*
X282500D02*
X279700D01*
X263900D02*
X260900D01*
X254700D02*
X251300D01*
X245100D02*
X241700D01*
X235500D02*
X222500D01*
X340500Y-110400D02*
X329900D01*
X323100D02*
X317500D01*
X310700D02*
X308500D01*
X302500D02*
X299500D01*
X290900D02*
X288700D01*
X282500D02*
X279700D01*
X263900D02*
X260900D01*
X254900D02*
X251300D01*
X245300D02*
X241700D01*
X235500D02*
X222500D01*
X340500Y-110600D02*
X329900D01*
X323100D02*
X317500D01*
X310700D02*
X308700D01*
X302500D02*
X299500D01*
X290900D02*
X288700D01*
X282500D02*
X279700D01*
X264100D02*
X261100D01*
X254900D02*
X251300D01*
X245300D02*
X241700D01*
X235500D02*
X222500D01*
X340500Y-110800D02*
X330100D01*
X323300D02*
X317500D01*
X310700D02*
X308700D01*
X302500D02*
X299500D01*
X290900D02*
X288700D01*
X282500D02*
X279700D01*
X264100D02*
X261100D01*
X254900D02*
X251500D01*
X245300D02*
X241700D01*
X235700D02*
X222500D01*
X340500Y-111000D02*
X330100D01*
X323300D02*
X317500D01*
X310700D02*
X308700D01*
X302700D02*
X299500D01*
X291100D02*
X288700D01*
X282700D02*
X279700D01*
X264100D02*
X261100D01*
X254900D02*
X251500D01*
X245300D02*
X241900D01*
X235700D02*
X222500D01*
X340500Y-111200D02*
X330300D01*
X323500D02*
X317500D01*
X310700D02*
X308700D01*
X302700D02*
X299500D01*
X291100D02*
X288900D01*
X282700D02*
X279700D01*
X264100D02*
X261100D01*
X255100D02*
X251500D01*
X245500D02*
X241900D01*
X235900D02*
X222500D01*
X340500Y-111400D02*
X330300D01*
X323500D02*
X317500D01*
X310700D02*
X308900D01*
X302700D02*
X299500D01*
X291100D02*
X288900D01*
X282700D02*
X279700D01*
X264300D02*
X261300D01*
X255100D02*
X251500D01*
X245500D02*
X241900D01*
X235900D02*
X222500D01*
X340500Y-111600D02*
X330500D01*
X323500D02*
X317700D01*
X310700D02*
X308900D01*
X302700D02*
X299500D01*
X291100D02*
X288900D01*
X282700D02*
X279700D01*
X264300D02*
X261300D01*
X255100D02*
X251700D01*
X245500D02*
X241900D01*
X236100D02*
X222500D01*
X340500Y-111800D02*
X330500D01*
X323700D02*
X317700D01*
X310700D02*
X308900D01*
X302900D02*
X299500D01*
X291300D02*
X288900D01*
X282900D02*
X279500D01*
X270700D02*
X270500D01*
X264300D02*
X261300D01*
X255100D02*
X251700D01*
X245500D02*
X242100D01*
X236300D02*
X234300D01*
X232900D02*
X232700D01*
X232100D02*
X231100D01*
X230700D02*
X222500D01*
X340500Y-112000D02*
X330700D01*
X323700D02*
X317700D01*
X310700D02*
X308900D01*
X302900D02*
X299500D01*
X291300D02*
X289100D01*
X282900D02*
X279500D01*
X270900D02*
X270500D01*
X264300D02*
X261300D01*
X255300D02*
X251700D01*
X245700D02*
X242100D01*
X236300D02*
X233900D01*
X233500D02*
X232700D01*
X232100D02*
X231300D01*
X230700D02*
X222500D01*
X340500Y-112200D02*
X330900D01*
X323900D02*
X317700D01*
X310700D02*
X309100D01*
X302900D02*
X299500D01*
X291300D02*
X289100D01*
X282900D02*
X279500D01*
X271100D02*
X270500D01*
X264500D02*
X261500D01*
X255300D02*
X251700D01*
X245700D02*
X242100D01*
X236500D02*
X233900D01*
X233500D02*
X232700D01*
X231900D02*
X231300D01*
X230700D02*
X222500D01*
X340500Y-112400D02*
X330900D01*
X323900D02*
X317700D01*
X310700D02*
X309100D01*
X302900D02*
X299300D01*
X291300D02*
X289100D01*
X282900D02*
X279300D01*
X271300D02*
X270500D01*
X264500D02*
X261500D01*
X255300D02*
X251900D01*
X245700D02*
X242100D01*
X236700D02*
X233900D01*
X233500D02*
X232700D01*
X231900D02*
X231300D01*
X231100D02*
X230900D01*
X230700D02*
X222500D01*
X340500Y-112600D02*
X331100D01*
X324100D02*
X317700D01*
X310700D02*
X309100D01*
X303100D02*
X299300D01*
X291500D02*
X289100D01*
X283100D02*
X279300D01*
X271500D02*
X270700D01*
X264500D02*
X261500D01*
X255300D02*
X251900D01*
X245700D02*
X242300D01*
X237100D02*
X233900D01*
X233500D02*
X232700D01*
X232300D02*
X232100D01*
X231900D02*
X231500D01*
X231100D02*
X230900D01*
X230700D02*
X222500D01*
X340500Y-112800D02*
X331100D01*
X324100D02*
X317700D01*
X310700D02*
X309100D01*
X303100D02*
X299100D01*
X291500D02*
X289300D01*
X283100D02*
X279100D01*
X271900D02*
X270700D01*
X264500D02*
X261500D01*
X255500D02*
X251900D01*
X245900D02*
X242300D01*
X237300D02*
X233900D01*
X233500D02*
X232700D01*
X232300D02*
X232100D01*
X231700D02*
X231500D01*
X231300D02*
X230900D01*
X230700D02*
X222500D01*
X340500Y-113000D02*
X331300D01*
X324100D02*
X317700D01*
X310700D02*
X309300D01*
X303100D02*
X298700D01*
X291500D02*
X289300D01*
X283100D02*
X278900D01*
X272100D02*
X270700D01*
X264700D02*
X261700D01*
X255500D02*
X251900D01*
X245900D02*
X242300D01*
X237700D02*
X233900D01*
X233500D02*
X232700D01*
X232300D02*
X231900D01*
X231300D02*
X230900D01*
X230700D02*
X222500D01*
X340500Y-113200D02*
X331300D01*
X324300D02*
X317700D01*
X310700D02*
X309300D01*
X303100D02*
X298300D01*
X291500D02*
X289300D01*
X283100D02*
X278500D01*
X272500D02*
X270700D01*
X264700D02*
X261700D01*
X255500D02*
X252100D01*
X245900D02*
X242300D01*
X238100D02*
X233900D01*
X233500D02*
X232700D01*
X232300D02*
X231900D01*
X231300D02*
X230900D01*
X230700D02*
X222500D01*
X340500Y-113400D02*
X331500D01*
X324300D02*
X317700D01*
X310700D02*
X309300D01*
X303300D02*
X297700D01*
X291700D02*
X289300D01*
X283300D02*
X278100D01*
X272900D02*
X270900D01*
X264700D02*
X261700D01*
X255500D02*
X252100D01*
X245900D02*
X242500D01*
X238900D02*
X233900D01*
X233500D02*
X232700D01*
X232300D02*
X231900D01*
X231500D02*
X230900D01*
X230700D02*
X222500D01*
X340500Y-113600D02*
X295900D01*
X293500D02*
X277700D01*
X273500D02*
X222500D01*
X340500Y-113800D02*
X276700D01*
X274500D02*
X222500D01*
X340500Y-114000D02*
X222500D01*
X340500Y-114200D02*
X222500D01*
X340500Y-114400D02*
X222500D01*
X340500Y-114600D02*
X222500D01*
X340500Y-114800D02*
X222500D01*
X340500Y-115000D02*
X222500D01*
X340500Y-115200D02*
X222500D01*
X340500Y-115400D02*
X222500D01*
X340500Y-115600D02*
X222500D01*
X340500Y-115800D02*
X222500D01*
X340500Y-116000D02*
X222500D01*
X340500Y-116200D02*
X222500D01*
X340500Y-116400D02*
X222500D01*
X340500Y-116600D02*
X222500D01*
X340500Y-116800D02*
X222500D01*
X340500Y-117000D02*
X222500D01*
X340500Y-117200D02*
X222500D01*
X340500Y-117400D02*
X222500D01*
X340500Y-117600D02*
X222500D01*
X340500Y-117800D02*
X222500D01*
X340500Y-118000D02*
X222500D01*
X340500Y-118200D02*
X322700D01*
X321900D02*
X304500D01*
X303700D02*
X234300D01*
X232900D02*
X232700D01*
X232100D02*
X231100D01*
X230700D02*
X222500D01*
X340500Y-118400D02*
X322700D01*
X321900D02*
X319300D01*
X318500D02*
X304500D01*
X303700D02*
X283900D01*
X283100D02*
X263700D01*
X262900D02*
X242700D01*
X241900D02*
X233700D01*
X233500D02*
X232700D01*
X232100D02*
X231300D01*
X230700D02*
X222500D01*
X340500Y-118600D02*
X331700D01*
X330500D02*
X328700D01*
X327300D02*
X322700D01*
X321900D02*
X319300D01*
X318500D02*
X307900D01*
X305500D02*
X304500D01*
X303700D02*
X283900D01*
X283100D02*
X274300D01*
X272300D02*
X263700D01*
X262900D02*
X252500D01*
X250100D02*
X242700D01*
X241900D02*
X233700D01*
X233500D02*
X232700D01*
X231900D02*
X231300D01*
X230700D02*
X222500D01*
X340500Y-118800D02*
X331700D01*
X330300D02*
X328700D01*
X327300D02*
X322700D01*
X321900D02*
X319300D01*
X318500D02*
X307900D01*
X305500D02*
X304500D01*
X303700D02*
X295700D01*
X295300D02*
X283900D01*
X283100D02*
X274300D01*
X271700D02*
X263700D01*
X262900D02*
X252500D01*
X250100D02*
X242700D01*
X241900D02*
X233700D01*
X233500D02*
X232700D01*
X231900D02*
X231500D01*
X231100D02*
X230900D01*
X230700D02*
X222500D01*
X340500Y-119000D02*
X331700D01*
X330300D02*
X328700D01*
X327300D02*
X322700D01*
X321900D02*
X307900D01*
X305500D02*
X304500D01*
X303700D02*
X296100D01*
X295300D02*
X274300D01*
X271500D02*
X252500D01*
X250100D02*
X233700D01*
X233500D02*
X232700D01*
X232300D02*
X232100D01*
X231700D02*
X231500D01*
X231100D02*
X230900D01*
X230700D02*
X222500D01*
X340500Y-119200D02*
X331700D01*
X330300D02*
X328900D01*
X327300D02*
X322700D01*
X321900D02*
X307900D01*
X307100D02*
X304500D01*
X303700D02*
X296100D01*
X295300D02*
X274300D01*
X273500D02*
X272700D01*
X271300D02*
X252500D01*
X251500D02*
X233700D01*
X233500D02*
X232700D01*
X232300D02*
X232100D01*
X231300D02*
X230900D01*
X230700D02*
X222500D01*
X340500Y-119400D02*
X331700D01*
X330100D02*
X328900D01*
X327300D02*
X322700D01*
X321900D02*
X307900D01*
X307100D02*
X304500D01*
X303700D02*
X296100D01*
X295300D02*
X274300D01*
X273500D02*
X272300D01*
X271300D02*
X252500D01*
X251500D02*
X233700D01*
X233500D02*
X232700D01*
X232300D02*
X231900D01*
X231300D02*
X230900D01*
X230700D02*
X222500D01*
X340500Y-119600D02*
X331700D01*
X330100D02*
X328900D01*
X327300D02*
X325900D01*
X324100D02*
X322700D01*
X321900D02*
X321100D01*
X320100D02*
X319300D01*
X318500D02*
X317300D01*
X316700D02*
X316300D01*
X315100D02*
X313100D01*
X311900D02*
X311700D01*
X310900D02*
X307900D01*
X307100D02*
X304500D01*
X303700D02*
X302100D01*
X300700D02*
X298500D01*
X297100D02*
X296700D01*
X294700D02*
X293700D01*
X293100D02*
X292700D01*
X292100D02*
X290700D01*
X289300D02*
X287700D01*
X286900D02*
X286500D01*
X285300D02*
X283900D01*
X283100D02*
X281500D01*
X279900D02*
X278900D01*
X277300D02*
X274300D01*
X273500D02*
X272100D01*
X271100D02*
X269500D01*
X268100D02*
X266300D01*
X264700D02*
X263700D01*
X262900D02*
X261500D01*
X260300D02*
X259900D01*
X259100D02*
X258100D01*
X257300D02*
X257100D01*
X255900D02*
X252500D01*
X251500D02*
X248700D01*
X247100D02*
X245300D01*
X243700D02*
X242700D01*
X241900D02*
X240300D01*
X238900D02*
X237300D01*
X236700D02*
X236300D01*
X235700D02*
X233700D01*
X233500D02*
X232700D01*
X232300D02*
X231900D01*
X231500D02*
X230900D01*
X230700D02*
X222500D01*
X340500Y-119800D02*
X331700D01*
X330100D02*
X329100D01*
X328300D02*
X328100D01*
X327300D02*
X326100D01*
X323900D02*
X322700D01*
X321900D02*
X321300D01*
X320300D02*
X319300D01*
X318500D02*
X317300D01*
X314900D02*
X313300D01*
X310900D02*
X307900D01*
X307100D02*
X304500D01*
X303700D02*
X302300D01*
X300500D02*
X298900D01*
X297100D02*
X296700D01*
X294700D02*
X293700D01*
X293100D02*
X292900D01*
X292100D02*
X291100D01*
X288900D02*
X287700D01*
X285100D02*
X283900D01*
X283100D02*
X281700D01*
X280100D02*
X279100D01*
X277300D02*
X274300D01*
X273500D02*
X272100D01*
X271100D02*
X269900D01*
X267900D02*
X266500D01*
X264700D02*
X263700D01*
X262900D02*
X261700D01*
X259100D02*
X258100D01*
X255700D02*
X252500D01*
X251500D02*
X248900D01*
X246900D02*
X245500D01*
X243700D02*
X242700D01*
X241900D02*
X240500D01*
X238700D02*
X237300D01*
X236700D02*
X236500D01*
X235700D02*
X222500D01*
X340500Y-120000D02*
X331700D01*
X330900D02*
X330700D01*
X329900D02*
X329100D01*
X328300D02*
X328100D01*
X327300D02*
X326100D01*
X323900D02*
X322700D01*
X321900D02*
X321300D01*
X320500D02*
X319300D01*
X318500D02*
X317300D01*
X314700D02*
X313500D01*
X310900D02*
X307900D01*
X307100D02*
X304500D01*
X303700D02*
X302500D01*
X300300D02*
X299100D01*
X297100D02*
X296700D01*
X294700D02*
X293700D01*
X292100D02*
X291300D01*
X288900D02*
X287700D01*
X285100D02*
X283900D01*
X283100D02*
X281900D01*
X280100D02*
X279300D01*
X277300D02*
X274300D01*
X273500D02*
X271900D01*
X271100D02*
X269900D01*
X267700D02*
X266700D01*
X264900D02*
X263700D01*
X262900D02*
X261900D01*
X259100D02*
X258100D01*
X255500D02*
X252500D01*
X251500D02*
X248900D01*
X246700D02*
X245700D01*
X243700D02*
X242700D01*
X241900D02*
X240700D01*
X238500D02*
X237300D01*
X235700D02*
X222500D01*
X340500Y-120200D02*
X331700D01*
X330900D02*
X330700D01*
X329900D02*
X329100D01*
X328300D02*
X328100D01*
X327300D02*
X326100D01*
X325700D02*
X324500D01*
X323700D02*
X322700D01*
X321900D02*
X321500D01*
X320700D02*
X319300D01*
X318500D02*
X317300D01*
X316300D02*
X315500D01*
X314700D02*
X313700D01*
X312700D02*
X311900D01*
X310900D02*
X307900D01*
X305700D02*
X304500D01*
X303700D02*
X302700D01*
X301900D02*
X300900D01*
X300100D02*
X299100D01*
X298100D02*
X296100D01*
X295300D02*
X293700D01*
X292100D02*
X291500D01*
X290500D02*
X289700D01*
X288700D02*
X287700D01*
X286500D02*
X285900D01*
X284900D02*
X283900D01*
X283100D02*
X282100D01*
X281100D02*
X279300D01*
X278500D02*
X274300D01*
X273500D02*
X271900D01*
X270900D02*
X270100D01*
X269300D02*
X268300D01*
X267700D02*
X266700D01*
X265900D02*
X263700D01*
X262900D02*
X261900D01*
X260900D02*
X260300D01*
X259100D02*
X258100D01*
X257100D02*
X256300D01*
X255500D02*
X252500D01*
X250100D02*
X248900D01*
X248500D02*
X247500D01*
X246700D02*
X245700D01*
X244900D02*
X242700D01*
X241900D02*
X240900D01*
X240100D02*
X239100D01*
X238500D02*
X237300D01*
X235700D02*
X222500D01*
X340500Y-120400D02*
X331700D01*
X330900D02*
X330500D01*
X329900D02*
X329100D01*
X328500D02*
X328100D01*
X327300D02*
X324500D01*
X323700D02*
X322700D01*
X321900D02*
X321700D01*
X320700D02*
X319300D01*
X318500D02*
X317300D01*
X316500D02*
X315500D01*
X314700D02*
X313700D01*
X312900D02*
X311700D01*
X310900D02*
X307900D01*
X305700D02*
X304500D01*
X303700D02*
X302700D01*
X301900D02*
X300900D01*
X300100D02*
X299300D01*
X298300D02*
X296100D01*
X295300D02*
X293700D01*
X292900D02*
X291500D01*
X290700D02*
X289500D01*
X288500D02*
X287700D01*
X286700D02*
X285700D01*
X284900D02*
X283900D01*
X283100D02*
X282100D01*
X281100D02*
X279300D01*
X278500D02*
X274300D01*
X273500D02*
X271900D01*
X270900D02*
X270100D01*
X269500D02*
X268300D01*
X267500D02*
X266700D01*
X265900D02*
X263700D01*
X262900D02*
X262100D01*
X261100D02*
X260100D01*
X259100D02*
X258100D01*
X257100D02*
X256300D01*
X255500D02*
X252500D01*
X250100D02*
X247300D01*
X246500D02*
X245700D01*
X244900D02*
X242700D01*
X241900D02*
X240900D01*
X240300D02*
X239100D01*
X238300D02*
X237300D01*
X236300D02*
X222500D01*
X340500Y-120600D02*
X331700D01*
X330900D02*
X330500D01*
X329700D02*
X329300D01*
X328500D02*
X328100D01*
X327300D02*
X324500D01*
X323700D02*
X322700D01*
X320900D02*
X319300D01*
X318500D02*
X317300D01*
X316500D02*
X315500D01*
X314700D02*
X313700D01*
X312900D02*
X311700D01*
X310900D02*
X307900D01*
X305700D02*
X304500D01*
X303700D02*
X302700D01*
X302100D02*
X300700D01*
X300100D02*
X299300D01*
X298500D02*
X296100D01*
X295300D02*
X293700D01*
X292900D02*
X291500D01*
X290700D02*
X289300D01*
X288500D02*
X287700D01*
X286700D02*
X285700D01*
X284900D02*
X283900D01*
X283100D02*
X282100D01*
X281300D02*
X279300D01*
X278300D02*
X274300D01*
X273500D02*
X271900D01*
X270900D02*
X270300D01*
X269500D02*
X268300D01*
X267500D02*
X266700D01*
X265700D02*
X263700D01*
X262900D02*
X262100D01*
X261300D02*
X260100D01*
X259100D02*
X258100D01*
X257300D02*
X256300D01*
X255500D02*
X252500D01*
X250100D02*
X247300D01*
X246500D02*
X245700D01*
X244700D02*
X242700D01*
X241900D02*
X241100D01*
X240300D02*
X239100D01*
X238300D02*
X237300D01*
X236500D02*
X222500D01*
X340500Y-120800D02*
X331700D01*
X330900D02*
X330500D01*
X329700D02*
X329300D01*
X328500D02*
X328100D01*
X327300D02*
X325900D01*
X323700D02*
X322700D01*
X321100D02*
X319300D01*
X318500D02*
X317300D01*
X316500D02*
X315500D01*
X314700D02*
X313700D01*
X312900D02*
X311700D01*
X310900D02*
X307900D01*
X307100D02*
X304500D01*
X303700D02*
X302700D01*
X300100D02*
X299300D01*
X298500D02*
X296100D01*
X295300D02*
X293700D01*
X292900D02*
X291500D01*
X290700D02*
X289300D01*
X288500D02*
X287700D01*
X286900D02*
X285700D01*
X284900D02*
X283900D01*
X283100D02*
X282100D01*
X281300D02*
X279300D01*
X277700D02*
X274300D01*
X273500D02*
X271900D01*
X270900D02*
X270300D01*
X267500D02*
X266700D01*
X265100D02*
X263700D01*
X262900D02*
X262100D01*
X261300D02*
X259900D01*
X259100D02*
X258100D01*
X257300D02*
X256100D01*
X255500D02*
X252500D01*
X251500D02*
X248700D01*
X246500D02*
X245700D01*
X244100D02*
X242700D01*
X241900D02*
X241100D01*
X238300D02*
X237300D01*
X236500D02*
X222500D01*
X340500Y-121000D02*
X331700D01*
X330900D02*
X330500D01*
X329700D02*
X329300D01*
X328700D02*
X328100D01*
X327300D02*
X326100D01*
X323700D02*
X322700D01*
X321100D02*
X319300D01*
X318500D02*
X317300D01*
X316500D02*
X315500D01*
X314700D02*
X313700D01*
X312900D02*
X311700D01*
X310900D02*
X307900D01*
X307100D02*
X304500D01*
X303700D02*
X302700D01*
X300100D02*
X299300D01*
X298500D02*
X296100D01*
X295300D02*
X293700D01*
X292900D02*
X291500D01*
X290700D02*
X289300D01*
X288500D02*
X287700D01*
X286900D02*
X285700D01*
X284900D02*
X283900D01*
X283100D02*
X282100D01*
X281300D02*
X279100D01*
X277300D02*
X274300D01*
X273500D02*
X271900D01*
X271100D02*
X270300D01*
X267500D02*
X266500D01*
X264900D02*
X263700D01*
X262900D02*
X262100D01*
X261300D02*
X259900D01*
X259100D02*
X258100D01*
X257300D02*
X256100D01*
X255500D02*
X252500D01*
X251500D02*
X248900D01*
X246500D02*
X245500D01*
X243700D02*
X242700D01*
X241900D02*
X241100D01*
X238300D02*
X237300D01*
X236500D02*
X222500D01*
X340500Y-121200D02*
X331700D01*
X330900D02*
X330300D01*
X329700D02*
X329500D01*
X328700D02*
X328100D01*
X327300D02*
X326300D01*
X325300D02*
X324500D01*
X323700D02*
X322700D01*
X320900D02*
X319300D01*
X318500D02*
X317300D01*
X316500D02*
X315500D01*
X314700D02*
X313700D01*
X312900D02*
X311700D01*
X310900D02*
X307900D01*
X307100D02*
X304500D01*
X303700D02*
X302700D01*
X300100D02*
X299300D01*
X298500D02*
X296100D01*
X295300D02*
X293700D01*
X293100D02*
X291500D01*
X290700D02*
X289300D01*
X288500D02*
X287700D01*
X286900D02*
X285700D01*
X284900D02*
X283900D01*
X283100D02*
X282100D01*
X281300D02*
X278700D01*
X277300D02*
X274300D01*
X273500D02*
X272100D01*
X271100D02*
X270300D01*
X267500D02*
X266100D01*
X264700D02*
X263700D01*
X262900D02*
X262100D01*
X261300D02*
X259900D01*
X259100D02*
X258100D01*
X257300D02*
X256100D01*
X255500D02*
X252500D01*
X251500D02*
X249100D01*
X248100D02*
X247300D01*
X246500D02*
X244900D01*
X243700D02*
X242700D01*
X241900D02*
X241100D01*
X238300D02*
X237300D01*
X236500D02*
X222500D01*
X340500Y-121400D02*
X331700D01*
X330900D02*
X330300D01*
X328700D02*
X328100D01*
X327300D02*
X326300D01*
X325500D02*
X324500D01*
X323700D02*
X322700D01*
X321900D02*
X321700D01*
X320700D02*
X319300D01*
X318500D02*
X317300D01*
X316500D02*
X315500D01*
X314700D02*
X313700D01*
X312900D02*
X311700D01*
X310900D02*
X307900D01*
X307100D02*
X304500D01*
X303700D02*
X302700D01*
X302100D02*
X299300D01*
X298500D02*
X296100D01*
X295300D02*
X293700D01*
X293100D02*
X291500D01*
X290700D02*
X289300D01*
X288500D02*
X287700D01*
X286900D02*
X285700D01*
X284900D02*
X283900D01*
X283100D02*
X282100D01*
X281300D02*
X278100D01*
X277300D02*
X274300D01*
X273500D02*
X272100D01*
X271100D02*
X270300D01*
X269500D02*
X265500D01*
X264700D02*
X263700D01*
X262900D02*
X262100D01*
X261100D02*
X260100D01*
X259100D02*
X258100D01*
X257300D02*
X256100D01*
X255500D02*
X252500D01*
X251500D02*
X249100D01*
X248300D02*
X247300D01*
X246500D02*
X244500D01*
X243700D02*
X242700D01*
X241900D02*
X241100D01*
X240300D02*
X237300D01*
X236500D02*
X222500D01*
X340500Y-121600D02*
X331700D01*
X330900D02*
X330300D01*
X328900D02*
X328100D01*
X327300D02*
X326300D01*
X325500D02*
X324500D01*
X323700D02*
X322700D01*
X321900D02*
X321500D01*
X320500D02*
X319300D01*
X318500D02*
X317300D01*
X316500D02*
X315500D01*
X314700D02*
X313700D01*
X312700D02*
X311900D01*
X310900D02*
X307900D01*
X307100D02*
X304500D01*
X303700D02*
X302700D01*
X301900D02*
X299300D01*
X298300D02*
X296100D01*
X295300D02*
X293700D01*
X293100D02*
X291500D01*
X290700D02*
X289500D01*
X288500D02*
X287700D01*
X286900D02*
X285700D01*
X284900D02*
X283900D01*
X283100D02*
X282100D01*
X281100D02*
X278100D01*
X277300D02*
X274300D01*
X273500D02*
X272500D01*
X271300D02*
X270100D01*
X269300D02*
X265500D01*
X264700D02*
X263700D01*
X262900D02*
X262100D01*
X261100D02*
X260100D01*
X259100D02*
X258100D01*
X257300D02*
X256100D01*
X255500D02*
X252500D01*
X251500D02*
X249100D01*
X248500D02*
X247300D01*
X246500D02*
X244500D01*
X243500D02*
X242700D01*
X241900D02*
X240900D01*
X240100D02*
X237300D01*
X236500D02*
X222500D01*
X340500Y-121800D02*
X331700D01*
X330900D02*
X330100D01*
X328900D02*
X328100D01*
X327300D02*
X326300D01*
X325500D02*
X324700D01*
X323700D02*
X322700D01*
X321900D02*
X321300D01*
X320500D02*
X319300D01*
X318500D02*
X317300D01*
X316500D02*
X315500D01*
X314700D02*
X313700D01*
X312500D02*
X312100D01*
X310900D02*
X307900D01*
X307100D02*
X304500D01*
X303700D02*
X302700D01*
X301700D02*
X300500D01*
X300300D02*
X299100D01*
X298100D02*
X296100D01*
X295100D02*
X293700D01*
X293100D02*
X291500D01*
X290500D02*
X289700D01*
X288700D02*
X287700D01*
X286900D02*
X285700D01*
X284900D02*
X283900D01*
X283100D02*
X282100D01*
X280900D02*
X278100D01*
X277300D02*
X274300D01*
X273500D02*
X272900D01*
X271300D02*
X270100D01*
X269100D02*
X267900D01*
X267700D02*
X265500D01*
X264700D02*
X263700D01*
X262900D02*
X261900D01*
X260900D02*
X260300D01*
X259100D02*
X258100D01*
X257300D02*
X256100D01*
X255500D02*
X252500D01*
X251500D02*
X249100D01*
X248300D02*
X247500D01*
X246500D02*
X244500D01*
X243700D02*
X242700D01*
X241900D02*
X240900D01*
X239900D02*
X238700D01*
X238500D02*
X237300D01*
X236500D02*
X222500D01*
X340500Y-122000D02*
X331700D01*
X330900D02*
X330100D01*
X328900D02*
X328100D01*
X327300D02*
X326300D01*
X323700D02*
X322700D01*
X321900D02*
X321300D01*
X320300D02*
X319300D01*
X318500D02*
X317300D01*
X316500D02*
X315500D01*
X314700D02*
X313500D01*
X310900D02*
X307900D01*
X305500D02*
X304500D01*
X303700D02*
X302500D01*
X300300D02*
X299100D01*
X297100D02*
X296100D01*
X294500D02*
X293700D01*
X293100D02*
X291300D01*
X288900D02*
X287700D01*
X286900D02*
X285700D01*
X284900D02*
X283900D01*
X283100D02*
X281900D01*
X279900D02*
X279300D01*
X277300D02*
X274300D01*
X271500D02*
X269900D01*
X267700D02*
X266700D01*
X264700D02*
X263700D01*
X262900D02*
X261900D01*
X259100D02*
X258100D01*
X257300D02*
X256100D01*
X255500D02*
X252500D01*
X250100D02*
X249100D01*
X246500D02*
X245700D01*
X243700D02*
X242700D01*
X241900D02*
X240700D01*
X238500D02*
X237300D01*
X236500D02*
X222500D01*
X340500Y-122200D02*
X331700D01*
X330900D02*
X330100D01*
X329100D02*
X328100D01*
X327300D02*
X326100D01*
X323700D02*
X322700D01*
X321900D02*
X321100D01*
X320100D02*
X319300D01*
X318500D02*
X317300D01*
X316500D02*
X315500D01*
X314700D02*
X313300D01*
X310900D02*
X307900D01*
X305500D02*
X304500D01*
X303700D02*
X302300D01*
X300300D02*
X298900D01*
X297100D02*
X295900D01*
X294500D02*
X293700D01*
X293100D02*
X291100D01*
X288900D02*
X287700D01*
X286900D02*
X285700D01*
X284900D02*
X283900D01*
X283100D02*
X281700D01*
X279900D02*
X279300D01*
X277500D02*
X274300D01*
X271900D02*
X269700D01*
X267700D02*
X266700D01*
X264900D02*
X263700D01*
X262900D02*
X261700D01*
X260100D02*
X259900D01*
X259100D02*
X258100D01*
X257300D02*
X256100D01*
X255500D02*
X252500D01*
X250100D02*
X249100D01*
X246500D02*
X245700D01*
X243900D02*
X242700D01*
X241900D02*
X240500D01*
X238500D02*
X237300D01*
X236500D02*
X222500D01*
X340500Y-122400D02*
X331700D01*
X330900D02*
X329900D01*
X329100D02*
X328100D01*
X327300D02*
X325900D01*
X324700D02*
X324300D01*
X323700D02*
X322700D01*
X321900D02*
X320900D01*
X319900D02*
X319300D01*
X318500D02*
X317300D01*
X316500D02*
X315500D01*
X314700D02*
X313100D01*
X312100D02*
X311700D01*
X310900D02*
X307900D01*
X305500D02*
X304500D01*
X303700D02*
X301900D01*
X300300D02*
X298500D01*
X297100D02*
X295700D01*
X294500D02*
X293700D01*
X293100D02*
X290700D01*
X289300D02*
X287700D01*
X286900D02*
X285700D01*
X284900D02*
X283900D01*
X283100D02*
X281300D01*
X279900D02*
X279300D01*
X277700D02*
X274300D01*
X272300D02*
X269500D01*
X267900D02*
X266700D01*
X265100D02*
X263700D01*
X262900D02*
X261300D01*
X260500D02*
X259900D01*
X259100D02*
X258100D01*
X257300D02*
X256100D01*
X255500D02*
X252500D01*
X250100D02*
X248700D01*
X247500D02*
X247300D01*
X246500D02*
X245700D01*
X244100D02*
X242700D01*
X241900D02*
X240300D01*
X238700D02*
X237300D01*
X236500D02*
X222500D01*
X340500Y-122600D02*
X311700D01*
X310900D02*
X260100D01*
X259300D02*
X222500D01*
X340500Y-122800D02*
X311900D01*
X310900D02*
X260100D01*
X259300D02*
X222500D01*
X340500Y-123000D02*
X313500D01*
X313100D02*
X312100D01*
X311100D02*
X261700D01*
X261300D02*
X260300D01*
X259300D02*
X222500D01*
X340500Y-123200D02*
X313500D01*
X311100D02*
X261700D01*
X259500D02*
X222500D01*
X340500Y-123400D02*
X313500D01*
X311300D02*
X261700D01*
X259700D02*
X222500D01*
X340500Y-123600D02*
X313300D01*
X311500D02*
X261500D01*
X259900D02*
X222500D01*
X340500Y-123800D02*
X222500D01*
X340500Y-124000D02*
X222500D01*
X340500Y-124200D02*
X222500D01*
X340500Y-124400D02*
X222500D01*
X340500Y-124600D02*
X222500D01*
X340500Y-124800D02*
X222500D01*
X340500Y-125000D02*
X222500D01*
X340500Y-125200D02*
X222500D01*
X340500Y-125400D02*
X222500D01*
X340500Y-125600D02*
X222500D01*
X340500Y-125800D02*
X222500D01*
X340500Y-126000D02*
X222500D01*
X340500Y-126200D02*
X222500D01*
X340500Y-126400D02*
X222500D01*
X340500Y-126600D02*
X222700D01*
X340500Y-126800D02*
X222700D01*
X340500Y-127000D02*
X222700D01*
X340500Y-127200D02*
X222900D01*
X340500Y-127400D02*
X222900D01*
X340500Y-127600D02*
X222900D01*
X340500Y-127800D02*
X223100D01*
X340500Y-128000D02*
X223100D01*
X340500Y-128200D02*
X223300D01*
X340500Y-128400D02*
X223300D01*
X340500Y-128600D02*
X223500D01*
X340500Y-128800D02*
X223700D01*
X340500Y-129000D02*
X223700D01*
X340500Y-129200D02*
X223900D01*
X340500Y-129400D02*
X224100D01*
X340500Y-129600D02*
X224300D01*
X340500Y-129800D02*
X224500D01*
X340500Y-130000D02*
X224700D01*
X340500Y-130200D02*
X224900D01*
X340500Y-130400D02*
X225100D01*
X340500Y-130600D02*
X225300D01*
X340500Y-130800D02*
X225500D01*
X340500Y-131000D02*
X225700D01*
X340500Y-131200D02*
X226100D01*
X340500Y-131400D02*
X226300D01*
X340500Y-131600D02*
X226700D01*
X340500Y-131800D02*
X227100D01*
X340500Y-132000D02*
X227500D01*
D75*
X197001Y-179668D02*
X197334Y-179001D01*
X198001Y-178335D01*
X198667Y-178001D01*
X200000D01*
X200667Y-178335D01*
X201333Y-179001D01*
X201667Y-179668D01*
X202000Y-180668D01*
Y-182334D01*
X201667Y-183334D01*
X201333Y-184000D01*
X200667Y-184667D01*
X200000Y-185000D01*
X198667D01*
X198001Y-184667D01*
X197334Y-184000D01*
X197001Y-183334D01*
X193368Y-180334D02*
X194035Y-180668D01*
X194702Y-181334D01*
X195035Y-182334D01*
Y-183000D01*
X194702Y-184000D01*
X194035Y-184667D01*
X193368Y-185000D01*
X192369D01*
X191702Y-184667D01*
X191036Y-184000D01*
X190702Y-183000D01*
Y-182334D01*
X191036Y-181334D01*
X191702Y-180668D01*
X192369Y-180334D01*
X193368D01*
X189169D02*
Y-185000D01*
Y-182334D02*
X188836Y-181334D01*
X188170Y-180668D01*
X187503Y-180334D01*
X186503D01*
X181871Y-178001D02*
Y-185000D01*
Y-181334D02*
X182537Y-180668D01*
X183204Y-180334D01*
X184204D01*
X184870Y-180668D01*
X185537Y-181334D01*
X185870Y-182334D01*
Y-183000D01*
X185537Y-184000D01*
X184870Y-184667D01*
X184204Y-185000D01*
X183204D01*
X182537Y-184667D01*
X181871Y-184000D01*
X178338Y-180334D02*
X179005Y-180668D01*
X179672Y-181334D01*
X180005Y-182334D01*
Y-183000D01*
X179672Y-184000D01*
X179005Y-184667D01*
X178338Y-185000D01*
X177339D01*
X176672Y-184667D01*
X176006Y-184000D01*
X175672Y-183000D01*
Y-182334D01*
X176006Y-181334D01*
X176672Y-180668D01*
X177339Y-180334D01*
X178338D01*
X174139Y-178001D02*
Y-185000D01*
Y-181334D02*
X173473Y-180668D01*
X172806Y-180334D01*
X171807D01*
X171140Y-180668D01*
X170473Y-181334D01*
X170140Y-182334D01*
Y-183000D01*
X170473Y-184000D01*
X171140Y-184667D01*
X171807Y-185000D01*
X172806D01*
X173473Y-184667D01*
X174139Y-184000D01*
X168640Y-182334D02*
X164641D01*
Y-181667D01*
X164975Y-181001D01*
X165308Y-180668D01*
X165974Y-180334D01*
X166974D01*
X167641Y-180668D01*
X168307Y-181334D01*
X168640Y-182334D01*
Y-183000D01*
X168307Y-184000D01*
X167641Y-184667D01*
X166974Y-185000D01*
X165974D01*
X165308Y-184667D01*
X164641Y-184000D01*
X161809Y-178001D02*
X161475Y-178335D01*
X161142Y-178001D01*
X161475Y-177668D01*
X161809Y-178001D01*
X161475Y-180334D02*
Y-186000D01*
X161809Y-187000D01*
X162475Y-187333D01*
X163142D01*
X159842Y-180334D02*
Y-185000D01*
Y-182334D02*
X159509Y-181334D01*
X158843Y-180668D01*
X158176Y-180334D01*
X157176D01*
X154877D02*
X155543Y-180668D01*
X156210Y-181334D01*
X156543Y-182334D01*
Y-183000D01*
X156210Y-184000D01*
X155543Y-184667D01*
X154877Y-185000D01*
X153877D01*
X153210Y-184667D01*
X152544Y-184000D01*
X152211Y-183000D01*
Y-182334D01*
X152544Y-181334D01*
X153210Y-180668D01*
X153877Y-180334D01*
X154877D01*
X150344Y-184334D02*
X150678Y-184667D01*
X150344Y-185000D01*
X150011Y-184667D01*
X150344Y-184334D01*
X148478Y-181667D02*
X145479D01*
X144479Y-181334D01*
X144146Y-181001D01*
X143813Y-180334D01*
Y-179334D01*
X144146Y-178668D01*
X144479Y-178335D01*
X145479Y-178001D01*
X148478D01*
Y-185000D01*
X138247Y-181334D02*
X138914Y-180668D01*
X139580Y-180334D01*
X140580D01*
X141246Y-180668D01*
X141913Y-181334D01*
X142246Y-182334D01*
Y-183000D01*
X141913Y-184000D01*
X141246Y-184667D01*
X140580Y-185000D01*
X139580D01*
X138914Y-184667D01*
X138247Y-184000D01*
X136747Y-178001D02*
Y-185000D01*
Y-181334D02*
X136081Y-180668D01*
X135414Y-180334D01*
X134415D01*
X133748Y-180668D01*
X133081Y-181334D01*
X132748Y-182334D01*
Y-183000D01*
X133081Y-184000D01*
X133748Y-184667D01*
X134415Y-185000D01*
X135414D01*
X136081Y-184667D01*
X136747Y-184000D01*
X131248Y-178001D02*
Y-185000D01*
Y-178001D02*
X128916D01*
X127916Y-178335D01*
X127249Y-179001D01*
X126916Y-179668D01*
X126583Y-180668D01*
Y-182334D01*
X126916Y-183334D01*
X127249Y-184000D01*
X127916Y-184667D01*
X128916Y-185000D01*
X131248D01*
X123350Y-180334D02*
X124017Y-180668D01*
X124683Y-181334D01*
X125016Y-182334D01*
Y-183000D01*
X124683Y-184000D01*
X124017Y-184667D01*
X123350Y-185000D01*
X122350D01*
X121684Y-184667D01*
X121017Y-184000D01*
X120684Y-183000D01*
Y-182334D01*
X121017Y-181334D01*
X121684Y-180668D01*
X122350Y-180334D01*
X123350D01*
X115152Y-181334D02*
X115819Y-180668D01*
X116485Y-180334D01*
X117485D01*
X118151Y-180668D01*
X118818Y-181334D01*
X119151Y-182334D01*
Y-183000D01*
X118818Y-184000D01*
X118151Y-184667D01*
X117485Y-185000D01*
X116485D01*
X115819Y-184667D01*
X115152Y-184000D01*
X202000Y-149335D02*
X201333Y-149001D01*
X200334Y-148002D01*
Y-155000D01*
X196868Y-149335D02*
X196201Y-149001D01*
X195202Y-148002D01*
Y-155000D01*
X191402Y-154333D02*
X191735Y-154667D01*
X191402Y-155000D01*
X191069Y-154667D01*
X191402Y-154333D01*
X187536Y-148002D02*
X188536Y-148335D01*
X189203Y-149335D01*
X189536Y-151001D01*
Y-152001D01*
X189203Y-153667D01*
X188536Y-154667D01*
X187536Y-155000D01*
X186870D01*
X185870Y-154667D01*
X185204Y-153667D01*
X184870Y-152001D01*
Y-151001D01*
X185204Y-149335D01*
X185870Y-148335D01*
X186870Y-148002D01*
X187536D01*
X183304Y-149335D02*
X182638Y-149001D01*
X181638Y-148002D01*
Y-155000D01*
X177839Y-154333D02*
X178172Y-154667D01*
X177839Y-155000D01*
X177505Y-154667D01*
X177839Y-154333D01*
X175639Y-149668D02*
Y-149335D01*
X175306Y-148668D01*
X174972Y-148335D01*
X174306Y-148002D01*
X172973D01*
X172306Y-148335D01*
X171973Y-148668D01*
X171640Y-149335D01*
Y-150001D01*
X171973Y-150668D01*
X172640Y-151667D01*
X175972Y-155000D01*
X171307D01*
X167741Y-148002D02*
X168740Y-148335D01*
X169407Y-149335D01*
X169740Y-151001D01*
Y-152001D01*
X169407Y-153667D01*
X168740Y-154667D01*
X167741Y-155000D01*
X167074D01*
X166074Y-154667D01*
X165408Y-153667D01*
X165075Y-152001D01*
Y-151001D01*
X165408Y-149335D01*
X166074Y-148335D01*
X167074Y-148002D01*
X167741D01*
X163508Y-149335D02*
X162842Y-149001D01*
X161842Y-148002D01*
Y-155000D01*
X153710Y-148002D02*
X157043Y-155000D01*
X158376Y-148002D02*
X153710D01*
X331668Y-153000D02*
X334334Y-146002D01*
X337000Y-153000D01*
X336000Y-150667D02*
X332668D01*
X330035Y-146002D02*
Y-153000D01*
X327569Y-146002D02*
Y-151667D01*
X327235Y-152667D01*
X326569Y-153000D01*
X325902D01*
X328569Y-148334D02*
X326236D01*
X324236Y-146002D02*
X323903Y-146335D01*
X323569Y-146002D01*
X323903Y-145668D01*
X324236Y-146002D01*
X323903Y-148334D02*
Y-153000D01*
X322337Y-148334D02*
Y-151667D01*
X322003Y-152667D01*
X321337Y-153000D01*
X320337D01*
X319670Y-152667D01*
X318671Y-151667D01*
Y-148334D02*
Y-153000D01*
X316838Y-148334D02*
Y-153000D01*
Y-149667D02*
X315838Y-148668D01*
X315171Y-148334D01*
X314172D01*
X313505Y-148668D01*
X313172Y-149667D01*
Y-153000D01*
Y-149667D02*
X312172Y-148668D01*
X311506Y-148334D01*
X310506D01*
X309839Y-148668D01*
X309506Y-149667D01*
Y-153000D01*
X301807Y-146002D02*
Y-153000D01*
X297808D01*
X296375Y-146002D02*
X296042Y-146335D01*
X295709Y-146002D01*
X296042Y-145668D01*
X296375Y-146002D01*
X296042Y-148334D02*
Y-153000D01*
X294476Y-148334D02*
Y-153000D01*
Y-149667D02*
X293476Y-148668D01*
X292810Y-148334D01*
X291810D01*
X291143Y-148668D01*
X290810Y-149667D01*
Y-153000D01*
Y-149667D02*
X289810Y-148668D01*
X289144Y-148334D01*
X288144D01*
X287477Y-148668D01*
X287144Y-149667D01*
Y-153000D01*
X284278Y-146002D02*
X283945Y-146335D01*
X283611Y-146002D01*
X283945Y-145668D01*
X284278Y-146002D01*
X283945Y-148334D02*
Y-153000D01*
X281379Y-146002D02*
Y-151667D01*
X281045Y-152667D01*
X280379Y-153000D01*
X279712D01*
X282378Y-148334D02*
X280046D01*
X278713Y-150334D02*
X274713D01*
Y-149667D01*
X275047Y-149001D01*
X275380Y-148668D01*
X276046Y-148334D01*
X277046D01*
X277713Y-148668D01*
X278379Y-149334D01*
X278713Y-150334D01*
Y-151000D01*
X278379Y-152000D01*
X277713Y-152667D01*
X277046Y-153000D01*
X276046D01*
X275380Y-152667D01*
X274713Y-152000D01*
X269215Y-146002D02*
Y-153000D01*
Y-149334D02*
X269881Y-148668D01*
X270548Y-148334D01*
X271547D01*
X272214Y-148668D01*
X272880Y-149334D01*
X273214Y-150334D01*
Y-151000D01*
X272880Y-152000D01*
X272214Y-152667D01*
X271547Y-153000D01*
X270548D01*
X269881Y-152667D01*
X269215Y-152000D01*
X337000Y-157334D02*
X336333Y-157001D01*
X335334Y-156001D01*
Y-163000D01*
X331535Y-157668D02*
Y-157334D01*
X331201Y-156668D01*
X330868Y-156335D01*
X330202Y-156001D01*
X328868D01*
X328202Y-156335D01*
X327869Y-156668D01*
X327535Y-157334D01*
Y-158001D01*
X327869Y-158668D01*
X328535Y-159667D01*
X331868Y-163000D01*
X327202D01*
X321637Y-158334D02*
Y-163000D01*
Y-159334D02*
X322303Y-158668D01*
X322970Y-158334D01*
X323970D01*
X324636Y-158668D01*
X325303Y-159334D01*
X325636Y-160334D01*
Y-161000D01*
X325303Y-162000D01*
X324636Y-162667D01*
X323970Y-163000D01*
X322970D01*
X322303Y-162667D01*
X321637Y-162000D01*
X314271Y-156001D02*
Y-163000D01*
Y-156001D02*
X311272D01*
X310272Y-156335D01*
X309939Y-156668D01*
X309606Y-157334D01*
Y-158001D01*
X309939Y-158668D01*
X310272Y-159001D01*
X311272Y-159334D01*
X314271D01*
X311939D02*
X309606Y-163000D01*
X306373Y-158334D02*
X307040Y-158668D01*
X307706Y-159334D01*
X308039Y-160334D01*
Y-161000D01*
X307706Y-162000D01*
X307040Y-162667D01*
X306373Y-163000D01*
X305373D01*
X304707Y-162667D01*
X304040Y-162000D01*
X303707Y-161000D01*
Y-160334D01*
X304040Y-159334D01*
X304707Y-158668D01*
X305373Y-158334D01*
X306373D01*
X298175Y-156001D02*
Y-163000D01*
Y-159334D02*
X298842Y-158668D01*
X299508Y-158334D01*
X300508D01*
X301174Y-158668D01*
X301841Y-159334D01*
X302174Y-160334D01*
Y-161000D01*
X301841Y-162000D01*
X301174Y-162667D01*
X300508Y-163000D01*
X299508D01*
X298842Y-162667D01*
X298175Y-162000D01*
X296309Y-156001D02*
Y-163000D01*
Y-159334D02*
X295642Y-158668D01*
X294976Y-158334D01*
X293976D01*
X293309Y-158668D01*
X292643Y-159334D01*
X292310Y-160334D01*
Y-161000D01*
X292643Y-162000D01*
X293309Y-162667D01*
X293976Y-163000D01*
X294976D01*
X295642Y-162667D01*
X296309Y-162000D01*
X289144Y-158334D02*
X289810Y-158668D01*
X290477Y-159334D01*
X290810Y-160334D01*
Y-161000D01*
X290477Y-162000D01*
X289810Y-162667D01*
X289144Y-163000D01*
X288144D01*
X287477Y-162667D01*
X286811Y-162000D01*
X286477Y-161000D01*
Y-160334D01*
X286811Y-159334D01*
X287477Y-158668D01*
X288144Y-158334D01*
X289144D01*
X284945D02*
Y-163000D01*
Y-160334D02*
X284611Y-159334D01*
X283945Y-158668D01*
X283278Y-158334D01*
X282278D01*
X279979D02*
X280645Y-158668D01*
X281312Y-159334D01*
X281645Y-160334D01*
Y-161000D01*
X281312Y-162000D01*
X280645Y-162667D01*
X279979Y-163000D01*
X278979D01*
X278313Y-162667D01*
X277646Y-162000D01*
X277313Y-161000D01*
Y-160334D01*
X277646Y-159334D01*
X278313Y-158668D01*
X278979Y-158334D01*
X279979D01*
X275780D02*
Y-161667D01*
X275447Y-162667D01*
X274780Y-163000D01*
X273780D01*
X273114Y-162667D01*
X272114Y-161667D01*
Y-158334D02*
Y-163000D01*
X266282Y-158334D02*
Y-163666D01*
X266615Y-164666D01*
X266948Y-165000D01*
X267615Y-165333D01*
X268615D01*
X269281Y-165000D01*
X266282Y-159334D02*
X266948Y-158668D01*
X267615Y-158334D01*
X268615D01*
X269281Y-158668D01*
X269948Y-159334D01*
X270281Y-160334D01*
Y-161000D01*
X269948Y-162000D01*
X269281Y-162667D01*
X268615Y-163000D01*
X267615D01*
X266948Y-162667D01*
X266282Y-162000D01*
X264416Y-156001D02*
Y-163000D01*
Y-159667D02*
X263416Y-158668D01*
X262749Y-158334D01*
X261750D01*
X261083Y-158668D01*
X260750Y-159667D01*
Y-163000D01*
X253418Y-156001D02*
Y-163000D01*
Y-156001D02*
X250419D01*
X249419Y-156335D01*
X249085Y-156668D01*
X248752Y-157334D01*
Y-158001D01*
X249085Y-158668D01*
X249419Y-159001D01*
X250419Y-159334D01*
X253418D01*
X251085D02*
X248752Y-163000D01*
X243187Y-156001D02*
Y-163000D01*
Y-159334D02*
X243853Y-158668D01*
X244520Y-158334D01*
X245520D01*
X246186Y-158668D01*
X246853Y-159334D01*
X247186Y-160334D01*
Y-161000D01*
X246853Y-162000D01*
X246186Y-162667D01*
X245520Y-163000D01*
X244520D01*
X243853Y-162667D01*
X243187Y-162000D01*
X337000Y-166001D02*
Y-173000D01*
Y-166001D02*
X332668D01*
X337000Y-169334D02*
X334334D01*
X331868Y-168334D02*
Y-173000D01*
Y-170334D02*
X331535Y-169334D01*
X330868Y-168668D01*
X330202Y-168334D01*
X329202D01*
X328569Y-170334D02*
X324569D01*
Y-169667D01*
X324903Y-169001D01*
X325236Y-168668D01*
X325902Y-168334D01*
X326902D01*
X327569Y-168668D01*
X328235Y-169334D01*
X328569Y-170334D01*
Y-171000D01*
X328235Y-172000D01*
X327569Y-172667D01*
X326902Y-173000D01*
X325902D01*
X325236Y-172667D01*
X324569Y-172000D01*
X323070Y-168334D02*
Y-173000D01*
Y-169667D02*
X322070Y-168668D01*
X321403Y-168334D01*
X320404D01*
X319737Y-168668D01*
X319404Y-169667D01*
Y-173000D01*
X313572Y-169334D02*
X314238Y-168668D01*
X314905Y-168334D01*
X315904D01*
X316571Y-168668D01*
X317238Y-169334D01*
X317571Y-170334D01*
Y-171000D01*
X317238Y-172000D01*
X316571Y-172667D01*
X315904Y-173000D01*
X314905D01*
X314238Y-172667D01*
X313572Y-172000D01*
X312072Y-166001D02*
Y-173000D01*
Y-169667D02*
X311072Y-168668D01*
X310406Y-168334D01*
X309406D01*
X308739Y-168668D01*
X308406Y-169667D01*
Y-173000D01*
X302907Y-169334D02*
X303241Y-168668D01*
X304240Y-168334D01*
X305240D01*
X306240Y-168668D01*
X306573Y-169334D01*
X306240Y-170001D01*
X305573Y-170334D01*
X303907Y-170667D01*
X303241Y-171000D01*
X302907Y-171667D01*
Y-172000D01*
X303241Y-172667D01*
X304240Y-173000D01*
X305240D01*
X306240Y-172667D01*
X306573Y-172000D01*
X295942Y-166001D02*
Y-173000D01*
Y-166001D02*
X291610D01*
X295942Y-169334D02*
X293276D01*
X289144Y-168334D02*
X289810Y-168668D01*
X290477Y-169334D01*
X290810Y-170334D01*
Y-171000D01*
X290477Y-172000D01*
X289810Y-172667D01*
X289144Y-173000D01*
X288144D01*
X287477Y-172667D01*
X286811Y-172000D01*
X286477Y-171000D01*
Y-170334D01*
X286811Y-169334D01*
X287477Y-168668D01*
X288144Y-168334D01*
X289144D01*
X284945D02*
Y-173000D01*
Y-170334D02*
X284611Y-169334D01*
X283945Y-168668D01*
X283278Y-168334D01*
X282278D01*
X281645Y-170334D02*
X277646D01*
Y-169667D01*
X277979Y-169001D01*
X278313Y-168668D01*
X278979Y-168334D01*
X279979D01*
X280645Y-168668D01*
X281312Y-169334D01*
X281645Y-170334D01*
Y-171000D01*
X281312Y-172000D01*
X280645Y-172667D01*
X279979Y-173000D01*
X278979D01*
X278313Y-172667D01*
X277646Y-172000D01*
X272481Y-169334D02*
X272814Y-168668D01*
X273814Y-168334D01*
X274813D01*
X275813Y-168668D01*
X276146Y-169334D01*
X275813Y-170001D01*
X275147Y-170334D01*
X273480Y-170667D01*
X272814Y-171000D01*
X272481Y-171667D01*
Y-172000D01*
X272814Y-172667D01*
X273814Y-173000D01*
X274813D01*
X275813Y-172667D01*
X276146Y-172000D01*
X270014Y-166001D02*
Y-171667D01*
X269681Y-172667D01*
X269015Y-173000D01*
X268348D01*
X271014Y-168334D02*
X268681D01*
X337000Y-176002D02*
Y-183000D01*
Y-176002D02*
X332334Y-183000D01*
Y-176002D02*
Y-183000D01*
X325736Y-177001D02*
X326402Y-176335D01*
X327402Y-176002D01*
X328735D01*
X329735Y-176335D01*
X330401Y-177001D01*
Y-177668D01*
X330068Y-178334D01*
X329735Y-178668D01*
X329068Y-179001D01*
X327069Y-179667D01*
X326402Y-180001D01*
X326069Y-180334D01*
X325736Y-181000D01*
Y-182000D01*
X326402Y-182667D01*
X327402Y-183000D01*
X328735D01*
X329735Y-182667D01*
X330401Y-182000D01*
X324169Y-176002D02*
X322503Y-183000D01*
X320837Y-176002D02*
X322503Y-183000D01*
X320837Y-176002D02*
X319170Y-183000D01*
X317504Y-176002D02*
X319170Y-183000D01*
X310272Y-177668D02*
Y-177334D01*
X309939Y-176668D01*
X309606Y-176335D01*
X308939Y-176002D01*
X307606D01*
X306940Y-176335D01*
X306607Y-176668D01*
X306273Y-177334D01*
Y-178001D01*
X306607Y-178668D01*
X307273Y-179667D01*
X310606Y-183000D01*
X305940D01*
X302374Y-176002D02*
X303374Y-176335D01*
X304040Y-177334D01*
X304374Y-179001D01*
Y-180001D01*
X304040Y-181667D01*
X303374Y-182667D01*
X302374Y-183000D01*
X301708D01*
X300708Y-182667D01*
X300041Y-181667D01*
X299708Y-180001D01*
Y-179001D01*
X300041Y-177334D01*
X300708Y-176335D01*
X301708Y-176002D01*
X302374D01*
X296475D02*
X297475Y-176335D01*
X297808Y-177001D01*
Y-177668D01*
X297475Y-178334D01*
X296809Y-178668D01*
X295476Y-179001D01*
X294476Y-179334D01*
X293809Y-180001D01*
X293476Y-180667D01*
Y-181667D01*
X293809Y-182334D01*
X294143Y-182667D01*
X295142Y-183000D01*
X296475D01*
X297475Y-182667D01*
X297808Y-182334D01*
X298142Y-181667D01*
Y-180667D01*
X297808Y-180001D01*
X297142Y-179334D01*
X296142Y-179001D01*
X294809Y-178668D01*
X294143Y-178334D01*
X293809Y-177668D01*
Y-177001D01*
X294143Y-176335D01*
X295142Y-176002D01*
X296475D01*
X287911Y-177001D02*
X288244Y-176335D01*
X289244Y-176002D01*
X289910D01*
X290910Y-176335D01*
X291576Y-177334D01*
X291910Y-179001D01*
Y-180667D01*
X291576Y-182000D01*
X290910Y-182667D01*
X289910Y-183000D01*
X289577D01*
X288577Y-182667D01*
X287911Y-182000D01*
X287577Y-181000D01*
Y-180667D01*
X287911Y-179667D01*
X288577Y-179001D01*
X289577Y-178668D01*
X289910D01*
X290910Y-179001D01*
X291576Y-179667D01*
X291910Y-180667D01*
X-115199Y-206500D02*
Y-199502D01*
X-111700Y-203001D01*
X-116365D01*
X175300Y-200669D02*
X174134Y-199502D01*
X171801D01*
X170635Y-200669D01*
Y-201835D01*
X171801Y-203001D01*
X172967D01*
X171801D01*
X170635Y-204167D01*
Y-205334D01*
X171801Y-206500D01*
X174134D01*
X175300Y-205334D01*
X458635Y-206500D02*
X463300D01*
X458635Y-201835D01*
Y-200669D01*
X459801Y-199502D01*
X462134D01*
X463300Y-200669D01*
X749300Y-200834D02*
X748633Y-200501D01*
X747634Y-199502D01*
Y-206500D01*
X-115033Y540498D02*
X-111700Y535833D01*
X-116699D01*
X-115033Y540498D02*
Y533500D01*
X174634Y540498D02*
X170968D01*
X172967Y537832D01*
X171967D01*
X171301Y537499D01*
X170968Y537166D01*
X170634Y536166D01*
Y535500D01*
X170968Y534500D01*
X171634Y533833D01*
X172634Y533500D01*
X173634D01*
X174634Y533833D01*
X174967Y534166D01*
X175300Y534833D01*
X462967Y538832D02*
Y539165D01*
X462634Y539832D01*
X462300Y540165D01*
X461634Y540498D01*
X460301D01*
X459634Y540165D01*
X459301Y539832D01*
X458968Y539165D01*
Y538499D01*
X459301Y537832D01*
X459967Y536833D01*
X463300Y533500D01*
X458634D01*
X749300Y539165D02*
X748633Y539499D01*
X747634Y540498D01*
Y533500D01*
X884500Y-119301D02*
Y-126300D01*
Y-119301D02*
X882167D01*
X881167Y-119635D01*
X880501Y-120301D01*
X880168Y-120968D01*
X879834Y-121968D01*
Y-123634D01*
X880168Y-124634D01*
X880501Y-125300D01*
X881167Y-125967D01*
X882167Y-126300D01*
X884500D01*
X879501Y68032D02*
X879834Y68699D01*
X880501Y69365D01*
X881167Y69699D01*
X882500D01*
X883167Y69365D01*
X883834Y68699D01*
X884167Y68032D01*
X884500Y67032D01*
Y65366D01*
X884167Y64366D01*
X883834Y63700D01*
X883167Y63033D01*
X882500Y62700D01*
X881167D01*
X880501Y63033D01*
X879834Y63700D01*
X879501Y64366D01*
X884500Y260699D02*
Y253700D01*
Y260699D02*
X881501D01*
X880501Y260365D01*
X880168Y260032D01*
X879834Y259366D01*
Y258699D01*
X880168Y258032D01*
X880501Y257699D01*
X881501Y257366D01*
X884500D02*
X881501D01*
X880501Y257033D01*
X880168Y256699D01*
X879834Y256033D01*
Y255033D01*
X880168Y254366D01*
X880501Y254033D01*
X881501Y253700D01*
X884500D01*
X879168Y442900D02*
X881834Y449898D01*
X884500Y442900D01*
X883500Y445233D02*
X880168D01*
X-245500Y-119301D02*
Y-126300D01*
Y-119301D02*
X-247833D01*
X-248833Y-119635D01*
X-249499Y-120301D01*
X-249832Y-120968D01*
X-250166Y-121968D01*
Y-123634D01*
X-249832Y-124634D01*
X-249499Y-125300D01*
X-248833Y-125967D01*
X-247833Y-126300D01*
X-245500D01*
X596351Y-141718D02*
X596685Y-141051D01*
X597351Y-140385D01*
X598018Y-140051D01*
X599351D01*
X600017Y-140385D01*
X600684Y-141051D01*
X601017Y-141718D01*
X601350Y-142718D01*
Y-144384D01*
X601017Y-145384D01*
X600684Y-146050D01*
X600017Y-146717D01*
X599351Y-147050D01*
X598018D01*
X597351Y-146717D01*
X596685Y-146050D01*
X596351Y-145384D01*
X-245500Y260699D02*
Y253700D01*
Y260699D02*
X-248499D01*
X-249499Y260365D01*
X-249832Y260032D01*
X-250166Y259366D01*
Y258699D01*
X-249832Y258032D01*
X-249499Y257699D01*
X-248499Y257366D01*
X-245500D02*
X-248499D01*
X-249499Y257033D01*
X-249832Y256699D01*
X-250166Y256033D01*
Y255033D01*
X-249832Y254366D01*
X-249499Y254033D01*
X-248499Y253700D01*
X-245500D01*
X-250832Y442900D02*
X-248166Y449898D01*
X-245500Y442900D01*
X-246500Y445233D02*
X-249832D01*
M02*
