G04 Layer_Color=128*
%FSLAX25Y25*%
%MOIN*%
G70*
G01*
G75*
%ADD74C,0.00200*%
D74*
X51181Y7386D02*
X53937D01*
X52559Y6008D02*
Y8764D01*
X38976Y7386D02*
X41732D01*
X40354Y6008D02*
Y8764D01*
X70669Y7780D02*
X73425D01*
X72047Y6402D02*
Y9158D01*
X58465Y7780D02*
X61221D01*
X59843Y6402D02*
Y9158D01*
X134228Y111000D02*
X137772D01*
X136000Y109228D02*
Y112772D01*
X124228Y111000D02*
X127772D01*
X126000Y109228D02*
Y112772D01*
X114228Y111000D02*
X117772D01*
X116000Y109228D02*
Y112772D01*
X99835Y111000D02*
X104165D01*
X102000Y108835D02*
Y113165D01*
X79835Y111000D02*
X84165D01*
X82000Y108835D02*
Y113165D01*
X132740Y39764D02*
X136283D01*
X134512Y37992D02*
Y41535D01*
X122740Y39764D02*
X126283D01*
X124512Y37992D02*
Y41535D01*
X112740Y39764D02*
X116283D01*
X114512Y37992D02*
Y41535D01*
X102740Y39764D02*
X106283D01*
X104512Y37992D02*
Y41535D01*
X92740Y39764D02*
X96284D01*
X94512Y37992D02*
Y41535D01*
X82740Y39764D02*
X86283D01*
X84512Y37992D02*
Y41535D01*
X44370Y126378D02*
X47914D01*
X46142Y124606D02*
Y128150D01*
X54370Y126378D02*
X57914D01*
X56142Y124606D02*
Y128150D01*
X64370Y126378D02*
X67914D01*
X66142Y124606D02*
Y128150D01*
X74370Y126378D02*
X77913D01*
X76142Y124606D02*
Y128150D01*
X16047Y109000D02*
X20772D01*
X18409Y106638D02*
Y111362D01*
X57228Y109000D02*
X61953D01*
X59590Y106638D02*
Y111362D01*
X125835Y28000D02*
X130166D01*
X128000Y25835D02*
Y30165D01*
X105835Y28000D02*
X110166D01*
X108000Y25835D02*
Y30165D01*
X109000Y74700D02*
X111800D01*
X110400Y73300D02*
Y76100D01*
X116600Y69400D02*
X119400D01*
X118000Y68000D02*
Y70800D01*
X136000Y49000D02*
X138800D01*
X137400Y47600D02*
Y50400D01*
X90000Y79900D02*
X92800D01*
X91400Y78500D02*
Y81300D01*
X96100Y75943D02*
X98900D01*
X97500Y74543D02*
Y77343D01*
X96165Y69900D02*
X98965D01*
X97565Y68500D02*
Y71300D01*
X107500Y62100D02*
X110300D01*
X108900Y60700D02*
Y63500D01*
X103300Y85300D02*
X106100D01*
X104700Y83900D02*
Y86700D01*
X18500Y92400D02*
X21300D01*
X19900Y91000D02*
Y93800D01*
X36510Y83200D02*
X39310D01*
X37910Y81800D02*
Y84600D01*
X125000Y57700D02*
X127800D01*
X126400Y56300D02*
Y59100D01*
X105188Y67587D02*
X107988D01*
X106588Y66187D02*
Y68987D01*
X78000Y55800D02*
X80800D01*
X79400Y54400D02*
Y57200D01*
X97787Y44615D02*
X100587D01*
X99187Y43215D02*
Y46015D01*
X49000Y49500D02*
X51800D01*
X50400Y48100D02*
Y50900D01*
X45800Y13200D02*
X48600D01*
X47200Y11800D02*
Y14600D01*
X46900Y34700D02*
X49700D01*
X48300Y33300D02*
Y36100D01*
X50000Y49300D02*
X52800D01*
X51400Y47900D02*
Y50700D01*
X106151Y45800D02*
X108951D01*
X107551Y44400D02*
Y47200D01*
X101400Y58000D02*
X104200D01*
X102800Y56600D02*
Y59400D01*
X14048Y83200D02*
X16848D01*
X15448Y81800D02*
Y84600D01*
X10300Y90300D02*
X13100D01*
X11700Y88900D02*
Y91700D01*
X41300Y105200D02*
X44100D01*
X42700Y103800D02*
Y106600D01*
X115700Y31700D02*
X118500D01*
X117100Y30300D02*
Y33100D01*
X94000Y33000D02*
X96800D01*
X95400Y31600D02*
Y34400D01*
X104600Y105300D02*
X107400D01*
X106000Y103900D02*
Y106700D01*
X76841Y93200D02*
X79641D01*
X78241Y91800D02*
Y94600D01*
X60500Y132100D02*
X63300D01*
X61900Y130700D02*
Y133500D01*
X36600Y91000D02*
X39400D01*
X38000Y89600D02*
Y92400D01*
X85101Y21400D02*
X87901D01*
X86501Y20000D02*
Y22800D01*
X37300Y22500D02*
X40100D01*
X38700Y21100D02*
Y23900D01*
X23480Y30000D02*
X26280D01*
X24880Y28600D02*
Y31400D01*
X76900Y14800D02*
X79700D01*
X78300Y13400D02*
Y16200D01*
X84135Y101346D02*
X86935D01*
X85535Y99946D02*
Y102746D01*
X78847Y101546D02*
X81647D01*
X80247Y100146D02*
Y102946D01*
X76947Y26780D02*
X79747D01*
X78347Y25380D02*
Y28180D01*
X24000Y59380D02*
X26800D01*
X25400Y57980D02*
Y60780D01*
X48873Y70400D02*
X51673D01*
X50273Y69000D02*
Y71800D01*
X54273Y70400D02*
X57073D01*
X55673Y69000D02*
Y71800D01*
X4400Y96391D02*
X7200D01*
X5800Y94991D02*
Y97791D01*
X92802Y61000D02*
X95602D01*
X94202Y59600D02*
Y62400D01*
X87352Y47900D02*
X90152D01*
X88752Y46500D02*
Y49300D01*
X125049Y63646D02*
X127849D01*
X126449Y62246D02*
Y65046D01*
X66820Y55600D02*
X69620D01*
X68220Y54200D02*
Y57000D01*
X16700Y27000D02*
X19500D01*
X18100Y25600D02*
Y28400D01*
X29900Y64500D02*
X32700D01*
X31300Y63100D02*
Y65900D01*
X16718Y32094D02*
X19518D01*
X18118Y30694D02*
Y33494D01*
X15482Y37094D02*
X18282D01*
X16882Y35694D02*
Y38494D01*
X18340Y59520D02*
X21140D01*
X19740Y58120D02*
Y60920D01*
X43191Y49858D02*
X45991D01*
X44591Y48458D02*
Y51258D01*
X61450Y49315D02*
X64250D01*
X62850Y47915D02*
Y50715D01*
X125049Y100953D02*
X127849D01*
X126449Y99553D02*
Y102353D01*
M02*
