G04 Layer_Color=16711935*
%FSLAX42Y42*%
%MOMM*%
G71*
G01*
G75*
%ADD18C,0.10*%
%ADD19C,0.20*%
%ADD20C,0.05*%
%ADD21C,0.13*%
%ADD22C,0.18*%
%ADD54R,0.80X0.70*%
%ADD55R,0.70X0.80*%
%ADD58C,2.05*%
%ADD59R,2.05X2.05*%
%ADD60P,1.74X8X112.5*%
%ADD61C,1.60*%
%ADD62C,2.20*%
%ADD63R,2.20X2.20*%
%ADD64C,1.70*%
%ADD65R,1.70X1.70*%
%ADD66C,1.47*%
%ADD67R,2.00X1.20*%
%ADD68O,0.50X2.00*%
%ADD69O,2.00X0.50*%
%ADD70C,1.40*%
%ADD71R,1.00X1.70*%
%ADD72R,1.70X1.00*%
%ADD73O,1.80X1.20*%
%ADD74O,1.60X1.20*%
D18*
X13945Y1212D02*
X11995D01*
Y2362D01*
X13945D02*
X11995D01*
X13945Y1212D02*
Y2362D01*
X14967Y1442D02*
G03*
X14967Y1442I50J0D01*
G01*
X15726Y2308D02*
G03*
X15726Y2308I50J0D01*
G01*
X15312Y1672D02*
Y1782D01*
X15372Y1672D02*
Y1782D01*
Y1672D02*
X15312D01*
X15372Y1782D02*
X15312D01*
X12908Y2511D02*
Y2621D01*
X12848Y2511D02*
Y2621D01*
X12908D02*
X12848D01*
X12908Y2511D02*
X12848D01*
X14889Y1088D02*
X14779D01*
X14889Y1148D02*
X14779D01*
X14889Y1088D02*
Y1148D01*
X14779Y1088D02*
Y1148D01*
X14296Y834D02*
Y944D01*
X14356Y834D02*
Y944D01*
Y834D02*
X14296D01*
X14356Y944D02*
X14296D01*
X15032Y834D02*
Y944D01*
X15092Y834D02*
Y944D01*
Y834D02*
X15032D01*
X15092Y944D02*
X15032D01*
X15981Y1647D02*
Y1757D01*
X15921Y1647D02*
Y1757D01*
X15981D02*
X15921D01*
X15981Y1647D02*
X15921D01*
X15092Y1088D02*
X14982D01*
X15092Y1148D02*
X14982D01*
X15092Y1088D02*
Y1148D01*
X14982Y1088D02*
Y1148D01*
X15921Y1012D02*
Y1122D01*
X15981Y1012D02*
Y1122D01*
Y1012D02*
X15921D01*
X15981Y1122D02*
X15921D01*
X15150Y668D02*
Y1008D01*
X15330Y668D02*
Y1008D01*
Y668D02*
X15150D01*
X15330Y1008D02*
X15150D01*
X14291Y2360D02*
Y2670D01*
X14461Y2360D02*
Y2670D01*
Y2360D02*
X14291D01*
X14461Y2670D02*
X14291D01*
X15346Y2789D02*
X15236D01*
X15346Y2849D02*
X15236D01*
Y2789D02*
Y2849D01*
X15346Y2789D02*
Y2849D01*
X15107Y2052D02*
X14407D01*
X15107Y1352D02*
X14407D01*
Y2052D01*
X15107Y1352D02*
Y2052D01*
X14194Y834D02*
Y944D01*
X14254Y834D02*
Y944D01*
Y834D02*
X14194D01*
X14254Y944D02*
X14194D01*
X14092Y835D02*
Y945D01*
X14152Y835D02*
Y945D01*
Y835D02*
X14092D01*
X14152Y945D02*
X14092D01*
X14558Y2316D02*
X14448D01*
X14558Y2256D02*
X14448D01*
Y2316D01*
X14558Y2256D02*
Y2316D01*
X14356Y1037D02*
Y1147D01*
X14296Y1037D02*
Y1147D01*
X14356D02*
X14296D01*
X14356Y1037D02*
X14296D01*
X14254D02*
Y1147D01*
X14194Y1037D02*
Y1147D01*
X14254D02*
X14194D01*
X14254Y1037D02*
X14194D01*
X14152Y1036D02*
Y1146D01*
X14092Y1036D02*
Y1146D01*
X14152D02*
X14092D01*
X14152Y1036D02*
X14092D01*
X14050Y2697D02*
X13940D01*
X14050Y2637D02*
X13940D01*
X14050D02*
Y2697D01*
X13940Y2637D02*
Y2697D01*
X14508Y3129D02*
X14398D01*
X14508Y3069D02*
X14398D01*
X14508D02*
Y3129D01*
X14398Y3069D02*
Y3129D01*
X14067Y2459D02*
Y2569D01*
X14127Y2459D02*
Y2569D01*
X14067D01*
X14127Y2459D02*
X14067D01*
X14623Y3081D02*
Y3116D01*
X14688Y3081D02*
Y3116D01*
Y3081D02*
X14623D01*
X14688Y3116D02*
X14623D01*
X15676Y2815D02*
X15566D01*
X15676Y2875D02*
X15566D01*
Y2815D02*
Y2875D01*
X15676Y2815D02*
Y2875D01*
X13847Y2637D02*
X13737D01*
X13847Y2697D02*
X13737D01*
Y2637D02*
Y2697D01*
X13847Y2637D02*
Y2697D01*
X14304Y3069D02*
X14194D01*
X14304Y3129D02*
X14194D01*
Y3069D02*
Y3129D01*
X14304Y3069D02*
Y3129D01*
X15376Y2218D02*
Y2608D01*
X15866Y2218D02*
Y2608D01*
X15376D01*
X15866Y2218D02*
X15376D01*
X15854Y2011D02*
X15744D01*
X15854Y1951D02*
X15744D01*
X15854D02*
Y2011D01*
X15744Y1951D02*
Y2011D01*
X15651D02*
X15541D01*
X15651Y1951D02*
X15541D01*
X15651D02*
Y2011D01*
X15541Y1951D02*
Y2011D01*
X14608Y843D02*
X14498D01*
X14608Y783D02*
X14498D01*
X14608D02*
Y843D01*
X14498Y783D02*
Y843D01*
X13085Y2646D02*
X12975D01*
X13085Y2586D02*
X12975D01*
X13085D02*
Y2646D01*
X12975Y2586D02*
Y2646D01*
X15372Y1727D02*
X15312D01*
X15342Y1697D02*
Y1757D01*
X15307Y1637D02*
Y1817D01*
X15377Y1637D02*
Y1817D01*
Y1637D02*
X15307D01*
X15377Y1817D02*
X15307D01*
X12908Y2566D02*
X12848D01*
X12878Y2536D02*
Y2596D01*
X12913Y2476D02*
Y2656D01*
X12843Y2476D02*
Y2656D01*
X12913D02*
X12843D01*
X12913Y2476D02*
X12843D01*
X14834Y1088D02*
Y1148D01*
X14864Y1118D02*
X14804D01*
X14924Y1083D02*
X14744D01*
X14924Y1153D02*
X14744D01*
X14924Y1083D02*
Y1153D01*
X14744Y1083D02*
Y1153D01*
X14356Y889D02*
X14296D01*
X14326Y859D02*
Y919D01*
X14291Y799D02*
Y979D01*
X14361Y799D02*
Y979D01*
Y799D02*
X14291D01*
X14361Y979D02*
X14291D01*
X15092Y889D02*
X15032D01*
X15062Y859D02*
Y919D01*
X15027Y799D02*
Y979D01*
X15097Y799D02*
Y979D01*
Y799D02*
X15027D01*
X15097Y979D02*
X15027D01*
X15981Y1702D02*
X15921D01*
X15951Y1672D02*
Y1732D01*
X15986Y1612D02*
Y1792D01*
X15916Y1612D02*
Y1792D01*
X15986D02*
X15916D01*
X15986Y1612D02*
X15916D01*
X15037Y1088D02*
Y1148D01*
X15067Y1118D02*
X15007D01*
X15127Y1083D02*
X14947D01*
X15127Y1153D02*
X14947D01*
X15127Y1083D02*
Y1153D01*
X14947Y1083D02*
Y1153D01*
X15981Y1067D02*
X15921D01*
X15951Y1037D02*
Y1097D01*
X15916Y977D02*
Y1157D01*
X15986Y977D02*
Y1157D01*
Y977D02*
X15916D01*
X15986Y1157D02*
X15916D01*
X15290Y838D02*
X15190D01*
X15240Y788D02*
Y888D01*
X15140Y638D02*
Y1038D01*
X15340Y638D02*
Y1038D01*
Y638D02*
X15140D01*
X15340Y1038D02*
X15140D01*
X14161Y2335D02*
Y2695D01*
X14591Y2335D02*
Y2695D01*
Y2335D02*
X14161D01*
X14591Y2695D02*
X14161D01*
X14426Y2515D02*
X14326D01*
X14376Y2465D02*
Y2565D01*
X15291Y2789D02*
Y2849D01*
X15321Y2819D02*
X15261D01*
X15381Y2784D02*
X15201D01*
X15381Y2854D02*
X15201D01*
Y2784D02*
Y2854D01*
X15381Y2784D02*
Y2854D01*
X14757Y1652D02*
Y1752D01*
X14807Y1702D02*
X14707D01*
X15277Y2222D02*
X14237D01*
X15277Y1182D02*
X14237D01*
Y2222D01*
X15277Y1182D02*
Y2222D01*
X14254Y889D02*
X14194D01*
X14224Y859D02*
Y919D01*
X14189Y799D02*
Y979D01*
X14259Y799D02*
Y979D01*
Y799D02*
X14189D01*
X14259Y979D02*
X14189D01*
X14152Y890D02*
X14092D01*
X14122Y860D02*
Y920D01*
X14087Y800D02*
Y980D01*
X14157Y800D02*
Y980D01*
Y800D02*
X14087D01*
X14157Y980D02*
X14087D01*
X14503Y2256D02*
Y2316D01*
X14533Y2286D02*
X14473D01*
X14593Y2321D02*
X14413D01*
X14593Y2251D02*
X14413D01*
Y2321D01*
X14593Y2251D02*
Y2321D01*
X14356Y1092D02*
X14296D01*
X14326Y1062D02*
Y1122D01*
X14361Y1002D02*
Y1182D01*
X14291Y1002D02*
Y1182D01*
X14361D02*
X14291D01*
X14361Y1002D02*
X14291D01*
X14254Y1092D02*
X14194D01*
X14224Y1062D02*
Y1122D01*
X14259Y1002D02*
Y1182D01*
X14189Y1002D02*
Y1182D01*
X14259D02*
X14189D01*
X14259Y1002D02*
X14189D01*
X14152Y1091D02*
X14092D01*
X14122Y1061D02*
Y1121D01*
X14157Y1001D02*
Y1181D01*
X14087Y1001D02*
Y1181D01*
X14157D02*
X14087D01*
X14157Y1001D02*
X14087D01*
X12970Y1737D02*
Y1837D01*
X13020Y1787D02*
X12920D01*
X14035Y1122D02*
Y2452D01*
X11965D01*
Y1122D02*
Y2452D01*
X14035Y1122D02*
X11965D01*
X13995Y2637D02*
Y2697D01*
X14025Y2667D02*
X13965D01*
X14085Y2702D02*
X13905D01*
X14085Y2632D02*
X13905D01*
X14085D02*
Y2702D01*
X13905Y2632D02*
Y2702D01*
X14453Y3069D02*
Y3129D01*
X14483Y3099D02*
X14423D01*
X14543Y3134D02*
X14363D01*
X14543Y3064D02*
X14363D01*
X14543D02*
Y3134D01*
X14363Y3064D02*
Y3134D01*
X14127Y2514D02*
X14067D01*
X14097Y2484D02*
Y2544D01*
X14062Y2424D02*
Y2604D01*
X14132Y2424D02*
Y2604D01*
X14062D01*
X14132Y2424D02*
X14062D01*
X14586Y3074D02*
Y3124D01*
X14726Y3074D02*
Y3124D01*
Y3074D02*
X14586D01*
X14726Y3124D02*
X14586D01*
X14673Y3099D02*
X14638D01*
X14656Y3081D02*
Y3116D01*
X15621Y2815D02*
Y2875D01*
X15651Y2845D02*
X15591D01*
X15711Y2810D02*
X15531D01*
X15711Y2880D02*
X15531D01*
Y2810D02*
Y2880D01*
X15711Y2810D02*
Y2880D01*
X13792Y2637D02*
Y2697D01*
X13822Y2667D02*
X13762D01*
X13882Y2632D02*
X13702D01*
X13882Y2702D02*
X13702D01*
Y2632D02*
Y2702D01*
X13882Y2632D02*
Y2702D01*
X14249Y3069D02*
Y3129D01*
X14279Y3099D02*
X14219D01*
X14339Y3064D02*
X14159D01*
X14339Y3134D02*
X14159D01*
Y3064D02*
Y3134D01*
X14339Y3064D02*
Y3134D01*
X15671Y2413D02*
X15571D01*
X15621Y2363D02*
Y2463D01*
X15346Y2038D02*
Y2788D01*
X15896Y2038D02*
Y2788D01*
X15346D01*
X15896Y2038D02*
X15346D01*
X15799Y1951D02*
Y2011D01*
X15829Y1981D02*
X15769D01*
X15889Y2016D02*
X15709D01*
X15889Y1946D02*
X15709D01*
X15889D02*
Y2016D01*
X15709Y1946D02*
Y2016D01*
X15596Y1951D02*
Y2011D01*
X15626Y1981D02*
X15566D01*
X15686Y2016D02*
X15506D01*
X15686Y1946D02*
X15506D01*
X15686D02*
Y2016D01*
X15506Y1946D02*
Y2016D01*
X14553Y783D02*
Y843D01*
X14583Y813D02*
X14523D01*
X14643Y848D02*
X14463D01*
X14643Y778D02*
X14463D01*
X14643D02*
Y848D01*
X14463Y778D02*
Y848D01*
X13030Y2586D02*
Y2646D01*
X13060Y2616D02*
X13000D01*
X13120Y2651D02*
X12940D01*
X13120Y2581D02*
X12940D01*
X13120D02*
Y2651D01*
X12940Y2581D02*
Y2651D01*
D19*
X12845Y1372D02*
Y1405D01*
Y1388D01*
X12745D01*
X12762Y1372D01*
D20*
X8649Y-3353D02*
X5778D01*
X8649Y-3348D02*
X5768D01*
X8649Y-3343D02*
X5758D01*
X8649Y-3338D02*
X5748D01*
X8649Y-3332D02*
X5743D01*
X8649Y-3327D02*
X5733D01*
X8649Y-3322D02*
X5728D01*
X8649Y-3317D02*
X5723D01*
X8649Y-3312D02*
X5718D01*
X8649Y-3307D02*
X5712D01*
X8649Y-3302D02*
X5707D01*
X8649Y-3297D02*
X5702D01*
X8649Y-3292D02*
X5697D01*
X8649Y-3287D02*
X5692D01*
X8649Y-3282D02*
X5687D01*
X8649Y-3277D02*
X5682D01*
X8649Y-3272D02*
X5682D01*
X8649Y-3266D02*
X5677D01*
X8649Y-3261D02*
X5672D01*
X8649Y-3256D02*
X5672D01*
X8649Y-3251D02*
X5667D01*
X8649Y-3246D02*
X5667D01*
X8649Y-3241D02*
X5662D01*
X8649Y-3236D02*
X5662D01*
X8649Y-3231D02*
X5662D01*
X8649Y-3226D02*
X5657D01*
X8649Y-3221D02*
X5657D01*
X8649Y-3216D02*
X5657D01*
X8649Y-3211D02*
X5651D01*
X8649Y-3205D02*
X5651D01*
X8649Y-3200D02*
X5651D01*
X8649Y-3195D02*
X5651D01*
X8649Y-3190D02*
X5651D01*
X8649Y-3185D02*
X5651D01*
X8649Y-3180D02*
X5651D01*
X8649Y-3175D02*
X5651D01*
X8649Y-3170D02*
X5651D01*
X8649Y-3165D02*
X5651D01*
X8649Y-3160D02*
X5651D01*
X8649Y-3155D02*
X5651D01*
X8649Y-3150D02*
X5651D01*
X8649Y-3145D02*
X5651D01*
X6601Y-3139D02*
X5651D01*
X7912D02*
X6642D01*
X8649D02*
X7958D01*
X6596Y-3134D02*
X5651D01*
X7907D02*
X6647D01*
X8649D02*
X7963D01*
X6591Y-3129D02*
X5651D01*
X7902D02*
X6647D01*
X8649D02*
X7963D01*
X6586Y-3124D02*
X5651D01*
X6637D02*
X6612D01*
X7902D02*
X6647D01*
X7953D02*
X7927D01*
X8649D02*
X7963D01*
X6586Y-3119D02*
X5651D01*
X7897D02*
X6607D01*
X8649D02*
X7922D01*
X6586Y-3114D02*
X5651D01*
X7897D02*
X6607D01*
X8649D02*
X7917D01*
X6007Y-3109D02*
X5651D01*
X6063D02*
X6027D01*
X6144D02*
X6104D01*
X6200D02*
X6165D01*
X6261D02*
X6241D01*
X6287D02*
X6281D01*
X6353D02*
X6317D01*
X6490D02*
X6414D01*
X6535D02*
X6505D01*
X6581D02*
X6556D01*
X6617D02*
X6601D01*
X6678D02*
X6637D01*
X6734D02*
X6698D01*
X6805D02*
X6774D01*
X6916D02*
X6845D01*
X7054D02*
X6967D01*
X7109D02*
X7094D01*
X7191D02*
X7145D01*
X7236D02*
X7211D01*
X7287D02*
X7257D01*
X7348D02*
X7308D01*
X7445D02*
X7384D01*
X7480D02*
X7460D01*
X7546D02*
X7511D01*
X7628D02*
X7582D01*
X7714D02*
X7668D01*
X7760D02*
X7734D01*
X7897D02*
X7821D01*
X7927D02*
X7917D01*
X7993D02*
X7953D01*
X8039D02*
X8014D01*
X8090D02*
X8059D01*
X8125D02*
X8110D01*
X8176D02*
X8151D01*
X8222D02*
X8197D01*
X8247D02*
X8237D01*
X8313D02*
X8278D01*
X8359D02*
X8334D01*
X8405D02*
X8379D01*
X8649D02*
X8425D01*
X6007Y-3104D02*
X5651D01*
X6058D02*
X6027D01*
X6144D02*
X6109D01*
X6195D02*
X6165D01*
X6261D02*
X6241D01*
X6353D02*
X6327D01*
X6490D02*
X6414D01*
X6535D02*
X6505D01*
X6581D02*
X6556D01*
X6607D02*
X6601D01*
X6678D02*
X6647D01*
X6728D02*
X6698D01*
X6800D02*
X6774D01*
X6906D02*
X6850D01*
X7049D02*
X6967D01*
X7109D02*
X7094D01*
X7191D02*
X7155D01*
X7236D02*
X7211D01*
X7287D02*
X7257D01*
X7338D02*
X7308D01*
X7445D02*
X7394D01*
X7480D02*
X7460D01*
X7546D02*
X7516D01*
X7628D02*
X7592D01*
X7714D02*
X7678D01*
X7760D02*
X7734D01*
X7897D02*
X7821D01*
X7993D02*
X7958D01*
X8039D02*
X8014D01*
X8090D02*
X8059D01*
X8131D02*
X8110D01*
X8176D02*
X8156D01*
X8222D02*
X8197D01*
X8313D02*
X8283D01*
X8359D02*
X8334D01*
X8405D02*
X8385D01*
X8649D02*
X8425D01*
X6007Y-3099D02*
X5651D01*
X6058D02*
X6027D01*
X6144D02*
X6114D01*
X6190D02*
X6165D01*
X6261D02*
X6241D01*
X6353D02*
X6327D01*
X6490D02*
X6414D01*
X6535D02*
X6505D01*
X6581D02*
X6556D01*
X6678D02*
X6652D01*
X6723D02*
X6698D01*
X6800D02*
X6774D01*
X6896D02*
X6855D01*
X7043D02*
X6967D01*
X7109D02*
X7094D01*
X7191D02*
X7160D01*
X7236D02*
X7211D01*
X7287D02*
X7257D01*
X7338D02*
X7308D01*
X7445D02*
X7399D01*
X7480D02*
X7460D01*
X7546D02*
X7521D01*
X7628D02*
X7597D01*
X7714D02*
X7683D01*
X7760D02*
X7734D01*
X7897D02*
X7821D01*
X7993D02*
X7963D01*
X8039D02*
X8014D01*
X8090D02*
X8059D01*
X8136D02*
X8110D01*
X8176D02*
X8161D01*
X8222D02*
X8197D01*
X8313D02*
X8288D01*
X8354D02*
X8334D01*
X8405D02*
X8385D01*
X8649D02*
X8425D01*
X6007Y-3094D02*
X5651D01*
X6058D02*
X6027D01*
X6093D02*
X6063D01*
X6144D02*
X6119D01*
X6190D02*
X6165D01*
X6261D02*
X6210D01*
X6307D02*
X6287D01*
X6388D02*
X6327D01*
X6490D02*
X6414D01*
X6535D02*
X6505D01*
X6581D02*
X6556D01*
X6627D02*
X6612D01*
X6678D02*
X6652D01*
X6723D02*
X6698D01*
X6800D02*
X6744D01*
X6835D02*
X6805D01*
X6891D02*
X6861D01*
X6947D02*
X6932D01*
X7043D02*
X6967D01*
X7135D02*
X7064D01*
X7191D02*
X7165D01*
X7236D02*
X7211D01*
X7287D02*
X7257D01*
X7333D02*
X7308D01*
X7379D02*
X7358D01*
X7445D02*
X7404D01*
X7496D02*
X7460D01*
X7572D02*
X7521D01*
X7628D02*
X7597D01*
X7663D02*
X7633D01*
X7714D02*
X7689D01*
X7800D02*
X7734D01*
X7897D02*
X7821D01*
X7938D02*
X7927D01*
X7993D02*
X7968D01*
X8039D02*
X8014D01*
X8090D02*
X8059D01*
X8141D02*
X8110D01*
X8176D02*
X8161D01*
X8222D02*
X8197D01*
X8268D02*
X8247D01*
X8313D02*
X8288D01*
X8354D02*
X8334D01*
X8405D02*
X8385D01*
X8649D02*
X8425D01*
X6007Y-3089D02*
X5651D01*
X6099D02*
X6027D01*
X6144D02*
X6119D01*
X6185D02*
X6165D01*
X6261D02*
X6210D01*
X6312D02*
X6281D01*
X6388D02*
X6327D01*
X6490D02*
X6414D01*
X6535D02*
X6505D01*
X6581D02*
X6556D01*
X6632D02*
X6607D01*
X6678D02*
X6657D01*
X6723D02*
X6698D01*
X6840D02*
X6744D01*
X6891D02*
X6861D01*
X6947D02*
X6921D01*
X7043D02*
X6967D01*
X7140D02*
X7064D01*
X7191D02*
X7165D01*
X7236D02*
X7211D01*
X7287D02*
X7257D01*
X7328D02*
X7308D01*
X7384D02*
X7353D01*
X7445D02*
X7404D01*
X7501D02*
X7460D01*
X7577D02*
X7521D01*
X7668D02*
X7602D01*
X7714D02*
X7689D01*
X7800D02*
X7734D01*
X7897D02*
X7821D01*
X7943D02*
X7922D01*
X7993D02*
X7968D01*
X8039D02*
X8014D01*
X8090D02*
X8059D01*
X8141D02*
X8110D01*
X8176D02*
X8166D01*
X8222D02*
X8197D01*
X8268D02*
X8242D01*
X8313D02*
X8288D01*
X8354D02*
X8334D01*
X8405D02*
X8390D01*
X8649D02*
X8425D01*
X6007Y-3084D02*
X5651D01*
X6104D02*
X6027D01*
X6144D02*
X6124D01*
X6190D02*
X6165D01*
X6261D02*
X6210D01*
X6307D02*
X6281D01*
X6388D02*
X6327D01*
X6490D02*
X6414D01*
X6535D02*
X6505D01*
X6581D02*
X6556D01*
X6632D02*
X6607D01*
X6678D02*
X6657D01*
X6723D02*
X6698D01*
X6845D02*
X6744D01*
X6886D02*
X6866D01*
X6947D02*
X6911D01*
X7043D02*
X6967D01*
X7145D02*
X7064D01*
X7191D02*
X7165D01*
X7236D02*
X7211D01*
X7287D02*
X7257D01*
X7328D02*
X7308D01*
X7384D02*
X7348D01*
X7445D02*
X7404D01*
X7501D02*
X7460D01*
X7582D02*
X7521D01*
X7673D02*
X7602D01*
X7714D02*
X7689D01*
X7800D02*
X7734D01*
X7897D02*
X7821D01*
X7948D02*
X7917D01*
X7993D02*
X7968D01*
X8039D02*
X8014D01*
X8090D02*
X8059D01*
X8146D02*
X8110D01*
X8176D02*
X8171D01*
X8222D02*
X8197D01*
X8268D02*
X8242D01*
X8313D02*
X8288D01*
X8349D02*
X8334D01*
X8405D02*
X8390D01*
X8649D02*
X8425D01*
X6007Y-3078D02*
X5651D01*
X6053D02*
X6027D01*
X6144D02*
X6124D01*
X6190D02*
X6165D01*
X6261D02*
X6220D01*
X6302D02*
X6281D01*
X6388D02*
X6327D01*
X6490D02*
X6414D01*
X6535D02*
X6505D01*
X6581D02*
X6556D01*
X6637D02*
X6601D01*
X6678D02*
X6657D01*
X6723D02*
X6698D01*
X6794D02*
X6759D01*
X6886D02*
X6866D01*
X6947D02*
X6911D01*
X7043D02*
X6967D01*
X7145D02*
X7079D01*
X7191D02*
X7165D01*
X7236D02*
X7211D01*
X7287D02*
X7257D01*
X7328D02*
X7308D01*
X7384D02*
X7348D01*
X7445D02*
X7404D01*
X7501D02*
X7460D01*
X7582D02*
X7521D01*
X7623D02*
X7602D01*
X7714D02*
X7689D01*
X7800D02*
X7734D01*
X7897D02*
X7821D01*
X7948D02*
X7917D01*
X7993D02*
X7968D01*
X8039D02*
X8014D01*
X8090D02*
X8059D01*
X8151D02*
X8110D01*
X8222D02*
X8197D01*
X8263D02*
X8242D01*
X8313D02*
X8288D01*
X8349D02*
X8334D01*
X8374D02*
X8369D01*
X8405D02*
X8390D01*
X8649D02*
X8425D01*
X6007Y-3073D02*
X5651D01*
X6053D02*
X6027D01*
X6144D02*
X6124D01*
X6190D02*
X6165D01*
X6261D02*
X6236D01*
X6388D02*
X6322D01*
X6490D02*
X6414D01*
X6535D02*
X6505D01*
X6581D02*
X6556D01*
X6637D02*
X6601D01*
X6678D02*
X6657D01*
X6728D02*
X6698D01*
X6794D02*
X6769D01*
X6886D02*
X6866D01*
X6947D02*
X6906D01*
X7043D02*
X6967D01*
X7145D02*
X7089D01*
X7191D02*
X7165D01*
X7236D02*
X7211D01*
X7287D02*
X7257D01*
X7328D02*
X7308D01*
X7384D02*
X7348D01*
X7440D02*
X7404D01*
X7501D02*
X7460D01*
X7582D02*
X7521D01*
X7623D02*
X7602D01*
X7714D02*
X7689D01*
X7800D02*
X7734D01*
X7897D02*
X7821D01*
X7948D02*
X7917D01*
X7993D02*
X7968D01*
X8039D02*
X8014D01*
X8090D02*
X8059D01*
X8156D02*
X8110D01*
X8222D02*
X8197D01*
X8313D02*
X8283D01*
X8349D02*
X8334D01*
X8374D02*
X8364D01*
X8405D02*
X8395D01*
X8649D02*
X8425D01*
X6007Y-3068D02*
X5651D01*
X6053D02*
X6027D01*
X6144D02*
X6124D01*
X6200D02*
X6165D01*
X6261D02*
X6241D01*
X6388D02*
X6317D01*
X6490D02*
X6414D01*
X6535D02*
X6505D01*
X6581D02*
X6556D01*
X6637D02*
X6601D01*
X6678D02*
X6657D01*
X6734D02*
X6698D01*
X6794D02*
X6774D01*
X6881D02*
X6866D01*
X6947D02*
X6906D01*
X7054D02*
X6967D01*
X7145D02*
X7094D01*
X7191D02*
X7165D01*
X7236D02*
X7211D01*
X7287D02*
X7257D01*
X7328D02*
X7308D01*
X7384D02*
X7348D01*
X7440D02*
X7404D01*
X7501D02*
X7460D01*
X7582D02*
X7521D01*
X7623D02*
X7602D01*
X7714D02*
X7689D01*
X7800D02*
X7734D01*
X7897D02*
X7821D01*
X7948D02*
X7917D01*
X7993D02*
X7968D01*
X8039D02*
X8014D01*
X8090D02*
X8059D01*
X8156D02*
X8110D01*
X8222D02*
X8197D01*
X8313D02*
X8278D01*
X8344D02*
X8334D01*
X8374D02*
X8364D01*
X8405D02*
X8395D01*
X8649D02*
X8425D01*
X6007Y-3063D02*
X5651D01*
X6053D02*
X6027D01*
X6104D02*
X6073D01*
X6144D02*
X6124D01*
X6215D02*
X6165D01*
X6261D02*
X6241D01*
X6353D02*
X6281D01*
X6490D02*
X6414D01*
X6535D02*
X6510D01*
X6581D02*
X6556D01*
X6637D02*
X6607D01*
X6678D02*
X6657D01*
X6749D02*
X6698D01*
X6794D02*
X6774D01*
X6845D02*
X6815D01*
X6881D02*
X6866D01*
X6947D02*
X6906D01*
X7069D02*
X6967D01*
X7145D02*
X7094D01*
X7191D02*
X7165D01*
X7236D02*
X7211D01*
X7282D02*
X7257D01*
X7328D02*
X7308D01*
X7384D02*
X7348D01*
X7440D02*
X7404D01*
X7501D02*
X7460D01*
X7582D02*
X7521D01*
X7623D02*
X7602D01*
X7673D02*
X7638D01*
X7714D02*
X7689D01*
X7765D02*
X7734D01*
X7897D02*
X7821D01*
X7948D02*
X7917D01*
X7993D02*
X7968D01*
X8039D02*
X8014D01*
X8090D02*
X8059D01*
X8151D02*
X8110D01*
X8222D02*
X8197D01*
X8313D02*
X8242D01*
X8344D02*
X8334D01*
X8374D02*
X8364D01*
X8405D02*
X8395D01*
X8649D02*
X8425D01*
X6002Y-3058D02*
X5651D01*
X6053D02*
X6027D01*
X6104D02*
X6073D01*
X6144D02*
X6119D01*
X6220D02*
X6165D01*
X6261D02*
X6241D01*
X6353D02*
X6281D01*
X6490D02*
X6414D01*
X6530D02*
X6510D01*
X6581D02*
X6556D01*
X6632D02*
X6607D01*
X6678D02*
X6657D01*
X6754D02*
X6698D01*
X6794D02*
X6774D01*
X6845D02*
X6815D01*
X6881D02*
X6861D01*
X6947D02*
X6906D01*
X7074D02*
X6967D01*
X7140D02*
X7094D01*
X7191D02*
X7165D01*
X7236D02*
X7211D01*
X7282D02*
X7257D01*
X7328D02*
X7308D01*
X7384D02*
X7353D01*
X7440D02*
X7404D01*
X7501D02*
X7460D01*
X7577D02*
X7521D01*
X7623D02*
X7602D01*
X7668D02*
X7643D01*
X7714D02*
X7689D01*
X7765D02*
X7734D01*
X7897D02*
X7821D01*
X7948D02*
X7917D01*
X7993D02*
X7968D01*
X8039D02*
X8014D01*
X8090D02*
X8059D01*
X8146D02*
X8110D01*
X8176D02*
X8171D01*
X8222D02*
X8197D01*
X8313D02*
X8242D01*
X8344D02*
X8334D01*
X8379D02*
X8359D01*
X8405D02*
X8395D01*
X8649D02*
X8425D01*
X5987Y-3053D02*
X5651D01*
X6058D02*
X6027D01*
X6099D02*
X6073D01*
X6144D02*
X6119D01*
X6220D02*
X6165D01*
X6266D02*
X6241D01*
X6312D02*
X6287D01*
X6353D02*
X6322D01*
X6490D02*
X6414D01*
X6530D02*
X6510D01*
X6581D02*
X6556D01*
X6627D02*
X6612D01*
X6678D02*
X6652D01*
X6754D02*
X6698D01*
X6800D02*
X6774D01*
X6840D02*
X6815D01*
X6881D02*
X6861D01*
X6947D02*
X6906D01*
X7074D02*
X6967D01*
X7140D02*
X7094D01*
X7191D02*
X7165D01*
X7236D02*
X7211D01*
X7277D02*
X7262D01*
X7333D02*
X7308D01*
X7379D02*
X7358D01*
X7419D02*
X7404D01*
X7501D02*
X7460D01*
X7572D02*
X7521D01*
X7623D02*
X7597D01*
X7668D02*
X7643D01*
X7714D02*
X7689D01*
X7765D02*
X7734D01*
X7897D02*
X7821D01*
X7943D02*
X7922D01*
X7993D02*
X7968D01*
X8034D02*
X8014D01*
X8090D02*
X8059D01*
X8146D02*
X8110D01*
X8176D02*
X8166D01*
X8222D02*
X8197D01*
X8273D02*
X8242D01*
X8313D02*
X8283D01*
X8339D02*
X8334D01*
X8379D02*
X8359D01*
X8405D02*
X8400D01*
X8649D02*
X8425D01*
X5987Y-3048D02*
X5651D01*
X6058D02*
X6027D01*
X6144D02*
X6114D01*
X6190D02*
X6165D01*
X6266D02*
X6241D01*
X6388D02*
X6322D01*
X6490D02*
X6414D01*
X6581D02*
X6556D01*
X6678D02*
X6652D01*
X6728D02*
X6698D01*
X6800D02*
X6774D01*
X6886D02*
X6855D01*
X6947D02*
X6906D01*
X7043D02*
X6967D01*
X7115D02*
X7094D01*
X7191D02*
X7160D01*
X7242D02*
X7211D01*
X7338D02*
X7308D01*
X7419D02*
X7399D01*
X7485D02*
X7460D01*
X7546D02*
X7536D01*
X7628D02*
X7597D01*
X7714D02*
X7683D01*
X7800D02*
X7734D01*
X7897D02*
X7821D01*
X7993D02*
X7963D01*
X8090D02*
X8059D01*
X8141D02*
X8110D01*
X8176D02*
X8161D01*
X8227D02*
X8197D01*
X8313D02*
X8283D01*
X8339D02*
X8334D01*
X8379D02*
X8359D01*
X8405D02*
X8400D01*
X8649D02*
X8425D01*
X5987Y-3043D02*
X5651D01*
X6012D02*
X6007D01*
X6063D02*
X6027D01*
X6144D02*
X6109D01*
X6190D02*
X6165D01*
X6271D02*
X6236D01*
X6388D02*
X6322D01*
X6495D02*
X6414D01*
X6581D02*
X6556D01*
X6678D02*
X6647D01*
X6723D02*
X6698D01*
X6805D02*
X6769D01*
X6886D02*
X6855D01*
X6947D02*
X6911D01*
X7043D02*
X6967D01*
X7115D02*
X7089D01*
X7191D02*
X7155D01*
X7242D02*
X7211D01*
X7338D02*
X7308D01*
X7419D02*
X7394D01*
X7445D02*
X7440D01*
X7485D02*
X7460D01*
X7546D02*
X7536D01*
X7633D02*
X7592D01*
X7714D02*
X7678D01*
X7800D02*
X7734D01*
X7897D02*
X7821D01*
X7998D02*
X7958D01*
X8090D02*
X8059D01*
X8136D02*
X8110D01*
X8176D02*
X8161D01*
X8227D02*
X8197D01*
X8313D02*
X8283D01*
X8339D02*
X8334D01*
X8385D02*
X8359D01*
X8649D02*
X8425D01*
X5860Y-3038D02*
X5651D01*
X5880D02*
X5865D01*
X5900D02*
X5890D01*
X5931D02*
X5911D01*
X5987D02*
X5936D01*
X6012D02*
X6002D01*
X6068D02*
X6027D01*
X6144D02*
X6104D01*
X6190D02*
X6165D01*
X6276D02*
X6231D01*
X6388D02*
X6317D01*
X6500D02*
X6414D01*
X6535D02*
X6530D01*
X6581D02*
X6556D01*
X6612D02*
X6601D01*
X6678D02*
X6642D01*
X6723D02*
X6698D01*
X6810D02*
X6764D01*
X6886D02*
X6845D01*
X6947D02*
X6911D01*
X7043D02*
X6967D01*
X7109D02*
X7084D01*
X7191D02*
X7150D01*
X7247D02*
X7211D01*
X7287D02*
X7277D01*
X7348D02*
X7308D01*
X7419D02*
X7384D01*
X7445D02*
X7435D01*
X7485D02*
X7460D01*
X7546D02*
X7536D01*
X7638D02*
X7582D01*
X7714D02*
X7673D01*
X7800D02*
X7734D01*
X7897D02*
X7821D01*
X7922D02*
X7917D01*
X8004D02*
X7953D01*
X8044D02*
X8034D01*
X8090D02*
X8059D01*
X8131D02*
X8110D01*
X8176D02*
X8156D01*
X8232D02*
X8197D01*
X8313D02*
X8278D01*
X8385D02*
X8354D01*
X8649D02*
X8425D01*
X5860Y-3033D02*
X5651D01*
X5875D02*
X5865D01*
X5900D02*
X5890D01*
X5931D02*
X5911D01*
X6388D02*
X5936D01*
X6891D02*
X6414D01*
X6947D02*
X6916D01*
X7501D02*
X6967D01*
X7714D02*
X7521D01*
X7800D02*
X7734D01*
X8176D02*
X7821D01*
X8313D02*
X8197D01*
X8385D02*
X8354D01*
X8649D02*
X8425D01*
X5860Y-3028D02*
X5651D01*
X5875D02*
X5865D01*
X5900D02*
X5895D01*
X5931D02*
X5911D01*
X6388D02*
X5936D01*
X6891D02*
X6414D01*
X6947D02*
X6927D01*
X7501D02*
X6967D01*
X7714D02*
X7521D01*
X7800D02*
X7734D01*
X8176D02*
X7821D01*
X8313D02*
X8197D01*
X8390D02*
X8354D01*
X8649D02*
X8425D01*
X5860Y-3023D02*
X5651D01*
X5870D02*
X5865D01*
X5885D02*
X5880D01*
X5900D02*
X5895D01*
X5931D02*
X5911D01*
X6353D02*
X5936D01*
X6896D02*
X6414D01*
X7501D02*
X6967D01*
X7714D02*
X7521D01*
X7760D02*
X7734D01*
X8176D02*
X7821D01*
X8313D02*
X8197D01*
X8390D02*
X8349D01*
X8649D02*
X8425D01*
X5860Y-3018D02*
X5651D01*
X5870D02*
X5865D01*
X5890D02*
X5880D01*
X5931D02*
X5911D01*
X6144D02*
X5936D01*
X6353D02*
X6165D01*
X6678D02*
X6414D01*
X6901D02*
X6698D01*
X7191D02*
X6967D01*
X7501D02*
X7211D01*
X7714D02*
X7511D01*
X7760D02*
X7734D01*
X8090D02*
X7821D01*
X8176D02*
X8110D01*
X8313D02*
X8197D01*
X8390D02*
X8349D01*
X8649D02*
X8425D01*
X5860Y-3012D02*
X5651D01*
X5890D02*
X5875D01*
X5931D02*
X5911D01*
X6144D02*
X5936D01*
X6353D02*
X6165D01*
X6678D02*
X6414D01*
X6916D02*
X6698D01*
X7191D02*
X6967D01*
X7714D02*
X7211D01*
X7760D02*
X7734D01*
X8090D02*
X7821D01*
X8176D02*
X8110D01*
X8313D02*
X8197D01*
X8395D02*
X8349D01*
X8649D02*
X8425D01*
X5860Y-3007D02*
X5651D01*
X5895D02*
X5875D01*
X5931D02*
X5911D01*
X6144D02*
X5936D01*
X6678D02*
X6165D01*
X7191D02*
X6698D01*
X7714D02*
X7211D01*
X8090D02*
X7734D01*
X8176D02*
X8110D01*
X8649D02*
X8197D01*
X5860Y-3002D02*
X5651D01*
X5895D02*
X5870D01*
X5916D02*
X5911D01*
X7714D02*
X5951D01*
X8176D02*
X7734D01*
X8649D02*
X8197D01*
X8649Y-2997D02*
X5651D01*
X8649Y-2992D02*
X5651D01*
X8649Y-2987D02*
X5651D01*
X8649Y-2982D02*
X5651D01*
X8649Y-2977D02*
X5651D01*
X8649Y-2972D02*
X5651D01*
X8649Y-2967D02*
X5651D01*
X8649Y-2962D02*
X5651D01*
X8649Y-2957D02*
X5651D01*
X8649Y-2951D02*
X5651D01*
X8649Y-2946D02*
X5651D01*
X8649Y-2941D02*
X5651D01*
X8649Y-2936D02*
X5651D01*
X8649Y-2931D02*
X5651D01*
X8649Y-2926D02*
X5651D01*
X8649Y-2921D02*
X5651D01*
X8649Y-2916D02*
X5651D01*
X8649Y-2911D02*
X5651D01*
X8649Y-2906D02*
X5651D01*
X8649Y-2901D02*
X5651D01*
X8649Y-2896D02*
X5651D01*
X6972Y-2891D02*
X5651D01*
X8649D02*
X7028D01*
X6947Y-2885D02*
X5651D01*
X7455D02*
X7054D01*
X8649D02*
X7516D01*
X5860Y-2880D02*
X5651D01*
X5880D02*
X5865D01*
X5900D02*
X5890D01*
X5931D02*
X5911D01*
X6068D02*
X5941D01*
X6246D02*
X6160D01*
X6490D02*
X6403D01*
X6723D02*
X6647D01*
X6932D02*
X6881D01*
X7196D02*
X7064D01*
X7409D02*
X7348D01*
X7704D02*
X7562D01*
X7892D02*
X7856D01*
X8237D02*
X8070D01*
X8649D02*
X8420D01*
X5860Y-2875D02*
X5651D01*
X5875D02*
X5865D01*
X5900D02*
X5890D01*
X5931D02*
X5911D01*
X6048D02*
X5941D01*
X6246D02*
X6154D01*
X6490D02*
X6403D01*
X6723D02*
X6647D01*
X6921D02*
X6876D01*
X7191D02*
X7074D01*
X7404D02*
X7348D01*
X7699D02*
X7577D01*
X7892D02*
X7856D01*
X8237D02*
X8070D01*
X8649D02*
X8415D01*
X5860Y-2870D02*
X5651D01*
X5875D02*
X5865D01*
X5900D02*
X5890D01*
X5931D02*
X5911D01*
X6038D02*
X5941D01*
X6246D02*
X6154D01*
X6490D02*
X6398D01*
X6723D02*
X6647D01*
X6911D02*
X6876D01*
X7191D02*
X7084D01*
X7404D02*
X7348D01*
X7699D02*
X7587D01*
X7892D02*
X7856D01*
X8232D02*
X8070D01*
X8649D02*
X8415D01*
X5860Y-2865D02*
X5651D01*
X5875D02*
X5865D01*
X5885D02*
X5880D01*
X5900D02*
X5895D01*
X5931D02*
X5911D01*
X6027D02*
X5941D01*
X6246D02*
X6154D01*
X6490D02*
X6398D01*
X6718D02*
X6642D01*
X6906D02*
X6876D01*
X7191D02*
X7089D01*
X7404D02*
X7348D01*
X7699D02*
X7597D01*
X7892D02*
X7851D01*
X8232D02*
X8070D01*
X8649D02*
X8410D01*
X5860Y-2860D02*
X5651D01*
X5870D02*
X5865D01*
X5890D02*
X5880D01*
X5900D02*
X5895D01*
X5931D02*
X5911D01*
X6022D02*
X5941D01*
X6241D02*
X6154D01*
X6485D02*
X6398D01*
X6718D02*
X6642D01*
X6896D02*
X6876D01*
X7191D02*
X7094D01*
X7404D02*
X7343D01*
X7699D02*
X7602D01*
X7892D02*
X7851D01*
X8232D02*
X8070D01*
X8649D02*
X8410D01*
X5860Y-2855D02*
X5651D01*
X5870D02*
X5865D01*
X5890D02*
X5875D01*
X5931D02*
X5911D01*
X6012D02*
X5941D01*
X6241D02*
X6149D01*
X6485D02*
X6398D01*
X6718D02*
X6642D01*
X6891D02*
X6871D01*
X7186D02*
X7094D01*
X7399D02*
X7343D01*
X7694D02*
X7602D01*
X7892D02*
X7851D01*
X8227D02*
X8070D01*
X8649D02*
X8405D01*
X5860Y-2850D02*
X5651D01*
X5890D02*
X5875D01*
X5931D02*
X5911D01*
X6007D02*
X5941D01*
X6241D02*
X6149D01*
X6485D02*
X6393D01*
X6718D02*
X6642D01*
X6886D02*
X6871D01*
X7186D02*
X7099D01*
X7399D02*
X7343D01*
X7694D02*
X7607D01*
X7892D02*
X7851D01*
X8227D02*
X8070D01*
X8649D02*
X8405D01*
X5860Y-2845D02*
X5651D01*
X5895D02*
X5875D01*
X5931D02*
X5911D01*
X6002D02*
X5941D01*
X6241D02*
X6149D01*
X6485D02*
X6393D01*
X6713D02*
X6637D01*
X6881D02*
X6871D01*
X7186D02*
X7099D01*
X7399D02*
X7343D01*
X7694D02*
X7607D01*
X7892D02*
X7846D01*
X8222D02*
X8070D01*
X8649D02*
X8400D01*
X5860Y-2840D02*
X5651D01*
X5895D02*
X5870D01*
X5916D02*
X5911D01*
X6002D02*
X5951D01*
X6236D02*
X6149D01*
X6480D02*
X6393D01*
X6713D02*
X6637D01*
X6876D02*
X6871D01*
X7186D02*
X7099D01*
X7399D02*
X7338D01*
X7694D02*
X7607D01*
X7892D02*
X7846D01*
X8222D02*
X8070D01*
X8649D02*
X8395D01*
X5997Y-2835D02*
X5651D01*
X6236D02*
X6144D01*
X6480D02*
X6393D01*
X6713D02*
X6637D01*
X7181D02*
X7104D01*
X7394D02*
X7338D01*
X7689D02*
X7607D01*
X7892D02*
X7846D01*
X8217D02*
X8070D01*
X8649D02*
X8395D01*
X5992Y-2830D02*
X5651D01*
X6236D02*
X6144D01*
X6480D02*
X6388D01*
X6713D02*
X6637D01*
X7181D02*
X7104D01*
X7394D02*
X7338D01*
X7689D02*
X7607D01*
X7892D02*
X7846D01*
X8217D02*
X8064D01*
X8649D02*
X8390D01*
X5992Y-2824D02*
X5651D01*
X6236D02*
X6144D01*
X6480D02*
X6388D01*
X6708D02*
X6632D01*
X7181D02*
X7104D01*
X7394D02*
X7338D01*
X7689D02*
X7607D01*
X7892D02*
X7841D01*
X8217D02*
X8064D01*
X8649D02*
X8390D01*
X5987Y-2819D02*
X5651D01*
X6231D02*
X6144D01*
X6474D02*
X6388D01*
X6708D02*
X6632D01*
X7181D02*
X7104D01*
X7394D02*
X7333D01*
X7689D02*
X7607D01*
X7892D02*
X7841D01*
X8212D02*
X8064D01*
X8649D02*
X8385D01*
X5987Y-2814D02*
X5651D01*
X6231D02*
X6139D01*
X6474D02*
X6388D01*
X6708D02*
X6632D01*
X7175D02*
X7104D01*
X7389D02*
X7333D01*
X7683D02*
X7607D01*
X7892D02*
X7841D01*
X8212D02*
X8064D01*
X8649D02*
X8385D01*
X5982Y-2809D02*
X5651D01*
X6231D02*
X6139D01*
X6474D02*
X6383D01*
X6708D02*
X6632D01*
X7175D02*
X7104D01*
X7389D02*
X7333D01*
X7683D02*
X7607D01*
X7892D02*
X7841D01*
X8207D02*
X8064D01*
X8649D02*
X8379D01*
X5982Y-2804D02*
X5651D01*
X6231D02*
X6139D01*
X6474D02*
X6383D01*
X6703D02*
X6627D01*
X7175D02*
X7104D01*
X7389D02*
X7333D01*
X7683D02*
X7607D01*
X7892D02*
X7836D01*
X8207D02*
X8064D01*
X8649D02*
X8379D01*
X5982Y-2799D02*
X5651D01*
X6226D02*
X6139D01*
X6469D02*
X6383D01*
X6703D02*
X6627D01*
X7175D02*
X7104D01*
X7389D02*
X7328D01*
X7683D02*
X7607D01*
X7892D02*
X7836D01*
X8202D02*
X8064D01*
X8649D02*
X8374D01*
X5982Y-2794D02*
X5651D01*
X6226D02*
X6134D01*
X6469D02*
X6383D01*
X6703D02*
X6627D01*
X7170D02*
X7104D01*
X7384D02*
X7328D01*
X7678D02*
X7607D01*
X7892D02*
X7836D01*
X8202D02*
X8064D01*
X8649D02*
X8374D01*
X5977Y-2789D02*
X5651D01*
X6226D02*
X6134D01*
X6469D02*
X6378D01*
X6703D02*
X6627D01*
X7170D02*
X7099D01*
X7384D02*
X7328D01*
X7678D02*
X7607D01*
X7892D02*
X7836D01*
X8197D02*
X8064D01*
X8649D02*
X8369D01*
X5977Y-2784D02*
X5651D01*
X6226D02*
X6134D01*
X6469D02*
X6378D01*
X6698D02*
X6622D01*
X6927D02*
X6876D01*
X7170D02*
X7099D01*
X7435D02*
X7328D01*
X7678D02*
X7602D01*
X7892D02*
X7831D01*
X8649D02*
X8369D01*
X5977Y-2779D02*
X5651D01*
X6220D02*
X6134D01*
X6464D02*
X6378D01*
X6698D02*
X6622D01*
X6932D02*
X6866D01*
X7170D02*
X7099D01*
X7440D02*
X7323D01*
X7678D02*
X7602D01*
X7892D02*
X7831D01*
X8649D02*
X8364D01*
X5977Y-2774D02*
X5651D01*
X6220D02*
X6129D01*
X6464D02*
X6378D01*
X6698D02*
X6622D01*
X6932D02*
X6861D01*
X7165D02*
X7099D01*
X7440D02*
X7323D01*
X7673D02*
X7602D01*
X7892D02*
X7831D01*
X8649D02*
X8359D01*
X5972Y-2769D02*
X5651D01*
X6220D02*
X6129D01*
X6464D02*
X6373D01*
X6698D02*
X6622D01*
X6937D02*
X6855D01*
X7165D02*
X7094D01*
X7445D02*
X7323D01*
X7673D02*
X7602D01*
X7892D02*
X7831D01*
X8649D02*
X8359D01*
X5972Y-2764D02*
X5651D01*
X6220D02*
X6129D01*
X6464D02*
X6373D01*
X6693D02*
X6617D01*
X6937D02*
X6855D01*
X7165D02*
X7094D01*
X7440D02*
X7323D01*
X7673D02*
X7597D01*
X7897D02*
X7826D01*
X8649D02*
X8354D01*
X5972Y-2758D02*
X5651D01*
X6215D02*
X6129D01*
X6459D02*
X6373D01*
X6693D02*
X6617D01*
X6937D02*
X6850D01*
X7165D02*
X7094D01*
X7440D02*
X7318D01*
X7673D02*
X7597D01*
X7897D02*
X7826D01*
X8649D02*
X8354D01*
X5972Y-2753D02*
X5651D01*
X6215D02*
X6124D01*
X6459D02*
X6373D01*
X6693D02*
X6617D01*
X6937D02*
X6850D01*
X7160D02*
X7094D01*
X7440D02*
X7318D01*
X7668D02*
X7597D01*
X7897D02*
X7826D01*
X8649D02*
X8349D01*
X5966Y-2748D02*
X5651D01*
X6215D02*
X6124D01*
X6459D02*
X6368D01*
X6693D02*
X6617D01*
X6937D02*
X6845D01*
X7160D02*
X7089D01*
X7440D02*
X7318D01*
X7668D02*
X7597D01*
X7897D02*
X7826D01*
X8649D02*
X8349D01*
X5966Y-2743D02*
X5651D01*
X6215D02*
X6124D01*
X6459D02*
X6368D01*
X6688D02*
X6612D01*
X6932D02*
X6845D01*
X7160D02*
X7089D01*
X7440D02*
X7318D01*
X7668D02*
X7592D01*
X7897D02*
X7821D01*
X8649D02*
X8344D01*
X5966Y-2738D02*
X5651D01*
X6210D02*
X6124D01*
X6454D02*
X6368D01*
X6688D02*
X6612D01*
X6932D02*
X6845D01*
X7160D02*
X7089D01*
X7435D02*
X7313D01*
X7668D02*
X7592D01*
X7897D02*
X7821D01*
X8649D02*
X8344D01*
X5966Y-2733D02*
X5651D01*
X6210D02*
X6119D01*
X6454D02*
X6368D01*
X6688D02*
X6612D01*
X6932D02*
X6845D01*
X7155D02*
X7089D01*
X7435D02*
X7313D01*
X7663D02*
X7592D01*
X7897D02*
X7821D01*
X8649D02*
X8339D01*
X5961Y-2728D02*
X5651D01*
X6210D02*
X6119D01*
X6454D02*
X6363D01*
X6688D02*
X6612D01*
X6932D02*
X6840D01*
X7155D02*
X7084D01*
X7435D02*
X7313D01*
X7663D02*
X7592D01*
X7897D02*
X7821D01*
X8649D02*
X8339D01*
X5961Y-2723D02*
X5651D01*
X6210D02*
X6119D01*
X6454D02*
X6363D01*
X6683D02*
X6607D01*
X6927D02*
X6840D01*
X7155D02*
X7084D01*
X7435D02*
X7313D01*
X7663D02*
X7587D01*
X7897D02*
X7816D01*
X8649D02*
X8334D01*
X5961Y-2718D02*
X5651D01*
X6205D02*
X6119D01*
X6449D02*
X6363D01*
X6683D02*
X6607D01*
X6927D02*
X6840D01*
X7155D02*
X7084D01*
X7429D02*
X7308D01*
X7663D02*
X7587D01*
X7897D02*
X7816D01*
X8649D02*
X8334D01*
X5961Y-2713D02*
X5651D01*
X6205D02*
X6114D01*
X6449D02*
X6363D01*
X6683D02*
X6607D01*
X6927D02*
X6840D01*
X7150D02*
X7084D01*
X7429D02*
X7308D01*
X7658D02*
X7587D01*
X7897D02*
X7816D01*
X8649D02*
X8329D01*
X5956Y-2708D02*
X5651D01*
X6205D02*
X6114D01*
X6449D02*
X6358D01*
X6683D02*
X6607D01*
X6927D02*
X6835D01*
X7150D02*
X7079D01*
X7429D02*
X7308D01*
X7658D02*
X7587D01*
X7897D02*
X7816D01*
X8649D02*
X8329D01*
X5956Y-2703D02*
X5651D01*
X6205D02*
X6114D01*
X6449D02*
X6358D01*
X6678D02*
X6601D01*
X6921D02*
X6835D01*
X7150D02*
X7079D01*
X7429D02*
X7308D01*
X7658D02*
X7582D01*
X7897D02*
X7811D01*
X8649D02*
X8324D01*
X5956Y-2697D02*
X5651D01*
X6200D02*
X6114D01*
X6444D02*
X6358D01*
X6678D02*
X6601D01*
X6921D02*
X6835D01*
X7150D02*
X7079D01*
X7424D02*
X7303D01*
X7658D02*
X7582D01*
X7897D02*
X7811D01*
X8649D02*
X8318D01*
X5956Y-2692D02*
X5651D01*
X6200D02*
X6109D01*
X6444D02*
X6358D01*
X6678D02*
X6601D01*
X6921D02*
X6835D01*
X7145D02*
X7079D01*
X7424D02*
X7303D01*
X7653D02*
X7582D01*
X7897D02*
X7811D01*
X8649D02*
X8318D01*
X5951Y-2687D02*
X5651D01*
X6200D02*
X6109D01*
X6444D02*
X6353D01*
X6678D02*
X6601D01*
X6921D02*
X6830D01*
X7145D02*
X7074D01*
X7424D02*
X7303D01*
X7653D02*
X7582D01*
X7897D02*
X7811D01*
X8649D02*
X8313D01*
X5951Y-2682D02*
X5651D01*
X6200D02*
X6109D01*
X6444D02*
X6353D01*
X6673D02*
X6596D01*
X6916D02*
X6830D01*
X7145D02*
X7074D01*
X7424D02*
X7303D01*
X7653D02*
X7577D01*
X7897D02*
X7805D01*
X8649D02*
X8313D01*
X5951Y-2677D02*
X5651D01*
X6195D02*
X6109D01*
X6439D02*
X6353D01*
X6673D02*
X6596D01*
X6916D02*
X6830D01*
X7145D02*
X7074D01*
X7419D02*
X7297D01*
X7653D02*
X7577D01*
X7897D02*
X7805D01*
X8151D02*
X8059D01*
X8649D02*
X8308D01*
X5951Y-2672D02*
X5651D01*
X6195D02*
X6104D01*
X6439D02*
X6353D01*
X6673D02*
X6596D01*
X6916D02*
X6830D01*
X7140D02*
X7074D01*
X7419D02*
X7297D01*
X7648D02*
X7577D01*
X7897D02*
X7805D01*
X8146D02*
X8059D01*
X8649D02*
X8308D01*
X5946Y-2667D02*
X5651D01*
X6195D02*
X6104D01*
X6439D02*
X6347D01*
X6673D02*
X6596D01*
X6916D02*
X6825D01*
X7140D02*
X7069D01*
X7419D02*
X7297D01*
X7648D02*
X7577D01*
X7897D02*
X7805D01*
X8146D02*
X8059D01*
X8649D02*
X8303D01*
X5946Y-2662D02*
X5651D01*
X6195D02*
X6104D01*
X6439D02*
X6347D01*
X6668D02*
X6591D01*
X6911D02*
X6825D01*
X7140D02*
X7069D01*
X7419D02*
X7297D01*
X7648D02*
X7572D01*
X7897D02*
X7800D01*
X8141D02*
X8059D01*
X8649D02*
X8303D01*
X5946Y-2657D02*
X5651D01*
X6190D02*
X6104D01*
X6434D02*
X6347D01*
X6668D02*
X6591D01*
X6911D02*
X6825D01*
X7140D02*
X7069D01*
X7414D02*
X7292D01*
X7648D02*
X7572D01*
X7897D02*
X7800D01*
X8141D02*
X8059D01*
X8649D02*
X8298D01*
X5946Y-2652D02*
X5651D01*
X6190D02*
X6099D01*
X6434D02*
X6347D01*
X6668D02*
X6591D01*
X6911D02*
X6825D01*
X7135D02*
X7069D01*
X7414D02*
X7292D01*
X7643D02*
X7572D01*
X7897D02*
X7800D01*
X8136D02*
X8059D01*
X8649D02*
X8298D01*
X5941Y-2647D02*
X5651D01*
X6190D02*
X6099D01*
X6434D02*
X6342D01*
X6668D02*
X6591D01*
X6911D02*
X6820D01*
X7135D02*
X7064D01*
X7414D02*
X7292D01*
X7643D02*
X7572D01*
X7897D02*
X7800D01*
X8136D02*
X8059D01*
X8649D02*
X8293D01*
X5941Y-2642D02*
X5651D01*
X6190D02*
X6099D01*
X6434D02*
X6342D01*
X6662D02*
X6586D01*
X6906D02*
X6820D01*
X7135D02*
X7064D01*
X7414D02*
X7292D01*
X7643D02*
X7567D01*
X7897D02*
X7795D01*
X8136D02*
X8054D01*
X8649D02*
X8293D01*
X5941Y-2637D02*
X5651D01*
X6185D02*
X6099D01*
X6429D02*
X6342D01*
X6662D02*
X6586D01*
X6906D02*
X6820D01*
X7135D02*
X7064D01*
X7409D02*
X7287D01*
X7643D02*
X7567D01*
X7897D02*
X7795D01*
X8131D02*
X8054D01*
X8649D02*
X8288D01*
X5941Y-2631D02*
X5651D01*
X6185D02*
X6093D01*
X6429D02*
X6342D01*
X6662D02*
X6586D01*
X6906D02*
X6820D01*
X7130D02*
X7064D01*
X7409D02*
X7287D01*
X7638D02*
X7567D01*
X7902D02*
X7795D01*
X8131D02*
X8054D01*
X8649D02*
X8283D01*
X5936Y-2626D02*
X5651D01*
X6185D02*
X6093D01*
X6429D02*
X6337D01*
X6662D02*
X6586D01*
X6906D02*
X6815D01*
X7130D02*
X7059D01*
X7409D02*
X7287D01*
X7638D02*
X7567D01*
X7902D02*
X7795D01*
X8125D02*
X8054D01*
X8649D02*
X8283D01*
X5936Y-2621D02*
X5651D01*
X6185D02*
X6093D01*
X6429D02*
X6337D01*
X6657D02*
X6581D01*
X6901D02*
X6815D01*
X7130D02*
X7059D01*
X7409D02*
X7287D01*
X7638D02*
X7562D01*
X7902D02*
X7790D01*
X8125D02*
X8054D01*
X8649D02*
X8278D01*
X5936Y-2616D02*
X5651D01*
X6180D02*
X6093D01*
X6424D02*
X6337D01*
X6657D02*
X6581D01*
X6901D02*
X6815D01*
X7130D02*
X7059D01*
X7404D02*
X7282D01*
X7638D02*
X7562D01*
X7902D02*
X7790D01*
X8120D02*
X8054D01*
X8649D02*
X8278D01*
X5936Y-2611D02*
X5651D01*
X6180D02*
X6088D01*
X6424D02*
X6337D01*
X6657D02*
X6581D01*
X6901D02*
X6815D01*
X7125D02*
X7059D01*
X7404D02*
X7282D01*
X7633D02*
X7562D01*
X7902D02*
X7790D01*
X8120D02*
X8054D01*
X8649D02*
X8273D01*
X5931Y-2606D02*
X5651D01*
X6180D02*
X6088D01*
X6424D02*
X6332D01*
X6657D02*
X6581D01*
X6901D02*
X6810D01*
X7125D02*
X7054D01*
X7404D02*
X7282D01*
X7633D02*
X7557D01*
X7902D02*
X7790D01*
X8115D02*
X8054D01*
X8649D02*
X8273D01*
X5931Y-2601D02*
X5651D01*
X6175D02*
X6088D01*
X6424D02*
X6332D01*
X6652D02*
X6576D01*
X6896D02*
X6810D01*
X7125D02*
X7054D01*
X7404D02*
X7282D01*
X7633D02*
X7557D01*
X7902D02*
X7785D01*
X8115D02*
X8054D01*
X8649D02*
X8268D01*
X5931Y-2596D02*
X5651D01*
X6175D02*
X6088D01*
X6419D02*
X6332D01*
X6652D02*
X6576D01*
X6896D02*
X6810D01*
X7125D02*
X7054D01*
X7399D02*
X7277D01*
X7633D02*
X7557D01*
X7902D02*
X7785D01*
X8110D02*
X8054D01*
X8649D02*
X8268D01*
X5931Y-2591D02*
X5651D01*
X6175D02*
X6088D01*
X6419D02*
X6332D01*
X6652D02*
X6576D01*
X6896D02*
X6810D01*
X7120D02*
X7054D01*
X7399D02*
X7277D01*
X7628D02*
X7557D01*
X7902D02*
X7785D01*
X8110D02*
X8054D01*
X8649D02*
X8263D01*
X5926Y-2586D02*
X5651D01*
X6170D02*
X6083D01*
X6414D02*
X6332D01*
X6652D02*
X6576D01*
X6896D02*
X6805D01*
X7120D02*
X7049D01*
X7399D02*
X7277D01*
X7628D02*
X7551D01*
X7902D02*
X7785D01*
X8105D02*
X8054D01*
X8649D02*
X8263D01*
X5926Y-2581D02*
X5651D01*
X6170D02*
X6088D01*
X6414D02*
X6332D01*
X6647D02*
X6571D01*
X6891D02*
X6805D01*
X7120D02*
X7049D01*
X7399D02*
X7277D01*
X7628D02*
X7551D01*
X7902D02*
X7780D01*
X8105D02*
X8054D01*
X8649D02*
X8258D01*
X5926Y-2576D02*
X5651D01*
X6165D02*
X6088D01*
X6408D02*
X6332D01*
X6647D02*
X6571D01*
X6891D02*
X6805D01*
X7120D02*
X7049D01*
X7394D02*
X7272D01*
X7628D02*
X7551D01*
X7902D02*
X7780D01*
X8105D02*
X8054D01*
X8649D02*
X8258D01*
X5926Y-2570D02*
X5651D01*
X6160D02*
X6088D01*
X6403D02*
X6332D01*
X6647D02*
X6571D01*
X6891D02*
X6805D01*
X7115D02*
X7049D01*
X7394D02*
X7272D01*
X7623D02*
X7551D01*
X7902D02*
X7780D01*
X8100D02*
X8054D01*
X8649D02*
X8252D01*
X5921Y-2565D02*
X5651D01*
X6154D02*
X6093D01*
X6398D02*
X6337D01*
X6647D02*
X6571D01*
X6891D02*
X6800D01*
X7115D02*
X7043D01*
X7394D02*
X7272D01*
X7623D02*
X7546D01*
X7902D02*
X7780D01*
X8100D02*
X8054D01*
X8649D02*
X8252D01*
X5921Y-2560D02*
X5651D01*
X6144D02*
X6099D01*
X6388D02*
X6342D01*
X6642D02*
X6566D01*
X6886D02*
X6800D01*
X7115D02*
X7043D01*
X7394D02*
X7272D01*
X7623D02*
X7546D01*
X7902D02*
X7775D01*
X8095D02*
X8054D01*
X8649D02*
X8247D01*
X5921Y-2555D02*
X5651D01*
X6642D02*
X6566D01*
X6886D02*
X6800D01*
X7115D02*
X7043D01*
X7328D02*
X7267D01*
X7623D02*
X7546D01*
X7902D02*
X7775D01*
X8095D02*
X8054D01*
X8649D02*
X8242D01*
X5921Y-2550D02*
X5651D01*
X6642D02*
X6566D01*
X6886D02*
X6800D01*
X7109D02*
X7043D01*
X7323D02*
X7267D01*
X7617D02*
X7546D01*
X7902D02*
X7775D01*
X8090D02*
X8049D01*
X8649D02*
X8242D01*
X5921Y-2545D02*
X5651D01*
X6642D02*
X6566D01*
X6886D02*
X6794D01*
X7109D02*
X7038D01*
X7323D02*
X7267D01*
X7617D02*
X7541D01*
X7902D02*
X7775D01*
X8090D02*
X8049D01*
X8649D02*
X8237D01*
X5916Y-2540D02*
X5651D01*
X6637D02*
X6561D01*
X6881D02*
X6794D01*
X7109D02*
X7038D01*
X7323D02*
X7267D01*
X7617D02*
X7541D01*
X7902D02*
X7770D01*
X8085D02*
X8049D01*
X8649D02*
X8237D01*
X5916Y-2535D02*
X5651D01*
X6637D02*
X6561D01*
X6881D02*
X6794D01*
X7109D02*
X7038D01*
X7323D02*
X7262D01*
X7617D02*
X7541D01*
X7902D02*
X7770D01*
X8085D02*
X8049D01*
X8649D02*
X8232D01*
X5916Y-2530D02*
X5651D01*
X6637D02*
X6561D01*
X6881D02*
X6794D01*
X7104D02*
X7038D01*
X7318D02*
X7262D01*
X7612D02*
X7541D01*
X7902D02*
X7770D01*
X8080D02*
X8049D01*
X8649D02*
X8232D01*
X5916Y-2525D02*
X5651D01*
X6637D02*
X6561D01*
X6881D02*
X6789D01*
X7104D02*
X7033D01*
X7318D02*
X7262D01*
X7612D02*
X7536D01*
X7902D02*
X7770D01*
X8080D02*
X8049D01*
X8649D02*
X8227D01*
X5916Y-2520D02*
X5651D01*
X6632D02*
X6556D01*
X6876D02*
X6789D01*
X7104D02*
X7033D01*
X7318D02*
X7262D01*
X7612D02*
X7536D01*
X7902D02*
X7765D01*
X8080D02*
X8049D01*
X8649D02*
X8227D01*
X5916Y-2515D02*
X5651D01*
X6632D02*
X6556D01*
X6876D02*
X6789D01*
X7104D02*
X7033D01*
X7318D02*
X7257D01*
X7612D02*
X7536D01*
X7902D02*
X7765D01*
X8075D02*
X8049D01*
X8649D02*
X8222D01*
X5921Y-2510D02*
X5651D01*
X6160D02*
X6154D01*
X6398D02*
X6393D01*
X6632D02*
X6556D01*
X6876D02*
X6789D01*
X7099D02*
X7033D01*
X7313D02*
X7257D01*
X7607D02*
X7536D01*
X7902D02*
X7765D01*
X8075D02*
X8049D01*
X8649D02*
X8222D01*
X5921Y-2504D02*
X5651D01*
X6165D02*
X6149D01*
X6398D02*
X6388D01*
X6632D02*
X6556D01*
X6876D02*
X6784D01*
X7099D02*
X7028D01*
X7313D02*
X7257D01*
X7607D02*
X7531D01*
X7902D02*
X7765D01*
X8070D02*
X8049D01*
X8649D02*
X8217D01*
X5921Y-2499D02*
X5651D01*
X6165D02*
X6144D01*
X6393D02*
X6383D01*
X6627D02*
X6551D01*
X6871D02*
X6784D01*
X7099D02*
X7028D01*
X7313D02*
X7257D01*
X7607D02*
X7531D01*
X7902D02*
X7760D01*
X8070D02*
X8049D01*
X8649D02*
X8217D01*
X5921Y-2494D02*
X5651D01*
X6165D02*
X6139D01*
X6393D02*
X6378D01*
X6627D02*
X6551D01*
X6871D02*
X6784D01*
X7099D02*
X7028D01*
X7313D02*
X7252D01*
X7607D02*
X7531D01*
X7907D02*
X7760D01*
X8064D02*
X8049D01*
X8649D02*
X8212D01*
X5926Y-2489D02*
X5651D01*
X6170D02*
X6134D01*
X6393D02*
X6373D01*
X6627D02*
X6551D01*
X6871D02*
X6784D01*
X7094D02*
X7028D01*
X7308D02*
X7252D01*
X7602D02*
X7531D01*
X7907D02*
X7760D01*
X8064D02*
X8049D01*
X8649D02*
X8207D01*
X5926Y-2484D02*
X5651D01*
X6175D02*
X6129D01*
X6393D02*
X6368D01*
X6627D02*
X6551D01*
X6871D02*
X6779D01*
X7094D02*
X7023D01*
X7308D02*
X7252D01*
X7602D02*
X7526D01*
X7907D02*
X7760D01*
X8059D02*
X8049D01*
X8649D02*
X8207D01*
X5931Y-2479D02*
X5651D01*
X6175D02*
X6119D01*
X6388D02*
X6358D01*
X6622D02*
X6546D01*
X6866D02*
X6779D01*
X7094D02*
X7023D01*
X7308D02*
X7252D01*
X7602D02*
X7526D01*
X7907D02*
X7755D01*
X8059D02*
X8049D01*
X8649D02*
X8202D01*
X5936Y-2474D02*
X5651D01*
X6180D02*
X6109D01*
X6388D02*
X6353D01*
X6622D02*
X6546D01*
X6866D02*
X6779D01*
X7094D02*
X7023D01*
X7308D02*
X7247D01*
X7597D02*
X7526D01*
X7907D02*
X7755D01*
X8054D02*
X8049D01*
X8649D02*
X8202D01*
X5946Y-2469D02*
X5651D01*
X6190D02*
X6099D01*
X6388D02*
X6342D01*
X6622D02*
X6546D01*
X6866D02*
X6779D01*
X7089D02*
X7023D01*
X7303D02*
X7247D01*
X7597D02*
X7526D01*
X7907D02*
X7755D01*
X8054D02*
X8049D01*
X8649D02*
X8197D01*
X5956Y-2464D02*
X5651D01*
X6195D02*
X6088D01*
X7303D02*
X6332D01*
X7597D02*
X7521D01*
X7907D02*
X7755D01*
X8649D02*
X8197D01*
X5966Y-2459D02*
X5651D01*
X6210D02*
X6073D01*
X7369D02*
X6317D01*
X7597D02*
X7521D01*
X7907D02*
X7750D01*
X8649D02*
X8192D01*
X5992Y-2454D02*
X5651D01*
X6231D02*
X6043D01*
X7363D02*
X6287D01*
X7592D02*
X7521D01*
X7907D02*
X7750D01*
X8649D02*
X8192D01*
X7363Y-2449D02*
X5651D01*
X7592D02*
X7521D01*
X7907D02*
X7750D01*
X8649D02*
X8186D01*
X7363Y-2443D02*
X5651D01*
X7592D02*
X7516D01*
X7907D02*
X7750D01*
X8649D02*
X8186D01*
X7363Y-2438D02*
X5651D01*
X7592D02*
X7516D01*
X7907D02*
X7744D01*
X8649D02*
X8181D01*
X7358Y-2433D02*
X5651D01*
X7587D02*
X7516D01*
X7907D02*
X7744D01*
X8649D02*
X8181D01*
X7358Y-2428D02*
X5651D01*
X7587D02*
X7516D01*
X7907D02*
X7744D01*
X8649D02*
X8176D01*
X7358Y-2423D02*
X5651D01*
X7587D02*
X7511D01*
X7907D02*
X7744D01*
X8649D02*
X8171D01*
X7358Y-2418D02*
X5651D01*
X7587D02*
X7511D01*
X7907D02*
X7744D01*
X8649D02*
X8171D01*
X7353Y-2413D02*
X5651D01*
X7582D02*
X7511D01*
X7907D02*
X7739D01*
X8649D02*
X8166D01*
X7353Y-2408D02*
X5651D01*
X7582D02*
X7511D01*
X7907D02*
X7739D01*
X8649D02*
X8161D01*
X7353Y-2403D02*
X5651D01*
X7582D02*
X7506D01*
X7907D02*
X7739D01*
X8649D02*
X8156D01*
X7348Y-2398D02*
X5651D01*
X7582D02*
X7506D01*
X7907D02*
X7739D01*
X8649D02*
X8151D01*
X7348Y-2393D02*
X5651D01*
X7577D02*
X7506D01*
X7907D02*
X7734D01*
X8649D02*
X8146D01*
X7348Y-2388D02*
X5651D01*
X7577D02*
X7506D01*
X7907D02*
X7734D01*
X8649D02*
X8141D01*
X7348Y-2383D02*
X5651D01*
X7577D02*
X7501D01*
X7907D02*
X7734D01*
X8649D02*
X8136D01*
X7343Y-2377D02*
X5651D01*
X7577D02*
X7501D01*
X7907D02*
X7734D01*
X8649D02*
X8131D01*
X7343Y-2372D02*
X5651D01*
X7572D02*
X7501D01*
X7907D02*
X7729D01*
X8649D02*
X8125D01*
X7343Y-2367D02*
X5651D01*
X7572D02*
X7501D01*
X7907D02*
X7729D01*
X8649D02*
X8115D01*
X7343Y-2362D02*
X5651D01*
X7572D02*
X7496D01*
X7912D02*
X7729D01*
X8649D02*
X8110D01*
X7338Y-2357D02*
X5651D01*
X7572D02*
X7496D01*
X7912D02*
X7729D01*
X8649D02*
X8100D01*
X7338Y-2352D02*
X5651D01*
X7567D02*
X7496D01*
X7912D02*
X7724D01*
X8649D02*
X8090D01*
X7338Y-2347D02*
X5651D01*
X7567D02*
X7496D01*
X7912D02*
X7724D01*
X8649D02*
X8080D01*
X7338Y-2342D02*
X5651D01*
X7567D02*
X7490D01*
X7912D02*
X7724D01*
X8649D02*
X8064D01*
X7333Y-2337D02*
X5651D01*
X7567D02*
X7490D01*
X7912D02*
X7724D01*
X8649D02*
X8049D01*
X7562Y-2332D02*
X5651D01*
X7912D02*
X7719D01*
X8649D02*
X8019D01*
X8649Y-2327D02*
X5651D01*
X8644Y-2322D02*
X5651D01*
X8644Y-2316D02*
X5651D01*
X8644Y-2311D02*
X5651D01*
X8644Y-2306D02*
X5651D01*
X8639Y-2301D02*
X5651D01*
X8639Y-2296D02*
X5651D01*
X8639Y-2291D02*
X5651D01*
X8633Y-2286D02*
X5651D01*
X8633Y-2281D02*
X5651D01*
X8628Y-2276D02*
X5651D01*
X8628Y-2271D02*
X5651D01*
X8623Y-2266D02*
X5651D01*
X8623Y-2261D02*
X5651D01*
X8623Y-2256D02*
X5651D01*
X8618Y-2250D02*
X5651D01*
X8613Y-2245D02*
X5651D01*
X8613Y-2240D02*
X5651D01*
X8608Y-2235D02*
X5651D01*
X8608Y-2230D02*
X5651D01*
X8603Y-2225D02*
X5651D01*
X8598Y-2220D02*
X5651D01*
X8593Y-2215D02*
X5651D01*
X8593Y-2210D02*
X5651D01*
X8588Y-2205D02*
X5651D01*
X8583Y-2200D02*
X5651D01*
X8578Y-2195D02*
X5651D01*
X8572Y-2189D02*
X5651D01*
X8572Y-2184D02*
X5651D01*
X8567Y-2179D02*
X5651D01*
X8562Y-2174D02*
X5651D01*
X8557Y-2169D02*
X5651D01*
X8552Y-2164D02*
X5651D01*
X8547Y-2159D02*
X5651D01*
X8537Y-2154D02*
X5651D01*
X8532Y-2149D02*
X5651D01*
X8527Y-2144D02*
X5651D01*
X8522Y-2139D02*
X5651D01*
X8512Y-2134D02*
X5651D01*
X8506Y-2129D02*
X5651D01*
X8496Y-2123D02*
X5651D01*
X8486Y-2118D02*
X5651D01*
X8476Y-2113D02*
X5651D01*
X8466Y-2108D02*
X5651D01*
X8456Y-2103D02*
X5651D01*
X8440Y-2098D02*
X5651D01*
X8425Y-2093D02*
X5651D01*
X8410Y-2088D02*
X5651D01*
X8379Y-2083D02*
X5651D01*
D21*
X22657Y-5410D02*
X-6553D01*
Y13894D01*
X22657D02*
X-6553D01*
X22149Y-4902D02*
Y13386D01*
Y-4902D02*
X-6045D01*
Y13386D01*
X22149D02*
X-6045D01*
X15354D02*
Y13894D01*
X8052Y13386D02*
Y13894D01*
X749Y13386D02*
Y13894D01*
X-6045Y9068D02*
X-6553D01*
X15465Y-1086D02*
X14957D01*
X15465Y-5912D02*
X14957D01*
X22657Y-5410D02*
Y13894D01*
Y9068D02*
X22149D01*
X22657Y4242D02*
X22149D01*
X22657Y-584D02*
X22149D01*
X15354Y-5410D02*
Y-4902D01*
X8052Y-5410D02*
Y-4902D01*
X8941D02*
X5385D01*
X8941D02*
Y-1854D01*
X5385D01*
Y-2616D02*
X1575D01*
X5385Y-4902D02*
X-6045D01*
X5385Y-4140D02*
X-6045D01*
X5385Y-3378D02*
X-6045D01*
X5385Y-1854D02*
X1575D01*
Y-3378D02*
Y-1854D01*
X-6045D01*
Y-4902D02*
Y-1854D01*
X5385Y-4902D02*
Y-1854D01*
X-3759Y-4902D02*
Y-3378D01*
X1575Y-4902D02*
Y-3378D01*
X749Y-5410D02*
Y-4902D01*
X5258Y-3518D02*
Y-3632D01*
Y-3518D02*
X5220D01*
X5203Y-3523D01*
X5192Y-3534D01*
X5187Y-3545D01*
X5182Y-3561D01*
Y-3589D01*
X5187Y-3605D01*
X5192Y-3616D01*
X5203Y-3627D01*
X5220Y-3632D01*
X5258D01*
X5069D02*
X5113Y-3518D01*
X5156Y-3632D01*
X5140Y-3594D02*
X5085D01*
X5004Y-3518D02*
Y-3632D01*
X5042Y-3518D02*
X4966D01*
X4882D02*
X4953D01*
Y-3632D01*
X4882D01*
X4953Y-3572D02*
X4909D01*
X4857Y-3556D02*
X4863Y-3561D01*
X4857Y-3567D01*
X4852Y-3561D01*
X4857Y-3556D01*
Y-3621D02*
X4863Y-3627D01*
X4857Y-3632D01*
X4852Y-3627D01*
X4857Y-3621D01*
X-3886Y-3518D02*
Y-3632D01*
Y-3518D02*
X-3935D01*
X-3951Y-3523D01*
X-3957Y-3529D01*
X-3962Y-3540D01*
Y-3551D01*
X-3957Y-3561D01*
X-3951Y-3567D01*
X-3935Y-3572D01*
X-3886D01*
X-3924D02*
X-3962Y-3632D01*
X-4059Y-3518D02*
X-3988D01*
Y-3632D01*
X-4059D01*
X-3988Y-3572D02*
X-4031D01*
X-4078Y-3518D02*
X-4121Y-3632D01*
X-4165Y-3518D02*
X-4121Y-3632D01*
X-4185Y-3556D02*
X-4180Y-3561D01*
X-4185Y-3567D01*
X-4190Y-3561D01*
X-4185Y-3556D01*
Y-3621D02*
X-4180Y-3627D01*
X-4185Y-3632D01*
X-4190Y-3627D01*
X-4185Y-3621D01*
X1448Y-4280D02*
Y-4394D01*
Y-4280D02*
X1410D01*
X1393Y-4285D01*
X1382Y-4296D01*
X1377Y-4307D01*
X1372Y-4323D01*
Y-4351D01*
X1377Y-4367D01*
X1382Y-4378D01*
X1393Y-4389D01*
X1410Y-4394D01*
X1448D01*
X1346Y-4280D02*
X1319Y-4394D01*
X1292Y-4280D02*
X1319Y-4394D01*
X1292Y-4280D02*
X1264Y-4394D01*
X1237Y-4280D02*
X1264Y-4394D01*
X1133Y-4307D02*
X1138Y-4296D01*
X1149Y-4285D01*
X1160Y-4280D01*
X1182D01*
X1193Y-4285D01*
X1203Y-4296D01*
X1209Y-4307D01*
X1214Y-4323D01*
Y-4351D01*
X1209Y-4367D01*
X1203Y-4378D01*
X1193Y-4389D01*
X1182Y-4394D01*
X1160D01*
X1149Y-4389D01*
X1138Y-4378D01*
X1133Y-4367D01*
Y-4351D01*
X1160D02*
X1133D01*
X1017Y-4280D02*
Y-4394D01*
Y-4280D02*
X941Y-4394D01*
Y-4280D02*
Y-4394D01*
X876Y-4280D02*
X887Y-4285D01*
X898Y-4296D01*
X904Y-4307D01*
X909Y-4323D01*
Y-4351D01*
X904Y-4367D01*
X898Y-4378D01*
X887Y-4389D01*
X876Y-4394D01*
X855D01*
X844Y-4389D01*
X833Y-4378D01*
X827Y-4367D01*
X822Y-4351D01*
Y-4323D01*
X827Y-4307D01*
X833Y-4296D01*
X844Y-4285D01*
X855Y-4280D01*
X876D01*
X790Y-4318D02*
X795Y-4323D01*
X790Y-4329D01*
X784Y-4323D01*
X790Y-4318D01*
Y-4383D02*
X795Y-4389D01*
X790Y-4394D01*
X784Y-4389D01*
X790Y-4383D01*
X5187Y-1994D02*
X5258D01*
Y-2108D01*
X5187D01*
X5258Y-2048D02*
X5214D01*
X5168Y-1994D02*
Y-2108D01*
Y-1994D02*
X5092Y-2108D01*
Y-1994D02*
Y-2108D01*
X4979Y-2021D02*
X4984Y-2010D01*
X4995Y-1999D01*
X5006Y-1994D01*
X5028D01*
X5038Y-1999D01*
X5049Y-2010D01*
X5055Y-2021D01*
X5060Y-2037D01*
Y-2065D01*
X5055Y-2081D01*
X5049Y-2092D01*
X5038Y-2103D01*
X5028Y-2108D01*
X5006D01*
X4995Y-2103D01*
X4984Y-2092D01*
X4979Y-2081D01*
Y-2065D01*
X5006D02*
X4979D01*
X4953Y-1994D02*
Y-2108D01*
X4929Y-1994D02*
Y-2108D01*
Y-1994D02*
X4852Y-2108D01*
Y-1994D02*
Y-2108D01*
X4750Y-1994D02*
X4821D01*
Y-2108D01*
X4750D01*
X4821Y-2048D02*
X4777D01*
X4660Y-1994D02*
X4731D01*
Y-2108D01*
X4660D01*
X4731Y-2048D02*
X4688D01*
X4641Y-1994D02*
Y-2108D01*
Y-1994D02*
X4592D01*
X4576Y-1999D01*
X4571Y-2005D01*
X4565Y-2016D01*
Y-2027D01*
X4571Y-2037D01*
X4576Y-2043D01*
X4592Y-2048D01*
X4641D01*
X4603D02*
X4565Y-2108D01*
X4534Y-2032D02*
X4539Y-2037D01*
X4534Y-2043D01*
X4529Y-2037D01*
X4534Y-2032D01*
Y-2097D02*
X4539Y-2103D01*
X4534Y-2108D01*
X4529Y-2103D01*
X4534Y-2097D01*
X1448Y-3578D02*
X1399D01*
X1382Y-3572D01*
X1377Y-3567D01*
X1372Y-3556D01*
Y-3540D01*
X1377Y-3529D01*
X1382Y-3523D01*
X1399Y-3518D01*
X1448D01*
Y-3632D01*
X1259D02*
X1303Y-3518D01*
X1346Y-3632D01*
X1330Y-3594D02*
X1275D01*
X1232Y-3518D02*
Y-3632D01*
Y-3518D02*
X1183D01*
X1167Y-3523D01*
X1162Y-3529D01*
X1156Y-3540D01*
Y-3551D01*
X1162Y-3561D01*
X1167Y-3567D01*
X1183Y-3572D01*
X1232D01*
X1194D02*
X1156Y-3632D01*
X1092Y-3518D02*
Y-3632D01*
X1131Y-3518D02*
X1054D01*
X951D02*
Y-3632D01*
Y-3518D02*
X875Y-3632D01*
Y-3518D02*
Y-3632D01*
X811Y-3518D02*
X821Y-3523D01*
X832Y-3534D01*
X838Y-3545D01*
X843Y-3561D01*
Y-3589D01*
X838Y-3605D01*
X832Y-3616D01*
X821Y-3627D01*
X811Y-3632D01*
X789D01*
X778Y-3627D01*
X767Y-3616D01*
X762Y-3605D01*
X756Y-3589D01*
Y-3561D01*
X762Y-3545D01*
X767Y-3534D01*
X778Y-3523D01*
X789Y-3518D01*
X811D01*
X724Y-3621D02*
X729Y-3627D01*
X724Y-3632D01*
X719Y-3627D01*
X724Y-3621D01*
X688Y-3556D02*
X694Y-3561D01*
X688Y-3567D01*
X683Y-3561D01*
X688Y-3556D01*
Y-3621D02*
X694Y-3627D01*
X688Y-3632D01*
X683Y-3627D01*
X688Y-3621D01*
X1410Y-1994D02*
Y-2108D01*
X1448Y-1994D02*
X1372D01*
X1358D02*
Y-2108D01*
X1296Y-1994D02*
Y-2108D01*
X1334Y-1994D02*
X1258D01*
X1244D02*
Y-2108D01*
X1179D01*
X1096Y-1994D02*
X1166D01*
Y-2108D01*
X1096D01*
X1166Y-2048D02*
X1123D01*
X1071Y-2032D02*
X1077Y-2037D01*
X1071Y-2043D01*
X1066Y-2037D01*
X1071Y-2032D01*
Y-2097D02*
X1077Y-2103D01*
X1071Y-2108D01*
X1066Y-2103D01*
X1071Y-2097D01*
X5258Y-2803D02*
X5209D01*
X5192Y-2798D01*
X5187Y-2792D01*
X5182Y-2781D01*
Y-2765D01*
X5187Y-2754D01*
X5192Y-2749D01*
X5209Y-2743D01*
X5258D01*
Y-2858D01*
X5074Y-2770D02*
X5080Y-2760D01*
X5091Y-2749D01*
X5102Y-2743D01*
X5123D01*
X5134Y-2749D01*
X5145Y-2760D01*
X5151Y-2770D01*
X5156Y-2787D01*
Y-2814D01*
X5151Y-2830D01*
X5145Y-2841D01*
X5134Y-2852D01*
X5123Y-2858D01*
X5102D01*
X5091Y-2852D01*
X5080Y-2841D01*
X5074Y-2830D01*
X5042Y-2743D02*
Y-2858D01*
Y-2743D02*
X4993D01*
X4977Y-2749D01*
X4972Y-2754D01*
X4966Y-2765D01*
Y-2776D01*
X4972Y-2787D01*
X4977Y-2792D01*
X4993Y-2798D01*
X5042D02*
X4993D01*
X4977Y-2803D01*
X4972Y-2809D01*
X4966Y-2819D01*
Y-2836D01*
X4972Y-2847D01*
X4977Y-2852D01*
X4993Y-2858D01*
X5042D01*
X4851Y-2743D02*
Y-2858D01*
Y-2743D02*
X4813D01*
X4796Y-2749D01*
X4785Y-2760D01*
X4780Y-2770D01*
X4775Y-2787D01*
Y-2814D01*
X4780Y-2830D01*
X4785Y-2841D01*
X4796Y-2852D01*
X4813Y-2858D01*
X4851D01*
X4678Y-2743D02*
X4749D01*
Y-2858D01*
X4678D01*
X4749Y-2798D02*
X4705D01*
X4583Y-2760D02*
X4594Y-2749D01*
X4610Y-2743D01*
X4632D01*
X4648Y-2749D01*
X4659Y-2760D01*
Y-2770D01*
X4654Y-2781D01*
X4648Y-2787D01*
X4637Y-2792D01*
X4605Y-2803D01*
X4594Y-2809D01*
X4588Y-2814D01*
X4583Y-2825D01*
Y-2841D01*
X4594Y-2852D01*
X4610Y-2858D01*
X4632D01*
X4648Y-2852D01*
X4659Y-2841D01*
X4557Y-2743D02*
Y-2858D01*
X4452Y-2770D02*
X4457Y-2760D01*
X4468Y-2749D01*
X4479Y-2743D01*
X4501D01*
X4512Y-2749D01*
X4523Y-2760D01*
X4528Y-2770D01*
X4534Y-2787D01*
Y-2814D01*
X4528Y-2830D01*
X4523Y-2841D01*
X4512Y-2852D01*
X4501Y-2858D01*
X4479D01*
X4468Y-2852D01*
X4457Y-2841D01*
X4452Y-2830D01*
Y-2814D01*
X4479D02*
X4452D01*
X4426Y-2743D02*
Y-2858D01*
Y-2743D02*
X4350Y-2858D01*
Y-2743D02*
Y-2858D01*
X4247Y-2743D02*
X4318D01*
Y-2858D01*
X4247D01*
X4318Y-2798D02*
X4274D01*
X4228Y-2743D02*
Y-2858D01*
Y-2743D02*
X4179D01*
X4163Y-2749D01*
X4157Y-2754D01*
X4152Y-2765D01*
Y-2776D01*
X4157Y-2787D01*
X4163Y-2792D01*
X4179Y-2798D01*
X4228D01*
X4190D02*
X4152Y-2858D01*
X4121Y-2781D02*
X4126Y-2787D01*
X4121Y-2792D01*
X4116Y-2787D01*
X4121Y-2781D01*
Y-2847D02*
X4126Y-2852D01*
X4121Y-2858D01*
X4116Y-2852D01*
X4121Y-2847D01*
X5258Y-4280D02*
Y-4394D01*
Y-4280D02*
X5187D01*
X5258Y-4334D02*
X5214D01*
X5174Y-4280D02*
Y-4394D01*
X5150Y-4280D02*
Y-4394D01*
X5085D01*
X5001Y-4280D02*
X5072D01*
Y-4394D01*
X5001D01*
X5072Y-4334D02*
X5029D01*
X4893Y-4280D02*
Y-4394D01*
Y-4280D02*
X4816Y-4394D01*
Y-4280D02*
Y-4394D01*
X4698D02*
X4741Y-4280D01*
X4785Y-4394D01*
X4769Y-4356D02*
X4714D01*
X4671Y-4280D02*
Y-4394D01*
Y-4280D02*
X4628Y-4394D01*
X4584Y-4280D02*
X4628Y-4394D01*
X4584Y-4280D02*
Y-4394D01*
X4481Y-4280D02*
X4551D01*
Y-4394D01*
X4481D01*
X4551Y-4334D02*
X4508D01*
X4456Y-4318D02*
X4462Y-4323D01*
X4456Y-4329D01*
X4451Y-4323D01*
X4456Y-4318D01*
Y-4383D02*
X4462Y-4389D01*
X4456Y-4394D01*
X4451Y-4389D01*
X4456Y-4383D01*
X-3962Y-4296D02*
X-3951Y-4285D01*
X-3935Y-4280D01*
X-3913D01*
X-3897Y-4285D01*
X-3886Y-4296D01*
Y-4307D01*
X-3892Y-4318D01*
X-3897Y-4323D01*
X-3908Y-4329D01*
X-3941Y-4340D01*
X-3951Y-4345D01*
X-3957Y-4351D01*
X-3962Y-4362D01*
Y-4378D01*
X-3951Y-4389D01*
X-3935Y-4394D01*
X-3913D01*
X-3897Y-4389D01*
X-3886Y-4378D01*
X-4070Y-4307D02*
X-4064Y-4296D01*
X-4053Y-4285D01*
X-4042Y-4280D01*
X-4021D01*
X-4010Y-4285D01*
X-3999Y-4296D01*
X-3993Y-4307D01*
X-3988Y-4323D01*
Y-4351D01*
X-3993Y-4367D01*
X-3999Y-4378D01*
X-4010Y-4389D01*
X-4021Y-4394D01*
X-4042D01*
X-4053Y-4389D01*
X-4064Y-4378D01*
X-4070Y-4367D01*
X-4189Y-4394D02*
X-4145Y-4280D01*
X-4102Y-4394D01*
X-4118Y-4356D02*
X-4172D01*
X-4215Y-4280D02*
Y-4394D01*
X-4281D01*
X-4364Y-4280D02*
X-4293D01*
Y-4394D01*
X-4364D01*
X-4293Y-4334D02*
X-4337D01*
X-4388Y-4318D02*
X-4383Y-4323D01*
X-4388Y-4329D01*
X-4394Y-4323D01*
X-4388Y-4318D01*
Y-4383D02*
X-4383Y-4389D01*
X-4388Y-4394D01*
X-4394Y-4389D01*
X-4388Y-4383D01*
D22*
X-6371Y11250D02*
X-6303Y11427D01*
X-6236Y11250D01*
X-6261Y11309D02*
X-6346D01*
X-6236Y6622D02*
Y6444D01*
Y6622D02*
X-6312D01*
X-6337Y6613D01*
X-6346Y6605D01*
X-6354Y6588D01*
Y6571D01*
X-6346Y6554D01*
X-6337Y6546D01*
X-6312Y6537D01*
X-6236D02*
X-6312D01*
X-6337Y6529D01*
X-6346Y6520D01*
X-6354Y6503D01*
Y6478D01*
X-6346Y6461D01*
X-6337Y6452D01*
X-6312Y6444D01*
X-6236D01*
X15147Y-3600D02*
X15156Y-3583D01*
X15173Y-3566D01*
X15190Y-3557D01*
X15224D01*
X15240Y-3566D01*
X15257Y-3583D01*
X15266Y-3600D01*
X15274Y-3625D01*
Y-3667D01*
X15266Y-3693D01*
X15257Y-3710D01*
X15240Y-3727D01*
X15224Y-3735D01*
X15190D01*
X15173Y-3727D01*
X15156Y-3710D01*
X15147Y-3693D01*
X-6236Y-3030D02*
Y-3208D01*
Y-3030D02*
X-6295D01*
X-6320Y-3039D01*
X-6337Y-3056D01*
X-6346Y-3073D01*
X-6354Y-3098D01*
Y-3140D01*
X-6346Y-3166D01*
X-6337Y-3183D01*
X-6320Y-3200D01*
X-6295Y-3208D01*
X-6236D01*
X22331Y11250D02*
X22399Y11427D01*
X22466Y11250D01*
X22441Y11309D02*
X22356D01*
X22466Y6622D02*
Y6444D01*
Y6622D02*
X22390D01*
X22365Y6613D01*
X22356Y6605D01*
X22348Y6588D01*
Y6571D01*
X22356Y6554D01*
X22365Y6546D01*
X22390Y6537D01*
X22466D02*
X22390D01*
X22365Y6529D01*
X22356Y6520D01*
X22348Y6503D01*
Y6478D01*
X22356Y6461D01*
X22365Y6452D01*
X22390Y6444D01*
X22466D01*
X22339Y1728D02*
X22348Y1745D01*
X22365Y1762D01*
X22382Y1770D01*
X22416D01*
X22432Y1762D01*
X22449Y1745D01*
X22458Y1728D01*
X22466Y1703D01*
Y1660D01*
X22458Y1635D01*
X22449Y1618D01*
X22432Y1601D01*
X22416Y1593D01*
X22382D01*
X22365Y1601D01*
X22348Y1618D01*
X22339Y1635D01*
X22466Y-3030D02*
Y-3208D01*
Y-3030D02*
X22407D01*
X22382Y-3039D01*
X22365Y-3056D01*
X22356Y-3073D01*
X22348Y-3098D01*
Y-3140D01*
X22356Y-3166D01*
X22365Y-3183D01*
X22382Y-3200D01*
X22407Y-3208D01*
X22466D01*
X19032Y13695D02*
X19015Y13703D01*
X18990Y13729D01*
Y13551D01*
X11759Y13686D02*
Y13695D01*
X11751Y13712D01*
X11742Y13720D01*
X11725Y13729D01*
X11692D01*
X11675Y13720D01*
X11666Y13712D01*
X11658Y13695D01*
Y13678D01*
X11666Y13661D01*
X11683Y13636D01*
X11768Y13551D01*
X11649D01*
X4436Y13729D02*
X4343D01*
X4393Y13661D01*
X4368D01*
X4351Y13652D01*
X4343Y13644D01*
X4334Y13619D01*
Y13602D01*
X4343Y13576D01*
X4360Y13559D01*
X4385Y13551D01*
X4410D01*
X4436Y13559D01*
X4444Y13568D01*
X4453Y13585D01*
X-2922Y13729D02*
X-2837Y13610D01*
X-2964D01*
X-2922Y13729D02*
Y13551D01*
X19032Y-5101D02*
X19015Y-5093D01*
X18990Y-5067D01*
Y-5245D01*
X11649D02*
X11768D01*
X11649Y-5127D01*
Y-5097D01*
X11679Y-5067D01*
X11738D01*
X11768Y-5097D01*
X4453D02*
X4423Y-5067D01*
X4364D01*
X4334Y-5097D01*
Y-5127D01*
X4364Y-5156D01*
X4393D01*
X4364D01*
X4334Y-5186D01*
Y-5215D01*
X4364Y-5245D01*
X4423D01*
X4453Y-5215D01*
X-2926Y-5245D02*
Y-5067D01*
X-2837Y-5156D01*
X-2956D01*
X8560Y-4470D02*
Y-4648D01*
Y-4470D02*
X8441Y-4648D01*
Y-4470D02*
Y-4648D01*
X8274Y-4496D02*
X8291Y-4479D01*
X8316Y-4470D01*
X8350D01*
X8375Y-4479D01*
X8392Y-4496D01*
Y-4513D01*
X8384Y-4530D01*
X8375Y-4538D01*
X8358Y-4547D01*
X8308Y-4564D01*
X8291Y-4572D01*
X8282Y-4580D01*
X8274Y-4597D01*
Y-4623D01*
X8291Y-4640D01*
X8316Y-4648D01*
X8350D01*
X8375Y-4640D01*
X8392Y-4623D01*
X8234Y-4470D02*
X8192Y-4648D01*
X8149Y-4470D02*
X8192Y-4648D01*
X8149Y-4470D02*
X8107Y-4648D01*
X8065Y-4470D02*
X8107Y-4648D01*
X7881Y-4513D02*
Y-4504D01*
X7872Y-4487D01*
X7864Y-4479D01*
X7847Y-4470D01*
X7813D01*
X7796Y-4479D01*
X7788Y-4487D01*
X7779Y-4504D01*
Y-4521D01*
X7788Y-4538D01*
X7805Y-4564D01*
X7889Y-4648D01*
X7771D01*
X7680Y-4470D02*
X7706Y-4479D01*
X7723Y-4504D01*
X7731Y-4547D01*
Y-4572D01*
X7723Y-4614D01*
X7706Y-4640D01*
X7680Y-4648D01*
X7663D01*
X7638Y-4640D01*
X7621Y-4614D01*
X7613Y-4572D01*
Y-4547D01*
X7621Y-4504D01*
X7638Y-4479D01*
X7663Y-4470D01*
X7680D01*
X7530D02*
X7556Y-4479D01*
X7564Y-4496D01*
Y-4513D01*
X7556Y-4530D01*
X7539Y-4538D01*
X7505Y-4547D01*
X7480Y-4555D01*
X7463Y-4572D01*
X7454Y-4589D01*
Y-4614D01*
X7463Y-4631D01*
X7471Y-4640D01*
X7497Y-4648D01*
X7530D01*
X7556Y-4640D01*
X7564Y-4631D01*
X7573Y-4614D01*
Y-4589D01*
X7564Y-4572D01*
X7547Y-4555D01*
X7522Y-4547D01*
X7488Y-4538D01*
X7471Y-4530D01*
X7463Y-4513D01*
Y-4496D01*
X7471Y-4479D01*
X7497Y-4470D01*
X7530D01*
X7313Y-4496D02*
X7321Y-4479D01*
X7347Y-4470D01*
X7364D01*
X7389Y-4479D01*
X7406Y-4504D01*
X7415Y-4547D01*
Y-4589D01*
X7406Y-4623D01*
X7389Y-4640D01*
X7364Y-4648D01*
X7355D01*
X7330Y-4640D01*
X7313Y-4623D01*
X7304Y-4597D01*
Y-4589D01*
X7313Y-4564D01*
X7330Y-4547D01*
X7355Y-4538D01*
X7364D01*
X7389Y-4547D01*
X7406Y-4564D01*
X7415Y-4589D01*
X8560Y-4216D02*
Y-4394D01*
Y-4216D02*
X8450D01*
X8560Y-4301D02*
X8492D01*
X8429Y-4276D02*
Y-4394D01*
Y-4326D02*
X8421Y-4301D01*
X8404Y-4284D01*
X8387Y-4276D01*
X8362D01*
X8346Y-4326D02*
X8244D01*
Y-4310D01*
X8253Y-4293D01*
X8261Y-4284D01*
X8278Y-4276D01*
X8303D01*
X8320Y-4284D01*
X8337Y-4301D01*
X8346Y-4326D01*
Y-4343D01*
X8337Y-4369D01*
X8320Y-4386D01*
X8303Y-4394D01*
X8278D01*
X8261Y-4386D01*
X8244Y-4369D01*
X8206Y-4276D02*
Y-4394D01*
Y-4310D02*
X8181Y-4284D01*
X8164Y-4276D01*
X8138D01*
X8121Y-4284D01*
X8113Y-4310D01*
Y-4394D01*
X7965Y-4301D02*
X7982Y-4284D01*
X7999Y-4276D01*
X8024D01*
X8041Y-4284D01*
X8058Y-4301D01*
X8066Y-4326D01*
Y-4343D01*
X8058Y-4369D01*
X8041Y-4386D01*
X8024Y-4394D01*
X7999D01*
X7982Y-4386D01*
X7965Y-4369D01*
X7927Y-4216D02*
Y-4394D01*
Y-4310D02*
X7901Y-4284D01*
X7884Y-4276D01*
X7859D01*
X7842Y-4284D01*
X7834Y-4310D01*
Y-4394D01*
X7694Y-4301D02*
X7702Y-4284D01*
X7728Y-4276D01*
X7753D01*
X7778Y-4284D01*
X7787Y-4301D01*
X7778Y-4318D01*
X7762Y-4326D01*
X7719Y-4335D01*
X7702Y-4343D01*
X7694Y-4360D01*
Y-4369D01*
X7702Y-4386D01*
X7728Y-4394D01*
X7753D01*
X7778Y-4386D01*
X7787Y-4369D01*
X7517Y-4216D02*
Y-4394D01*
Y-4216D02*
X7407D01*
X7517Y-4301D02*
X7449D01*
X7344Y-4276D02*
X7361Y-4284D01*
X7378Y-4301D01*
X7387Y-4326D01*
Y-4343D01*
X7378Y-4369D01*
X7361Y-4386D01*
X7344Y-4394D01*
X7319D01*
X7302Y-4386D01*
X7285Y-4369D01*
X7277Y-4343D01*
Y-4326D01*
X7285Y-4301D01*
X7302Y-4284D01*
X7319Y-4276D01*
X7344D01*
X7238D02*
Y-4394D01*
Y-4326D02*
X7229Y-4301D01*
X7212Y-4284D01*
X7195Y-4276D01*
X7170D01*
X7154Y-4326D02*
X7052D01*
Y-4310D01*
X7061Y-4293D01*
X7069Y-4284D01*
X7086Y-4276D01*
X7111D01*
X7128Y-4284D01*
X7145Y-4301D01*
X7154Y-4326D01*
Y-4343D01*
X7145Y-4369D01*
X7128Y-4386D01*
X7111Y-4394D01*
X7086D01*
X7069Y-4386D01*
X7052Y-4369D01*
X6921Y-4301D02*
X6929Y-4284D01*
X6955Y-4276D01*
X6980D01*
X7006Y-4284D01*
X7014Y-4301D01*
X7006Y-4318D01*
X6989Y-4326D01*
X6946Y-4335D01*
X6929Y-4343D01*
X6921Y-4360D01*
Y-4369D01*
X6929Y-4386D01*
X6955Y-4394D01*
X6980D01*
X7006Y-4386D01*
X7014Y-4369D01*
X6858Y-4216D02*
Y-4360D01*
X6850Y-4386D01*
X6833Y-4394D01*
X6816D01*
X6884Y-4276D02*
X6825D01*
X8560Y-3996D02*
X8543Y-3988D01*
X8517Y-3962D01*
Y-4140D01*
X8421Y-4005D02*
Y-3996D01*
X8413Y-3979D01*
X8404Y-3971D01*
X8387Y-3962D01*
X8353D01*
X8336Y-3971D01*
X8328Y-3979D01*
X8319Y-3996D01*
Y-4013D01*
X8328Y-4030D01*
X8345Y-4056D01*
X8429Y-4140D01*
X8311D01*
X8170Y-4022D02*
Y-4140D01*
Y-4047D02*
X8186Y-4030D01*
X8203Y-4022D01*
X8229D01*
X8246Y-4030D01*
X8263Y-4047D01*
X8271Y-4072D01*
Y-4089D01*
X8263Y-4115D01*
X8246Y-4132D01*
X8229Y-4140D01*
X8203D01*
X8186Y-4132D01*
X8170Y-4115D01*
X7982Y-3962D02*
Y-4140D01*
Y-3962D02*
X7906D01*
X7881Y-3971D01*
X7872Y-3979D01*
X7864Y-3996D01*
Y-4013D01*
X7872Y-4030D01*
X7881Y-4039D01*
X7906Y-4047D01*
X7982D01*
X7923D02*
X7864Y-4140D01*
X7782Y-4022D02*
X7799Y-4030D01*
X7816Y-4047D01*
X7824Y-4072D01*
Y-4089D01*
X7816Y-4115D01*
X7799Y-4132D01*
X7782Y-4140D01*
X7756D01*
X7740Y-4132D01*
X7723Y-4115D01*
X7714Y-4089D01*
Y-4072D01*
X7723Y-4047D01*
X7740Y-4030D01*
X7756Y-4022D01*
X7782D01*
X7574Y-3962D02*
Y-4140D01*
Y-4047D02*
X7591Y-4030D01*
X7608Y-4022D01*
X7633D01*
X7650Y-4030D01*
X7667Y-4047D01*
X7675Y-4072D01*
Y-4089D01*
X7667Y-4115D01*
X7650Y-4132D01*
X7633Y-4140D01*
X7608D01*
X7591Y-4132D01*
X7574Y-4115D01*
X7526Y-3962D02*
Y-4140D01*
Y-4047D02*
X7509Y-4030D01*
X7492Y-4022D01*
X7467D01*
X7450Y-4030D01*
X7433Y-4047D01*
X7425Y-4072D01*
Y-4089D01*
X7433Y-4115D01*
X7450Y-4132D01*
X7467Y-4140D01*
X7492D01*
X7509Y-4132D01*
X7526Y-4115D01*
X7344Y-4022D02*
X7361Y-4030D01*
X7378Y-4047D01*
X7387Y-4072D01*
Y-4089D01*
X7378Y-4115D01*
X7361Y-4132D01*
X7344Y-4140D01*
X7319D01*
X7302Y-4132D01*
X7285Y-4115D01*
X7277Y-4089D01*
Y-4072D01*
X7285Y-4047D01*
X7302Y-4030D01*
X7319Y-4022D01*
X7344D01*
X7238D02*
Y-4140D01*
Y-4072D02*
X7229Y-4047D01*
X7212Y-4030D01*
X7195Y-4022D01*
X7170D01*
X7111D02*
X7128Y-4030D01*
X7145Y-4047D01*
X7154Y-4072D01*
Y-4089D01*
X7145Y-4115D01*
X7128Y-4132D01*
X7111Y-4140D01*
X7086D01*
X7069Y-4132D01*
X7052Y-4115D01*
X7044Y-4089D01*
Y-4072D01*
X7052Y-4047D01*
X7069Y-4030D01*
X7086Y-4022D01*
X7111D01*
X7005D02*
Y-4106D01*
X6996Y-4132D01*
X6979Y-4140D01*
X6954D01*
X6937Y-4132D01*
X6912Y-4106D01*
Y-4022D02*
Y-4140D01*
X6764Y-4022D02*
Y-4157D01*
X6772Y-4183D01*
X6780Y-4191D01*
X6797Y-4199D01*
X6823D01*
X6840Y-4191D01*
X6764Y-4047D02*
X6780Y-4030D01*
X6797Y-4022D01*
X6823D01*
X6840Y-4030D01*
X6857Y-4047D01*
X6865Y-4072D01*
Y-4089D01*
X6857Y-4115D01*
X6840Y-4132D01*
X6823Y-4140D01*
X6797D01*
X6780Y-4132D01*
X6764Y-4115D01*
X6716Y-3962D02*
Y-4140D01*
Y-4056D02*
X6691Y-4030D01*
X6674Y-4022D01*
X6648D01*
X6632Y-4030D01*
X6623Y-4056D01*
Y-4140D01*
X6437Y-3962D02*
Y-4140D01*
Y-3962D02*
X6361D01*
X6335Y-3971D01*
X6327Y-3979D01*
X6318Y-3996D01*
Y-4013D01*
X6327Y-4030D01*
X6335Y-4039D01*
X6361Y-4047D01*
X6437D01*
X6378D02*
X6318Y-4140D01*
X6177Y-3962D02*
Y-4140D01*
Y-4047D02*
X6194Y-4030D01*
X6211Y-4022D01*
X6236D01*
X6253Y-4030D01*
X6270Y-4047D01*
X6279Y-4072D01*
Y-4089D01*
X6270Y-4115D01*
X6253Y-4132D01*
X6236Y-4140D01*
X6211D01*
X6194Y-4132D01*
X6177Y-4115D01*
X8424Y-3886D02*
X8492Y-3708D01*
X8560Y-3886D01*
X8534Y-3827D02*
X8450D01*
X8383Y-3708D02*
Y-3886D01*
X8320Y-3708D02*
Y-3852D01*
X8312Y-3878D01*
X8295Y-3886D01*
X8278D01*
X8346Y-3768D02*
X8286D01*
X8236Y-3708D02*
X8227Y-3717D01*
X8219Y-3708D01*
X8227Y-3700D01*
X8236Y-3708D01*
X8227Y-3768D02*
Y-3886D01*
X8187Y-3768D02*
Y-3852D01*
X8179Y-3878D01*
X8162Y-3886D01*
X8137D01*
X8120Y-3878D01*
X8094Y-3852D01*
Y-3768D02*
Y-3886D01*
X8048Y-3768D02*
Y-3886D01*
Y-3802D02*
X8022Y-3776D01*
X8005Y-3768D01*
X7980D01*
X7963Y-3776D01*
X7955Y-3802D01*
Y-3886D01*
Y-3802D02*
X7929Y-3776D01*
X7912Y-3768D01*
X7887D01*
X7870Y-3776D01*
X7861Y-3802D01*
Y-3886D01*
X7666Y-3708D02*
Y-3886D01*
X7564D01*
X7528Y-3708D02*
X7519Y-3717D01*
X7511Y-3708D01*
X7519Y-3700D01*
X7528Y-3708D01*
X7519Y-3768D02*
Y-3886D01*
X7480Y-3768D02*
Y-3886D01*
Y-3802D02*
X7454Y-3776D01*
X7437Y-3768D01*
X7412D01*
X7395Y-3776D01*
X7387Y-3802D01*
Y-3886D01*
Y-3802D02*
X7361Y-3776D01*
X7344Y-3768D01*
X7319D01*
X7302Y-3776D01*
X7293Y-3802D01*
Y-3886D01*
X7221Y-3708D02*
X7212Y-3717D01*
X7204Y-3708D01*
X7212Y-3700D01*
X7221Y-3708D01*
X7212Y-3768D02*
Y-3886D01*
X7147Y-3708D02*
Y-3852D01*
X7139Y-3878D01*
X7122Y-3886D01*
X7105D01*
X7172Y-3768D02*
X7113D01*
X7079Y-3818D02*
X6978D01*
Y-3802D01*
X6986Y-3785D01*
X6995Y-3776D01*
X7012Y-3768D01*
X7037D01*
X7054Y-3776D01*
X7071Y-3793D01*
X7079Y-3818D01*
Y-3835D01*
X7071Y-3861D01*
X7054Y-3878D01*
X7037Y-3886D01*
X7012D01*
X6995Y-3878D01*
X6978Y-3861D01*
X6838Y-3708D02*
Y-3886D01*
Y-3793D02*
X6855Y-3776D01*
X6872Y-3768D01*
X6897D01*
X6914Y-3776D01*
X6931Y-3793D01*
X6940Y-3818D01*
Y-3835D01*
X6931Y-3861D01*
X6914Y-3878D01*
X6897Y-3886D01*
X6872D01*
X6855Y-3878D01*
X6838Y-3861D01*
X5131Y-3793D02*
X5114Y-3785D01*
X5088Y-3759D01*
Y-3937D01*
X4899Y-3759D02*
X4984D01*
X4992Y-3835D01*
X4984Y-3827D01*
X4958Y-3818D01*
X4933D01*
X4907Y-3827D01*
X4890Y-3844D01*
X4882Y-3869D01*
Y-3886D01*
X4890Y-3912D01*
X4907Y-3929D01*
X4933Y-3937D01*
X4958D01*
X4984Y-3929D01*
X4992Y-3920D01*
X5000Y-3903D01*
X4834Y-3920D02*
X4842Y-3929D01*
X4834Y-3937D01*
X4825Y-3929D01*
X4834Y-3920D01*
X4735Y-3759D02*
X4761Y-3768D01*
X4778Y-3793D01*
X4786Y-3835D01*
Y-3861D01*
X4778Y-3903D01*
X4761Y-3929D01*
X4735Y-3937D01*
X4719D01*
X4693Y-3929D01*
X4676Y-3903D01*
X4668Y-3861D01*
Y-3835D01*
X4676Y-3793D01*
X4693Y-3768D01*
X4719Y-3759D01*
X4735D01*
X4628Y-3793D02*
X4611Y-3785D01*
X4586Y-3759D01*
Y-3937D01*
X4489Y-3920D02*
X4498Y-3929D01*
X4489Y-3937D01*
X4481Y-3929D01*
X4489Y-3920D01*
X4433Y-3802D02*
Y-3793D01*
X4425Y-3776D01*
X4416Y-3768D01*
X4399Y-3759D01*
X4366D01*
X4349Y-3768D01*
X4340Y-3776D01*
X4332Y-3793D01*
Y-3810D01*
X4340Y-3827D01*
X4357Y-3852D01*
X4442Y-3937D01*
X4323D01*
X4233Y-3759D02*
X4258Y-3768D01*
X4275Y-3793D01*
X4283Y-3835D01*
Y-3861D01*
X4275Y-3903D01*
X4258Y-3929D01*
X4233Y-3937D01*
X4216D01*
X4190Y-3929D01*
X4173Y-3903D01*
X4165Y-3861D01*
Y-3835D01*
X4173Y-3793D01*
X4190Y-3768D01*
X4216Y-3759D01*
X4233D01*
X4125Y-3793D02*
X4108Y-3785D01*
X4083Y-3759D01*
Y-3937D01*
X3876Y-3759D02*
X3961Y-3937D01*
X3995Y-3759D02*
X3876D01*
X5131Y-4614D02*
X5055D01*
X5029Y-4606D01*
X5021Y-4597D01*
X5012Y-4580D01*
Y-4555D01*
X5021Y-4538D01*
X5029Y-4530D01*
X5055Y-4521D01*
X5131D01*
Y-4699D01*
X4973Y-4580D02*
Y-4699D01*
Y-4631D02*
X4964Y-4606D01*
X4947Y-4589D01*
X4930Y-4580D01*
X4905D01*
X4846D02*
X4863Y-4589D01*
X4880Y-4606D01*
X4889Y-4631D01*
Y-4648D01*
X4880Y-4674D01*
X4863Y-4691D01*
X4846Y-4699D01*
X4821D01*
X4804Y-4691D01*
X4787Y-4674D01*
X4779Y-4648D01*
Y-4631D01*
X4787Y-4606D01*
X4804Y-4589D01*
X4821Y-4580D01*
X4846D01*
X4706Y-4521D02*
X4697Y-4530D01*
X4689Y-4521D01*
X4697Y-4513D01*
X4706Y-4521D01*
X4697Y-4580D02*
Y-4724D01*
X4706Y-4750D01*
X4723Y-4758D01*
X4740D01*
X4656Y-4631D02*
X4554D01*
Y-4614D01*
X4563Y-4597D01*
X4571Y-4589D01*
X4588Y-4580D01*
X4614D01*
X4631Y-4589D01*
X4647Y-4606D01*
X4656Y-4631D01*
Y-4648D01*
X4647Y-4674D01*
X4631Y-4691D01*
X4614Y-4699D01*
X4588D01*
X4571Y-4691D01*
X4554Y-4674D01*
X4516Y-4521D02*
Y-4699D01*
X4432Y-4580D02*
X4516Y-4665D01*
X4482Y-4631D02*
X4423Y-4699D01*
X4370Y-4521D02*
Y-4665D01*
X4361Y-4691D01*
X4344Y-4699D01*
X4327D01*
X4395Y-4580D02*
X4336D01*
X4302Y-4758D02*
X4167D01*
X4144Y-4614D02*
X4068D01*
X4042Y-4606D01*
X4034Y-4597D01*
X4025Y-4580D01*
Y-4555D01*
X4034Y-4538D01*
X4042Y-4530D01*
X4068Y-4521D01*
X4144D01*
Y-4699D01*
X3884Y-4606D02*
X3901Y-4589D01*
X3918Y-4580D01*
X3943D01*
X3960Y-4589D01*
X3977Y-4606D01*
X3986Y-4631D01*
Y-4648D01*
X3977Y-4674D01*
X3960Y-4691D01*
X3943Y-4699D01*
X3918D01*
X3901Y-4691D01*
X3884Y-4674D01*
X3846Y-4521D02*
Y-4699D01*
Y-4606D02*
X3829Y-4589D01*
X3812Y-4580D01*
X3787D01*
X3770Y-4589D01*
X3753Y-4606D01*
X3744Y-4631D01*
Y-4648D01*
X3753Y-4674D01*
X3770Y-4691D01*
X3787Y-4699D01*
X3812D01*
X3829Y-4691D01*
X3846Y-4674D01*
X3698Y-4682D02*
X3706Y-4691D01*
X3698Y-4699D01*
X3689Y-4691D01*
X3698Y-4682D01*
X3650Y-4614D02*
X3574D01*
X3549Y-4606D01*
X3540Y-4597D01*
X3532Y-4580D01*
Y-4555D01*
X3540Y-4538D01*
X3549Y-4530D01*
X3574Y-4521D01*
X3650D01*
Y-4699D01*
X3390Y-4606D02*
X3407Y-4589D01*
X3424Y-4580D01*
X3450D01*
X3467Y-4589D01*
X3484Y-4606D01*
X3492Y-4631D01*
Y-4648D01*
X3484Y-4674D01*
X3467Y-4691D01*
X3450Y-4699D01*
X3424D01*
X3407Y-4691D01*
X3390Y-4674D01*
X3352Y-4521D02*
Y-4699D01*
Y-4606D02*
X3335Y-4589D01*
X3318Y-4580D01*
X3293D01*
X3276Y-4589D01*
X3259Y-4606D01*
X3251Y-4631D01*
Y-4648D01*
X3259Y-4674D01*
X3276Y-4691D01*
X3293Y-4699D01*
X3318D01*
X3335Y-4691D01*
X3352Y-4674D01*
X3213Y-4521D02*
Y-4699D01*
Y-4521D02*
X3153D01*
X3128Y-4530D01*
X3111Y-4547D01*
X3103Y-4564D01*
X3094Y-4589D01*
Y-4631D01*
X3103Y-4657D01*
X3111Y-4674D01*
X3128Y-4691D01*
X3153Y-4699D01*
X3213D01*
X3012Y-4580D02*
X3029Y-4589D01*
X3046Y-4606D01*
X3054Y-4631D01*
Y-4648D01*
X3046Y-4674D01*
X3029Y-4691D01*
X3012Y-4699D01*
X2987D01*
X2970Y-4691D01*
X2953Y-4674D01*
X2944Y-4648D01*
Y-4631D01*
X2953Y-4606D01*
X2970Y-4589D01*
X2987Y-4580D01*
X3012D01*
X2804Y-4606D02*
X2821Y-4589D01*
X2838Y-4580D01*
X2863D01*
X2880Y-4589D01*
X2897Y-4606D01*
X2905Y-4631D01*
Y-4648D01*
X2897Y-4674D01*
X2880Y-4691D01*
X2863Y-4699D01*
X2838D01*
X2821Y-4691D01*
X2804Y-4674D01*
D54*
X14884Y1118D02*
D03*
X14784D02*
D03*
X15087D02*
D03*
X14987D02*
D03*
X14453Y2286D02*
D03*
X14553D02*
D03*
D55*
X15342Y1677D02*
D03*
Y1777D02*
D03*
X12878Y2616D02*
D03*
Y2516D02*
D03*
X14326Y839D02*
D03*
Y939D02*
D03*
X15062Y839D02*
D03*
Y939D02*
D03*
X15951Y1752D02*
D03*
Y1652D02*
D03*
Y1017D02*
D03*
Y1117D02*
D03*
X14224Y839D02*
D03*
Y939D02*
D03*
X14122Y840D02*
D03*
Y940D02*
D03*
X14326Y1142D02*
D03*
Y1042D02*
D03*
X14224Y1142D02*
D03*
Y1042D02*
D03*
X14122Y1141D02*
D03*
Y1041D02*
D03*
D58*
X14808Y610D02*
D03*
X12776Y2819D02*
D03*
D59*
X14300Y610D02*
D03*
X13284Y2819D02*
D03*
D60*
X15646Y1178D02*
D03*
D61*
Y1666D02*
D03*
D62*
X13864Y2896D02*
D03*
D63*
X14910D02*
D03*
D64*
X14249Y3302D02*
D03*
X14503D02*
D03*
X14757D02*
D03*
X14554Y305D02*
D03*
X14808D02*
D03*
X12725Y711D02*
D03*
X12979D02*
D03*
X13233D02*
D03*
X13487D02*
D03*
D65*
X15011Y3302D02*
D03*
X14300Y305D02*
D03*
X13741Y711D02*
D03*
D66*
X15977Y2489D02*
D03*
X14946Y2313D02*
D03*
X13396Y1466D02*
D03*
X14989Y1621D02*
D03*
X15438Y1777D02*
D03*
X15679Y1885D02*
D03*
X14849Y1727D02*
D03*
X13769Y950D02*
D03*
X14376Y2141D02*
D03*
X14084Y1521D02*
D03*
X14526Y1575D02*
D03*
X12626Y1788D02*
D03*
X13526Y2817D02*
D03*
X13984Y848D02*
D03*
X14722Y1917D02*
D03*
X13843Y1090D02*
D03*
X13713Y1831D02*
D03*
X14087Y1242D02*
D03*
X13713Y1514D02*
D03*
X14576Y1819D02*
D03*
X14532Y1941D02*
D03*
X14646Y2454D02*
D03*
X14963Y1900D02*
D03*
X15326Y1140D02*
D03*
X13548Y2576D02*
D03*
X13711Y2497D02*
D03*
X14130Y2147D02*
D03*
X14983Y1463D02*
D03*
X15163Y2113D02*
D03*
X15329Y2060D02*
D03*
X14773Y1477D02*
D03*
X13945Y2549D02*
D03*
X13955Y645D02*
D03*
X14689Y2591D02*
D03*
X14935Y991D02*
D03*
X15133Y1288D02*
D03*
X12964Y2811D02*
D03*
X14079Y2350D02*
D03*
X13124Y2177D02*
D03*
X15834Y822D02*
D03*
X15430Y2467D02*
D03*
X12855Y1388D02*
D03*
X12821Y1829D02*
D03*
X14005Y3104D02*
D03*
D67*
X15240Y699D02*
D03*
Y978D02*
D03*
D68*
X15032Y1297D02*
D03*
X14982D02*
D03*
X14932D02*
D03*
X14882D02*
D03*
X14832D02*
D03*
X14782D02*
D03*
X14732D02*
D03*
X14682D02*
D03*
X14632D02*
D03*
X14582D02*
D03*
X14532D02*
D03*
X14482D02*
D03*
Y2107D02*
D03*
X14532D02*
D03*
X14582D02*
D03*
X14632D02*
D03*
X14682D02*
D03*
X14732D02*
D03*
X14782D02*
D03*
X14832D02*
D03*
X14882D02*
D03*
X14932D02*
D03*
X14982D02*
D03*
X15032D02*
D03*
D69*
X14352Y1427D02*
D03*
Y1477D02*
D03*
Y1527D02*
D03*
Y1577D02*
D03*
Y1627D02*
D03*
Y1677D02*
D03*
Y1727D02*
D03*
Y1777D02*
D03*
Y1827D02*
D03*
Y1877D02*
D03*
Y1927D02*
D03*
Y1977D02*
D03*
X15162D02*
D03*
Y1927D02*
D03*
Y1877D02*
D03*
Y1827D02*
D03*
Y1777D02*
D03*
Y1727D02*
D03*
Y1677D02*
D03*
Y1627D02*
D03*
Y1577D02*
D03*
Y1527D02*
D03*
Y1477D02*
D03*
Y1427D02*
D03*
D70*
X13945Y2362D02*
D03*
Y1212D02*
D03*
D71*
X13695Y1237D02*
D03*
X13575D02*
D03*
X13455D02*
D03*
X13335D02*
D03*
X13215D02*
D03*
X13095D02*
D03*
X12975D02*
D03*
X12855D02*
D03*
Y2337D02*
D03*
X12975D02*
D03*
X13095D02*
D03*
X13215D02*
D03*
X13335D02*
D03*
X13455D02*
D03*
X13575D02*
D03*
X13695D02*
D03*
D72*
X13920Y1487D02*
D03*
Y1607D02*
D03*
Y1727D02*
D03*
Y1847D02*
D03*
Y1967D02*
D03*
Y2087D02*
D03*
D73*
X12675Y1292D02*
D03*
Y2282D02*
D03*
D74*
X13845Y1292D02*
D03*
Y2282D02*
D03*
M02*
