G04 Layer_Color=255*
%FSLAX42Y42*%
%MOMM*%
G71*
G01*
G75*
%ADD10R,0.60X0.50*%
%ADD11O,0.60X2.20*%
%ADD12R,0.50X0.30*%
%ADD13R,0.50X0.60*%
%ADD14R,5.70X5.50*%
%ADD15R,1.60X1.00*%
%ADD16R,1.50X0.60*%
%ADD18R,1.50X1.50*%
%ADD19C,1.50*%
%ADD20R,2.00X2.00*%
%ADD21C,2.00*%
%ADD22C,1.40*%
%ADD23P,1.52X8X112.5*%
%ADD24R,1.85X1.85*%
%ADD25C,1.85*%
D10*
X3227Y1118D02*
D03*
X3327D02*
D03*
X1600Y813D02*
D03*
X1500D02*
D03*
X558Y1981D02*
D03*
X458D02*
D03*
X355D02*
D03*
X255D02*
D03*
X1804Y3099D02*
D03*
X1904D02*
D03*
X2261Y2667D02*
D03*
X2361D02*
D03*
X433Y2845D02*
D03*
X533D02*
D03*
X1701Y3099D02*
D03*
X1601D02*
D03*
X2158Y2667D02*
D03*
X2058D02*
D03*
X763Y2819D02*
D03*
X863D02*
D03*
D11*
X292Y2173D02*
D03*
X419D02*
D03*
X546D02*
D03*
X673D02*
D03*
X292Y2653D02*
D03*
X419D02*
D03*
X546D02*
D03*
X673D02*
D03*
D12*
X1413Y3099D02*
D03*
X1483D02*
D03*
D13*
X2007Y2464D02*
D03*
Y2564D02*
D03*
D14*
X2921Y1829D02*
D03*
D15*
X2181Y1600D02*
D03*
Y2057D02*
D03*
D16*
X1638Y2489D02*
D03*
X1868Y2584D02*
D03*
Y2394D02*
D03*
D18*
X2358Y660D02*
D03*
X1803Y305D02*
D03*
X1092Y3302D02*
D03*
D19*
X2612Y660D02*
D03*
X2866D02*
D03*
X3120D02*
D03*
X3374D02*
D03*
X1295Y305D02*
D03*
X1549D02*
D03*
X1346Y3302D02*
D03*
X1600D02*
D03*
X1854D02*
D03*
D20*
X1194Y2896D02*
D03*
D21*
X2240D02*
D03*
D22*
X432Y1641D02*
D03*
D23*
Y1153D02*
D03*
D24*
X3327Y940D02*
D03*
X1803Y610D02*
D03*
D25*
X2819Y940D02*
D03*
X1295Y610D02*
D03*
M02*
