G04 Layer_Color=16711935*
%FSLAX42Y42*%
%MOMM*%
G71*
G01*
G75*
%ADD39R,0.80X0.70*%
%ADD42R,0.70X0.80*%
%ADD46R,1.70X1.70*%
%ADD47C,1.70*%
%ADD48R,2.20X2.20*%
%ADD49C,2.20*%
%ADD50C,1.60*%
%ADD51P,1.74X8X112.5*%
%ADD52R,2.05X2.05*%
%ADD53C,2.05*%
%ADD54C,1.47*%
%ADD55O,1.60X1.20*%
%ADD56O,1.80X1.20*%
%ADD57R,1.70X1.00*%
%ADD58R,1.00X1.70*%
%ADD59C,1.40*%
%ADD60O,2.00X0.50*%
%ADD61O,0.50X2.00*%
%ADD62R,2.00X1.20*%
D39*
X1550Y2286D02*
D03*
X1650D02*
D03*
X1117Y1118D02*
D03*
X1017D02*
D03*
X1319D02*
D03*
X1219D02*
D03*
X3125Y2642D02*
D03*
X3225D02*
D03*
D42*
X1981Y2286D02*
D03*
Y2186D02*
D03*
Y1878D02*
D03*
Y1778D02*
D03*
Y1524D02*
D03*
Y1624D02*
D03*
Y2387D02*
D03*
Y2487D02*
D03*
Y1982D02*
D03*
Y2082D02*
D03*
X127Y1091D02*
D03*
Y991D02*
D03*
Y1626D02*
D03*
Y1726D02*
D03*
X1041Y888D02*
D03*
Y788D02*
D03*
X1981Y1421D02*
D03*
Y1321D02*
D03*
X762Y1752D02*
D03*
Y1652D02*
D03*
D46*
X2358Y660D02*
D03*
X1803Y305D02*
D03*
X1092Y3302D02*
D03*
D47*
X2612Y660D02*
D03*
X2866D02*
D03*
X3120D02*
D03*
X3374D02*
D03*
X1295Y305D02*
D03*
X1549D02*
D03*
X1346Y3302D02*
D03*
X1600D02*
D03*
X1854D02*
D03*
D48*
X1194Y2896D02*
D03*
D49*
X2240D02*
D03*
D50*
X432Y1641D02*
D03*
D51*
Y1153D02*
D03*
D52*
X3327Y940D02*
D03*
X1803Y610D02*
D03*
D53*
X2819Y940D02*
D03*
X1295Y610D02*
D03*
D54*
X338Y1882D02*
D03*
X424Y2438D02*
D03*
X1753Y2281D02*
D03*
X1415Y1933D02*
D03*
X2347Y1580D02*
D03*
X155Y2316D02*
D03*
X1643Y2603D02*
D03*
X1420Y2311D02*
D03*
X2466Y1824D02*
D03*
X2517Y1994D02*
D03*
X1521Y1573D02*
D03*
X1136Y1712D02*
D03*
X724Y1977D02*
D03*
X1783Y1306D02*
D03*
X1875Y2080D02*
D03*
X914Y1339D02*
D03*
X1918Y2761D02*
D03*
D55*
X2233Y2408D02*
D03*
Y1418D02*
D03*
D56*
X3403Y2408D02*
D03*
Y1418D02*
D03*
D57*
X2158Y2213D02*
D03*
Y2093D02*
D03*
Y1973D02*
D03*
Y1853D02*
D03*
Y1733D02*
D03*
Y1613D02*
D03*
D58*
X2383Y2463D02*
D03*
X2503D02*
D03*
X2623D02*
D03*
X2743D02*
D03*
X2863D02*
D03*
X2983D02*
D03*
X3103D02*
D03*
X3223D02*
D03*
Y1363D02*
D03*
X3103D02*
D03*
X2983D02*
D03*
X2863D02*
D03*
X2743D02*
D03*
X2623D02*
D03*
X2503D02*
D03*
X2383D02*
D03*
D59*
X2133Y1338D02*
D03*
Y2488D02*
D03*
D60*
X941Y1427D02*
D03*
Y1477D02*
D03*
Y1527D02*
D03*
Y1577D02*
D03*
Y1627D02*
D03*
Y1677D02*
D03*
Y1727D02*
D03*
Y1777D02*
D03*
Y1827D02*
D03*
Y1877D02*
D03*
Y1927D02*
D03*
Y1977D02*
D03*
X1751D02*
D03*
Y1927D02*
D03*
Y1877D02*
D03*
Y1827D02*
D03*
Y1777D02*
D03*
Y1727D02*
D03*
Y1677D02*
D03*
Y1627D02*
D03*
Y1577D02*
D03*
Y1527D02*
D03*
Y1477D02*
D03*
Y1427D02*
D03*
D61*
X1071Y2107D02*
D03*
X1121D02*
D03*
X1171D02*
D03*
X1221D02*
D03*
X1271D02*
D03*
X1321D02*
D03*
X1371D02*
D03*
X1421D02*
D03*
X1471D02*
D03*
X1521D02*
D03*
X1571D02*
D03*
X1621D02*
D03*
Y1297D02*
D03*
X1571D02*
D03*
X1521D02*
D03*
X1471D02*
D03*
X1421D02*
D03*
X1371D02*
D03*
X1321D02*
D03*
X1271D02*
D03*
X1221D02*
D03*
X1171D02*
D03*
X1121D02*
D03*
X1071D02*
D03*
D62*
X864Y1054D02*
D03*
Y775D02*
D03*
M02*
