G04 Layer_Color=2752767*
%FSLAX42Y42*%
%MOMM*%
G71*
G01*
G75*
%ADD65C,0.05*%
%ADD68C,0.07*%
D65*
X1275Y589D02*
Y630D01*
X1316D01*
Y589D01*
X1275D01*
X1783D02*
Y630D01*
X1824D01*
Y589D01*
X1783D01*
X2799Y919D02*
Y960D01*
X2840D01*
Y919D01*
X2799D01*
X3307D02*
Y960D01*
X3348D01*
Y919D01*
X3307D01*
X2240Y2875D02*
X2219Y2916D01*
X2260D01*
X2240Y2875D01*
X1194D02*
X1173Y2916D01*
X1214D01*
X1194Y2875D01*
X1854Y3282D02*
X1864Y3292D01*
X1875D01*
X1864Y3302D01*
X1875Y3312D01*
X1864D01*
X1854Y3322D01*
X1844Y3312D01*
X1834D01*
X1844Y3302D01*
X1834Y3292D01*
X1844D01*
X1854Y3282D01*
X1600D02*
X1610Y3292D01*
X1621D01*
X1610Y3302D01*
X1621Y3312D01*
X1610D01*
X1600Y3322D01*
X1590Y3312D01*
X1580D01*
X1590Y3302D01*
X1580Y3292D01*
X1590D01*
X1600Y3282D01*
X1346D02*
X1356Y3292D01*
X1367D01*
X1356Y3302D01*
X1367Y3312D01*
X1356D01*
X1346Y3322D01*
X1336Y3312D01*
X1326D01*
X1336Y3302D01*
X1326Y3292D01*
X1336D01*
X1346Y3282D01*
X1092D02*
X1102Y3292D01*
X1113D01*
X1102Y3302D01*
X1113Y3312D01*
X1102D01*
X1092Y3322D01*
X1082Y3312D01*
X1072D01*
X1082Y3302D01*
X1072Y3292D01*
X1082D01*
X1092Y3282D01*
X1803Y284D02*
X1814Y295D01*
X1824D01*
X1814Y305D01*
X1824Y315D01*
X1814D01*
X1803Y325D01*
X1793Y315D01*
X1783D01*
X1793Y305D01*
X1783Y295D01*
X1793D01*
X1803Y284D01*
X1549D02*
X1560Y295D01*
X1570D01*
X1560Y305D01*
X1570Y315D01*
X1560D01*
X1549Y325D01*
X1539Y315D01*
X1529D01*
X1539Y305D01*
X1529Y295D01*
X1539D01*
X1549Y284D01*
X1295D02*
X1306Y295D01*
X1316D01*
X1306Y305D01*
X1316Y315D01*
X1306D01*
X1295Y325D01*
X1285Y315D01*
X1275D01*
X1285Y305D01*
X1275Y295D01*
X1285D01*
X1295Y284D01*
X3374Y640D02*
X3385Y650D01*
X3395D01*
X3385Y660D01*
X3395Y671D01*
X3385D01*
X3374Y681D01*
X3364Y671D01*
X3354D01*
X3364Y660D01*
X3354Y650D01*
X3364D01*
X3374Y640D01*
X3120D02*
X3131Y650D01*
X3141D01*
X3131Y660D01*
X3141Y671D01*
X3131D01*
X3120Y681D01*
X3110Y671D01*
X3100D01*
X3110Y660D01*
X3100Y650D01*
X3110D01*
X3120Y640D01*
X2866D02*
X2877Y650D01*
X2887D01*
X2877Y660D01*
X2887Y671D01*
X2877D01*
X2866Y681D01*
X2856Y671D01*
X2846D01*
X2856Y660D01*
X2846Y650D01*
X2856D01*
X2866Y640D01*
X2612D02*
X2623Y650D01*
X2633D01*
X2623Y660D01*
X2633Y671D01*
X2623D01*
X2612Y681D01*
X2602Y671D01*
X2592D01*
X2602Y660D01*
X2592Y650D01*
X2602D01*
X2612Y640D01*
X2358D02*
X2369Y650D01*
X2379D01*
X2369Y660D01*
X2379Y671D01*
X2369D01*
X2358Y681D01*
X2348Y671D01*
X2338D01*
X2348Y660D01*
X2338Y650D01*
X2348D01*
X2358Y640D01*
X1897Y2741D02*
X1908Y2761D01*
X1897Y2781D01*
X1918Y2771D01*
X1938Y2781D01*
X1928Y2761D01*
X1938Y2741D01*
X1918Y2751D01*
X1897Y2741D01*
X894Y1318D02*
X904Y1339D01*
X894Y1359D01*
X914Y1349D01*
X935Y1359D01*
X925Y1339D01*
X935Y1318D01*
X914Y1328D01*
X894Y1318D01*
X1854Y2060D02*
X1864Y2080D01*
X1854Y2101D01*
X1875Y2090D01*
X1895Y2101D01*
X1885Y2080D01*
X1895Y2060D01*
X1875Y2070D01*
X1854Y2060D01*
X1763Y1285D02*
X1773Y1306D01*
X1763Y1326D01*
X1783Y1316D01*
X1803Y1326D01*
X1793Y1306D01*
X1803Y1285D01*
X1783Y1295D01*
X1763Y1285D01*
X704Y1956D02*
X714Y1977D01*
X704Y1997D01*
X724Y1987D01*
X744Y1997D01*
X734Y1977D01*
X744Y1956D01*
X724Y1967D01*
X704Y1956D01*
X1115Y1692D02*
X1126Y1712D01*
X1115Y1733D01*
X1136Y1723D01*
X1156Y1733D01*
X1146Y1712D01*
X1156Y1692D01*
X1136Y1702D01*
X1115Y1692D01*
X1501Y1552D02*
X1511Y1573D01*
X1501Y1593D01*
X1521Y1583D01*
X1542Y1593D01*
X1531Y1573D01*
X1542Y1552D01*
X1521Y1562D01*
X1501Y1552D01*
X2497Y1974D02*
X2507Y1994D01*
X2497Y2014D01*
X2517Y2004D01*
X2537Y2014D01*
X2527Y1994D01*
X2537Y1974D01*
X2517Y1984D01*
X2497Y1974D01*
X2446Y1803D02*
X2456Y1824D01*
X2446Y1844D01*
X2466Y1834D01*
X2487Y1844D01*
X2476Y1824D01*
X2487Y1803D01*
X2466Y1814D01*
X2446Y1803D01*
X1400Y2291D02*
X1410Y2311D01*
X1400Y2332D01*
X1420Y2322D01*
X1440Y2332D01*
X1430Y2311D01*
X1440Y2291D01*
X1420Y2301D01*
X1400Y2291D01*
X1623Y2583D02*
X1633Y2603D01*
X1623Y2624D01*
X1643Y2614D01*
X1664Y2624D01*
X1654Y2603D01*
X1664Y2583D01*
X1643Y2593D01*
X1623Y2583D01*
X135Y2296D02*
X145Y2316D01*
X135Y2337D01*
X155Y2327D01*
X175Y2337D01*
X165Y2316D01*
X175Y2296D01*
X155Y2306D01*
X135Y2296D01*
X2327Y1560D02*
X2337Y1580D01*
X2327Y1600D01*
X2347Y1590D01*
X2367Y1600D01*
X2357Y1580D01*
X2367Y1560D01*
X2347Y1570D01*
X2327Y1560D01*
X1394Y1913D02*
X1405Y1933D01*
X1394Y1953D01*
X1415Y1943D01*
X1435Y1953D01*
X1425Y1933D01*
X1435Y1913D01*
X1415Y1923D01*
X1394Y1913D01*
X1732Y2261D02*
X1742Y2281D01*
X1732Y2301D01*
X1753Y2291D01*
X1773Y2301D01*
X1763Y2281D01*
X1773Y2261D01*
X1753Y2271D01*
X1732Y2261D01*
X404Y2418D02*
X414Y2438D01*
X404Y2459D01*
X424Y2449D01*
X445Y2459D01*
X434Y2438D01*
X445Y2418D01*
X424Y2428D01*
X404Y2418D01*
X317Y1862D02*
X328Y1882D01*
X317Y1902D01*
X338Y1892D01*
X358Y1902D01*
X348Y1882D01*
X358Y1862D01*
X338Y1872D01*
X317Y1862D01*
D68*
X452Y1153D02*
G03*
X452Y1153I-20J0D01*
G01*
Y1641D02*
G03*
X452Y1641I-20J0D01*
G01*
M02*
