G04 Layer_Color=16711935*
%FSLAX42Y42*%
%MOMM*%
G71*
G01*
G75*
%ADD41R,0.80X0.70*%
%ADD42R,0.70X0.80*%
%ADD45C,2.05*%
%ADD46R,2.05X2.05*%
%ADD47P,1.74X8X112.5*%
%ADD48C,1.60*%
%ADD49C,2.20*%
%ADD50R,2.20X2.20*%
%ADD51C,1.70*%
%ADD52R,1.70X1.70*%
%ADD53C,1.47*%
%ADD54R,2.00X1.20*%
%ADD55O,0.50X2.00*%
%ADD56O,2.00X0.50*%
%ADD57C,1.40*%
%ADD58R,1.00X1.70*%
%ADD59R,1.70X1.00*%
%ADD60O,1.80X1.20*%
%ADD61O,1.60X1.20*%
D41*
X3225Y2642D02*
D03*
X3125D02*
D03*
X1219Y1118D02*
D03*
X1319D02*
D03*
X1017D02*
D03*
X1117D02*
D03*
X1650Y2286D02*
D03*
X1550D02*
D03*
D42*
X762Y1652D02*
D03*
Y1752D02*
D03*
X1981Y1321D02*
D03*
Y1421D02*
D03*
X1041Y788D02*
D03*
Y888D02*
D03*
X127Y1726D02*
D03*
Y1626D02*
D03*
Y991D02*
D03*
Y1091D02*
D03*
X1981Y2082D02*
D03*
Y1982D02*
D03*
Y2487D02*
D03*
Y2387D02*
D03*
Y1624D02*
D03*
Y1524D02*
D03*
Y1778D02*
D03*
Y1878D02*
D03*
Y2186D02*
D03*
Y2286D02*
D03*
D45*
X1295Y610D02*
D03*
X2819Y940D02*
D03*
D46*
X1803Y610D02*
D03*
X3327Y940D02*
D03*
D47*
X432Y1153D02*
D03*
D48*
Y1641D02*
D03*
D49*
X2240Y2896D02*
D03*
D50*
X1194D02*
D03*
D51*
X1854Y3302D02*
D03*
X1600D02*
D03*
X1346D02*
D03*
X1549Y305D02*
D03*
X1295D02*
D03*
X3374Y660D02*
D03*
X3120D02*
D03*
X2866D02*
D03*
X2612D02*
D03*
D52*
X1092Y3302D02*
D03*
X1803Y305D02*
D03*
X2358Y660D02*
D03*
D53*
X1918Y2761D02*
D03*
X914Y1339D02*
D03*
X1875Y2080D02*
D03*
X1783Y1306D02*
D03*
X724Y1977D02*
D03*
X1136Y1712D02*
D03*
X1521Y1573D02*
D03*
X2517Y1994D02*
D03*
X2466Y1824D02*
D03*
X1420Y2311D02*
D03*
X1643Y2603D02*
D03*
X155Y2316D02*
D03*
X2347Y1580D02*
D03*
X1415Y1933D02*
D03*
X1753Y2281D02*
D03*
X424Y2438D02*
D03*
X338Y1882D02*
D03*
D54*
X864Y775D02*
D03*
Y1054D02*
D03*
D55*
X1071Y1297D02*
D03*
X1121D02*
D03*
X1171D02*
D03*
X1221D02*
D03*
X1271D02*
D03*
X1321D02*
D03*
X1371D02*
D03*
X1421D02*
D03*
X1471D02*
D03*
X1521D02*
D03*
X1571D02*
D03*
X1621D02*
D03*
Y2107D02*
D03*
X1571D02*
D03*
X1521D02*
D03*
X1471D02*
D03*
X1421D02*
D03*
X1371D02*
D03*
X1321D02*
D03*
X1271D02*
D03*
X1221D02*
D03*
X1171D02*
D03*
X1121D02*
D03*
X1071D02*
D03*
D56*
X1751Y1427D02*
D03*
Y1477D02*
D03*
Y1527D02*
D03*
Y1577D02*
D03*
Y1627D02*
D03*
Y1677D02*
D03*
Y1727D02*
D03*
Y1777D02*
D03*
Y1827D02*
D03*
Y1877D02*
D03*
Y1927D02*
D03*
Y1977D02*
D03*
X941D02*
D03*
Y1927D02*
D03*
Y1877D02*
D03*
Y1827D02*
D03*
Y1777D02*
D03*
Y1727D02*
D03*
Y1677D02*
D03*
Y1627D02*
D03*
Y1577D02*
D03*
Y1527D02*
D03*
Y1477D02*
D03*
Y1427D02*
D03*
D57*
X2135Y2490D02*
D03*
Y1340D02*
D03*
D58*
X2385Y1365D02*
D03*
X2505D02*
D03*
X2625D02*
D03*
X2745D02*
D03*
X2865D02*
D03*
X2985D02*
D03*
X3105D02*
D03*
X3225D02*
D03*
Y2465D02*
D03*
X3105D02*
D03*
X2985D02*
D03*
X2865D02*
D03*
X2745D02*
D03*
X2625D02*
D03*
X2505D02*
D03*
X2385D02*
D03*
D59*
X2160Y1615D02*
D03*
Y1735D02*
D03*
Y1855D02*
D03*
Y1975D02*
D03*
Y2095D02*
D03*
Y2215D02*
D03*
D60*
X3405Y1420D02*
D03*
Y2410D02*
D03*
D61*
X2235Y1420D02*
D03*
Y2410D02*
D03*
M02*
