G04 Layer_Color=255*
%FSLAX42Y42*%
%MOMM*%
G71*
G01*
G75*
%ADD10R,1.50X0.60*%
%ADD11R,1.60X1.00*%
%ADD12R,5.70X5.50*%
%ADD13R,0.60X0.50*%
%ADD14R,0.50X0.60*%
%ADD15R,0.50X0.30*%
%ADD16O,0.60X2.20*%
%ADD18C,1.85*%
%ADD19R,1.85X1.85*%
%ADD20P,1.52X8X112.5*%
%ADD21C,1.40*%
%ADD22C,2.00*%
%ADD23R,2.00X2.00*%
%ADD24C,1.50*%
%ADD25R,1.50X1.50*%
D10*
X1868Y2394D02*
D03*
Y2584D02*
D03*
X1638Y2489D02*
D03*
D11*
X2181Y2057D02*
D03*
Y1600D02*
D03*
D12*
X2921Y1829D02*
D03*
D13*
X863Y2819D02*
D03*
X763D02*
D03*
X2058Y2667D02*
D03*
X2158D02*
D03*
X1601Y3099D02*
D03*
X1701D02*
D03*
X533Y2845D02*
D03*
X433D02*
D03*
X2361Y2667D02*
D03*
X2261D02*
D03*
X1904Y3099D02*
D03*
X1804D02*
D03*
X255Y1981D02*
D03*
X355D02*
D03*
X458D02*
D03*
X558D02*
D03*
X1500Y813D02*
D03*
X1600D02*
D03*
X3327Y1118D02*
D03*
X3227D02*
D03*
D14*
X2007Y2564D02*
D03*
Y2464D02*
D03*
D15*
X1483Y3099D02*
D03*
X1413D02*
D03*
D16*
X673Y2653D02*
D03*
X546D02*
D03*
X419D02*
D03*
X292D02*
D03*
X673Y2173D02*
D03*
X546D02*
D03*
X419D02*
D03*
X292D02*
D03*
D18*
X1295Y610D02*
D03*
X2819Y940D02*
D03*
D19*
X1803Y610D02*
D03*
X3327Y940D02*
D03*
D20*
X432Y1153D02*
D03*
D21*
Y1641D02*
D03*
D22*
X2240Y2896D02*
D03*
D23*
X1194D02*
D03*
D24*
X1854Y3302D02*
D03*
X1600D02*
D03*
X1346D02*
D03*
X1549Y305D02*
D03*
X1295D02*
D03*
X3374Y660D02*
D03*
X3120D02*
D03*
X2866D02*
D03*
X2612D02*
D03*
D25*
X1092Y3302D02*
D03*
X1803Y305D02*
D03*
X2358Y660D02*
D03*
M02*
