G04 Layer_Color=65535*
%FSLAX42Y42*%
%MOMM*%
G71*
G01*
G75*
%ADD17C,0.25*%
%ADD36C,0.25*%
%ADD37C,0.20*%
%ADD38R,0.80X2.80*%
D17*
X1557Y2903D02*
Y2776D01*
X1582Y2751D01*
X1633D01*
X1659Y2776D01*
Y2903D01*
X1811D02*
X1709D01*
Y2827D01*
X1760Y2852D01*
X1786D01*
X1811Y2827D01*
Y2776D01*
X1786Y2751D01*
X1735D01*
X1709Y2776D01*
X2116Y2375D02*
Y2248D01*
X2141Y2223D01*
X2192D01*
X2217Y2248D01*
Y2375D01*
X2344Y2223D02*
Y2375D01*
X2268Y2299D01*
X2370D01*
X208Y3023D02*
Y2896D01*
X234Y2870D01*
X284D01*
X310Y2896D01*
Y3023D01*
X361Y2997D02*
X386Y3023D01*
X437D01*
X462Y2997D01*
Y2972D01*
X437Y2946D01*
X411D01*
X437D01*
X462Y2921D01*
Y2896D01*
X437Y2870D01*
X386D01*
X361Y2896D01*
X2763Y1280D02*
X2738Y1306D01*
X2687D01*
X2662Y1280D01*
Y1255D01*
X2687Y1229D01*
X2738D01*
X2763Y1204D01*
Y1179D01*
X2738Y1153D01*
X2687D01*
X2662Y1179D01*
X2814Y1153D02*
X2865D01*
X2840D01*
Y1306D01*
X2814Y1280D01*
X439Y2098D02*
Y2250D01*
X516D01*
X541Y2225D01*
Y2174D01*
X516Y2149D01*
X439D01*
X490D02*
X541Y2098D01*
X592Y2123D02*
X617Y2098D01*
X668D01*
X693Y2123D01*
Y2225D01*
X668Y2250D01*
X617D01*
X592Y2225D01*
Y2200D01*
X617Y2174D01*
X693D01*
X236Y2098D02*
Y2250D01*
X312D01*
X338Y2225D01*
Y2174D01*
X312Y2149D01*
X236D01*
X287D02*
X338Y2098D01*
X389Y2225D02*
X414Y2250D01*
X465D01*
X490Y2225D01*
Y2200D01*
X465Y2174D01*
X490Y2149D01*
Y2123D01*
X465Y2098D01*
X414D01*
X389Y2123D01*
Y2149D01*
X414Y2174D01*
X389Y2200D01*
Y2225D01*
X414Y2174D02*
X465D01*
X413Y2960D02*
Y3113D01*
X489D01*
X514Y3087D01*
Y3037D01*
X489Y3011D01*
X413D01*
X464D02*
X514Y2960D01*
X565Y3113D02*
X667D01*
Y3087D01*
X565Y2986D01*
Y2960D01*
X2040Y2784D02*
Y2936D01*
X2116D01*
X2141Y2911D01*
Y2860D01*
X2116Y2835D01*
X2040D01*
X2090D02*
X2141Y2784D01*
X2294Y2936D02*
X2192D01*
Y2860D01*
X2243Y2885D01*
X2268D01*
X2294Y2860D01*
Y2809D01*
X2268Y2784D01*
X2217D01*
X2192Y2809D01*
X1582Y3216D02*
Y3368D01*
X1659D01*
X1684Y3343D01*
Y3292D01*
X1659Y3266D01*
X1582D01*
X1633D02*
X1684Y3216D01*
X1811D02*
Y3368D01*
X1735Y3292D01*
X1836D01*
X1184Y518D02*
Y671D01*
X1260D01*
X1285Y645D01*
Y594D01*
X1260Y569D01*
X1184D01*
X1412Y518D02*
Y671D01*
X1336Y594D01*
X1438D01*
X2247Y874D02*
Y1026D01*
X2323D01*
X2348Y1001D01*
Y950D01*
X2323Y925D01*
X2247D01*
X2399Y1001D02*
X2424Y1026D01*
X2475D01*
X2501Y1001D01*
Y975D01*
X2475Y950D01*
X2450D01*
X2475D01*
X2501Y925D01*
Y899D01*
X2475Y874D01*
X2424D01*
X2399Y899D01*
X980Y3515D02*
Y3668D01*
X1057D01*
X1082Y3642D01*
Y3592D01*
X1057Y3566D01*
X980D01*
X1133Y3515D02*
X1184D01*
X1158D01*
Y3668D01*
X1133Y3642D01*
X1107Y3274D02*
Y3122D01*
X1183D01*
X1209Y3147D01*
Y3249D01*
X1183Y3274D01*
X1107D01*
X1260Y3249D02*
X1285Y3274D01*
X1336D01*
X1361Y3249D01*
Y3223D01*
X1336Y3198D01*
X1361Y3172D01*
Y3147D01*
X1336Y3122D01*
X1285D01*
X1260Y3147D01*
Y3172D01*
X1285Y3198D01*
X1260Y3223D01*
Y3249D01*
X1285Y3198D02*
X1336D01*
X2242Y2935D02*
Y2783D01*
X2318D01*
X2343Y2808D01*
Y2910D01*
X2318Y2935D01*
X2242D01*
X2495D02*
X2394D01*
Y2859D01*
X2445Y2884D01*
X2470D01*
X2495Y2859D01*
Y2808D01*
X2470Y2783D01*
X2419D01*
X2394Y2808D01*
X1784Y3367D02*
Y3214D01*
X1861D01*
X1886Y3240D01*
Y3341D01*
X1861Y3367D01*
X1784D01*
X2013Y3214D02*
Y3367D01*
X1937Y3291D01*
X2038D01*
X1239Y950D02*
X1214Y975D01*
X1163D01*
X1138Y950D01*
Y848D01*
X1163Y823D01*
X1214D01*
X1239Y848D01*
X1290Y975D02*
Y823D01*
X1366D01*
X1391Y848D01*
Y874D01*
X1366Y899D01*
X1290D01*
X1366D01*
X1391Y925D01*
Y950D01*
X1366Y975D01*
X1290D01*
X1442Y823D02*
X1493D01*
X1468D01*
Y975D01*
X1442Y950D01*
X1583Y1057D02*
X1558Y1082D01*
X1507D01*
X1482Y1057D01*
Y955D01*
X1507Y930D01*
X1558D01*
X1583Y955D01*
X1634Y930D02*
X1685D01*
X1659D01*
Y1082D01*
X1634Y1057D01*
X1862Y930D02*
X1761D01*
X1862Y1031D01*
Y1057D01*
X1837Y1082D01*
X1786D01*
X1761Y1057D01*
X3310Y1361D02*
X3284Y1387D01*
X3233D01*
X3208Y1361D01*
Y1260D01*
X3233Y1234D01*
X3284D01*
X3310Y1260D01*
X3462Y1387D02*
X3411Y1361D01*
X3360Y1311D01*
Y1260D01*
X3386Y1234D01*
X3437D01*
X3462Y1260D01*
Y1285D01*
X3437Y1311D01*
X3360D01*
X1499Y3332D02*
X1473Y3358D01*
X1422D01*
X1397Y3332D01*
Y3231D01*
X1422Y3205D01*
X1473D01*
X1499Y3231D01*
X1549Y3332D02*
X1575Y3358D01*
X1626D01*
X1651Y3332D01*
Y3307D01*
X1626Y3282D01*
X1600D01*
X1626D01*
X1651Y3256D01*
Y3231D01*
X1626Y3205D01*
X1575D01*
X1549Y3231D01*
X2093Y2812D02*
X2068Y2837D01*
X2017D01*
X1991Y2812D01*
Y2710D01*
X2017Y2685D01*
X2068D01*
X2093Y2710D01*
X2245Y2685D02*
X2144D01*
X2245Y2786D01*
Y2812D01*
X2220Y2837D01*
X2169D01*
X2144Y2812D01*
X844Y3063D02*
X819Y3089D01*
X768D01*
X742Y3063D01*
Y2962D01*
X768Y2936D01*
X819D01*
X844Y2962D01*
X895Y2936D02*
X946D01*
X920D01*
Y3089D01*
X895Y3063D01*
D36*
X2038Y610D02*
G03*
X2038Y610I-12J0D01*
G01*
X3562Y940D02*
G03*
X3562Y940I-12J0D01*
G01*
X1880Y2309D02*
G03*
X1880Y2309I-12J0D01*
G01*
X2328Y2057D02*
G03*
X2328Y2057I-12J0D01*
G01*
X220Y2173D02*
G03*
X220Y2173I-12J0D01*
G01*
D37*
X1977Y483D02*
Y737D01*
X1121D02*
X1977D01*
X1121Y483D02*
Y737D01*
Y483D02*
X1977D01*
X3501Y813D02*
Y1067D01*
X2645D02*
X3501D01*
X2645Y813D02*
Y1067D01*
Y813D02*
X3501D01*
X1668Y2334D02*
X1758D01*
X1668D02*
Y2419D01*
Y2644D02*
X1758D01*
X1668Y2559D02*
Y2644D01*
X2111Y1520D02*
X3196D01*
X2111Y2137D02*
X3196D01*
X1982Y2756D02*
Y3036D01*
X1452Y2756D02*
X1982D01*
X1452Y3036D02*
X1982D01*
X965Y3175D02*
Y3429D01*
X1981D01*
X965Y3175D02*
X1981D01*
Y3429D01*
X1538Y3094D02*
Y3104D01*
X733Y2323D02*
Y2503D01*
X233Y2323D02*
Y2503D01*
X733D01*
X233Y2323D02*
X733D01*
X1168Y432D02*
X1930D01*
X1168Y178D02*
Y432D01*
Y178D02*
X1930D01*
Y432D01*
X2231Y533D02*
Y787D01*
X3501D01*
X2231Y533D02*
X3501D01*
Y787D01*
D38*
X1482Y2896D02*
D03*
M02*
