G04 Layer_Color=128*
%FSLAX42Y42*%
%MOMM*%
G71*
G01*
G75*
%ADD65C,0.05*%
D65*
X1240Y610D02*
X1350D01*
X1295Y555D02*
Y665D01*
X1748Y610D02*
X1858D01*
X1803Y555D02*
Y665D01*
X2764Y940D02*
X2874D01*
X2819Y885D02*
Y995D01*
X3272Y940D02*
X3382D01*
X3327Y885D02*
Y995D01*
X392Y1153D02*
X472D01*
X432Y1113D02*
Y1193D01*
X392Y1641D02*
X472D01*
X432Y1601D02*
Y1681D01*
X2180Y2896D02*
X2300D01*
X2240Y2836D02*
Y2956D01*
X1134Y2896D02*
X1254D01*
X1194Y2836D02*
Y2956D01*
X1809Y3302D02*
X1899D01*
X1854Y3257D02*
Y3347D01*
X1555Y3302D02*
X1645D01*
X1600Y3257D02*
Y3347D01*
X1301Y3302D02*
X1391D01*
X1346Y3257D02*
Y3347D01*
X1047Y3302D02*
X1137D01*
X1092Y3257D02*
Y3347D01*
X1758Y305D02*
X1848D01*
X1803Y260D02*
Y350D01*
X1504Y305D02*
X1594D01*
X1549Y260D02*
Y350D01*
X1250Y305D02*
X1340D01*
X1295Y260D02*
Y350D01*
X3329Y660D02*
X3419D01*
X3374Y615D02*
Y705D01*
X3075Y660D02*
X3165D01*
X3120Y615D02*
Y705D01*
X2821Y660D02*
X2911D01*
X2866Y615D02*
Y705D01*
X2567Y660D02*
X2657D01*
X2612Y615D02*
Y705D01*
X2313Y660D02*
X2403D01*
X2358Y615D02*
Y705D01*
X1882Y2761D02*
X1953D01*
X1918Y2725D02*
Y2797D01*
X879Y1339D02*
X950D01*
X914Y1303D02*
Y1374D01*
X1839Y2080D02*
X1910D01*
X1875Y2045D02*
Y2116D01*
X1748Y1306D02*
X1819D01*
X1783Y1270D02*
Y1341D01*
X688Y1977D02*
X759D01*
X724Y1941D02*
Y2012D01*
X1100Y1712D02*
X1171D01*
X1136Y1677D02*
Y1748D01*
X1486Y1573D02*
X1557D01*
X1521Y1537D02*
Y1608D01*
X2482Y1994D02*
X2553D01*
X2517Y1958D02*
Y2029D01*
X2431Y1824D02*
X2502D01*
X2466Y1788D02*
Y1859D01*
X1385Y2311D02*
X1456D01*
X1420Y2276D02*
Y2347D01*
X1608Y2603D02*
X1679D01*
X1643Y2568D02*
Y2639D01*
X119Y2316D02*
X190D01*
X155Y2281D02*
Y2352D01*
X2311Y1580D02*
X2383D01*
X2347Y1544D02*
Y1615D01*
X1379Y1933D02*
X1450D01*
X1415Y1897D02*
Y1968D01*
X1717Y2281D02*
X1788D01*
X1753Y2245D02*
Y2316D01*
X389Y2438D02*
X460D01*
X424Y2403D02*
Y2474D01*
X302Y1882D02*
X373D01*
X338Y1847D02*
Y1918D01*
M02*
