G04 Layer_Physical_Order=1*
G04 Layer_Color=255*
%FSLAX42Y42*%
%MOMM*%
%TF.FileFunction,Copper,L1,Top,Signal*%
%TF.Part,Single*%
G01*
G75*
%TA.AperFunction,SMDPad,CuDef*%
%ADD10R,1.50X0.60*%
%ADD11R,1.60X1.00*%
%ADD12R,5.70X5.50*%
%ADD13R,0.60X0.50*%
%ADD14R,0.50X0.60*%
%ADD15R,0.50X0.30*%
%ADD16O,0.60X2.20*%
%TA.AperFunction,Conductor*%
%ADD17C,0.25*%
%TA.AperFunction,ComponentPad*%
%ADD18C,1.85*%
%ADD19R,1.85X1.85*%
G04:AMPARAMS|DCode=20|XSize=1.4mm|YSize=1.4mm|CornerRadius=0mm|HoleSize=0mm|Usage=FLASHONLY|Rotation=90.000|XOffset=0mm|YOffset=0mm|HoleType=Round|Shape=Octagon|*
%AMOCTAGOND20*
4,1,8,0.35,0.70,-0.35,0.70,-0.70,0.35,-0.70,-0.35,-0.35,-0.70,0.35,-0.70,0.70,-0.35,0.70,0.35,0.35,0.70,0.0*
%
%ADD20OCTAGOND20*%

%ADD21C,1.40*%
%ADD22C,2.00*%
%ADD23R,2.00X2.00*%
%ADD24C,1.50*%
%ADD25R,1.50X1.50*%
%TA.AperFunction,ViaPad*%
%ADD26C,1.27*%
D10*
X1868Y2394D02*
D03*
Y2584D02*
D03*
X1638Y2489D02*
D03*
D11*
X2181Y2057D02*
D03*
Y1600D02*
D03*
D12*
X2921Y1829D02*
D03*
D13*
X863Y2819D02*
D03*
X763D02*
D03*
X2058Y2667D02*
D03*
X2158D02*
D03*
X1601Y3099D02*
D03*
X1701D02*
D03*
X533Y2845D02*
D03*
X433D02*
D03*
X2361Y2667D02*
D03*
X2261D02*
D03*
X1904Y3099D02*
D03*
X1804D02*
D03*
X255Y1981D02*
D03*
X355D02*
D03*
X458D02*
D03*
X558D02*
D03*
X1500Y813D02*
D03*
X1600D02*
D03*
X3327Y1118D02*
D03*
X3227D02*
D03*
D14*
X2007Y2564D02*
D03*
Y2464D02*
D03*
D15*
X1483Y3099D02*
D03*
X1413D02*
D03*
D16*
X673Y2653D02*
D03*
X546D02*
D03*
X419D02*
D03*
X292D02*
D03*
X673Y2173D02*
D03*
X546D02*
D03*
X419D02*
D03*
X292D02*
D03*
D17*
X1868Y2584D02*
X1925D01*
X673Y2653D02*
Y2690D01*
X763Y2780D01*
Y2819D01*
X1900Y2394D02*
X1970Y2464D01*
X2007D01*
X1346Y3302D02*
X1600D01*
X546Y2653D02*
Y2741D01*
X533Y2754D02*
X546Y2741D01*
X533Y2754D02*
Y2845D01*
X419Y2653D02*
Y2741D01*
X433Y2754D01*
Y2845D01*
X1701Y3099D02*
X1804D01*
X2158Y2667D02*
X2261D01*
X356Y1981D02*
X458D01*
X255D02*
Y2057D01*
X292Y2095D01*
Y2173D01*
X1412Y3099D02*
X1413D01*
X1542Y3124D02*
Y3147D01*
Y3124D02*
X1567Y3099D01*
X1601D01*
X433Y2845D02*
Y2870D01*
X466Y2903D01*
X1049D01*
X1057Y2896D01*
X1194D01*
Y3023D02*
X1270Y3099D01*
X1194Y2896D02*
Y3023D01*
X2819Y940D02*
X2997D01*
X1295Y610D02*
Y737D01*
X1372Y813D01*
X1500D01*
X1600D02*
X2692D01*
X1918Y2761D02*
X2012Y2667D01*
X2058D01*
X1600Y508D02*
X1803Y305D01*
X1600Y508D02*
Y813D01*
X1500D02*
Y1210D01*
X1372Y1339D02*
X1500Y1210D01*
X914Y1339D02*
X1372D01*
X1600Y1123D02*
X1783Y1306D01*
X673Y2028D02*
X724Y1977D01*
X673Y2028D02*
Y2173D01*
X3265Y551D02*
X3374Y660D01*
X2487Y551D02*
X3265D01*
X2115Y179D02*
X2487Y551D01*
X1727Y179D02*
X2115D01*
X1659Y248D02*
X1727Y179D01*
X1659Y248D02*
Y381D01*
X1557Y483D02*
X1659Y381D01*
X1146Y483D02*
X1557D01*
X818Y810D02*
X1146Y483D01*
X818Y810D02*
Y1394D01*
X1136Y1712D01*
X1521Y1573D02*
X1692Y1402D01*
X2466D01*
X2563Y1499D01*
Y1948D01*
X2517Y1994D02*
X2563Y1948D01*
X2466Y1507D02*
Y1824D01*
X2420Y1460D02*
X2466Y1507D01*
X2019Y1460D02*
X2420D01*
X1789Y1690D02*
X2019Y1460D01*
X1465Y1690D02*
X1789D01*
X1319Y1837D02*
X1465Y1690D01*
X1319Y1837D02*
Y2210D01*
X1420Y2311D01*
X1636Y2489D02*
X1638D01*
X1636Y2025D02*
X2060Y1600D01*
X2181D01*
X1237Y3132D02*
Y3378D01*
X1270Y3411D01*
X2025D01*
X2451Y2985D01*
Y2085D02*
Y2985D01*
X2423Y2057D02*
X2451Y2085D01*
X2181Y2057D02*
X2423D01*
X1481Y2906D02*
X1643Y2743D01*
Y2603D02*
Y2743D01*
X1481Y3099D02*
X1483D01*
X863Y2592D02*
Y2819D01*
Y2592D02*
X965Y2489D01*
X673Y2548D02*
Y2653D01*
X442Y2316D02*
X673Y2548D01*
X155Y2316D02*
X442D01*
X1473Y1427D02*
X1600Y1300D01*
X1372Y1427D02*
X1473D01*
X1247Y1552D02*
X1372Y1427D01*
X1247Y1552D02*
Y1788D01*
X719Y2316D02*
X1247Y1788D01*
X635Y2316D02*
X719D01*
X610Y2292D02*
X635Y2316D01*
X610Y1981D02*
Y2292D01*
X558Y1981D02*
X610D01*
X1219Y337D02*
X1295Y305D01*
X673Y883D02*
X1219Y337D01*
X2283Y1516D02*
X2347Y1580D01*
X2060Y1516D02*
X2283D01*
X1643Y1933D02*
X2060Y1516D01*
X1415Y1933D02*
X1643D01*
X1753Y2281D02*
Y2459D01*
X1824Y2530D01*
Y2584D02*
X1868D01*
X2286Y2756D02*
X2361Y2680D01*
X2069Y2756D02*
X2286D01*
X2007Y2464D02*
X2209D01*
X2337Y2568D01*
X1600Y3302D02*
X1725Y3178D01*
X1851D01*
X1904Y3124D01*
Y3099D02*
Y3124D01*
X3227Y1090D02*
Y1118D01*
X3120Y984D02*
X3227Y1090D01*
X2819Y940D02*
X2921Y1041D01*
Y1829D01*
X424Y2438D02*
X475D01*
X546Y2510D01*
Y2653D01*
Y2173D02*
Y2352D01*
X683Y2489D01*
X338Y1882D02*
X356Y1900D01*
X1402Y157D02*
X1549Y305D01*
X1270Y157D02*
X1402D01*
X1168Y259D02*
X1270Y157D01*
X1168Y259D02*
Y322D01*
X564Y927D02*
X1168Y322D01*
X564Y927D02*
Y1298D01*
X328Y1534D02*
X564Y1298D01*
X3327Y941D02*
X3327Y940D01*
X3327Y941D02*
Y1118D01*
X673Y883D02*
Y2028D01*
X1600Y813D02*
Y1123D01*
Y1300D01*
X1481Y2906D02*
Y3099D01*
X1875Y2080D02*
Y2394D01*
X3120Y660D02*
Y817D01*
X1868Y2394D02*
X1875D01*
X1900D01*
X683Y2489D02*
X965D01*
X1636D01*
Y2025D02*
Y2489D01*
X356Y1900D02*
Y1932D01*
X328Y1905D02*
X356Y1932D01*
X355Y1981D02*
X356D01*
X2692Y813D02*
X2819Y940D01*
X2997D02*
X3042Y984D01*
X3120D01*
X2997Y940D02*
X3120Y817D01*
X328Y1534D02*
Y1905D01*
X356Y1932D02*
Y1981D01*
X1643Y2743D02*
X1795Y2895D01*
X1904Y3099D02*
X1930Y3073D01*
X1795Y2895D02*
X1879D01*
X1956Y2869D02*
X2069Y2756D01*
X1879Y2895D02*
X1930Y2946D01*
X1270Y3099D02*
X1412D01*
X1237Y3132D02*
X1270Y3099D01*
X1412Y3147D02*
X1440Y3175D01*
X1514D01*
X1542Y3147D01*
X1412Y3099D02*
Y3147D01*
X1930Y2946D02*
Y3073D01*
Y2946D02*
X1956Y2921D01*
Y2869D02*
Y2921D01*
X2361Y2667D02*
Y2680D01*
X2337Y2568D02*
Y2591D01*
X2361Y2615D01*
Y2667D01*
X2007Y2564D02*
X2058Y2615D01*
Y2667D01*
X1925Y2584D02*
X1946Y2564D01*
X2007D01*
X1824Y2530D02*
Y2584D01*
D18*
X1295Y610D02*
D03*
X2819Y940D02*
D03*
D19*
X1803Y610D02*
D03*
X3327Y940D02*
D03*
D20*
X432Y1153D02*
D03*
D21*
Y1641D02*
D03*
D22*
X2240Y2896D02*
D03*
D23*
X1194D02*
D03*
D24*
X1854Y3302D02*
D03*
X1600D02*
D03*
X1346D02*
D03*
X1549Y305D02*
D03*
X1295D02*
D03*
X3374Y660D02*
D03*
X3120D02*
D03*
X2866D02*
D03*
X2612D02*
D03*
D25*
X1092Y3302D02*
D03*
X1803Y305D02*
D03*
X2358Y660D02*
D03*
D26*
X1918Y2761D02*
D03*
X914Y1339D02*
D03*
X1875Y2080D02*
D03*
X1783Y1306D02*
D03*
X724Y1977D02*
D03*
X1136Y1712D02*
D03*
X1521Y1573D02*
D03*
X2517Y1994D02*
D03*
X2466Y1824D02*
D03*
X1420Y2311D02*
D03*
X1643Y2603D02*
D03*
X155Y2316D02*
D03*
X2347Y1580D02*
D03*
X1415Y1933D02*
D03*
X1753Y2281D02*
D03*
X424Y2438D02*
D03*
X338Y1882D02*
D03*
%TF.MD5,61d6292be142b1ab2e19e3232e3bb8dd*%
M02*
