G04 Layer_Physical_Order=2*
G04 Layer_Color=16711680*
%FSLAX42Y42*%
%MOMM*%
%TF.FileFunction,Copper,L2,Bot,Signal*%
%TF.Part,Single*%
G01*
G75*
%TA.AperFunction,SMDPad,CuDef*%
%ADD13R,0.60X0.50*%
%ADD14R,0.50X0.60*%
%TA.AperFunction,Conductor*%
%ADD17C,0.25*%
%TA.AperFunction,ComponentPad*%
%ADD18C,1.85*%
%ADD19R,1.85X1.85*%
G04:AMPARAMS|DCode=20|XSize=1.4mm|YSize=1.4mm|CornerRadius=0mm|HoleSize=0mm|Usage=FLASHONLY|Rotation=90.000|XOffset=0mm|YOffset=0mm|HoleType=Round|Shape=Octagon|*
%AMOCTAGOND20*
4,1,8,0.35,0.70,-0.35,0.70,-0.70,0.35,-0.70,-0.35,-0.35,-0.70,0.35,-0.70,0.70,-0.35,0.70,0.35,0.35,0.70,0.0*
%
%ADD20OCTAGOND20*%

%ADD21C,1.40*%
%ADD22C,2.00*%
%ADD23R,2.00X2.00*%
%ADD24C,1.50*%
%ADD25R,1.50X1.50*%
%TA.AperFunction,ViaPad*%
%ADD26C,1.27*%
%TA.AperFunction,SMDPad,CuDef*%
%ADD27R,1.80X1.00*%
%ADD28O,0.30X1.80*%
%ADD29O,1.80X0.30*%
%ADD30C,1.20*%
%ADD31R,0.80X1.50*%
%ADD32R,1.50X0.80*%
%ADD33O,1.60X1.00*%
%ADD34O,1.40X1.00*%
D13*
X3225Y2642D02*
D03*
X3125D02*
D03*
X1219Y1118D02*
D03*
X1319D02*
D03*
X1017D02*
D03*
X1117D02*
D03*
X1650Y2286D02*
D03*
X1550D02*
D03*
D14*
X762Y1652D02*
D03*
Y1752D02*
D03*
X1981Y1321D02*
D03*
Y1421D02*
D03*
X1041Y788D02*
D03*
Y888D02*
D03*
X127Y1726D02*
D03*
Y1626D02*
D03*
Y991D02*
D03*
Y1091D02*
D03*
X1981Y2082D02*
D03*
Y1982D02*
D03*
Y2487D02*
D03*
Y2387D02*
D03*
Y1624D02*
D03*
Y1524D02*
D03*
Y1778D02*
D03*
Y1878D02*
D03*
Y2186D02*
D03*
Y2286D02*
D03*
D17*
X1621Y2107D02*
Y2182D01*
X1650Y2211D01*
Y2286D01*
X3103Y2540D02*
X3125Y2562D01*
Y2642D01*
X1117Y1118D02*
X1219D01*
X1117D02*
Y1204D01*
X1121Y1208D01*
Y1297D01*
X1041Y888D02*
Y965D01*
X1117Y1041D01*
Y1118D01*
X1981Y1321D02*
X2047D01*
X2064Y1338D01*
X2133D01*
X3223Y2463D02*
Y2550D01*
X3225Y2552D01*
Y2642D01*
X127Y1626D02*
X272D01*
X286Y1641D01*
X432D01*
X864Y775D02*
X945D01*
X958Y788D01*
X1041D01*
X1981Y2286D02*
Y2387D01*
Y1878D02*
Y1982D01*
Y1421D02*
Y1524D01*
X3374Y660D02*
Y775D01*
X3327Y822D02*
X3374Y775D01*
X3327Y822D02*
Y940D01*
X1981Y1624D02*
X2062D01*
X2073Y1613D01*
X1981Y1778D02*
X2045D01*
X2090Y1733D01*
X102Y991D02*
X127D01*
X69Y1024D02*
X102Y991D01*
X69Y1024D02*
Y1693D01*
X102Y1726D01*
X127D01*
X818Y1194D02*
X864Y1148D01*
X818Y1194D02*
Y1499D01*
X846Y1527D01*
X941D01*
X1271Y1176D02*
Y1297D01*
X543Y1752D02*
X762D01*
X432Y1641D02*
X543Y1752D01*
X762D02*
X800D01*
X818Y1734D01*
Y1697D02*
Y1734D01*
X2131Y3004D02*
X2240Y2896D01*
X2131Y3004D02*
Y3025D01*
X1854Y3302D02*
X2131Y3025D01*
X1621Y1185D02*
Y1297D01*
Y1185D02*
X1881Y926D01*
X2347D01*
X2612Y660D01*
X3125Y2642D02*
Y2684D01*
X3048Y2761D02*
X3125Y2684D01*
X1918Y2761D02*
X3048D01*
X1751Y1877D02*
X1874D01*
Y1681D02*
Y1877D01*
Y1681D02*
X1930Y1624D01*
X1981D01*
X1953Y1778D02*
X1981D01*
X1920Y1812D02*
X1953Y1778D01*
X1920Y1812D02*
Y1927D01*
X1751D02*
X1920D01*
X539Y1388D02*
X762Y1611D01*
X539Y1260D02*
Y1388D01*
X432Y1153D02*
X539Y1260D01*
X914Y1427D02*
X941D01*
X1191Y1827D02*
X1265Y1753D01*
X1071Y1455D02*
X1265Y1649D01*
X1071Y1297D02*
Y1455D01*
X1981Y2186D02*
X2013D01*
X2040Y2159D01*
Y1880D02*
Y2159D01*
Y1880D02*
X2066Y1853D01*
X1550Y2254D02*
Y2286D01*
Y2254D02*
X1571Y2233D01*
Y2107D02*
Y2233D01*
X1981Y2080D02*
Y2082D01*
X2601Y940D02*
X2819D01*
X2233Y1308D02*
X2601Y940D01*
X941Y1827D02*
X1191D01*
X1290Y1600D02*
Y1624D01*
Y1600D02*
X1464Y1427D01*
X1751Y1477D02*
X1845D01*
X1874Y1448D01*
Y1396D02*
Y1448D01*
X1783Y1306D02*
X1874Y1396D01*
X2712Y815D02*
X2866Y660D01*
X2658Y815D02*
X2712D01*
X2245Y1227D02*
X2658Y815D01*
X1956Y1227D02*
X2245D01*
X1919Y1263D02*
X1956Y1227D01*
X1919Y1263D02*
Y1523D01*
X1916Y1527D02*
X1919Y1523D01*
X1751Y1527D02*
X1916D01*
X334Y1726D02*
X434Y1826D01*
X797D01*
X846Y1777D01*
X941D01*
X724Y1977D02*
X941D01*
X1121Y1727D02*
X1136Y1712D01*
X941Y1727D02*
X1121D01*
X1521Y1573D02*
Y2107D01*
X2517Y1994D02*
X2743Y1768D01*
X2466Y1824D02*
X2623Y1667D01*
X1420Y2311D02*
X1471Y2260D01*
Y2107D02*
Y2260D01*
X1798Y2186D02*
X1981D01*
X1750Y2138D02*
X1798Y2186D01*
X1750Y1977D02*
X1751D01*
X3223Y2388D02*
Y2463D01*
X3190Y2355D02*
X3223Y2388D01*
X2311Y2355D02*
X3190D01*
X2258Y2408D02*
X2311Y2355D01*
X2233Y2408D02*
X2258D01*
X2213D02*
X2233D01*
X1803Y610D02*
X2192D01*
X2250Y551D01*
X2692D01*
X2720Y579D01*
Y741D01*
X2692Y769D02*
X2720Y741D01*
X2601Y769D02*
X2692D01*
X2207Y1164D02*
X2601Y769D01*
X1768Y1164D02*
X2207D01*
X1687Y1245D02*
X1768Y1164D01*
X1643Y2603D02*
X1760Y2487D01*
X1981D01*
X2002Y2654D02*
X2141Y2515D01*
X1877Y2654D02*
X2002D01*
X1600Y2931D02*
X1877Y2654D01*
X1600Y2931D02*
Y3302D01*
X1321Y2107D02*
Y2421D01*
X1600Y2700D01*
X1740D01*
X1867Y2573D01*
X2007D01*
X2040Y2540D01*
Y2413D02*
Y2540D01*
Y2413D02*
X2149Y2304D01*
X2286D01*
X2370Y2220D01*
Y1694D02*
Y2220D01*
Y1694D02*
X2503Y1561D01*
X1354Y754D02*
X1803Y305D01*
X1189Y754D02*
X1354D01*
X1100Y665D02*
X1189Y754D01*
X411Y991D02*
X737Y665D01*
X127Y991D02*
X411D01*
X1100Y843D02*
Y855D01*
X1067Y888D02*
X1100Y855D01*
X1041Y888D02*
X1067D01*
X2347Y1580D02*
X2383Y1544D01*
X1371Y1977D02*
X1415Y1933D01*
X1371Y1977D02*
Y2107D01*
X1753Y2261D02*
Y2281D01*
X1550Y2286D02*
Y2361D01*
X1676Y2487D01*
X2133Y1338D02*
X2233Y1418D01*
X2233D01*
X3223Y1270D02*
Y1363D01*
X3188Y1234D02*
X3223Y1270D01*
X3114Y1234D02*
X3188D01*
X2819Y940D02*
X3114Y1234D01*
X1092Y3106D02*
Y3302D01*
X424Y2438D02*
X1092Y3106D01*
X370Y1091D02*
X432Y1153D01*
X127Y1091D02*
X370D01*
X826Y1577D02*
X941D01*
X704Y1455D02*
X826Y1577D01*
X704Y833D02*
Y1455D01*
Y833D02*
X762Y775D01*
X864D01*
X2160Y859D02*
X2358Y660D01*
X1737Y859D02*
X2160D01*
X1521Y1074D02*
X1737Y859D01*
X1521Y1074D02*
Y1297D01*
X1071Y2107D02*
Y2108D01*
X338Y1882D02*
X564Y2108D01*
X1265Y1649D02*
Y1753D01*
X1621Y1427D02*
X1687D01*
X1751D01*
X737Y665D02*
X1100D01*
X155Y1726D02*
X334D01*
X2233Y1308D02*
Y1418D01*
X1875Y2080D02*
X1981D01*
X3223Y1363D02*
Y2388D01*
X1676Y2487D02*
X1760D01*
X2141Y2480D02*
Y2515D01*
X2133Y2488D02*
X2141Y2480D01*
X2213Y2408D01*
X762Y1611D02*
Y1634D01*
Y1652D01*
X914Y1339D02*
Y1427D01*
X1655Y2281D02*
X1753D01*
X1650Y2286D02*
X1655Y2281D01*
X864Y1054D02*
Y1148D01*
X953Y1054D02*
X1017Y1118D01*
X864Y1054D02*
X953D01*
X1319Y1118D02*
Y1128D01*
X1271Y1176D02*
X1319Y1128D01*
X1265Y1649D02*
X1290Y1624D01*
X818Y1697D02*
X838Y1677D01*
X941D01*
X820Y1627D02*
X941D01*
X813Y1634D02*
X820Y1627D01*
X762Y1634D02*
X813D01*
X1100Y843D02*
X1189Y754D01*
X564Y2108D02*
X1071D01*
X155Y1806D02*
Y2316D01*
X127Y1778D02*
X155Y1806D01*
X127Y1726D02*
Y1778D01*
X1621Y1427D02*
Y2107D01*
X1464Y1427D02*
X1621D01*
X2090Y1733D02*
X2158D01*
X2066Y1853D02*
X2158D01*
X2073Y1613D02*
X2158D01*
X2623Y1363D02*
Y1667D01*
X1687Y1245D02*
Y1427D01*
X3103Y2463D02*
Y2540D01*
X1750Y1977D02*
Y2138D01*
X2503Y1363D02*
Y1561D01*
X2743Y1363D02*
Y1768D01*
X2383Y1363D02*
Y1544D01*
D18*
X1295Y610D02*
D03*
X2819Y940D02*
D03*
D19*
X1803Y610D02*
D03*
X3327Y940D02*
D03*
D20*
X432Y1153D02*
D03*
D21*
Y1641D02*
D03*
D22*
X2240Y2896D02*
D03*
D23*
X1194D02*
D03*
D24*
X1854Y3302D02*
D03*
X1600D02*
D03*
X1346D02*
D03*
X1549Y305D02*
D03*
X1295D02*
D03*
X3374Y660D02*
D03*
X3120D02*
D03*
X2866D02*
D03*
X2612D02*
D03*
D25*
X1092Y3302D02*
D03*
X1803Y305D02*
D03*
X2358Y660D02*
D03*
D26*
X1918Y2761D02*
D03*
X914Y1339D02*
D03*
X1875Y2080D02*
D03*
X1783Y1306D02*
D03*
X724Y1977D02*
D03*
X1136Y1712D02*
D03*
X1521Y1573D02*
D03*
X2517Y1994D02*
D03*
X2466Y1824D02*
D03*
X1420Y2311D02*
D03*
X1643Y2603D02*
D03*
X155Y2316D02*
D03*
X2347Y1580D02*
D03*
X1415Y1933D02*
D03*
X1753Y2281D02*
D03*
X424Y2438D02*
D03*
X338Y1882D02*
D03*
D27*
X864Y775D02*
D03*
Y1054D02*
D03*
D28*
X1071Y1297D02*
D03*
X1121D02*
D03*
X1171D02*
D03*
X1221D02*
D03*
X1271D02*
D03*
X1321D02*
D03*
X1371D02*
D03*
X1421D02*
D03*
X1471D02*
D03*
X1521D02*
D03*
X1571D02*
D03*
X1621D02*
D03*
Y2107D02*
D03*
X1571D02*
D03*
X1521D02*
D03*
X1471D02*
D03*
X1421D02*
D03*
X1371D02*
D03*
X1321D02*
D03*
X1271D02*
D03*
X1221D02*
D03*
X1171D02*
D03*
X1121D02*
D03*
X1071D02*
D03*
D29*
X1751Y1427D02*
D03*
Y1477D02*
D03*
Y1527D02*
D03*
Y1577D02*
D03*
Y1627D02*
D03*
Y1677D02*
D03*
Y1727D02*
D03*
Y1777D02*
D03*
Y1827D02*
D03*
Y1877D02*
D03*
Y1927D02*
D03*
Y1977D02*
D03*
X941D02*
D03*
Y1927D02*
D03*
Y1877D02*
D03*
Y1827D02*
D03*
Y1777D02*
D03*
Y1727D02*
D03*
Y1677D02*
D03*
Y1627D02*
D03*
Y1577D02*
D03*
Y1527D02*
D03*
Y1477D02*
D03*
Y1427D02*
D03*
D30*
X2135Y2490D02*
D03*
Y1340D02*
D03*
D31*
X2385Y1365D02*
D03*
X2505D02*
D03*
X2625D02*
D03*
X2745D02*
D03*
X2865D02*
D03*
X2985D02*
D03*
X3105D02*
D03*
X3225D02*
D03*
Y2465D02*
D03*
X3105D02*
D03*
X2985D02*
D03*
X2865D02*
D03*
X2745D02*
D03*
X2625D02*
D03*
X2505D02*
D03*
X2385D02*
D03*
D32*
X2160Y1615D02*
D03*
Y1735D02*
D03*
Y1855D02*
D03*
Y1975D02*
D03*
Y2095D02*
D03*
Y2215D02*
D03*
D33*
X3405Y1420D02*
D03*
Y2410D02*
D03*
D34*
X2235Y1420D02*
D03*
Y2410D02*
D03*
%TF.MD5,9a4fc5e7ec09754a611abb5e38ab87e1*%
M02*
