G04 Layer_Color=16711935*
%FSLAX42Y42*%
%MOMM*%
%TF.FileFunction,Other,Mechanical_13*%
%TF.Part,Single*%
G01*
G75*
%TA.AperFunction,NonConductor*%
%ADD65C,0.10*%
D65*
X1136Y1442D02*
G03*
X1136Y1442I-50J0D01*
G01*
X378Y2308D02*
G03*
X378Y2308I-50J0D01*
G01*
X792Y1647D02*
Y1757D01*
X732Y1647D02*
Y1757D01*
Y1647D02*
X792D01*
X732Y1757D02*
X792D01*
X3120Y2672D02*
X3230D01*
X3120Y2612D02*
X3230D01*
Y2672D01*
X3120Y2612D02*
Y2672D01*
X1214Y1088D02*
X1324D01*
X1214Y1148D02*
X1324D01*
X1214Y1088D02*
Y1148D01*
X1324Y1088D02*
Y1148D01*
X2011Y1316D02*
Y1426D01*
X1951Y1316D02*
Y1426D01*
Y1316D02*
X2011D01*
X1951Y1426D02*
X2011D01*
X1071Y783D02*
Y893D01*
X1011Y783D02*
Y893D01*
Y783D02*
X1071D01*
X1011Y893D02*
X1071D01*
X97Y1621D02*
Y1731D01*
X157Y1621D02*
Y1731D01*
X97D02*
X157D01*
X97Y1621D02*
X157D01*
X1012Y1088D02*
X1122D01*
X1012Y1148D02*
X1122D01*
X1012Y1088D02*
Y1148D01*
X1122Y1088D02*
Y1148D01*
X157Y986D02*
Y1096D01*
X97Y986D02*
Y1096D01*
Y986D02*
X157D01*
X97Y1096D02*
X157D01*
X954Y744D02*
Y1084D01*
X774Y744D02*
Y1084D01*
Y744D02*
X954D01*
X774Y1084D02*
X954D01*
X1838Y2334D02*
Y2644D01*
X1668Y2334D02*
Y2644D01*
Y2334D02*
X1838D01*
X1668Y2644D02*
X1838D01*
X758Y2789D02*
X868D01*
X758Y2849D02*
X868D01*
Y2789D02*
Y2849D01*
X758Y2789D02*
Y2849D01*
X996Y2052D02*
X1696D01*
X996Y1352D02*
X1696D01*
Y2052D01*
X996Y1352D02*
Y2052D01*
X1951Y1977D02*
Y2087D01*
X2011Y1977D02*
Y2087D01*
X1951D02*
X2011D01*
X1951Y1977D02*
X2011D01*
X1951Y2382D02*
Y2492D01*
X2011Y2382D02*
Y2492D01*
X1951D02*
X2011D01*
X1951Y2382D02*
X2011D01*
X1545Y2316D02*
X1655D01*
X1545Y2256D02*
X1655D01*
Y2316D01*
X1545Y2256D02*
Y2316D01*
X1951Y1519D02*
Y1629D01*
X2011Y1519D02*
Y1629D01*
X1951D02*
X2011D01*
X1951Y1519D02*
X2011D01*
X2011Y1773D02*
Y1883D01*
X1951Y1773D02*
Y1883D01*
Y1773D02*
X2011D01*
X1951Y1883D02*
X2011D01*
Y2181D02*
Y2291D01*
X1951Y2181D02*
Y2291D01*
Y2181D02*
X2011D01*
X1951Y2291D02*
X2011D01*
X2053Y2697D02*
X2163D01*
X2053Y2637D02*
X2163D01*
X2053D02*
Y2697D01*
X2163Y2637D02*
Y2697D01*
X1596Y3129D02*
X1706D01*
X1596Y3069D02*
X1706D01*
X1596D02*
Y3129D01*
X1706Y3069D02*
Y3129D01*
X2037Y2459D02*
Y2569D01*
X1977Y2459D02*
Y2569D01*
X2037D01*
X1977Y2459D02*
X2037D01*
X1480Y3081D02*
Y3116D01*
X1415Y3081D02*
Y3116D01*
Y3081D02*
X1480D01*
X1415Y3116D02*
X1480D01*
X428Y2815D02*
X538D01*
X428Y2875D02*
X538D01*
Y2815D02*
Y2875D01*
X428Y2815D02*
Y2875D01*
X2256Y2637D02*
X2366D01*
X2256Y2697D02*
X2366D01*
Y2637D02*
Y2697D01*
X2256Y2637D02*
Y2697D01*
X1799Y3069D02*
X1909D01*
X1799Y3129D02*
X1909D01*
Y3069D02*
Y3129D01*
X1799Y3069D02*
Y3129D01*
X728Y2218D02*
Y2608D01*
X238Y2218D02*
Y2608D01*
X728D01*
X238Y2218D02*
X728D01*
X250Y2011D02*
X360D01*
X250Y1951D02*
X360D01*
X250D02*
Y2011D01*
X360Y1951D02*
Y2011D01*
X453D02*
X563D01*
X453Y1951D02*
X563D01*
X453D02*
Y2011D01*
X563Y1951D02*
Y2011D01*
X1495Y843D02*
X1605D01*
X1495Y783D02*
X1605D01*
X1495D02*
Y843D01*
X1605Y783D02*
Y843D01*
X3222Y1088D02*
X3332D01*
X3222Y1148D02*
X3332D01*
Y1088D02*
Y1148D01*
X3222Y1088D02*
Y1148D01*
%TF.MD5,be5223cb560080585ef82a9bbe4c7931*%
M02*
