G04 Layer_Color=32768*
%FSLAX42Y42*%
%MOMM*%
%TF.FileFunction,Other,Mechanical_15*%
%TF.Part,Single*%
G01*
G75*
%TA.AperFunction,NonConductor*%
%ADD65C,0.10*%
D65*
X732Y1702D02*
X792D01*
X762Y1672D02*
Y1732D01*
X797Y1612D02*
Y1792D01*
X727Y1612D02*
Y1792D01*
Y1612D02*
X797D01*
X727Y1792D02*
X797D01*
X3175Y2612D02*
Y2672D01*
X3145Y2642D02*
X3205D01*
X3085Y2677D02*
X3265D01*
X3085Y2607D02*
X3265D01*
Y2677D01*
X3085Y2607D02*
Y2677D01*
X1269Y1088D02*
Y1148D01*
X1239Y1118D02*
X1299D01*
X1179Y1083D02*
X1359D01*
X1179Y1153D02*
X1359D01*
X1179Y1083D02*
Y1153D01*
X1359Y1083D02*
Y1153D01*
X1951Y1371D02*
X2011D01*
X1981Y1341D02*
Y1401D01*
X2016Y1281D02*
Y1461D01*
X1946Y1281D02*
Y1461D01*
Y1281D02*
X2016D01*
X1946Y1461D02*
X2016D01*
X1011Y838D02*
X1071D01*
X1041Y808D02*
Y868D01*
X1076Y748D02*
Y928D01*
X1006Y748D02*
Y928D01*
Y748D02*
X1076D01*
X1006Y928D02*
X1076D01*
X97Y1676D02*
X157D01*
X127Y1646D02*
Y1706D01*
X92Y1586D02*
Y1766D01*
X162Y1586D02*
Y1766D01*
X92D02*
X162D01*
X92Y1586D02*
X162D01*
X1067Y1088D02*
Y1148D01*
X1037Y1118D02*
X1097D01*
X977Y1083D02*
X1157D01*
X977Y1153D02*
X1157D01*
X977Y1083D02*
Y1153D01*
X1157Y1083D02*
Y1153D01*
X97Y1041D02*
X157D01*
X127Y1011D02*
Y1071D01*
X162Y951D02*
Y1131D01*
X92Y951D02*
Y1131D01*
Y951D02*
X162D01*
X92Y1131D02*
X162D01*
X814Y914D02*
X914D01*
X864Y864D02*
Y964D01*
X964Y714D02*
Y1114D01*
X764Y714D02*
Y1114D01*
Y714D02*
X964D01*
X764Y1114D02*
X964D01*
X1968Y2309D02*
Y2669D01*
X1538Y2309D02*
Y2669D01*
Y2309D02*
X1968D01*
X1538Y2669D02*
X1968D01*
X1703Y2489D02*
X1803D01*
X1753Y2439D02*
Y2539D01*
X813Y2789D02*
Y2849D01*
X783Y2819D02*
X843D01*
X723Y2784D02*
X903D01*
X723Y2854D02*
X903D01*
Y2784D02*
Y2854D01*
X723Y2784D02*
Y2854D01*
X1346Y1652D02*
Y1752D01*
X1296Y1702D02*
X1396D01*
X826Y2222D02*
X1866D01*
X826Y1182D02*
X1866D01*
Y2222D01*
X826Y1182D02*
Y2222D01*
X1951Y2032D02*
X2011D01*
X1981Y2002D02*
Y2062D01*
X1946Y1942D02*
Y2122D01*
X2016Y1942D02*
Y2122D01*
X1946D02*
X2016D01*
X1946Y1942D02*
X2016D01*
X1951Y2437D02*
X2011D01*
X1981Y2407D02*
Y2467D01*
X1946Y2347D02*
Y2527D01*
X2016Y2347D02*
Y2527D01*
X1946D02*
X2016D01*
X1946Y2347D02*
X2016D01*
X1600Y2256D02*
Y2316D01*
X1570Y2286D02*
X1630D01*
X1510Y2321D02*
X1690D01*
X1510Y2251D02*
X1690D01*
Y2321D01*
X1510Y2251D02*
Y2321D01*
X1951Y1574D02*
X2011D01*
X1981Y1544D02*
Y1604D01*
X1946Y1484D02*
Y1664D01*
X2016Y1484D02*
Y1664D01*
X1946D02*
X2016D01*
X1946Y1484D02*
X2016D01*
X1951Y1828D02*
X2011D01*
X1981Y1798D02*
Y1858D01*
X2016Y1738D02*
Y1918D01*
X1946Y1738D02*
Y1918D01*
Y1738D02*
X2016D01*
X1946Y1918D02*
X2016D01*
X1951Y2236D02*
X2011D01*
X1981Y2206D02*
Y2266D01*
X2016Y2146D02*
Y2326D01*
X1946Y2146D02*
Y2326D01*
Y2146D02*
X2016D01*
X1946Y2326D02*
X2016D01*
X2108Y2637D02*
Y2697D01*
X2078Y2667D02*
X2138D01*
X2018Y2702D02*
X2198D01*
X2018Y2632D02*
X2198D01*
X2018D02*
Y2702D01*
X2198Y2632D02*
Y2702D01*
X1651Y3069D02*
Y3129D01*
X1621Y3099D02*
X1681D01*
X1561Y3134D02*
X1741D01*
X1561Y3064D02*
X1741D01*
X1561D02*
Y3134D01*
X1741Y3064D02*
Y3134D01*
X1977Y2514D02*
X2037D01*
X2007Y2484D02*
Y2544D01*
X2042Y2424D02*
Y2604D01*
X1972Y2424D02*
Y2604D01*
X2042D01*
X1972Y2424D02*
X2042D01*
X1518Y3074D02*
Y3124D01*
X1378Y3074D02*
Y3124D01*
Y3074D02*
X1518D01*
X1378Y3124D02*
X1518D01*
X1430Y3099D02*
X1465D01*
X1448Y3081D02*
Y3116D01*
X483Y2815D02*
Y2875D01*
X453Y2845D02*
X513D01*
X393Y2810D02*
X573D01*
X393Y2880D02*
X573D01*
Y2810D02*
Y2880D01*
X393Y2810D02*
Y2880D01*
X2311Y2637D02*
Y2697D01*
X2281Y2667D02*
X2341D01*
X2221Y2632D02*
X2401D01*
X2221Y2702D02*
X2401D01*
Y2632D02*
Y2702D01*
X2221Y2632D02*
Y2702D01*
X1854Y3069D02*
Y3129D01*
X1824Y3099D02*
X1884D01*
X1764Y3064D02*
X1944D01*
X1764Y3134D02*
X1944D01*
Y3064D02*
Y3134D01*
X1764Y3064D02*
Y3134D01*
X433Y2413D02*
X533D01*
X483Y2363D02*
Y2463D01*
X758Y2038D02*
Y2788D01*
X208Y2038D02*
Y2788D01*
X758D01*
X208Y2038D02*
X758D01*
X305Y1951D02*
Y2011D01*
X275Y1981D02*
X335D01*
X215Y2016D02*
X395D01*
X215Y1946D02*
X395D01*
X215D02*
Y2016D01*
X395Y1946D02*
Y2016D01*
X508Y1951D02*
Y2011D01*
X478Y1981D02*
X538D01*
X418Y2016D02*
X598D01*
X418Y1946D02*
X598D01*
X418D02*
Y2016D01*
X598Y1946D02*
Y2016D01*
X1550Y783D02*
Y843D01*
X1520Y813D02*
X1580D01*
X1460Y848D02*
X1640D01*
X1460Y778D02*
X1640D01*
X1460D02*
Y848D01*
X1640Y778D02*
Y848D01*
X3277Y1088D02*
Y1148D01*
X3247Y1118D02*
X3307D01*
X3187Y1083D02*
X3367D01*
X3187Y1153D02*
X3367D01*
Y1083D02*
Y1153D01*
X3187Y1083D02*
Y1153D01*
X3108Y1863D02*
Y1963D01*
X3058Y1913D02*
X3158D01*
X2043Y1248D02*
Y2578D01*
X4113D01*
Y1248D02*
Y2578D01*
X2043Y1248D02*
X4113D01*
%TF.MD5,fa8db322c7e902d26571e1066ddd8e44*%
M02*
