G04 Layer_Color=16711935*
%FSLAX42Y42*%
%MOMM*%
%TF.FileFunction,Other,Mechanical_1*%
%TF.Part,Single*%
G01*
G75*
%TA.AperFunction,NonConductor*%
%ADD35C,0.25*%
%ADD36C,0.15*%
D35*
X3600Y3025D02*
Y3794D01*
X0Y3025D02*
Y3794D01*
X1800Y3769D02*
X3600D01*
X0D02*
X1800D01*
X3448Y3820D02*
X3600Y3769D01*
X3448Y3718D02*
X3600Y3769D01*
X0D02*
X152Y3718D01*
X0Y3769D02*
X152Y3820D01*
X-169Y3000D02*
X0D01*
X-169Y500D02*
X0D01*
X-143Y1750D02*
Y3000D01*
Y500D02*
Y1750D01*
X-194Y2848D02*
X-143Y3000D01*
X-93Y2848D01*
X-143Y500D02*
X-93Y652D01*
X-194D02*
X-143Y500D01*
X-169Y3500D02*
X900D01*
X-169Y3000D02*
X900D01*
X-143Y3250D02*
Y3500D01*
Y3000D02*
Y3250D01*
X-194Y3348D02*
X-143Y3500D01*
X-93Y3348D01*
X-143Y3000D02*
X-93Y3152D01*
X-194D02*
X-143Y3000D01*
X3600Y-79D02*
Y475D01*
X2500Y-79D02*
Y475D01*
X3050Y-54D02*
X3600D01*
X2500D02*
X3050D01*
X3448Y-3D02*
X3600Y-54D01*
X3448Y-105D02*
X3600Y-54D01*
X2500D02*
X2652Y-105D01*
X2500Y-54D02*
X2652Y-3D01*
X2000Y-445D02*
Y-25D01*
X900Y-445D02*
Y-25D01*
X1450Y-420D02*
X2000D01*
X900D02*
X1450D01*
X1848Y-369D02*
X2000Y-420D01*
X1848Y-471D02*
X2000Y-420D01*
X900D02*
X1052Y-471D01*
X900Y-420D02*
X1052Y-369D01*
X900Y-123D02*
Y475D01*
X0Y-123D02*
Y475D01*
X450Y-98D02*
X900D01*
X0D02*
X450D01*
X748Y-47D02*
X900Y-98D01*
X748Y-149D02*
X900Y-98D01*
X0D02*
X152Y-149D01*
X0Y-98D02*
X152Y-47D01*
D36*
X1269Y3880D02*
X1320D01*
X1294D01*
Y4032D01*
X1269Y4007D01*
X1472Y3880D02*
Y4032D01*
X1396Y3956D01*
X1498D01*
X1548Y3880D02*
X1599D01*
X1574D01*
Y4032D01*
X1548Y4007D01*
X1675Y4032D02*
X1777D01*
Y4007D01*
X1675Y3905D01*
Y3880D01*
X1853Y3855D02*
X1878Y3880D01*
Y3905D01*
X1853D01*
Y3880D01*
X1878D01*
X1853Y3855D01*
X1828Y3829D01*
X1980Y4007D02*
X2005Y4032D01*
X2056D01*
X2082Y4007D01*
Y3982D01*
X2056Y3956D01*
X2031D01*
X2056D01*
X2082Y3931D01*
Y3905D01*
X2056Y3880D01*
X2005D01*
X1980Y3905D01*
X2234Y3880D02*
X2132D01*
X2234Y3982D01*
Y4007D01*
X2208Y4032D01*
X2158D01*
X2132Y4007D01*
X-239Y1453D02*
Y1351D01*
X-341Y1453D01*
X-366D01*
X-391Y1427D01*
Y1376D01*
X-366Y1351D01*
X-391Y1605D02*
Y1503D01*
X-315D01*
X-341Y1554D01*
Y1580D01*
X-315Y1605D01*
X-264D01*
X-239Y1580D01*
Y1529D01*
X-264Y1503D01*
X-214Y1681D02*
X-239Y1706D01*
X-264D01*
Y1681D01*
X-239D01*
Y1706D01*
X-214Y1681D01*
X-188Y1656D01*
X-366Y1808D02*
X-391Y1833D01*
Y1884D01*
X-366Y1910D01*
X-264D01*
X-239Y1884D01*
Y1833D01*
X-264Y1808D01*
X-366D01*
Y1960D02*
X-391Y1986D01*
Y2037D01*
X-366Y2062D01*
X-264D01*
X-239Y2037D01*
Y1986D01*
X-264Y1960D01*
X-366D01*
X-417Y3055D02*
Y2953D01*
X-341D01*
X-367Y3004D01*
Y3029D01*
X-341Y3055D01*
X-290D01*
X-265Y3029D01*
Y2978D01*
X-290Y2953D01*
X-240Y3131D02*
X-265Y3156D01*
X-290D01*
Y3131D01*
X-265D01*
Y3156D01*
X-240Y3131D01*
X-214Y3105D01*
X-392Y3258D02*
X-417Y3283D01*
Y3334D01*
X-392Y3359D01*
X-290D01*
X-265Y3334D01*
Y3283D01*
X-290Y3258D01*
X-392D01*
Y3410D02*
X-417Y3435D01*
Y3486D01*
X-392Y3512D01*
X-290D01*
X-265Y3486D01*
Y3435D01*
X-290Y3410D01*
X-392D01*
X2682Y-285D02*
Y-133D01*
X2606Y-209D01*
X2708D01*
X2758Y-158D02*
X2784Y-133D01*
X2835D01*
X2860Y-158D01*
Y-183D01*
X2835Y-209D01*
X2809D01*
X2835D01*
X2860Y-234D01*
Y-260D01*
X2835Y-285D01*
X2784D01*
X2758Y-260D01*
X2911Y-158D02*
X2936Y-133D01*
X2987D01*
X3012Y-158D01*
Y-183D01*
X2987Y-209D01*
X2961D01*
X2987D01*
X3012Y-234D01*
Y-260D01*
X2987Y-285D01*
X2936D01*
X2911Y-260D01*
X3088Y-310D02*
X3114Y-285D01*
Y-260D01*
X3088D01*
Y-285D01*
X3114D01*
X3088Y-310D01*
X3063Y-336D01*
X3215Y-158D02*
X3241Y-133D01*
X3292D01*
X3317Y-158D01*
Y-260D01*
X3292Y-285D01*
X3241D01*
X3215Y-260D01*
Y-158D01*
X3368Y-133D02*
X3469D01*
Y-158D01*
X3368Y-260D01*
Y-285D01*
X1104Y-665D02*
Y-513D01*
X1028Y-589D01*
X1130D01*
X1180Y-538D02*
X1206Y-513D01*
X1257D01*
X1282Y-538D01*
Y-563D01*
X1257Y-589D01*
X1231D01*
X1257D01*
X1282Y-614D01*
Y-640D01*
X1257Y-665D01*
X1206D01*
X1180Y-640D01*
X1333Y-538D02*
X1358Y-513D01*
X1409D01*
X1434Y-538D01*
Y-563D01*
X1409Y-589D01*
X1383D01*
X1409D01*
X1434Y-614D01*
Y-640D01*
X1409Y-665D01*
X1358D01*
X1333Y-640D01*
X1510Y-690D02*
X1536Y-665D01*
Y-640D01*
X1510D01*
Y-665D01*
X1536D01*
X1510Y-690D01*
X1485Y-716D01*
X1637Y-538D02*
X1663Y-513D01*
X1714D01*
X1739Y-538D01*
Y-640D01*
X1714Y-665D01*
X1663D01*
X1637Y-640D01*
Y-538D01*
X1790Y-513D02*
X1891D01*
Y-538D01*
X1790Y-640D01*
Y-665D01*
X0Y-190D02*
X25Y-165D01*
X76D01*
X102Y-190D01*
Y-215D01*
X76Y-241D01*
X51D01*
X76D01*
X102Y-266D01*
Y-292D01*
X76Y-317D01*
X25D01*
X0Y-292D01*
X254Y-165D02*
X152D01*
Y-241D01*
X203Y-215D01*
X229D01*
X254Y-241D01*
Y-292D01*
X229Y-317D01*
X178D01*
X152Y-292D01*
X381Y-317D02*
Y-165D01*
X305Y-241D01*
X406D01*
X482Y-342D02*
X508Y-317D01*
Y-292D01*
X482D01*
Y-317D01*
X508D01*
X482Y-342D01*
X457Y-368D01*
X609Y-190D02*
X635Y-165D01*
X686D01*
X711Y-190D01*
Y-215D01*
X686Y-241D01*
X660D01*
X686D01*
X711Y-266D01*
Y-292D01*
X686Y-317D01*
X635D01*
X609Y-292D01*
X762Y-190D02*
X787Y-165D01*
X838D01*
X863Y-190D01*
Y-215D01*
X838Y-241D01*
X813D01*
X838D01*
X863Y-266D01*
Y-292D01*
X838Y-317D01*
X787D01*
X762Y-292D01*
%TF.MD5,19fcaf066658f4a2a3f90f3ed5510e8b*%
M02*
