M48
;Layer_Color=9474304
;FILE_FORMAT=2:5
INCH,LZ
;TYPE=PLATED
T1F00S00C0.02800
T2F00S00C0.03150
T3F00S00C0.03543
T4F00S00C0.04331
T5F00S00C0.04724
%
T01
X0036Y00527
X0044716Y0067416
X00557Y00761
X005989Y006191
X00702Y00514
X00924Y00622
X00971Y00718
X00991Y00785
X00285Y0077827
X00133Y00741
X00061Y00912
X00167Y0096
X0055913Y0091
X0069Y00898
X00738Y00819
X00755Y01087
X00647Y01025
T02
X0017Y0045394
Y0064606
T03
X0051Y0012
X0061
X0071
X009285Y0026
X010285
X011285
X012285
X013285
X0073Y013
X0063
X0053
X0043
T04
X0051Y0024
X0071
X0111Y0037
X0131
T05
X0047Y0114
X0088181
M30
