<?xml version="1.0" encoding="UTF-8" standalone="no"?>
<svg
   xmlns:dc="http://purl.org/dc/elements/1.1/"
   xmlns:cc="http://creativecommons.org/ns#"
   xmlns:rdf="http://www.w3.org/1999/02/22-rdf-syntax-ns#"
   xmlns:svg="http://www.w3.org/2000/svg"
   xmlns="http://www.w3.org/2000/svg"
   xmlns:sodipodi="http://sodipodi.sourceforge.net/DTD/sodipodi-0.dtd"
   xmlns:inkscape="http://www.inkscape.org/namespaces/inkscape"
   version="1.1"
   viewBox="0 0 2.5390625 2.5390625"
   enable-background="new 0 0 26 26"
   width="50"
   height="50"
   id="svg5342"
   inkscape:version="0.91 r13725"
   sodipodi:docname="50x50_icon_wifi_connected.svg">
  <metadata
     id="metadata5356">
    <rdf:RDF>
      <cc:Work
         rdf:about="">
        <dc:format>image/svg+xml</dc:format>
        <dc:type
           rdf:resource="http://purl.org/dc/dcmitype/StillImage" />
        <dc:title></dc:title>
      </cc:Work>
    </rdf:RDF>
  </metadata>
  <defs
     id="defs5354" />
  <sodipodi:namedview
     pagecolor="#ffffff"
     bordercolor="#666666"
     borderopacity="1"
     objecttolerance="10"
     gridtolerance="10"
     guidetolerance="10"
     inkscape:pageopacity="0"
     inkscape:pageshadow="2"
     inkscape:window-width="1366"
     inkscape:window-height="705"
     id="namedview5352"
     showgrid="true"
     showguides="true"
     inkscape:guide-bbox="true"
     inkscape:zoom="5.2149125"
     inkscape:cx="-2.9213045"
     inkscape:cy="24.971067"
     inkscape:window-x="1432"
     inkscape:window-y="333"
     inkscape:window-maximized="1"
     inkscape:current-layer="svg5342">
    <inkscape:grid
       type="xygrid"
       id="grid5904" />
    <sodipodi:guide
       position="0,0.25390625"
       orientation="1,0"
       id="guide5906" />
    <sodipodi:guide
       position="1.2695312,2.5390625"
       orientation="0,1"
       id="guide5908" />
    <sodipodi:guide
       position="2.5390625,1.015625"
       orientation="1,0"
       id="guide5910" />
    <sodipodi:guide
       position="1.015625,0"
       orientation="0,1"
       id="guide5912" />
  </sodipodi:namedview>
  <rect
     style="opacity:1;fill:#404040;fill-opacity:1;stroke:#000000;stroke-width:0.01397556;stroke-linejoin:miter;stroke-miterlimit:4;stroke-dasharray:none;stroke-opacity:1"
     id="rect5321"
     width="3.4338989"
     height="3.1171615"
     x="-0.37801152"
     y="-0.37419659" />
  <g
     id="g5344"
     transform="matrix(0.09385691,0,0,0.09385691,0.05442969,0.03337483)"
     style="fill:#006df0;fill-opacity:1">
    <path
       d="M 25.7,8.3 C 22.4,5 18,3 13,3 8,3 3.5,5 0.3,8.3 0.1,8.5 0,8.7 0,9 0,9.3 0.1,9.5 0.3,9.7 l 1.4,1.4 c 0.4,0.4 1,0.4 1.4,0 C 5.6,8.6 9.1,7 13,7 c 3.9,0 7.4,1.6 9.9,4.1 0.4,0.4 1,0.4 1.4,0 L 25.7,9.7 C 25.9,9.5 26,9.3 26,9 26,8.7 25.9,8.4 25.7,8.3 Z"
       id="path5346"
       inkscape:connector-curvature="0"
       style="fill:#006df0;fill-opacity:1" />
    <path
       d="m 13,11 c -2.8,0 -5.2,1.1 -7,2.9 -0.4,0.4 -0.4,1 0,1.4 l 1.4,1.4 c 0.4,0.4 1,0.4 1.4,0 1.1,-1.1 2.6,-1.7 4.2,-1.7 1.6,0 3.1,0.7 4.2,1.7 0.4,0.4 1,0.4 1.4,0 L 20,15.3 c 0.4,-0.4 0.4,-1 0,-1.4 C 18.2,12.1 15.8,11 13,11 Z"
       id="path5348"
       inkscape:connector-curvature="0"
       style="fill:#006df0;fill-opacity:1" />
    <circle
       cx="13"
       cy="21"
       r="2"
       id="circle5350"
       style="fill:#006df0;fill-opacity:1" />
  </g>
</svg>
