<?xml version="1.0" encoding="UTF-8" standalone="no"?>
<!-- Generator: Adobe Illustrator 16.0.0, SVG Export Plug-In . SVG Version: 6.00 Build 0)  -->

<svg
   xmlns:dc="http://purl.org/dc/elements/1.1/"
   xmlns:cc="http://creativecommons.org/ns#"
   xmlns:rdf="http://www.w3.org/1999/02/22-rdf-syntax-ns#"
   xmlns:svg="http://www.w3.org/2000/svg"
   xmlns="http://www.w3.org/2000/svg"
   xmlns:sodipodi="http://sodipodi.sourceforge.net/DTD/sodipodi-0.dtd"
   xmlns:inkscape="http://www.inkscape.org/namespaces/inkscape"
   version="1.1"
   id="Capa_1"
   x="0px"
   y="0px"
   width="50"
   height="50"
   viewBox="0 0 49.804688 49.804688"
   xml:space="preserve"
   inkscape:version="0.91 r13725"
   sodipodi:docname="50x50_icon_bluetooth.svg"><metadata
     id="metadata4215"><rdf:RDF><cc:Work
         rdf:about=""><dc:format>image/svg+xml</dc:format><dc:type
           rdf:resource="http://purl.org/dc/dcmitype/StillImage" /><dc:title></dc:title></cc:Work></rdf:RDF></metadata><defs
     id="defs4213" /><sodipodi:namedview
     pagecolor="#ffffff"
     bordercolor="#666666"
     borderopacity="1"
     objecttolerance="10"
     gridtolerance="10"
     guidetolerance="10"
     inkscape:pageopacity="0"
     inkscape:pageshadow="2"
     inkscape:window-width="1366"
     inkscape:window-height="705"
     id="namedview4211"
     showgrid="true"
     inkscape:zoom="5.2149125"
     inkscape:cx="27.274981"
     inkscape:cy="11.094379"
     inkscape:window-x="1432"
     inkscape:window-y="333"
     inkscape:window-maximized="1"
     inkscape:current-layer="bluetooth-audio"
     showguides="true"
     inkscape:guide-bbox="true"><inkscape:grid
       type="xygrid"
       id="grid5323" /><sodipodi:guide
       position="0,27.417903"
       orientation="1,0"
       id="guide5325" /><sodipodi:guide
       position="19.921875,49.804688"
       orientation="0,1"
       id="guide5327" /><sodipodi:guide
       position="24.902344,0"
       orientation="0,1"
       id="guide5329" /><sodipodi:guide
       position="49.804688,24.902344"
       orientation="1,0"
       id="guide5331" /></sodipodi:namedview><g
     id="g4176"
     transform="matrix(0.09757155,0,0,0.09757155,0.41874098,0.06827257)"><g
       id="bluetooth-audio"><rect
         style="opacity:1;fill:#404040;fill-opacity:1;stroke:#000000;stroke-width:2.80958843;stroke-linejoin:miter;stroke-miterlimit:4;stroke-dasharray:none;stroke-opacity:1"
         id="rect5321"
         width="690.33698"
         height="626.66138"
         x="-75.378387"
         y="-59.674252" /><path
         d="m 305.56299,254.83205 58.65001,58.65 c 7.65,-17.851 10.2,-38.25 10.2,-58.65 0,-20.4 -5.101,-40.8 -10.2,-58.65 l -58.65001,58.65 z m 135.15001,-135.15 -30.6,33.15 c 15.3,30.6 25.5,66.3 25.5,102 0,35.7 -10.2,71.4 -25.5,102 l 30.6,30.6 c 25.5,-38.25 38.25,-86.699 38.25,-135.149 0,-48.45 -12.75,-94.351 -38.25,-132.601 z m -96.90001,25.5 -145.35,-145.34999068 -25.5,0 0,193.79999068 -117.299986,-117.299991 -35.7,35.699991 142.799996,142.8 -142.799996,142.8 35.7,35.7 117.299986,-117.3 0,193.8 25.5,0 145.35,-145.35 -109.65,-109.65 109.65,-109.65 z m -119.85,-48.449988 48.45,48.449988 -48.45,48.45 0,-96.899988 z m 48.45,267.749988 -48.45,48.45 0,-96.9 48.45,48.45 z"
         id="path4179"
         inkscape:connector-curvature="0"
         style="fill:#006df0" /></g></g><g
     id="g4181"
     transform="translate(0,-460.19529)" /><g
     id="g4183"
     transform="translate(0,-460.19529)" /><g
     id="g4185"
     transform="translate(0,-460.19529)" /><g
     id="g4187"
     transform="translate(0,-460.19529)" /><g
     id="g4189"
     transform="translate(0,-460.19529)" /><g
     id="g4191"
     transform="translate(0,-460.19529)" /><g
     id="g4193"
     transform="translate(0,-460.19529)" /><g
     id="g4195"
     transform="translate(0,-460.19529)" /><g
     id="g4197"
     transform="translate(0,-460.19529)" /><g
     id="g4199"
     transform="translate(0,-460.19529)" /><g
     id="g4201"
     transform="translate(0,-460.19529)" /><g
     id="g4203"
     transform="translate(0,-460.19529)" /><g
     id="g4205"
     transform="translate(0,-460.19529)" /><g
     id="g4207"
     transform="translate(0,-460.19529)" /><g
     id="g4209"
     transform="translate(0,-460.19529)" /></svg>