<?xml version="1.0" encoding="UTF-8" standalone="no"?>
<svg
   xmlns:dc="http://purl.org/dc/elements/1.1/"
   xmlns:cc="http://creativecommons.org/ns#"
   xmlns:rdf="http://www.w3.org/1999/02/22-rdf-syntax-ns#"
   xmlns:svg="http://www.w3.org/2000/svg"
   xmlns="http://www.w3.org/2000/svg"
   xmlns:sodipodi="http://sodipodi.sourceforge.net/DTD/sodipodi-0.dtd"
   xmlns:inkscape="http://www.inkscape.org/namespaces/inkscape"
   version="1.1"
   viewBox="0 0 76 76"
   xml:space="preserve"
   id="svg3336"
   inkscape:version="0.91 r13725"
   sodipodi:docname="76x76_hover_icon_settings.svg"
   width="76"
   height="76"><metadata
     id="metadata3345"><rdf:RDF><cc:Work
         rdf:about=""><dc:format>image/svg+xml</dc:format><dc:type
           rdf:resource="http://purl.org/dc/dcmitype/StillImage" /><dc:title></dc:title></cc:Work></rdf:RDF></metadata><defs
     id="defs3343" /><sodipodi:namedview
     pagecolor="#ffffff"
     bordercolor="#666666"
     borderopacity="1"
     objecttolerance="10"
     gridtolerance="10"
     guidetolerance="10"
     inkscape:pageopacity="0"
     inkscape:pageshadow="2"
     inkscape:window-width="1366"
     inkscape:window-height="705"
     id="namedview3341"
     showgrid="true"
     inkscape:zoom="3.9480129"
     inkscape:cx="-2.5717146"
     inkscape:cy="44.366717"
     inkscape:window-x="1432"
     inkscape:window-y="345"
     inkscape:window-maximized="1"
     inkscape:current-layer="icons"><inkscape:grid
       type="xygrid"
       id="grid3349" /></sodipodi:namedview><g
     id="info"
     transform="translate(0,52)" /><g
     id="icons"
     transform="translate(0,52)"><rect
       style="fill:#015cac;fill-opacity:1"
       id="rect3359"
       width="115"
       height="100"
       x="-15"
       y="-61" /><path
       d="m 70.150953,-6.3845476 -3.781277,-2.2057451 c -4.096384,-2.5208513 -4.096384,-8.5078733 0,-11.0287253 l 3.781277,-2.205745 c 3.151064,-1.890639 4.096384,-5.671915 2.205745,-8.507874 l -3.151065,-5.356809 c -1.890639,-3.151065 -5.671915,-4.096384 -8.507874,-2.205745 l -3.781277,2.205745 c -4.096384,2.520851 -9.453193,-0.630214 -9.453193,-5.35681 l 0,-4.411491 c 0,-3.466171 -2.835958,-6.302128 -6.302129,-6.302128 l -6.302129,0 c -3.466171,0 -6.302129,2.835957 -6.302129,6.302128 l 0,4.096384 c 0,4.726597 -5.35681,7.877662 -9.453194,5.35681 l -3.781277,-1.890638 c -3.151065,-1.890639 -6.932343,-0.630214 -8.5078752,2.205745 l -3.1510646,5.356809 c -1.5755323,3.151065 -0.6302129,6.932342 2.2057452,8.82298 l 3.7812777,2.205745 c 4.0963849,2.205746 4.0963849,8.507875 0,10.7136193 L 5.8692364,-6.3845476 C 2.7181718,-4.4939089 1.7728525,-0.7126315 3.6634912,2.1233266 L 6.8145558,7.4801361 C 8.7051945,10.631201 12.486472,11.57652 15.322431,9.6858818 l 3.781277,-1.8906392 c 4.096384,-2.5208516 9.453194,0.6302129 9.453194,5.3568104 l 0,4.41149 c 0,3.466171 2.835958,6.302129 6.302129,6.302129 l 6.302129,0 c 3.466171,0 6.302129,-2.835958 6.302129,-6.302129 l 0,-4.096384 c 0,-4.7265971 5.356809,-7.8776616 9.453193,-5.35681 l 3.781277,2.205746 c 3.151065,1.890638 6.932342,0.630213 8.507874,-2.205746 l 3.151065,-5.3568095 c 1.575532,-3.466171 0.630213,-7.2474484 -2.205745,-9.1380871 z m -32.140858,5.0417032 c -6.932342,0 -12.604258,-5.6719161 -12.604258,-12.6042576 0,-6.932341 5.671916,-12.604258 12.604258,-12.604258 6.932342,0 12.604258,5.671917 12.604258,12.604258 0,6.9323415 -5.671916,12.6042576 -12.604258,12.6042576 z"
       id="settings"
       inkscape:connector-curvature="0"
       style="fill:#f2f2f2;fill-opacity:1" /></g></svg>