<?xml version="1.0" encoding="UTF-8" standalone="no"?>
<!-- Generator: Adobe Illustrator 18.1.1, SVG Export Plug-In . SVG Version: 6.00 Build 0)  -->

<svg
   xmlns:dc="http://purl.org/dc/elements/1.1/"
   xmlns:cc="http://creativecommons.org/ns#"
   xmlns:rdf="http://www.w3.org/1999/02/22-rdf-syntax-ns#"
   xmlns:svg="http://www.w3.org/2000/svg"
   xmlns="http://www.w3.org/2000/svg"
   xmlns:sodipodi="http://sodipodi.sourceforge.net/DTD/sodipodi-0.dtd"
   xmlns:inkscape="http://www.inkscape.org/namespaces/inkscape"
   version="1.1"
   id="Capa_1"
   x="0px"
   y="0px"
   viewBox="0 0 3.5378594 3.5378594"
   xml:space="preserve"
   width="76"
   height="76"
   inkscape:version="0.91 r13725"
   sodipodi:docname="76x76_dark_focused_icon_radio.svg"><metadata
     id="metadata3425"><rdf:RDF><cc:Work
         rdf:about=""><dc:format>image/svg+xml</dc:format><dc:type
           rdf:resource="http://purl.org/dc/dcmitype/StillImage" /><dc:title></dc:title></cc:Work></rdf:RDF></metadata><defs
     id="defs3423" /><sodipodi:namedview
     pagecolor="#ffffff"
     bordercolor="#666666"
     borderopacity="1"
     objecttolerance="10"
     gridtolerance="10"
     guidetolerance="10"
     inkscape:pageopacity="0"
     inkscape:pageshadow="2"
     inkscape:window-width="1366"
     inkscape:window-height="705"
     id="namedview3421"
     showgrid="true"
     showguides="true"
     inkscape:guide-bbox="true"
     inkscape:zoom="3.6875"
     inkscape:cx="31.703649"
     inkscape:cy="31.943001"
     inkscape:window-x="1432"
     inkscape:window-y="333"
     inkscape:window-maximized="1"
     inkscape:current-layer="Capa_1"><inkscape:grid
       type="xygrid"
       id="grid3429" /><sodipodi:guide
       position="1.2568711,3.5378594"
       orientation="0,1"
       id="guide3431" /><sodipodi:guide
       position="0,3.0723516"
       orientation="1,0"
       id="guide3433" /><sodipodi:guide
       position="3.5378594,3.0258008"
       orientation="1,0"
       id="guide3435" /><sodipodi:guide
       position="1.7223789,0"
       orientation="0,1"
       id="guide3437" /></sodipodi:namedview><rect
     style="fill:#4d4d4d;fill-opacity:1"
     id="rect3427"
     width="4.2467437"
     height="4.1156254"
     x="-0.38550037"
     y="-0.24836792" /><g
     id="g3387"
     transform="matrix(0.14642053,0,0,0.14642053,0.01786346,0.02106522)"><path
       d="m 19.996,18.306 c 0,0.918 -0.744,1.662 -1.662,1.662 -0.918,0 -1.662,-0.744 -1.662,-1.662 0,-0.918 0.744,-1.662 1.662,-1.662 0.918,0 1.662,0.744 1.662,1.662 z m 3.838,-8.25 0,11 c 0,1.518 -1.232,2.75 -2.75,2.75 l -18.334,0 C 1.232,23.806 0,22.574 0,21.056 l 0,-11 C 0,8.793 0.857,7.74 2.016,7.417 2.014,7.379 2.005,7.343 2.005,7.305 c 0,-0.918 0.744,-1.662 1.662,-1.662 0.218,0 0.425,0.045 0.616,0.121 l 15.94,-4.417 c 0,0 0,0 0,-10e-4 0,-0.728 0.59,-1.318 1.318,-1.318 0.728,0 1.318,0.59 1.318,1.318 0,0.728 -0.59,1.318 -1.318,1.318 -0.478,0 -0.877,-0.267 -1.108,-0.648 L 5.169,6.605 c 0.1,0.213 0.159,0.449 0.159,0.7 l 15.755,0 c 1.519,0 2.751,1.233 2.751,2.751 z m -8.25,2.75 5.5,0 0,-3.667 -5.5,0 0,3.667 z M 2.75,9.139 l 0,3.667 11.917,0 0,-3.667 -11.917,0 z m 0.917,6.875 c 0,-0.253 -0.205,-0.458 -0.458,-0.458 -0.253,0 -0.458,0.205 -0.458,0.458 l 0,4.583 c 0,0.253 0.205,0.458 0.458,0.458 0.253,0 0.458,-0.205 0.458,-0.458 l 0,-4.583 z m 1.833,0 c 0,-0.253 -0.205,-0.458 -0.458,-0.458 -0.253,0 -0.458,0.205 -0.458,0.458 l 0,4.583 c 0,0.253 0.205,0.458 0.458,0.458 0.253,0 0.458,-0.205 0.458,-0.458 l 0,-4.583 z m 1.834,0 c 0,-0.253 -0.205,-0.458 -0.458,-0.458 -0.253,0 -0.459,0.205 -0.459,0.458 l 0,4.583 c 0,0.253 0.205,0.458 0.458,0.458 0.253,0 0.458,-0.205 0.458,-0.458 l 10e-4,-4.583 0,0 z m 1.833,0 c 0,-0.253 -0.205,-0.458 -0.458,-0.458 -0.253,0 -0.458,0.205 -0.458,0.458 l 0,4.583 c 0,0.253 0.205,0.458 0.458,0.458 0.253,0 0.458,-0.205 0.458,-0.458 l 0,-4.583 z m 1.833,0 c 0,-0.253 -0.205,-0.458 -0.458,-0.458 -0.253,0 -0.458,0.205 -0.458,0.458 l 0,4.583 c 0,0.253 0.205,0.458 0.458,0.458 0.253,0 0.458,-0.205 0.458,-0.458 l 0,-4.583 z m 1.834,0 c 0,-0.253 -0.205,-0.458 -0.458,-0.458 -0.253,0 -0.459,0.205 -0.459,0.458 l 0,4.583 c 0,0.253 0.205,0.458 0.458,0.458 0.253,0 0.458,-0.205 0.458,-0.458 l 10e-4,-4.583 0,0 z m 8.402,2.292 c 0,-1.603 -1.299,-2.902 -2.902,-2.902 -1.603,0 -2.902,1.299 -2.902,2.902 0,1.603 1.299,2.902 2.902,2.902 1.603,0 2.902,-1.299 2.902,-2.902 z"
       id="path3389"
       inkscape:connector-curvature="0"
       style="fill:#f2f2f2;fill-opacity:1" /></g><g
     id="g3391"
     transform="translate(0,-20.29614)" /><g
     id="g3393"
     transform="translate(0,-20.29614)" /><g
     id="g3395"
     transform="translate(0,-20.29614)" /><g
     id="g3397"
     transform="translate(0,-20.29614)" /><g
     id="g3399"
     transform="translate(0,-20.29614)" /><g
     id="g3401"
     transform="translate(0,-20.29614)" /><g
     id="g3403"
     transform="translate(0,-20.29614)" /><g
     id="g3405"
     transform="translate(0,-20.29614)" /><g
     id="g3407"
     transform="translate(0,-20.29614)" /><g
     id="g3409"
     transform="translate(0,-20.29614)" /><g
     id="g3411"
     transform="translate(0,-20.29614)" /><g
     id="g3413"
     transform="translate(0,-20.29614)" /><g
     id="g3415"
     transform="translate(0,-20.29614)" /><g
     id="g3417"
     transform="translate(0,-20.29614)" /><g
     id="g3419"
     transform="translate(0,-20.29614)" /></svg>