<?xml version="1.0" encoding="UTF-8" standalone="no"?>
<!-- Generator: Adobe Illustrator 16.0.0, SVG Export Plug-In . SVG Version: 6.00 Build 0)  -->

<svg
   xmlns:dc="http://purl.org/dc/elements/1.1/"
   xmlns:cc="http://creativecommons.org/ns#"
   xmlns:rdf="http://www.w3.org/1999/02/22-rdf-syntax-ns#"
   xmlns:svg="http://www.w3.org/2000/svg"
   xmlns="http://www.w3.org/2000/svg"
   xmlns:sodipodi="http://sodipodi.sourceforge.net/DTD/sodipodi-0.dtd"
   xmlns:inkscape="http://www.inkscape.org/namespaces/inkscape"
   version="1.1"
   id="Capa_1"
   x="0px"
   y="0px"
   width="76"
   height="76"
   viewBox="0 0 86.604078 86.604078"
   xml:space="preserve"
   inkscape:version="0.91 r13725"
   sodipodi:docname="76x76_hover_icon_browser.svg"><metadata
     id="metadata5380"><rdf:RDF><cc:Work
         rdf:about=""><dc:format>image/svg+xml</dc:format><dc:type
           rdf:resource="http://purl.org/dc/dcmitype/StillImage" /><dc:title></dc:title></cc:Work></rdf:RDF></metadata><defs
     id="defs5378" /><sodipodi:namedview
     pagecolor="#ffffff"
     bordercolor="#666666"
     borderopacity="1"
     objecttolerance="10"
     gridtolerance="10"
     guidetolerance="10"
     inkscape:pageopacity="0"
     inkscape:pageshadow="2"
     inkscape:window-width="1366"
     inkscape:window-height="705"
     id="namedview5376"
     showgrid="true"
     showguides="true"
     inkscape:guide-bbox="true"
     inkscape:zoom="2.6074563"
     inkscape:cx="-35.432508"
     inkscape:cy="48.962201"
     inkscape:window-x="1432"
     inkscape:window-y="345"
     inkscape:window-maximized="1"
     inkscape:current-layer="Capa_1"><inkscape:grid
       type="xygrid"
       id="grid5922" /><sodipodi:guide
       position="43.59175,86.604078"
       orientation="0,1"
       id="guide5924" /><sodipodi:guide
       position="0,56.976367"
       orientation="1,0"
       id="guide5926" /><sodipodi:guide
       position="86.604078,58.115894"
       orientation="1,0"
       id="guide5928" /><sodipodi:guide
       position="21.65102,0"
       orientation="0,1"
       id="guide5930" /></sodipodi:namedview><rect
     style="fill:#015cac;fill-opacity:1;stroke:none"
     id="rect5932"
     width="96.859833"
     height="96.859833"
     x="-5.6976371"
     y="-4.5581098" /><g
     id="g5308"
     transform="matrix(0.14459743,0,0,0.14459743,1.0815846,1.31339)"><g
       id="g5310"
       style="fill:#f2f2f2;fill-opacity:1"><path
         d="M 291.719,0 C 130.606,0 0,130.606 0,291.719 0,452.832 130.606,583.438 291.719,583.438 452.832,583.438 583.438,452.832 583.438,291.719 583.438,130.606 452.831,0 291.719,0 Z m 0,531.356 c -132.14,0 -239.638,-107.501 -239.638,-239.638 0,-132.137 107.498,-239.637 239.638,-239.637 132.14,0 239.638,107.498 239.638,239.638 -10e-4,132.139 -107.499,239.637 -239.638,239.637 z"
         id="path5312"
         inkscape:connector-curvature="0"
         style="fill:#f2f2f2;fill-opacity:1" /><path
         d="m 167.96,221.439 -60.019,0 c -5.93,15.457 -9.982,31.827 -11.836,48.859 l 66.91,0 c 0.765,-16.713 2.436,-33.069 4.945,-48.859 z"
         id="path5314"
         inkscape:connector-curvature="0"
         style="fill:#f2f2f2;fill-opacity:1" /><path
         d="m 130.824,178.6 46.423,0 c 5.116,-18.28 11.475,-35.34 19.049,-50.673 1.977,-4.002 4.042,-7.8 6.145,-11.506 -28.627,14.641 -53.208,36.074 -71.617,62.179 z"
         id="path5316"
         inkscape:connector-curvature="0"
         style="fill:#f2f2f2;fill-opacity:1" /><path
         d="m 415.478,361.998 60.019,0 c 5.931,-15.456 9.981,-31.827 11.833,-48.859 l -66.907,0 c -0.766,16.714 -2.437,33.069 -4.945,48.859 z"
         id="path5318"
         inkscape:connector-curvature="0"
         style="fill:#f2f2f2;fill-opacity:1" /><path
         d="m 420.422,270.299 66.91,0 c -1.851,-17.032 -5.902,-33.403 -11.833,-48.859 l -60.019,0 c 2.506,15.789 4.177,32.145 4.942,48.859 z"
         id="path5320"
         inkscape:connector-curvature="0"
         style="fill:#f2f2f2;fill-opacity:1" /><path
         d="m 387.142,455.508 c -1.977,4.003 -4.042,7.801 -6.145,11.506 28.63,-14.639 53.208,-36.071 71.616,-62.176 l -46.423,0 c -5.116,18.277 -11.475,35.34 -19.048,50.67 z"
         id="path5322"
         inkscape:connector-curvature="0"
         style="fill:#f2f2f2;fill-opacity:1" /><path
         d="m 406.188,178.6 46.423,0 c -18.409,-26.104 -42.986,-47.537 -71.616,-62.176 2.103,3.706 4.168,7.503 6.145,11.505 7.575,15.331 13.934,32.393 19.048,50.671 z"
         id="path5324"
         inkscape:connector-curvature="0"
         style="fill:#f2f2f2;fill-opacity:1" /><path
         d="m 177.25,404.838 -46.427,0 c 18.409,26.104 42.987,47.537 71.617,62.176 -2.103,-3.705 -4.168,-7.503 -6.145,-11.506 -7.573,-15.33 -13.932,-32.393 -19.045,-50.67 z"
         id="path5326"
         inkscape:connector-curvature="0"
         style="fill:#f2f2f2;fill-opacity:1" /><path
         d="m 163.015,313.139 -66.91,0 c 1.852,17.032 5.903,33.403 11.833,48.859 l 60.019,0 c -2.506,-15.79 -4.177,-32.145 -4.942,-48.859 z"
         id="path5328"
         inkscape:connector-curvature="0"
         style="fill:#f2f2f2;fill-opacity:1" /><path
         d="m 313.139,102.032 0,76.568 48.428,0 c -12.228,-37.617 -29.919,-64.511 -48.428,-76.568 z"
         id="path5330"
         inkscape:connector-curvature="0"
         style="fill:#f2f2f2;fill-opacity:1" /><path
         d="m 221.871,178.6 48.428,0 0,-76.567 c -18.51,12.056 -36.2,38.95 -48.428,76.567 z"
         id="path5332"
         inkscape:connector-curvature="0"
         style="fill:#f2f2f2;fill-opacity:1" /><path
         d="m 211.311,361.998 58.988,0 0,-48.859 -64.419,0 c 0.853,17.256 2.726,33.595 5.431,48.859 z"
         id="path5334"
         inkscape:connector-curvature="0"
         style="fill:#f2f2f2;fill-opacity:1" /><path
         d="m 205.879,270.299 64.419,0 0,-48.859 -58.988,0 c -2.704,15.263 -4.577,31.603 -5.431,48.859 z"
         id="path5336"
         inkscape:connector-curvature="0"
         style="fill:#f2f2f2;fill-opacity:1" /><path
         d="m 313.139,221.439 0,48.859 64.419,0 c -0.854,-17.255 -2.729,-33.596 -5.432,-48.859 l -58.987,0 z"
         id="path5338"
         inkscape:connector-curvature="0"
         style="fill:#f2f2f2;fill-opacity:1" /><path
         d="m 313.139,361.998 58.987,0 c 2.702,-15.261 4.578,-31.601 5.432,-48.859 l -64.419,0 0,48.859 z"
         id="path5340"
         inkscape:connector-curvature="0"
         style="fill:#f2f2f2;fill-opacity:1" /><path
         d="m 270.299,481.405 0,-76.567 -48.428,0 c 12.228,37.616 29.918,64.511 48.428,76.567 z"
         id="path5342"
         inkscape:connector-curvature="0"
         style="fill:#f2f2f2;fill-opacity:1" /><path
         d="m 313.139,481.405 c 18.51,-12.054 36.2,-38.948 48.428,-76.567 l -48.428,0 0,76.567 z"
         id="path5344"
         inkscape:connector-curvature="0"
         style="fill:#f2f2f2;fill-opacity:1" /></g></g><g
     id="g5346"
     transform="translate(0,-496.8339)" /><g
     id="g5348"
     transform="translate(0,-496.8339)" /><g
     id="g5350"
     transform="translate(0,-496.8339)" /><g
     id="g5352"
     transform="translate(0,-496.8339)" /><g
     id="g5354"
     transform="translate(0,-496.8339)" /><g
     id="g5356"
     transform="translate(0,-496.8339)" /><g
     id="g5358"
     transform="translate(0,-496.8339)" /><g
     id="g5360"
     transform="translate(0,-496.8339)" /><g
     id="g5362"
     transform="translate(0,-496.8339)" /><g
     id="g5364"
     transform="translate(0,-496.8339)" /><g
     id="g5366"
     transform="translate(0,-496.8339)" /><g
     id="g5368"
     transform="translate(0,-496.8339)" /><g
     id="g5370"
     transform="translate(0,-496.8339)" /><g
     id="g5372"
     transform="translate(0,-496.8339)" /><g
     id="g5374"
     transform="translate(0,-496.8339)" /></svg>