<?xml version="1.0" encoding="UTF-8" standalone="no"?>
<!-- Generator: Adobe Illustrator 18.0.0, SVG Export Plug-In . SVG Version: 6.00 Build 0)  -->

<svg
   xmlns:dc="http://purl.org/dc/elements/1.1/"
   xmlns:cc="http://creativecommons.org/ns#"
   xmlns:rdf="http://www.w3.org/1999/02/22-rdf-syntax-ns#"
   xmlns:svg="http://www.w3.org/2000/svg"
   xmlns="http://www.w3.org/2000/svg"
   xmlns:sodipodi="http://sodipodi.sourceforge.net/DTD/sodipodi-0.dtd"
   xmlns:inkscape="http://www.inkscape.org/namespaces/inkscape"
   version="1.1"
   id="Capa_1"
   x="0px"
   y="0px"
   viewBox="0 0 48.984375 48.984375"
   xml:space="preserve"
   width="76"
   height="76"
   inkscape:version="0.91 r13725"
   sodipodi:docname="76x76_dark_icon_info.svg"><metadata
     id="metadata6041"><rdf:RDF><cc:Work
         rdf:about=""><dc:format>image/svg+xml</dc:format><dc:type
           rdf:resource="http://purl.org/dc/dcmitype/StillImage" /><dc:title></dc:title></cc:Work></rdf:RDF></metadata><defs
     id="defs6039" /><sodipodi:namedview
     pagecolor="#ffffff"
     bordercolor="#666666"
     borderopacity="1"
     objecttolerance="10"
     gridtolerance="10"
     guidetolerance="10"
     inkscape:pageopacity="0"
     inkscape:pageshadow="2"
     inkscape:window-width="1366"
     inkscape:window-height="705"
     id="namedview6037"
     showgrid="true"
     showguides="true"
     inkscape:guide-bbox="true"
     inkscape:zoom="3.6875"
     inkscape:cx="-19.12204"
     inkscape:cy="24.37738"
     inkscape:window-x="1432"
     inkscape:window-y="333"
     inkscape:window-maximized="1"
     inkscape:current-layer="Capa_1"><inkscape:grid
       type="xygrid"
       id="grid6583" /><sodipodi:guide
       position="16.757812,48.984375"
       orientation="0,1"
       id="guide6585" /><sodipodi:guide
       position="0,45.117188"
       orientation="1,0"
       id="guide6587" /><sodipodi:guide
       position="48.984375,40.605469"
       orientation="1,0"
       id="guide6589" /><sodipodi:guide
       position="24.492188,0"
       orientation="0,1"
       id="guide6591" /></sodipodi:namedview><rect
     style="fill:#666666;fill-opacity:1;stroke:none"
     id="rect6593"
     width="54.785156"
     height="54.785156"
     x="-3.2226562"
     y="-2.578125" /><g
     id="g5999"
     transform="matrix(0.14406777,0,0,0.14406777,0.62675176,0.84524114)"><path
       d="M 165,0 C 74.019,0 0,74.02 0,165.001 0,255.982 74.019,330 165,330 255.981,330 330,255.982 330,165.001 330,74.02 255.981,0 165,0 Z m 0,300 C 90.56,300 30,239.44 30,165.001 30,90.562 90.56,30 165,30 239.44,30 300,90.562 300,165.001 300,239.44 239.439,300 165,300 Z"
       id="path6001"
       inkscape:connector-curvature="0"
       style="fill:#f2f2f2;fill-opacity:1" /><path
       d="m 164.998,70 c -11.026,0 -19.996,8.976 -19.996,20.009 0,11.023 8.97,19.991 19.996,19.991 11.026,0 19.996,-8.968 19.996,-19.991 C 184.994,78.976 176.024,70 164.998,70 Z"
       id="path6003"
       inkscape:connector-curvature="0"
       style="fill:#ffffff" /><path
       d="m 165,140 c -8.284,0 -15,6.716 -15,15 l 0,90 c 0,8.284 6.716,15 15,15 8.284,0 15,-6.716 15,-15 l 0,-90 c 0,-8.284 -6.716,-15 -15,-15 z"
       id="path6005"
       inkscape:connector-curvature="0"
       style="fill:#ffffff" /></g><g
     id="g6007"
     transform="translate(0,-281.01563)" /><g
     id="g6009"
     transform="translate(0,-281.01563)" /><g
     id="g6011"
     transform="translate(0,-281.01563)" /><g
     id="g6013"
     transform="translate(0,-281.01563)" /><g
     id="g6015"
     transform="translate(0,-281.01563)" /><g
     id="g6017"
     transform="translate(0,-281.01563)" /><g
     id="g6019"
     transform="translate(0,-281.01563)" /><g
     id="g6021"
     transform="translate(0,-281.01563)" /><g
     id="g6023"
     transform="translate(0,-281.01563)" /><g
     id="g6025"
     transform="translate(0,-281.01563)" /><g
     id="g6027"
     transform="translate(0,-281.01563)" /><g
     id="g6029"
     transform="translate(0,-281.01563)" /><g
     id="g6031"
     transform="translate(0,-281.01563)" /><g
     id="g6033"
     transform="translate(0,-281.01563)" /><g
     id="g6035"
     transform="translate(0,-281.01563)" /></svg>