<?xml version="1.0" encoding="UTF-8" standalone="no"?>
<!-- Generator: Adobe Illustrator 19.0.0, SVG Export Plug-In . SVG Version: 6.00 Build 0)  -->

<svg
   xmlns:dc="http://purl.org/dc/elements/1.1/"
   xmlns:cc="http://creativecommons.org/ns#"
   xmlns:rdf="http://www.w3.org/1999/02/22-rdf-syntax-ns#"
   xmlns:svg="http://www.w3.org/2000/svg"
   xmlns="http://www.w3.org/2000/svg"
   xmlns:sodipodi="http://sodipodi.sourceforge.net/DTD/sodipodi-0.dtd"
   xmlns:inkscape="http://www.inkscape.org/namespaces/inkscape"
   version="1.1"
   id="Layer_1"
   x="0px"
   y="0px"
   viewBox="0 0 76 76"
   xml:space="preserve"
   width="76"
   height="76"
   inkscape:version="0.91 r13725"
   sodipodi:docname="76x76_icon_stats.svg"><metadata
     id="metadata4201"><rdf:RDF><cc:Work
         rdf:about=""><dc:format>image/svg+xml</dc:format><dc:type
           rdf:resource="http://purl.org/dc/dcmitype/StillImage" /><dc:title></dc:title></cc:Work></rdf:RDF></metadata><defs
     id="defs4199" /><sodipodi:namedview
     pagecolor="#ffffff"
     bordercolor="#666666"
     borderopacity="1"
     objecttolerance="10"
     gridtolerance="10"
     guidetolerance="10"
     inkscape:pageopacity="0"
     inkscape:pageshadow="2"
     inkscape:window-width="1366"
     inkscape:window-height="705"
     id="namedview4197"
     showgrid="true"
     showguides="true"
     inkscape:guide-bbox="true"
     inkscape:zoom="5.9220193"
     inkscape:cx="40.435098"
     inkscape:cy="43.952881"
     inkscape:window-x="1432"
     inkscape:window-y="345"
     inkscape:window-maximized="1"
     inkscape:current-layer="Layer_1"><inkscape:grid
       type="xygrid"
       id="grid5355" /><sodipodi:guide
       position="17,76"
       orientation="0,1"
       id="guide5357" /><sodipodi:guide
       position="75,82.066602"
       orientation="1,0"
       id="guide5359" /><sodipodi:guide
       position="0,65"
       orientation="1,0"
       id="guide5361" /><sodipodi:guide
       position="31,0"
       orientation="0,1"
       id="guide5363" /></sodipodi:namedview><rect
     style="fill:#0273d8;fill-opacity:1;stroke:none"
     id="rect5367"
     width="85"
     height="85"
     x="-5"
     y="-4" /><g
     id="g4137"
     transform="matrix(0.14115644,0,0,0.14115644,1.8640921,2.6240442)"
     style="fill:#f2f2f2;fill-opacity:1"><g
       id="g4139"
       style="fill:#f2f2f2;fill-opacity:1"><g
         id="g4141"
         style="fill:#f2f2f2;fill-opacity:1"><path
           d="m 508.402,449.374 -39.104,-33.89 c -4.353,-3.771 -10.937,-3.302 -14.709,1.051 -3.772,4.352 -3.301,10.938 1.05,14.709 l 17.979,15.582 -69.197,0 0,-2.086 c 0,-5.759 -4.67,-10.428 -10.428,-10.428 -5.758,0 -10.428,4.668 -10.428,10.428 l 0,2.086 -52.138,0 0,-2.086 c 0,-5.759 -4.67,-10.428 -10.428,-10.428 -5.758,0 -10.428,4.668 -10.428,10.428 l 0,2.086 -52.138,0 0,-2.086 c 0,-5.759 -4.67,-10.428 -10.428,-10.428 -5.758,0 -10.428,4.668 -10.428,10.428 l 0,2.086 -52.137,0 0,-2.086 c 0,-5.759 -4.67,-10.428 -10.428,-10.428 -5.758,0 -10.428,4.668 -10.428,10.428 l 0,2.086 -52.138,0 0,-2.086 c 0,-5.759 -4.67,-10.428 -10.428,-10.428 -5.758,0 -10.428,4.668 -10.428,10.428 l 0,2.086 -31.631,0 0,-267.553 39.883,-62.467 64.903,163.491 c -0.099,0.577 -0.162,1.167 -0.162,1.772 l 0,12.513 c 0,5.759 4.67,10.428 10.428,10.428 5.758,0 10.428,-4.668 10.428,-10.428 l 0,-12.513 c 0,-0.328 -0.02,-0.652 -0.049,-0.972 l 59.514,-90.406 65.892,197.675 c -0.146,0.694 -0.224,1.414 -0.224,2.151 l 0,12.513 c 0,5.759 4.67,10.428 10.428,10.428 5.758,0 10.428,-4.669 10.428,-10.428 l 0,-12.513 c 0,-0.064 -0.008,-0.126 -0.009,-0.19 l 52.148,-52.149 0,10.629 c 0,5.759 4.67,10.428 10.428,10.428 5.758,0 10.428,-4.669 10.428,-10.428 l 0,-12.513 c 0,-0.991 -0.147,-1.946 -0.406,-2.854 l 56.754,42.159 c 4.624,3.433 11.154,2.471 14.588,-2.152 3.435,-4.624 2.47,-11.155 -2.152,-14.589 l -72.994,-54.224 c -4.149,-3.084 -9.932,-2.66 -13.591,0.997 L 325.558,366.695 257.9,163.72 c -1.264,-3.788 -4.58,-6.524 -8.538,-7.042 -3.966,-0.517 -7.869,1.27 -10.064,4.606 L 177.317,255.438 111.71,90.176 c -1.445,-3.638 -4.804,-6.162 -8.702,-6.533 -3.898,-0.38 -7.674,1.47 -9.78,4.769 l -33.268,52.107 0,-93.796 15.582,17.979 c 2.063,2.38 4.965,3.599 7.884,3.599 2.42,0 4.852,-0.838 6.825,-2.547 4.353,-3.772 4.823,-10.358 1.051,-14.709 L 57.412,11.941 C 56.928,11.383 56.567,11.03 56.294,10.841 55.386,10.066 54.34,9.434 53.177,9 49.099,7.48 44.504,8.651 41.652,11.941 L 7.762,51.045 C 3.99,55.396 4.46,61.982 8.811,65.754 c 4.353,3.771 10.937,3.302 14.709,-1.051 l 15.583,-17.979 0,400.104 -28.675,0 C 4.669,446.827 0,451.495 0,457.254 c 0,5.759 4.669,10.428 10.428,10.428 l 28.676,0 0,25.548 c 0,5.759 4.669,10.428 10.428,10.428 5.759,0 10.428,-4.668 10.428,-10.428 l 0,-25.548 413.659,0 -17.979,15.582 c -4.353,3.772 -4.823,10.358 -1.051,14.709 2.063,2.38 4.965,3.599 7.884,3.599 2.42,0 4.852,-0.838 6.825,-2.547 l 39.104,-33.89 c 0.034,-0.03 0.056,-0.057 0.09,-0.088 1.247,-1.107 2.242,-2.514 2.851,-4.148 1.52,-4.079 0.348,-8.674 -2.941,-11.525 z"
           id="path4143"
           inkscape:connector-curvature="0"
           style="fill:#f2f2f2;fill-opacity:1" /><path
           d="m 393.993,380.09 c -5.758,0 -10.428,4.668 -10.428,10.428 l 0,12.513 c 0,5.759 4.67,10.428 10.428,10.428 5.758,0 10.428,-4.668 10.428,-10.428 l 0,-12.513 c 0,-5.76 -4.67,-10.428 -10.428,-10.428 z"
           id="path4145"
           inkscape:connector-curvature="0"
           style="fill:#f2f2f2;fill-opacity:1" /><path
           d="m 248.005,380.09 c -5.758,0 -10.428,4.668 -10.428,10.428 l 0,12.513 c 0,5.759 4.669,10.428 10.428,10.428 5.759,0 10.428,-4.668 10.428,-10.428 l 0,-12.513 c 0,-5.76 -4.67,-10.428 -10.428,-10.428 z"
           id="path4147"
           inkscape:connector-curvature="0"
           style="fill:#f2f2f2;fill-opacity:1" /><path
           d="m 258.433,282.069 c 0,-5.759 -4.67,-10.428 -10.428,-10.428 -5.758,0 -10.428,4.669 -10.428,10.428 l 0,12.513 c 0,5.759 4.669,10.428 10.428,10.428 5.759,0 10.428,-4.668 10.428,-10.428 l 0,-12.513 z"
           id="path4149"
           inkscape:connector-curvature="0"
           style="fill:#f2f2f2;fill-opacity:1" /><path
           d="m 258.433,336.293 c 0,-5.759 -4.67,-10.428 -10.428,-10.428 -5.758,0 -10.428,4.668 -10.428,10.428 l 0,12.513 c 0,5.759 4.669,10.428 10.428,10.428 5.759,0 10.428,-4.669 10.428,-10.428 l 0,-12.513 z"
           id="path4151"
           inkscape:connector-curvature="0"
           style="fill:#f2f2f2;fill-opacity:1" /><path
           d="m 185.439,336.293 c 0,-5.759 -4.67,-10.428 -10.428,-10.428 -5.758,0 -10.428,4.668 -10.428,10.428 l 0,12.513 c 0,5.759 4.669,10.428 10.428,10.428 5.759,0 10.428,-4.669 10.428,-10.428 l 0,-12.513 z"
           id="path4153"
           inkscape:connector-curvature="0"
           style="fill:#f2f2f2;fill-opacity:1" /><path
           d="m 175.011,380.09 c -5.758,0 -10.428,4.668 -10.428,10.428 l 0,12.513 c 0,5.759 4.669,10.428 10.428,10.428 5.759,0 10.428,-4.668 10.428,-10.428 l 0,-12.513 c 0,-5.76 -4.67,-10.428 -10.428,-10.428 z"
           id="path4155"
           inkscape:connector-curvature="0"
           style="fill:#f2f2f2;fill-opacity:1" /><path
           d="m 102.017,380.09 c -5.758,0 -10.428,4.668 -10.428,10.428 l 0,12.513 c 0,5.759 4.67,10.428 10.428,10.428 5.758,0 10.428,-4.668 10.428,-10.428 l 0,-12.513 c 0,-5.76 -4.669,-10.428 -10.428,-10.428 z"
           id="path4157"
           inkscape:connector-curvature="0"
           style="fill:#f2f2f2;fill-opacity:1" /><path
           d="m 112.445,227.845 c 0,-5.759 -4.669,-10.428 -10.428,-10.428 -5.759,0 -10.428,4.668 -10.428,10.428 l 0,12.513 c 0,5.759 4.67,10.428 10.428,10.428 5.758,0 10.428,-4.668 10.428,-10.428 l 0,-12.513 z"
           id="path4159"
           inkscape:connector-curvature="0"
           style="fill:#f2f2f2;fill-opacity:1" /><path
           d="m 112.445,336.293 c 0,-5.759 -4.669,-10.428 -10.428,-10.428 -5.759,0 -10.428,4.668 -10.428,10.428 l 0,12.513 c 0,5.759 4.67,10.428 10.428,10.428 5.758,0 10.428,-4.669 10.428,-10.428 l 0,-12.513 z"
           id="path4161"
           inkscape:connector-curvature="0"
           style="fill:#f2f2f2;fill-opacity:1" /><path
           d="m 112.445,173.621 c 0,-5.759 -4.669,-10.428 -10.428,-10.428 -5.759,0 -10.428,4.669 -10.428,10.428 l 0,12.513 c 0,5.759 4.67,10.428 10.428,10.428 5.758,0 10.428,-4.669 10.428,-10.428 l 0,-12.513 z"
           id="path4163"
           inkscape:connector-curvature="0"
           style="fill:#f2f2f2;fill-opacity:1" /><path
           d="m 112.445,282.069 c 0,-5.759 -4.669,-10.428 -10.428,-10.428 -5.759,0 -10.427,4.669 -10.427,10.428 l 0,12.513 c 0,5.759 4.67,10.428 10.428,10.428 5.758,0 10.428,-4.668 10.428,-10.428 l 0,-12.513 z"
           id="path4165"
           inkscape:connector-curvature="0"
           style="fill:#f2f2f2;fill-opacity:1" /></g></g></g><g
     id="g4167"
     transform="translate(0,-436)" /><g
     id="g4169"
     transform="translate(0,-436)" /><g
     id="g4171"
     transform="translate(0,-436)" /><g
     id="g4173"
     transform="translate(0,-436)" /><g
     id="g4175"
     transform="translate(0,-436)" /><g
     id="g4177"
     transform="translate(0,-436)" /><g
     id="g4179"
     transform="translate(0,-436)" /><g
     id="g4181"
     transform="translate(0,-436)" /><g
     id="g4183"
     transform="translate(0,-436)" /><g
     id="g4185"
     transform="translate(0,-436)" /><g
     id="g4187"
     transform="translate(0,-436)" /><g
     id="g4189"
     transform="translate(0,-436)" /><g
     id="g4191"
     transform="translate(0,-436)" /><g
     id="g4193"
     transform="translate(0,-436)" /><g
     id="g4195"
     transform="translate(0,-436)" /></svg>