<?xml version="1.0" encoding="UTF-8" standalone="no"?>
<!-- Generator: Adobe Illustrator 16.0.0, SVG Export Plug-In . SVG Version: 6.00 Build 0)  -->

<svg
   xmlns:dc="http://purl.org/dc/elements/1.1/"
   xmlns:cc="http://creativecommons.org/ns#"
   xmlns:rdf="http://www.w3.org/1999/02/22-rdf-syntax-ns#"
   xmlns:svg="http://www.w3.org/2000/svg"
   xmlns="http://www.w3.org/2000/svg"
   xmlns:sodipodi="http://sodipodi.sourceforge.net/DTD/sodipodi-0.dtd"
   xmlns:inkscape="http://www.inkscape.org/namespaces/inkscape"
   version="1.1"
   id="Capa_1"
   x="0px"
   y="0px"
   width="76"
   height="76"
   viewBox="0 0 75.944484 75.944633"
   xml:space="preserve"
   inkscape:version="0.91 r13725"
   sodipodi:docname="76x76_dark_hover_icon_youtube.svg"><metadata
     id="metadata4175"><rdf:RDF><cc:Work
         rdf:about=""><dc:format>image/svg+xml</dc:format><dc:type
           rdf:resource="http://purl.org/dc/dcmitype/StillImage" /><dc:title></dc:title></cc:Work></rdf:RDF></metadata><defs
     id="defs4173" /><sodipodi:namedview
     pagecolor="#ffffff"
     bordercolor="#666666"
     borderopacity="1"
     objecttolerance="10"
     gridtolerance="10"
     guidetolerance="10"
     inkscape:pageopacity="0"
     inkscape:pageshadow="2"
     inkscape:window-width="1366"
     inkscape:window-height="705"
     id="namedview4171"
     showgrid="true"
     showguides="true"
     inkscape:guide-bbox="true"
     inkscape:zoom="5.9220193"
     inkscape:cx="6.6067117"
     inkscape:cy="39.442261"
     inkscape:window-x="1432"
     inkscape:window-y="333"
     inkscape:window-maximized="1"
     inkscape:current-layer="Capa_1"><inkscape:grid
       type="xygrid"
       id="grid4179" /><sodipodi:guide
       position="21.98393,75.944633"
       orientation="0,1"
       id="guide4181" /><sodipodi:guide
       position="0,54.959932"
       orientation="1,0"
       id="guide4183" /><sodipodi:guide
       position="75.944484,66.95119"
       orientation="1,0"
       id="guide4185" /><sodipodi:guide
       position="35.973703,0"
       orientation="0,1"
       id="guide4187" /></sodipodi:namedview><rect
     style="fill:#808080;fill-opacity:1;stroke:none"
     id="rect4189"
     width="82.810265"
     height="82.784714"
     x="-2.8686273"
     y="-1.8437248" /><g
     id="g4137"
     transform="matrix(0.14777639,0,0,0.14777639,0.06327214,0.33735912)"><path
       d="m 511.339,212.987 c -0.186,-10.277 -1,-23.271 -2.423,-38.97 -1.431,-15.708 -3.478,-29.746 -6.14,-42.115 -3.046,-13.893 -9.661,-25.6 -19.842,-35.117 C 472.753,87.266 460.903,81.748 447.385,80.223 405.127,75.468 341.27,73.088 255.812,73.088 170.353,73.088 106.495,75.468 64.24,80.223 50.724,81.747 38.921,87.266 28.836,96.785 18.747,106.299 12.18,118.006 9.134,131.902 6.282,144.275 4.138,158.312 2.711,174.017 1.286,189.716 0.476,202.705 0.287,212.987 0.094,223.265 0,237.539 0,255.813 c 0,18.272 0.094,32.55 0.288,42.826 0.189,10.284 0.999,23.271 2.424,38.969 1.427,15.707 3.474,29.745 6.139,42.116 3.046,13.897 9.659,25.602 19.842,35.115 10.185,9.517 22.036,15.036 35.548,16.56 42.255,4.76 106.109,7.139 191.572,7.139 85.466,0 149.315,-2.379 191.573,-7.139 13.518,-1.523 25.316,-7.043 35.405,-16.56 10.089,-9.514 16.652,-21.225 19.698,-35.115 2.854,-12.371 4.996,-26.409 6.427,-42.116 1.423,-15.697 2.231,-28.691 2.423,-38.969 0.191,-10.276 0.287,-24.554 0.287,-42.826 0,-18.274 -0.095,-32.548 -0.287,-42.826 z M 356.883,271.231 210.706,362.59 c -2.666,1.903 -5.905,2.854 -9.71,2.854 -2.853,0 -5.803,-0.764 -8.848,-2.286 -6.28,-3.422 -9.419,-8.754 -9.419,-15.985 l 0,-182.719 c 0,-7.229 3.14,-12.561 9.419,-15.986 6.473,-3.431 12.657,-3.239 18.558,0.571 l 146.178,91.36 c 5.708,3.23 8.562,8.372 8.562,15.415 0,7.04 -2.855,12.184 -8.563,15.417 z"
       id="path4139"
       inkscape:connector-curvature="0"
       style="fill:#f2f2f2;fill-opacity:1" /></g><g
     id="g4141"
     transform="translate(0,-435.6824)" /><g
     id="g4143"
     transform="translate(0,-435.6824)" /><g
     id="g4145"
     transform="translate(0,-435.6824)" /><g
     id="g4147"
     transform="translate(0,-435.6824)" /><g
     id="g4149"
     transform="translate(0,-435.6824)" /><g
     id="g4151"
     transform="translate(0,-435.6824)" /><g
     id="g4153"
     transform="translate(0,-435.6824)" /><g
     id="g4155"
     transform="translate(0,-435.6824)" /><g
     id="g4157"
     transform="translate(0,-435.6824)" /><g
     id="g4159"
     transform="translate(0,-435.6824)" /><g
     id="g4161"
     transform="translate(0,-435.6824)" /><g
     id="g4163"
     transform="translate(0,-435.6824)" /><g
     id="g4165"
     transform="translate(0,-435.6824)" /><g
     id="g4167"
     transform="translate(0,-435.6824)" /><g
     id="g4169"
     transform="translate(0,-435.6824)" /></svg>