<?xml version="1.0" encoding="UTF-8" standalone="no"?>
<!-- Generator: Adobe Illustrator 19.0.0, SVG Export Plug-In . SVG Version: 6.00 Build 0)  -->

<svg
   xmlns:dc="http://purl.org/dc/elements/1.1/"
   xmlns:cc="http://creativecommons.org/ns#"
   xmlns:rdf="http://www.w3.org/1999/02/22-rdf-syntax-ns#"
   xmlns:svg="http://www.w3.org/2000/svg"
   xmlns="http://www.w3.org/2000/svg"
   xmlns:sodipodi="http://sodipodi.sourceforge.net/DTD/sodipodi-0.dtd"
   xmlns:inkscape="http://www.inkscape.org/namespaces/inkscape"
   version="1.1"
   id="Capa_1"
   x="0px"
   y="0px"
   viewBox="0 0 8.90625 8.90625"
   xml:space="preserve"
   width="76"
   height="76"
   inkscape:version="0.91 r13725"
   sodipodi:docname="76x76_hover_icon_navi.svg"><metadata
     id="metadata6559"><rdf:RDF><cc:Work
         rdf:about=""><dc:format>image/svg+xml</dc:format><dc:type
           rdf:resource="http://purl.org/dc/dcmitype/StillImage" /><dc:title></dc:title></cc:Work></rdf:RDF></metadata><defs
     id="defs6557" /><sodipodi:namedview
     pagecolor="#ffffff"
     bordercolor="#666666"
     borderopacity="1"
     objecttolerance="10"
     gridtolerance="10"
     guidetolerance="10"
     inkscape:pageopacity="0"
     inkscape:pageshadow="2"
     inkscape:window-width="1366"
     inkscape:window-height="705"
     id="namedview6555"
     showgrid="true"
     showguides="true"
     inkscape:guide-bbox="true"
     inkscape:zoom="3.6875"
     inkscape:cx="-5.2537883"
     inkscape:cy="46.853923"
     inkscape:window-x="1432"
     inkscape:window-y="345"
     inkscape:window-maximized="1"
     inkscape:current-layer="Capa_1"><inkscape:grid
       type="xygrid"
       id="grid7101" /><sodipodi:guide
       position="2.2265625,8.90625"
       orientation="0,1"
       id="guide7103" /><sodipodi:guide
       position="0,7.734375"
       orientation="1,0"
       id="guide7105" /><sodipodi:guide
       position="8.90625,7.03125"
       orientation="1,0"
       id="guide7107" /><sodipodi:guide
       position="3.1640625,0"
       orientation="0,1"
       id="guide7109" /></sodipodi:namedview><rect
     style="fill:#015cac;fill-opacity:1;stroke:none"
     id="rect7111"
     width="9.9609365"
     height="9.9609365"
     x="-0.58593744"
     y="-0.46874997" /><g
     id="g6519"
     transform="matrix(0.14512716,0,0,0.14512716,0.07944957,0.08739479)"><path
       d="M 44.394,13.091 8.633,29.503 c -0.399,0.184 -0.632,0.605 -0.574,1.041 0.058,0.436 0.393,0.782 0.826,0.854 l 15.833,2.653 1.809,14.95 c 0.054,0.438 0.389,0.791 0.824,0.865 0.057,0.01 0.113,0.015 0.169,0.015 0.375,0 0.726,-0.211 0.896,-0.556 L 45.707,14.443 c 0.188,-0.38 0.117,-0.837 -0.178,-1.141 -0.295,-0.304 -0.753,-0.388 -1.135,-0.211 z M 28.11,45.438 26.614,33.069 C 26.56,32.629 26.223,32.276 25.786,32.203 L 12.424,29.964 42.66,16.087 28.11,45.438 Z"
       id="path6521"
       inkscape:connector-curvature="0"
       style="fill:#f2f2f2;fill-opacity:1" /><path
       d="M 30,0 C 13.458,0 0,13.458 0,30 0,46.542 13.458,60 30,60 46.542,60 60,46.542 60,30 60,13.458 46.542,0 30,0 Z m 0,58 C 14.561,58 2,45.439 2,30 2,14.561 14.561,2 30,2 45.439,2 58,14.561 58,30 58,45.439 45.439,58 30,58 Z"
       id="path6523"
       inkscape:connector-curvature="0"
       style="fill:#f2f2f2;fill-opacity:1" /></g><g
     id="g6525"
     transform="translate(0,-51.093747)" /><g
     id="g6527"
     transform="translate(0,-51.093747)" /><g
     id="g6529"
     transform="translate(0,-51.093747)" /><g
     id="g6531"
     transform="translate(0,-51.093747)" /><g
     id="g6533"
     transform="translate(0,-51.093747)" /><g
     id="g6535"
     transform="translate(0,-51.093747)" /><g
     id="g6537"
     transform="translate(0,-51.093747)" /><g
     id="g6539"
     transform="translate(0,-51.093747)" /><g
     id="g6541"
     transform="translate(0,-51.093747)" /><g
     id="g6543"
     transform="translate(0,-51.093747)" /><g
     id="g6545"
     transform="translate(0,-51.093747)" /><g
     id="g6547"
     transform="translate(0,-51.093747)" /><g
     id="g6549"
     transform="translate(0,-51.093747)" /><g
     id="g6551"
     transform="translate(0,-51.093747)" /><g
     id="g6553"
     transform="translate(0,-51.093747)" /></svg>