<?xml version="1.0" encoding="UTF-8" standalone="no"?>
<!-- Generator: Adobe Illustrator 19.0.0, SVG Export Plug-In . SVG Version: 6.00 Build 0)  -->

<svg
   xmlns:dc="http://purl.org/dc/elements/1.1/"
   xmlns:cc="http://creativecommons.org/ns#"
   xmlns:rdf="http://www.w3.org/1999/02/22-rdf-syntax-ns#"
   xmlns:svg="http://www.w3.org/2000/svg"
   xmlns="http://www.w3.org/2000/svg"
   xmlns:sodipodi="http://sodipodi.sourceforge.net/DTD/sodipodi-0.dtd"
   xmlns:inkscape="http://www.inkscape.org/namespaces/inkscape"
   version="1.1"
   id="Layer_1"
   x="0px"
   y="0px"
   viewBox="0 0 76 76"
   xml:space="preserve"
   width="76"
   height="76"
   inkscape:version="0.91 r13725"
   sodipodi:docname="76x76_dark_focused_icon_sensors.svg"><metadata
     id="metadata5428"><rdf:RDF><cc:Work
         rdf:about=""><dc:format>image/svg+xml</dc:format><dc:type
           rdf:resource="http://purl.org/dc/dcmitype/StillImage" /><dc:title></dc:title></cc:Work></rdf:RDF></metadata><defs
     id="defs5426" /><sodipodi:namedview
     pagecolor="#ffffff"
     bordercolor="#666666"
     borderopacity="1"
     objecttolerance="10"
     gridtolerance="10"
     guidetolerance="10"
     inkscape:pageopacity="0"
     inkscape:pageshadow="2"
     inkscape:window-width="1366"
     inkscape:window-height="705"
     id="namedview5424"
     showgrid="true"
     showguides="true"
     inkscape:guide-bbox="true"
     inkscape:zoom="5.2149125"
     inkscape:cx="32.983564"
     inkscape:cy="37.519665"
     inkscape:window-x="1432"
     inkscape:window-y="333"
     inkscape:window-maximized="1"
     inkscape:current-layer="Layer_1"><inkscape:grid
       type="xygrid"
       id="grid5970" /><sodipodi:guide
       position="37,76"
       orientation="0,1"
       id="guide5972" /><sodipodi:guide
       position="0,60"
       orientation="1,0"
       id="guide5974" /><sodipodi:guide
       position="76,53"
       orientation="1,0"
       id="guide5976" /><sodipodi:guide
       position="25,0"
       orientation="0,1"
       id="guide5978" /></sodipodi:namedview><rect
     style="fill:#4d4d4d;fill-opacity:1;stroke:none"
     id="rect5996"
     width="85"
     height="85"
     x="-5"
     y="-4" /><g
     id="g5982"
     transform="matrix(0.14458233,0,0,0.14458233,0.76658834,65.587462)"
     style="fill:#f2f2f2;fill-opacity:1"><g
       style="fill:#f2f2f2;fill-opacity:1"
       transform="translate(0,-436)"
       id="g5370"><g
         style="fill:#f2f2f2;fill-opacity:1"
         id="g5372"><path
           style="fill:#f2f2f2;fill-opacity:1"
           inkscape:connector-curvature="0"
           id="path5374"
           d="m 495.268,85.333 -478.536,0 C 7.491,85.333 0,92.825 0,102.065 l 0,161.743 c 0,9.241 7.492,16.732 16.732,16.732 l 182.365,0 0,63.582 -11.14,0 c -36.29,0 -65.813,29.523 -65.813,65.813 0,9.241 7.491,16.732 16.732,16.732 l 234.248,0 c 0.008,0 0.015,0 0.022,0 9.241,0 16.732,-7.491 16.732,-16.732 0,-0.339 -0.01,-0.675 -0.03,-1.008 -0.541,-35.827 -29.852,-64.804 -65.805,-64.804 l -11.14,0 0,-63.583 182.365,0 c 9.241,0 16.732,-7.491 16.732,-16.732 l 0,-161.743 c 0,-9.24 -7.492,-16.732 -16.732,-16.732 z M 324.044,377.586 c 11.717,0 22,6.263 27.677,15.617 l -191.442,0 c 5.675,-9.353 15.959,-15.617 27.677,-15.617 14.469,0 122.378,0 136.088,0 z m -91.482,-33.464 0,-63.582 46.878,0 0,63.582 -46.878,0 z m 245.974,-97.046 c -12.694,0 -437.771,0 -445.072,0 l 0,-128.279 445.072,0 0,128.279 z" /></g></g><g
       style="fill:#f2f2f2;fill-opacity:1"
       transform="translate(0,-436)"
       id="g5376"><g
         style="fill:#f2f2f2;fill-opacity:1"
         id="g5378"><path
           style="fill:#f2f2f2;fill-opacity:1"
           inkscape:connector-curvature="0"
           id="path5380"
           d="m 111.915,128.408 c -30.067,0 -54.529,24.461 -54.529,54.529 0,30.068 24.461,54.529 54.529,54.529 30.068,0 54.529,-24.461 54.529,-54.529 0,-30.068 -24.462,-54.529 -54.529,-54.529 z m 0,75.593 c -11.615,0 -21.064,-9.449 -21.064,-21.065 0,-11.616 9.449,-21.065 21.064,-21.065 11.615,0 21.065,9.449 21.065,21.065 -10e-4,11.616 -9.45,21.065 -21.065,21.065 z" /></g></g><g
       style="fill:#f2f2f2;fill-opacity:1"
       transform="translate(0,-436)"
       id="g5382"><g
         style="fill:#f2f2f2;fill-opacity:1"
         id="g5384"><path
           style="fill:#f2f2f2;fill-opacity:1"
           inkscape:connector-curvature="0"
           id="path5386"
           d="m 247.266,128.408 c -30.067,0 -54.527,24.461 -54.527,54.529 0,30.068 24.461,54.529 54.527,54.529 30.067,0 54.529,-24.461 54.529,-54.529 0,-30.068 -24.462,-54.529 -54.529,-54.529 z m 0,75.593 c -11.615,0 -21.065,-9.449 -21.065,-21.065 0,-11.615 9.45,-21.065 21.065,-21.065 11.615,0 21.065,9.449 21.065,21.065 -0.001,11.616 -9.45,21.065 -21.065,21.065 z" /></g></g><g
       style="fill:#f2f2f2;fill-opacity:1"
       transform="translate(0,-436)"
       id="g5388"><g
         style="fill:#f2f2f2;fill-opacity:1"
         id="g5390"><circle
           style="fill:#f2f2f2;fill-opacity:1"
           id="circle5392"
           r="23.548"
           cy="182.937"
           cx="408.819" /></g></g></g><g
     id="g5394"
     transform="translate(0,-436)" /><g
     id="g5396"
     transform="translate(0,-436)" /><g
     id="g5398"
     transform="translate(0,-436)" /><g
     id="g5400"
     transform="translate(0,-436)" /><g
     id="g5402"
     transform="translate(0,-436)" /><g
     id="g5404"
     transform="translate(0,-436)" /><g
     id="g5406"
     transform="translate(0,-436)" /><g
     id="g5408"
     transform="translate(0,-436)" /><g
     id="g5410"
     transform="translate(0,-436)" /><g
     id="g5412"
     transform="translate(0,-436)" /><g
     id="g5414"
     transform="translate(0,-436)" /><g
     id="g5416"
     transform="translate(0,-436)" /><g
     id="g5418"
     transform="translate(0,-436)" /><g
     id="g5420"
     transform="translate(0,-436)" /><g
     id="g5422"
     transform="translate(0,-436)" /></svg>